<svg width="27" height="25" viewBox="0 0 27 25" fill="none" xmlns="http://www.w3.org/2000/svg">
<path d="M24.9201 3.10296C24.2756 2.36423 23.4791 1.77337 22.5852 1.37076C21.6913 0.968155 20.721 0.763296 19.7407 0.770188C16.9089 0.770188 15.116 2.46157 14.1155 3.88056C13.871 4.22877 13.6478 4.59139 13.4469 4.96646C13.2465 4.59113 13.0232 4.22847 12.7783 3.88056C11.7629 2.46157 9.97249 0.770188 7.14072 0.770188C6.16036 0.763296 5.19008 0.968155 4.29618 1.37076C3.40228 1.77337 2.60585 2.36423 1.96131 3.10296C0.697109 4.53804 0 6.46593 0 8.51515C0 10.7513 0.872934 12.8328 2.74881 15.0628C4.4241 17.055 6.83489 19.1092 9.6258 21.4891C10.6671 22.3744 11.7419 23.2919 12.8872 24.2936L12.9219 24.3233C13.0654 24.4493 13.2498 24.5188 13.4407 24.5188C13.6316 24.5188 13.816 24.4493 13.9595 24.3233L13.9917 24.2961C15.137 23.2944 16.2118 22.3768 17.2531 21.4903C20.044 19.1117 22.4536 17.0575 24.1314 15.0653C26.006 12.8365 26.8789 10.7538 26.8789 8.51763C26.8814 6.46593 26.1855 4.53804 24.9201 3.10296ZM16.2341 20.2892C15.3364 21.0532 14.4139 21.8407 13.4407 22.6864C12.4675 21.8407 11.545 21.0532 10.6473 20.2892C5.18436 15.6286 1.575 12.5579 1.575 8.51515C1.575 6.84358 2.13219 5.29582 3.14256 4.14429C3.64032 3.57443 4.2552 3.11869 4.9452 2.8082C5.63521 2.4977 6.38409 2.33977 7.14072 2.34518C9.30015 2.34518 10.6956 3.67501 11.4868 4.79187C12.0015 5.52887 12.4073 6.33623 12.6916 7.18904C12.7429 7.34732 12.843 7.48528 12.9776 7.58312C13.1122 7.68097 13.2743 7.73367 13.4407 7.73367C13.6071 7.73367 13.7692 7.68097 13.9038 7.58312C14.0384 7.48528 14.1385 7.34732 14.1898 7.18904C14.4741 6.33623 14.8799 5.52887 15.3946 4.79187C16.1858 3.67749 17.5813 2.34518 19.7407 2.34518C20.4973 2.33977 21.2462 2.4977 21.9362 2.8082C22.6262 3.11869 23.2411 3.57443 23.7388 4.14429C24.7492 5.29211 25.3064 6.84358 25.3064 8.51515C25.3064 12.5579 21.697 15.6286 16.2341 20.2892Z" fill="black"/>
</svg>
