<?xml version="1.0" encoding="UTF-8" standalone="no"?><!-- Generator: Gravit.io --><svg xmlns="http://www.w3.org/2000/svg" xmlns:xlink="http://www.w3.org/1999/xlink" style="isolation:isolate" viewBox="0 0 27 25" width="27pt" height="25pt"><defs><clipPath id="_clipPath_q9BYHI9lnxPeFGbf5P1LrX2gEZqWEys4"><rect width="27" height="25"/></clipPath></defs><g clip-path="url(#_clipPath_q9BYHI9lnxPeFGbf5P1LrX2gEZqWEys4)"><path d=" M 24.92 3.103 C 24.276 2.364 23.479 1.773 22.585 1.371 C 21.691 0.968 20.721 0.763 19.741 0.77 C 16.909 0.77 15.116 2.462 14.116 3.881 C 13.871 4.229 13.648 4.591 13.447 4.966 C 13.247 4.591 13.023 4.228 12.778 3.881 C 11.763 2.462 9.972 0.77 7.141 0.77 C 6.16 0.763 5.19 0.968 4.296 1.371 C 3.402 1.773 2.606 2.364 1.961 3.103 C 0.697 4.538 0 6.466 0 8.515 C 0 10.751 0.873 12.833 2.749 15.063 C 4.424 17.055 6.835 19.109 9.626 21.489 C 10.667 22.374 11.742 23.292 12.887 24.294 L 12.922 24.323 C 13.065 24.449 13.25 24.519 13.441 24.519 C 13.632 24.519 13.816 24.449 13.96 24.323 L 13.992 24.296 C 15.137 23.294 16.212 22.377 17.253 21.49 C 20.044 19.112 22.454 17.058 24.131 15.065 C 26.006 12.837 26.879 10.754 26.879 8.518 C 26.881 6.466 26.186 4.538 24.92 3.103 Z  M 16.234 20.289 C 15.336 21.053 14.414 21.841 13.441 22.686 C 12.468 21.841 11.545 21.053 10.647 20.289 C 5.184 15.629 1.575 12.558 1.575 8.515 C 1.575 6.844 2.132 5.296 3.143 4.144 C 3.64 3.574 4.255 3.119 4.945 2.808 C 5.635 2.498 6.384 2.34 7.141 2.345 C 9.3 2.345 10.696 3.675 11.487 4.792 C 12.002 5.529 12.407 6.336 12.692 7.189 C 12.743 7.347 12.843 7.485 12.978 7.583 C 13.112 7.681 13.274 7.734 13.441 7.734 C 13.607 7.734 13.769 7.681 13.904 7.583 C 14.038 7.485 14.139 7.347 14.19 7.189 C 14.474 6.336 14.88 5.529 15.395 4.792 C 16.186 3.677 17.581 2.345 19.741 2.345 C 20.497 2.34 21.246 2.498 21.936 2.808 C 22.626 3.119 23.241 3.574 23.739 4.144 C 24.749 5.292 25.306 6.844 25.306 8.515 C 25.306 12.558 21.697 15.629 16.234 20.289 Z " fill="rgb(255,201,113)"/></g></svg>