<svg width="22" height="22" viewBox="0 0 22 22" fill="none" xmlns="http://www.w3.org/2000/svg">
<path d="M19.3857 15.2355C21.0594 13.5617 21.9996 11.2915 21.9995 8.92451C21.9993 6.55748 21.0589 4.28744 19.3851 2.61377C18.5563 1.78505 17.5724 1.12769 16.4896 0.679218C15.4068 0.230747 14.2462 -5.13177e-05 13.0742 8.55877e-09C10.7071 0.000103667 8.43708 0.940503 6.76341 2.61432C5.35942 3.99624 4.46272 5.81142 4.21838 7.7662C3.97403 9.72098 4.39632 11.701 5.41695 13.386C5.45687 13.4556 5.47338 13.5361 5.46402 13.6157C5.45467 13.6953 5.41994 13.7698 5.36499 13.8282L0.815975 18.3861C-0.0905111 19.2926 -0.306078 20.5594 0.4976 21.3631L0.635784 21.5024C1.43946 22.3061 2.70744 22.0905 3.61392 21.184L8.15741 16.6394C8.21638 16.5808 8.29297 16.543 8.37544 16.532C8.4579 16.5211 8.5417 16.5374 8.61397 16.5786C10.2986 17.5997 12.2784 18.0225 14.2332 17.7788C16.188 17.535 18.0034 16.6389 19.3857 15.2355ZM8.03802 13.962C7.04195 12.9659 6.36362 11.6967 6.08883 10.3151C5.81403 8.93348 5.9551 7.50139 6.4942 6.19994C7.0333 4.89848 7.94622 3.78611 9.11751 3.00349C10.2888 2.22087 11.6659 1.80315 13.0745 1.80315C14.4832 1.80315 15.8603 2.22087 17.0316 3.00349C18.2029 3.78611 19.1158 4.89848 19.6549 6.19994C20.194 7.50139 20.3351 8.93348 20.0603 10.3151C19.7855 11.6967 19.1071 12.9659 18.1111 13.962C16.7742 15.2956 14.9629 16.0446 13.0745 16.0446C11.1862 16.0446 9.37491 15.2956 8.03802 13.962Z" fill="black"/>
<path d="M8.42824 7.80562C8.27641 7.80527 8.12702 7.76743 7.99333 7.69546C7.85965 7.62349 7.7458 7.51962 7.66191 7.39307C7.57802 7.26653 7.52668 7.12122 7.51245 6.97006C7.49822 6.8189 7.52154 6.66657 7.58035 6.52659C8.18089 5.11125 9.31839 3.99197 10.7432 3.41436C12.1681 2.83675 13.7639 2.848 15.1805 3.44564C15.2919 3.49275 15.3929 3.56134 15.4778 3.6475C15.5628 3.73366 15.6299 3.8357 15.6753 3.9478C15.7208 4.0599 15.7438 4.17985 15.7429 4.30082C15.742 4.42179 15.7173 4.54139 15.6702 4.65281C15.6231 4.76423 15.5545 4.86528 15.4683 4.95019C15.3822 5.0351 15.2801 5.10221 15.168 5.14769C15.0559 5.19316 14.936 5.21611 14.815 5.21523C14.694 5.21435 14.5744 5.18965 14.463 5.14254C13.4967 4.73467 12.408 4.72675 11.4358 5.12051C10.4637 5.51427 9.68738 6.27756 9.27724 7.24293C9.20665 7.40975 9.08849 7.55209 8.9375 7.65216C8.78651 7.75223 8.60938 7.8056 8.42824 7.80562Z" fill="black"/>
</svg>
