<?xml version="1.0" encoding="UTF-8" standalone="no"?><!-- Generator: Gravit.io --><svg xmlns="http://www.w3.org/2000/svg" xmlns:xlink="http://www.w3.org/1999/xlink" style="isolation:isolate" viewBox="0 0 22 22" width="22pt" height="22pt"><defs><clipPath id="_clipPath_mHfE9uqHUOZ1oKMB8xBgWsmZ1F9Rt6C6"><rect width="22" height="22"/></clipPath></defs><g clip-path="url(#_clipPath_mHfE9uqHUOZ1oKMB8xBgWsmZ1F9Rt6C6)"><path d=" M 19.386 15.236 C 21.059 13.562 22 11.292 22 8.925 C 21.999 6.557 21.059 4.287 19.385 2.614 C 18.556 1.785 17.572 1.128 16.49 0.679 C 15.407 0.231 14.246 0 13.074 0 C 10.707 0 8.437 0.941 6.763 2.614 C 5.359 3.996 4.463 5.811 4.218 7.766 C 3.974 9.721 4.396 11.701 5.417 13.386 C 5.457 13.456 5.473 13.536 5.464 13.616 C 5.455 13.695 5.42 13.77 5.365 13.828 L 0.816 18.386 C -0.091 19.293 -0.306 20.559 0.498 21.363 L 0.636 21.502 C 1.439 22.306 2.707 22.091 3.614 21.184 L 8.157 16.639 C 8.216 16.581 8.293 16.543 8.375 16.532 C 8.458 16.521 8.542 16.537 8.614 16.579 C 10.299 17.6 12.278 18.023 14.233 17.779 C 16.188 17.535 18.003 16.639 19.386 15.236 Z  M 8.038 13.962 C 7.042 12.966 6.364 11.697 6.089 10.315 C 5.814 8.933 5.955 7.501 6.494 6.2 C 7.033 4.898 7.946 3.786 9.118 3.003 C 10.289 2.221 11.666 1.803 13.075 1.803 C 14.483 1.803 15.86 2.221 17.032 3.003 C 18.203 3.786 19.116 4.898 19.655 6.2 C 20.194 7.501 20.335 8.933 20.06 10.315 C 19.786 11.697 19.107 12.966 18.111 13.962 C 16.774 15.296 14.963 16.045 13.075 16.045 C 11.186 16.045 9.375 15.296 8.038 13.962 Z " fill="rgb(241,118,137)"/><path d=" M 8.428 7.806 C 8.276 7.805 8.127 7.767 7.993 7.695 C 7.86 7.623 7.746 7.52 7.662 7.393 C 7.578 7.267 7.527 7.121 7.512 6.97 C 7.498 6.819 7.522 6.667 7.58 6.527 C 8.181 5.111 9.318 3.992 10.743 3.414 C 12.168 2.837 13.764 2.848 15.181 3.446 C 15.292 3.493 15.393 3.561 15.478 3.648 C 15.563 3.734 15.63 3.836 15.675 3.948 C 15.721 4.06 15.744 4.18 15.743 4.301 C 15.742 4.422 15.717 4.541 15.67 4.653 C 15.623 4.764 15.555 4.865 15.468 4.95 C 15.382 5.035 15.28 5.102 15.168 5.148 C 15.056 5.193 14.936 5.216 14.815 5.215 C 14.694 5.214 14.574 5.19 14.463 5.143 C 13.497 4.735 12.408 4.727 11.436 5.121 C 10.464 5.514 9.687 6.278 9.277 7.243 C 9.207 7.41 9.088 7.552 8.938 7.652 C 8.787 7.752 8.609 7.806 8.428 7.806 Z " fill="rgb(241,118,137)"/></g></svg>