<svg width="60" height="56" viewBox="0 0 60 56" fill="none" xmlns="http://www.w3.org/2000/svg">
<path d="M58.0926 20.805L57.2726 19.985V17.6375C57.2714 17.1244 57.107 16.6249 56.8032 16.2114C56.4994 15.798 56.0719 15.4919 55.5826 15.3375C55.4255 14.6965 55.0583 14.1265 54.5394 13.7187C54.0206 13.3109 53.38 13.0886 52.7201 13.0875H52.5576V12.8175C52.5581 12.0243 52.3462 11.2454 51.9439 10.5618C51.5416 9.87818 50.9637 9.31473 50.2701 8.92996L50.1626 8.86996C49.7197 8.62403 49.3506 8.26421 49.0935 7.82775C48.8363 7.39128 48.7005 6.89404 48.7001 6.38746V4.77996C48.7129 4.28648 48.6268 3.79542 48.4468 3.33574C48.2668 2.87607 47.9966 2.45709 47.6521 2.10351C47.3076 1.74994 46.8958 1.46893 46.441 1.27705C45.9861 1.08518 45.4975 0.986328 45.0038 0.986328C44.5102 0.986328 44.0215 1.08518 43.5667 1.27705C43.1118 1.46893 42.7 1.74994 42.3555 2.10351C42.011 2.45709 41.7408 2.87607 41.5608 3.33574C41.3809 3.79542 41.2947 4.28648 41.3076 4.77996V6.38746C41.3071 6.89373 41.1716 7.39071 40.9149 7.8271C40.6583 8.2635 40.2898 8.6235 39.8476 8.86996L39.7376 8.92996C39.044 9.31473 38.466 9.87818 38.0637 10.5618C37.6615 11.2454 37.4496 12.0243 37.4501 12.8175V13.085H37.2901C36.6297 13.0856 35.9886 13.3076 35.4692 13.7154C34.9498 14.1233 34.5822 14.6935 34.4251 15.335C33.9358 15.4894 33.5083 15.7955 33.2044 16.2089C32.9006 16.6224 32.7362 17.1219 32.7351 17.635V19.9825L31.9151 20.8025C31.7594 20.9588 31.6149 21.1259 31.4826 21.3025H13.4276C13.2263 21.3025 13.0334 21.3824 12.8911 21.5247C12.7488 21.667 12.6688 21.86 12.6688 22.0612C12.6688 22.2624 12.7488 22.4554 12.8911 22.5977C13.0334 22.74 13.2263 22.82 13.4276 22.82H30.6776C30.4236 23.5924 30.3576 24.4144 30.4851 25.2175C30.5326 25.5125 30.5851 25.8425 30.6401 26.195C30.2624 26.6675 29.9951 27.2184 29.8576 27.8075C29.8508 27.8368 29.8342 27.8629 29.8106 27.8815C29.7869 27.9001 29.7577 27.9102 29.7276 27.91H17.1076C17.0775 27.9102 17.0482 27.9001 17.0246 27.8815C17.001 27.8629 16.9844 27.8368 16.9776 27.8075C16.7709 26.9075 16.2649 26.1043 15.5424 25.5293C14.8198 24.9544 13.9235 24.6417 13.0001 24.6425H4.36758C4.34909 24.6422 4.33086 24.638 4.31406 24.6303C4.29727 24.6225 4.28229 24.6113 4.27008 24.5975C4.25773 24.5836 4.24827 24.5673 4.24226 24.5497C4.23625 24.5321 4.23381 24.5135 4.23508 24.495L4.30508 23.745C4.30927 23.6179 4.33848 23.4929 4.39102 23.3771C4.44356 23.2613 4.5184 23.157 4.61128 23.0702C4.70415 22.9834 4.81323 22.9157 4.93228 22.871C5.05132 22.8264 5.17801 22.8056 5.30508 22.81H6.62008C6.82131 22.81 7.0143 22.73 7.15659 22.5877C7.29889 22.4454 7.37883 22.2524 7.37883 22.0512C7.37883 21.85 7.29889 21.657 7.15659 21.5147C7.0143 21.3724 6.82131 21.2925 6.62008 21.2925H5.29258C4.66198 21.2905 4.05395 21.527 3.59033 21.9545C3.12671 22.3819 2.84176 22.9688 2.79258 23.5975L2.70758 24.515C2.70505 24.5483 2.68998 24.5795 2.6654 24.6023C2.64082 24.625 2.60855 24.6376 2.57508 24.6375H1.48508C1.28616 24.6375 1.0954 24.7165 0.954747 24.8571C0.814095 24.9978 0.735077 25.1885 0.735077 25.3875V32.06C0.735077 32.2589 0.814095 32.4496 0.954747 32.5903C1.0954 32.7309 1.28616 32.81 1.48508 32.81H2.19508C2.23088 32.81 2.26522 32.8242 2.29054 32.8495C2.31585 32.8748 2.33008 32.9092 2.33008 32.945V35.0525C2.33008 35.18 2.33008 35.3025 2.34758 35.44C2.42758 36.8125 2.86508 41.645 5.07008 46.1775C6.35508 48.82 8.02758 50.9275 10.0401 52.4275C12.5151 54.27 15.5051 55.2025 18.9301 55.205H27.7801C30.2085 55.24 32.6095 54.6895 34.7801 53.6C36.3855 54.7685 38.3194 55.3994 40.3051 55.4025H49.6876C50.9878 55.4025 52.2738 55.1322 53.464 54.6087C54.6541 54.0851 55.7224 53.3198 56.6009 52.3613C57.4795 51.4028 58.1491 50.2721 58.5673 49.041C58.9855 47.8099 59.1431 46.5052 59.0301 45.21C58.6401 40.765 58.4451 37.58 58.4451 35.74C58.4451 32.325 59.1126 27.675 59.5126 25.205C59.6392 24.4115 59.5766 23.5994 59.3298 22.8348C59.0831 22.0702 58.6591 21.3747 58.0926 20.805ZM34.3426 17.6375C34.3426 17.4246 34.4271 17.2205 34.5776 17.07C34.7281 16.9195 34.9322 16.835 35.1451 16.835C35.3586 16.835 35.5633 16.7501 35.7143 16.5992C35.8653 16.4482 35.9501 16.2435 35.9501 16.03C35.9507 15.675 36.0922 15.3348 36.3434 15.0841C36.5947 14.8333 36.9351 14.6925 37.2901 14.6925H39.8601C39.9694 14.6986 40.0788 14.6823 40.1816 14.6447C40.2845 14.607 40.3785 14.5488 40.4581 14.4736C40.5376 14.3983 40.601 14.3077 40.6443 14.2071C40.6876 14.1065 40.7099 13.9982 40.7099 13.8887C40.7099 13.7792 40.6876 13.6709 40.6443 13.5703C40.601 13.4698 40.5376 13.3791 40.4581 13.3039C40.3785 13.2286 40.2845 13.1704 40.1816 13.1328C40.0788 13.0951 39.9694 13.0789 39.8601 13.085H39.0576V12.8175C39.0578 12.3111 39.1932 11.8141 39.4499 11.3776C39.7066 10.9412 40.0752 10.5812 40.5176 10.335L40.6276 10.275C41.3203 9.88918 41.8976 9.3255 42.2997 8.64211C42.7018 7.95872 42.9142 7.18039 42.9151 6.38746V4.77996C42.9054 4.49958 42.9522 4.22012 43.0528 3.95824C43.1534 3.69635 43.3057 3.45739 43.5006 3.25561C43.6956 3.05384 43.9291 2.89337 44.1874 2.78377C44.4456 2.67417 44.7233 2.61769 45.0038 2.61769C45.2844 2.61769 45.562 2.67417 45.8203 2.78377C46.0786 2.89337 46.3121 3.05384 46.507 3.25561C46.7019 3.45739 46.8542 3.69635 46.9548 3.95824C47.0554 4.22012 47.1023 4.49958 47.0926 4.77996V6.38746C47.0934 7.18039 47.3059 7.95872 47.708 8.64211C48.1101 9.3255 48.6873 9.88918 49.3801 10.275L49.4901 10.335C49.9328 10.5808 50.3017 10.9407 50.5584 11.3772C50.8152 11.8137 50.9504 12.311 50.9501 12.8175V13.085H43.6101C43.4047 13.0964 43.2114 13.1861 43.0701 13.3356C42.9287 13.485 42.8499 13.683 42.8499 13.8887C42.8499 14.0944 42.9287 14.2924 43.0701 14.4419C43.2114 14.5913 43.4047 14.681 43.6101 14.6925H52.7176C53.0725 14.6925 53.413 14.8333 53.6642 15.0841C53.9154 15.3348 54.0569 15.675 54.0576 16.03C54.0576 16.2435 54.1424 16.4482 54.2934 16.5992C54.4443 16.7501 54.6491 16.835 54.8626 16.835C55.0754 16.835 55.2795 16.9195 55.43 17.07C55.5805 17.2205 55.6651 17.4246 55.6651 17.6375V19.5125H54.3801V18.6025C54.3686 18.397 54.2789 18.2038 54.1295 18.0624C53.98 17.9211 53.7821 17.8423 53.5763 17.8423C53.3706 17.8423 53.1727 17.9211 53.0232 18.0624C52.8737 18.2038 52.784 18.397 52.7726 18.6025V19.5125H50.0926V18.6025C50.0811 18.397 49.9914 18.2038 49.842 18.0624C49.6925 17.9211 49.4946 17.8423 49.2888 17.8423C49.0831 17.8423 48.8852 17.9211 48.7357 18.0624C48.5862 18.2038 48.4965 18.397 48.4851 18.6025V19.5125H45.8076V18.6025C45.7961 18.397 45.7064 18.2038 45.557 18.0624C45.4075 17.9211 45.2096 17.8423 45.0038 17.8423C44.7981 17.8423 44.6002 17.9211 44.4507 18.0624C44.3012 18.2038 44.2115 18.397 44.2001 18.6025V19.5125H41.5201V18.6025C41.5201 18.3896 41.4355 18.1855 41.285 18.035C41.1345 17.8845 40.9304 17.8 40.7176 17.8C40.5047 17.8 40.3006 17.8845 40.1501 18.035C39.9996 18.1855 39.9151 18.3896 39.9151 18.6025V19.5125H37.2351V18.6025C37.2236 18.397 37.1339 18.2038 36.9845 18.0624C36.835 17.9211 36.6371 17.8423 36.4313 17.8423C36.2256 17.8423 36.0277 17.9211 35.8782 18.0624C35.7287 18.2038 35.639 18.397 35.6276 18.6025V19.5125H34.3426V17.6375ZM10.7976 26.2925C10.7976 26.2567 10.8118 26.2223 10.8371 26.197C10.8624 26.1717 10.8968 26.1575 10.9326 26.1575H13.0001C13.6701 26.1783 14.3057 26.4592 14.7723 26.9405C15.2389 27.4218 15.4998 28.0659 15.4998 28.7362C15.4998 29.4066 15.2389 30.0506 14.7723 30.5319C14.3057 31.0133 13.6701 31.2941 13.0001 31.315H10.9326C10.8968 31.315 10.8624 31.3007 10.8371 31.2754C10.8118 31.2501 10.7976 31.2158 10.7976 31.18V26.2925ZM2.37508 31.315C2.33971 31.3143 2.30601 31.2998 2.28123 31.2745C2.25645 31.2493 2.24257 31.2153 2.24258 31.18V26.2925C2.24257 26.2571 2.25645 26.2231 2.28123 26.1979C2.30601 26.1726 2.33971 26.1581 2.37508 26.1575H9.14758C9.16531 26.1575 9.18286 26.161 9.19924 26.1677C9.21562 26.1745 9.2305 26.1845 9.24304 26.197C9.25557 26.2095 9.26552 26.2244 9.2723 26.2408C9.27909 26.2572 9.28258 26.2747 9.28258 26.2925V31.18C9.28258 31.1977 9.27909 31.2152 9.2723 31.2316C9.26552 31.248 9.25557 31.2629 9.24304 31.2754C9.2305 31.288 9.21562 31.2979 9.19924 31.3047C9.18286 31.3115 9.16531 31.315 9.14758 31.315H2.37508ZM17.8926 53.6075C17.88 53.6224 17.8644 53.6345 17.8466 53.6427C17.8289 53.6509 17.8096 53.6551 17.7901 53.655C12.7126 53.3025 8.89508 50.57 6.44508 45.5325C5.45049 43.4393 4.73843 41.2232 4.32758 38.9425C4.32306 38.9174 4.32584 38.8916 4.33559 38.8681C4.34535 38.8446 4.36166 38.8244 4.38258 38.81C4.4049 38.7932 4.43218 38.7844 4.46008 38.785C4.48297 38.7845 4.50552 38.7905 4.52508 38.8025C4.64758 38.87 4.77508 38.9375 4.92008 38.9975C5.13508 39.09 5.36258 39.1675 5.58258 39.2475L6.02008 39.4C8.64598 40.3929 11.0085 41.9761 12.9251 44.0275C13.5613 44.7039 14.1462 45.4267 14.6751 46.19L14.8801 46.49C15.9793 48.1593 16.8472 49.97 17.4601 51.8725C17.6376 52.4175 17.7976 52.965 17.9351 53.4925C17.938 53.5136 17.9356 53.5352 17.9282 53.5553C17.9208 53.5753 17.9086 53.5933 17.8926 53.6075ZM27.6701 51.8825C27.5026 52.4225 27.3426 52.9975 27.2001 53.5925C27.1929 53.6215 27.1762 53.6474 27.1526 53.666C27.1291 53.6845 27.1 53.6947 27.0701 53.695H19.6401C19.61 53.6952 19.5807 53.6851 19.5571 53.6665C19.5335 53.6479 19.5169 53.6218 19.5101 53.5925C19.0844 51.8152 18.4779 50.0862 17.7001 48.4325C16.9483 46.8467 16.0064 45.3582 14.8951 44C12.8283 41.4801 10.1749 39.5057 7.16758 38.25C6.88758 38.1325 6.60508 38.0225 6.33008 37.9225L6.04008 37.8225C5.82826 37.7551 5.62043 37.6758 5.41758 37.585C5.02079 37.3942 4.6751 37.1117 4.40906 36.7609C4.14302 36.4101 3.96427 36.001 3.88758 35.5675C3.86314 35.4102 3.84895 35.2515 3.84508 35.0925V32.99C3.84508 32.9542 3.8593 32.9198 3.88462 32.8945C3.90994 32.8692 3.94427 32.855 3.98008 32.855H13.0001C13.949 32.8493 14.8665 32.5144 15.596 31.9076C16.3255 31.3007 16.8218 30.4595 17.0001 29.5275C17.0064 29.497 17.0231 29.4697 17.0472 29.4501C17.0713 29.4305 17.1015 29.4199 17.1326 29.42H29.6901C29.7212 29.4199 29.7513 29.4305 29.7755 29.4501C29.7996 29.4697 29.8162 29.497 29.8226 29.5275C30.0156 30.5052 30.5599 31.3785 31.3526 31.9825C31.4701 33.29 31.5501 34.59 31.5501 35.7475C31.5501 37.5675 31.3551 40.7075 30.9751 45.08C30.9301 45.1425 30.8826 45.205 30.8376 45.27C30.0832 46.3472 29.4288 47.4911 28.8826 48.6875C28.4055 49.7233 28.0003 50.7909 27.6701 51.8825ZM28.9201 53.655C28.9005 53.6551 28.8812 53.6509 28.8635 53.6427C28.8458 53.6345 28.8301 53.6224 28.8176 53.6075C28.804 53.591 28.7944 53.5715 28.7896 53.5507C28.7849 53.5299 28.785 53.5082 28.7901 53.4875L28.8251 53.355C28.9201 53.0025 29.0251 52.635 29.1526 52.225C29.5637 50.9031 30.0899 49.6199 30.7251 48.39V48.365C30.8376 48.15 30.9576 47.935 31.0801 47.72C31.3968 49.4553 32.1966 51.0662 33.3876 52.3675C33.4326 52.42 33.4826 52.4675 33.5301 52.5175C32.0724 53.1702 30.5092 53.5555 28.9151 53.655H28.9201ZM57.9326 24.9575C57.8226 25.6425 57.6826 26.495 57.5576 27.4425H38.0401C37.9308 27.4364 37.8213 27.4526 37.7185 27.4903C37.6157 27.5279 37.5216 27.5861 37.4421 27.6613C37.3625 27.7366 37.2992 27.8273 37.2559 27.9278C37.2126 28.0284 37.1902 28.1367 37.1902 28.2462C37.1902 28.3557 37.2126 28.464 37.2559 28.5646C37.2992 28.6652 37.3625 28.7558 37.4421 28.8311C37.5216 28.9063 37.6157 28.9645 37.7185 29.0022C37.8213 29.0398 37.9308 29.0561 38.0401 29.05H57.3451C57.0498 31.271 56.8829 33.5072 56.8451 35.7475C56.8451 37.6325 57.0426 40.8675 57.4351 45.3575C57.5295 46.4316 57.3992 47.5136 57.0524 48.5346C56.7056 49.5556 56.15 50.4932 55.421 51.2877C54.6919 52.0821 53.8053 52.716 52.8178 53.149C51.8303 53.582 50.7634 53.8045 49.6851 53.8025H40.3126C39.2345 53.8038 38.168 53.5807 37.1808 53.1475C36.1936 52.7143 35.3074 52.0803 34.5785 51.2861C33.8495 50.4918 33.2939 49.5545 32.9468 48.5338C32.5998 47.5132 32.4689 46.4314 32.5626 45.3575C32.9551 40.8575 33.1526 37.6325 33.1526 35.7475C33.116 33.5071 32.9491 31.2709 32.6526 29.05H34.2776C34.3869 29.0561 34.4963 29.0398 34.5991 29.0022C34.702 28.9645 34.796 28.9063 34.8756 28.8311C34.9551 28.7558 35.0185 28.6652 35.0618 28.5646C35.1051 28.464 35.1274 28.3557 35.1274 28.2462C35.1274 28.1367 35.1051 28.0284 35.0618 27.9278C35.0185 27.8273 34.9551 27.7366 34.8756 27.6613C34.796 27.5861 34.702 27.5279 34.5991 27.4903C34.4963 27.4526 34.3869 27.4364 34.2776 27.4425H32.4501C32.3176 26.495 32.1851 25.6425 32.0751 24.9575C31.989 24.4136 32.0324 23.8572 32.2018 23.3333C32.3712 22.8094 32.6619 22.3329 33.0501 21.9425L33.8726 21.12H56.1376L56.9576 21.9425C57.3458 22.3329 57.6364 22.8094 57.8058 23.3333C57.9752 23.8572 58.0187 24.4136 57.9326 24.9575Z" fill="black"/>
<path d="M50.79 33.335H53.04C53.2529 33.335 53.457 33.2504 53.6075 33.0999C53.758 32.9494 53.8425 32.7453 53.8425 32.5325C53.8425 32.3196 53.758 32.1155 53.6075 31.965C53.457 31.8145 53.2529 31.73 53.04 31.73H50.79C50.5772 31.73 50.3731 31.8145 50.2226 31.965C50.0721 32.1155 49.9875 32.3196 49.9875 32.5325C49.9875 32.7453 50.0721 32.9494 50.2226 33.0999C50.3731 33.2504 50.5772 33.335 50.79 33.335Z" fill="black"/>
<path d="M50.7902 37.6225H53.0402C53.1495 37.6286 53.2589 37.6123 53.3617 37.5747C53.4645 37.537 53.5586 37.4788 53.6381 37.4036C53.7177 37.3284 53.7811 37.2377 53.8244 37.1371C53.8677 37.0366 53.89 36.9282 53.89 36.8187C53.89 36.7092 53.8677 36.6009 53.8244 36.5003C53.7811 36.3998 53.7177 36.3091 53.6381 36.2339C53.5586 36.1586 53.4645 36.1004 53.3617 36.0628C53.2589 36.0251 53.1495 36.0089 53.0402 36.015H50.7902C50.5847 36.0264 50.3915 36.1161 50.2501 36.2656C50.1088 36.4151 50.03 36.613 50.03 36.8187C50.03 37.0245 50.1088 37.2224 50.2501 37.3719C50.3915 37.5213 50.5847 37.611 50.7902 37.6225Z" fill="black"/>
<path d="M50.7902 41.9075H53.0402C53.1495 41.9136 53.2589 41.8973 53.3617 41.8597C53.4645 41.8221 53.5586 41.7639 53.6381 41.6886C53.7177 41.6134 53.7811 41.5227 53.8244 41.4222C53.8677 41.3216 53.89 41.2133 53.89 41.1038C53.89 40.9943 53.8677 40.8859 53.8244 40.7854C53.7811 40.6848 53.7177 40.5941 53.6381 40.5189C53.5586 40.4437 53.4645 40.3855 53.3617 40.3478C53.2589 40.3102 53.1495 40.2939 53.0402 40.3H50.7902C50.5847 40.3115 50.3915 40.4012 50.2501 40.5506C50.1088 40.7001 50.03 40.898 50.03 41.1038C50.03 41.3095 50.1088 41.5074 50.2501 41.6569C50.3915 41.8064 50.5847 41.8961 50.7902 41.9075Z" fill="black"/>
<path d="M50.7902 46.195H53.0402C53.1495 46.2011 53.2589 46.1848 53.3617 46.1472C53.4645 46.1095 53.5586 46.0513 53.6381 45.9761C53.7177 45.9008 53.7811 45.8102 53.8244 45.7096C53.8677 45.609 53.89 45.5007 53.89 45.3912C53.89 45.2817 53.8677 45.1734 53.8244 45.0728C53.7811 44.9723 53.7177 44.8816 53.6381 44.8063C53.5586 44.7311 53.4645 44.6729 53.3617 44.6353C53.2589 44.5976 53.1495 44.5814 53.0402 44.5875H50.7902C50.5847 44.5989 50.3915 44.6886 50.2501 44.8381C50.1088 44.9875 50.03 45.1855 50.03 45.3912C50.03 45.5969 50.1088 45.7949 50.2501 45.9444C50.3915 46.0938 50.5847 46.1835 50.7902 46.195Z" fill="black"/>
<path d="M50.7902 50.48H53.0402C53.1495 50.4861 53.2589 50.4698 53.3617 50.4322C53.4645 50.3946 53.5586 50.3363 53.6381 50.2611C53.7177 50.1859 53.7811 50.0952 53.8244 49.9946C53.8677 49.8941 53.89 49.7857 53.89 49.6762C53.89 49.5668 53.8677 49.4584 53.8244 49.3579C53.7811 49.2573 53.7177 49.1666 53.6381 49.0914C53.5586 49.0161 53.4645 48.9579 53.3617 48.9203C53.2589 48.8827 53.1495 48.8664 53.0402 48.8725H50.7902C50.5847 48.884 50.3915 48.9736 50.2501 49.1231C50.1088 49.2726 50.03 49.4705 50.03 49.6762C50.03 49.882 50.1088 50.0799 50.2501 50.2294C50.3915 50.3789 50.5847 50.4685 50.7902 50.48Z" fill="black"/>
<path d="M10.04 22.815H10.07C10.2283 22.8137 10.3822 22.7623 10.5095 22.6682C10.6368 22.5741 10.7311 22.4421 10.7788 22.2911C10.8265 22.1402 10.8253 21.978 10.7752 21.8278C10.7251 21.6776 10.6288 21.5471 10.5 21.455C10.4048 21.3871 10.295 21.3423 10.1795 21.3244C10.0639 21.3064 9.94573 21.3157 9.83441 21.3516C9.72309 21.3875 9.62169 21.4488 9.53832 21.5309C9.45495 21.6129 9.39192 21.7133 9.35427 21.824C9.31661 21.9347 9.30537 22.0527 9.32145 22.1686C9.33753 22.2844 9.38048 22.3949 9.44686 22.4912C9.51325 22.5875 9.60123 22.6669 9.70379 22.7231C9.80634 22.7794 9.92063 22.8108 10.0375 22.815H10.04Z" fill="black"/>
<path d="M27.8901 40.8075C27.8778 40.7356 27.8832 40.6619 27.9058 40.5926C27.9285 40.5233 27.9677 40.4606 28.0201 40.41L29.4951 38.97C29.7579 38.7142 29.9438 38.39 30.0319 38.034C30.12 37.678 30.1067 37.3045 29.9936 36.9557C29.8804 36.6068 29.6719 36.2966 29.3916 36.0601C29.1113 35.8237 28.7705 35.6703 28.4076 35.6175L26.3676 35.3225C26.295 35.3114 26.2261 35.2828 26.1669 35.2393C26.1077 35.1957 26.0599 35.1385 26.0276 35.0725L25.1151 33.2225C24.9529 32.8935 24.7019 32.6164 24.3904 32.4227C24.0789 32.229 23.7194 32.1263 23.3526 32.1263C22.9858 32.1263 22.6263 32.229 22.3148 32.4227C22.0033 32.6164 21.7523 32.8935 21.5901 33.2225L20.6776 35.0725C20.6461 35.1386 20.5988 35.1959 20.54 35.2395C20.4812 35.2831 20.4125 35.3116 20.3401 35.3225L18.3001 35.6175C17.9375 35.6708 17.5971 35.8244 17.3171 36.0608C17.0371 36.2972 16.8287 36.6072 16.7154 36.9557C16.6021 37.3042 16.5883 37.6774 16.6757 38.0333C16.7632 38.3892 16.9482 38.7136 17.2101 38.97L18.6876 40.41C18.74 40.4606 18.7792 40.5233 18.8019 40.5926C18.8245 40.6619 18.8299 40.7356 18.8176 40.8075L18.4676 42.84C18.4197 43.122 18.4338 43.411 18.5088 43.687C18.5839 43.963 18.7182 44.2194 18.9023 44.4382C19.0864 44.6571 19.316 44.8333 19.5751 44.9544C19.8342 45.0756 20.1166 45.1389 20.4026 45.14C20.7222 45.1385 21.0368 45.0605 21.3201 44.9125L23.1451 43.9525C23.2087 43.9177 23.2801 43.8996 23.3526 43.9C23.4259 43.8998 23.498 43.9179 23.5626 43.9525L25.3876 44.9125C25.6709 45.0605 25.9855 45.1385 26.3051 45.14C26.5911 45.1389 26.8735 45.0756 27.1326 44.9544C27.3917 44.8333 27.6213 44.6571 27.8054 44.4382C27.9895 44.2194 28.1238 43.963 28.1989 43.687C28.274 43.411 28.288 43.122 28.2401 42.84L27.8901 40.8075ZM26.9601 39.325C26.7319 39.5469 26.5612 39.8211 26.4628 40.1239C26.3643 40.4266 26.3411 40.7488 26.3951 41.0625L26.7451 43.095C26.761 43.1779 26.7525 43.2636 26.7205 43.3417C26.6886 43.4199 26.6346 43.487 26.5651 43.535C26.4925 43.5887 26.4054 43.6192 26.3151 43.6225C26.2419 43.622 26.1699 43.604 26.1051 43.57L24.2801 42.61C23.9987 42.4607 23.6849 42.3826 23.3663 42.3826C23.0478 42.3826 22.734 42.4607 22.4526 42.61L20.6276 43.57C20.5532 43.6097 20.4691 43.6276 20.385 43.6214C20.3009 43.6152 20.2203 43.5852 20.1526 43.535C20.0838 43.4865 20.0305 43.4192 19.999 43.3411C19.9675 43.2631 19.9592 43.1776 19.9751 43.095L20.3251 41.0625C20.3776 40.7479 20.3527 40.4253 20.2525 40.1226C20.1524 39.8199 19.9799 39.5461 19.7501 39.325L18.2751 37.885C18.2148 37.8266 18.1721 37.7525 18.1518 37.671C18.1316 37.5896 18.1347 37.5041 18.1608 37.4243C18.1869 37.3445 18.2349 37.2737 18.2993 37.2199C18.3637 37.166 18.442 37.1314 18.5251 37.12L20.5676 36.8225C20.8827 36.777 21.182 36.6553 21.4395 36.4679C21.6969 36.2806 21.9048 36.0333 22.0451 35.7475L22.9576 33.9C22.9943 33.8245 23.0515 33.7608 23.1227 33.7162C23.1939 33.6717 23.2761 33.6481 23.3601 33.6481C23.4441 33.6481 23.5263 33.6717 23.5975 33.7162C23.6687 33.7608 23.7259 33.8245 23.7626 33.9L24.6751 35.75C24.8163 36.0356 25.0248 36.2827 25.2826 36.4699C25.5404 36.6572 25.8398 36.779 26.1551 36.825L28.1951 37.1225C28.2777 37.1348 28.3553 37.1699 28.4191 37.2238C28.4829 37.2777 28.5304 37.3484 28.5564 37.4278C28.5823 37.5072 28.5857 37.5922 28.566 37.6734C28.5464 37.7546 28.5045 37.8287 28.4451 37.8875L26.9601 39.325Z" fill="black"/>
</svg>
