<svg width="55" height="55" viewBox="0 0 55 55" fill="none" xmlns="http://www.w3.org/2000/svg">
<path d="M34.5 50.6901C34.3882 50.6899 34.2776 50.667 34.175 50.6228C34.0723 50.5785 33.9797 50.5139 33.9027 50.4327C33.8258 50.3516 33.7662 50.2557 33.7275 50.1508C33.6888 50.0459 33.6718 49.9343 33.6775 49.8226C33.6988 49.6072 33.8004 49.4076 33.962 49.2636C34.1237 49.1195 34.3336 49.0415 34.55 49.0451H39.8825C40.1405 49.0451 40.3878 48.9426 40.5702 48.7603C40.7526 48.5779 40.855 48.3305 40.855 48.0726V16.6676C40.8552 16.5297 40.8896 16.394 40.955 16.2726L44.8925 9.05512C44.9732 8.90694 45.0139 8.74032 45.0107 8.57163C45.0075 8.40294 44.9605 8.23799 44.8742 8.09298C44.788 7.94797 44.6655 7.8279 44.5188 7.74455C44.3721 7.66121 44.2062 7.61747 44.0375 7.61762H19.4125C19.2387 7.61717 19.068 7.66332 18.918 7.75125C18.7681 7.83919 18.6445 7.9657 18.56 8.11762L13.915 16.6576C13.8369 16.8011 13.7956 16.9617 13.795 17.1251V20.8751C13.796 20.9897 13.7743 21.1033 13.7312 21.2094C13.688 21.3155 13.6243 21.412 13.5436 21.4934C13.463 21.5747 13.367 21.6393 13.2612 21.6834C13.1555 21.7274 13.0421 21.7501 12.9275 21.7501C12.7215 21.7495 12.5241 21.6673 12.3785 21.5217C12.2328 21.376 12.1507 21.1786 12.15 20.9726V16.6676C12.1502 16.5297 12.1846 16.394 12.25 16.2726L17.415 6.80262C17.4935 6.66017 17.5347 6.50024 17.535 6.33762V2.31012C17.535 1.85481 17.7155 1.41808 18.037 1.09566C18.3585 0.77324 18.7947 0.591442 19.25 0.590118H46.175C46.631 0.59078 47.0681 0.772206 47.3905 1.09463C47.7129 1.41704 47.8944 1.85415 47.895 2.31012V6.27262C47.8958 6.45729 47.9477 6.63814 48.045 6.79512L54.045 16.2251C54.1282 16.3577 54.1723 16.5111 54.1725 16.6676V46.2776C54.1692 47.4469 53.7033 48.5673 52.8765 49.3941C52.0497 50.2209 50.9293 50.6868 49.76 50.6901H34.5ZM47.19 9.35262C47.0159 9.35083 46.8447 9.39641 46.6945 9.48449C46.5443 9.57256 46.4209 9.69981 46.3375 9.85262L42.6275 16.6501C42.5501 16.7938 42.5098 16.9544 42.51 17.1176V48.0726C42.51 48.3305 42.6125 48.5779 42.7949 48.7603C42.9772 48.9426 43.2246 49.0451 43.4825 49.0451H48.865C49.8368 49.0444 50.7687 48.6581 51.4558 47.9709C52.143 47.2837 52.5294 46.3519 52.53 45.3801V17.1876C52.5303 17.0032 52.4774 16.8226 52.3775 16.6676L48 9.80262C47.9138 9.66551 47.7943 9.55239 47.6527 9.47373C47.5112 9.39507 47.352 9.35341 47.19 9.35262ZM20.1525 2.23512C19.8946 2.23512 19.6472 2.33758 19.4649 2.51996C19.2825 2.70234 19.18 2.9497 19.18 3.20762V5.00012C19.18 5.25804 19.2825 5.5054 19.4649 5.68778C19.6472 5.87016 19.8946 5.97262 20.1525 5.97262H45.2775C45.5355 5.97262 45.7828 5.87016 45.9652 5.68778C46.1476 5.5054 46.25 5.25804 46.25 5.00012V3.20762C46.25 2.9497 46.1476 2.70234 45.9652 2.51996C45.7828 2.33758 45.5355 2.23512 45.2775 2.23512H20.1525Z" fill="black"/>
<path d="M12.9476 25.5325C12.8332 25.5321 12.7198 25.5544 12.6139 25.598C12.5081 25.6416 12.4119 25.7056 12.3308 25.7864C12.2498 25.8672 12.1855 25.9632 12.1416 26.069C12.0977 26.1747 12.0751 26.288 12.0751 26.4025V35.6125C12.0778 35.8488 12.1735 36.0745 12.3415 36.2406C12.5095 36.4068 12.7363 36.5 12.9726 36.5C13.2107 36.5 13.4389 36.4054 13.6073 36.2371C13.7756 36.0688 13.8701 35.8405 13.8701 35.6025V26.455C13.8701 26.2103 13.7729 25.9757 13.5999 25.8027C13.4269 25.6297 13.1923 25.5325 12.9476 25.5325Z" fill="black"/>
<path d="M12.9725 36.435C12.7546 36.4344 12.5458 36.3475 12.3917 36.1934C12.2376 36.0393 12.1507 35.8305 12.15 35.6125V26.4025C12.15 26.191 12.234 25.9882 12.3836 25.8386C12.5332 25.6891 12.736 25.605 12.9475 25.605C13.1725 25.6057 13.3881 25.6956 13.5469 25.8549C13.7058 26.0142 13.795 26.23 13.795 26.455V35.6125C13.795 35.8307 13.7084 36.0399 13.5541 36.1941C13.3999 36.3484 13.1907 36.435 12.9725 36.435Z" fill="black"/>
<path d="M1.30742 54.28C1.17732 54.2794 1.04921 54.2481 0.933538 54.1885C0.817868 54.129 0.717924 54.0429 0.641866 53.9373C0.565808 53.8318 0.515793 53.7097 0.495903 53.5812C0.476014 53.4526 0.486815 53.3211 0.527424 53.1975L3.21992 45.12C3.27448 44.9563 3.37916 44.8139 3.51915 44.7129C3.65914 44.612 3.82733 44.5576 3.99992 44.5575H4.89742C4.91732 44.5575 4.93639 44.5496 4.95046 44.5356C4.96452 44.5215 4.97242 44.5024 4.97242 44.4825C4.97308 44.0202 5.06488 43.5625 5.24257 43.1357C5.42026 42.7088 5.68035 42.3212 6.00798 41.995C6.3356 41.6687 6.72433 41.4103 7.15192 41.2344C7.57951 41.0586 8.03758 40.9687 8.49992 40.97H8.61242C8.6292 40.9699 8.64545 40.9642 8.6586 40.9538C8.67174 40.9434 8.68101 40.9288 8.68492 40.9125C8.88016 40.1609 9.31849 39.4949 9.93164 39.0183C10.5448 38.5417 11.2983 38.2813 12.0749 38.2775C12.5022 38.2761 12.9261 38.3541 13.3249 38.5075H13.3524C13.3666 38.5078 13.3805 38.504 13.3925 38.4964C13.4045 38.4888 13.4141 38.4779 13.4199 38.465C13.706 37.8719 14.1535 37.3716 14.7112 37.0214C15.2688 36.6712 15.9139 36.4855 16.5724 36.4855C17.2309 36.4855 17.876 36.6712 18.4337 37.0214C18.9913 37.3716 19.4389 37.8719 19.7249 38.465C19.7308 38.4779 19.7403 38.4888 19.7523 38.4964C19.7643 38.504 19.7782 38.5078 19.7924 38.5075H19.8199C20.2187 38.3541 20.6426 38.2761 21.0699 38.2775C21.8486 38.2785 22.6051 38.5377 23.2208 39.0145C23.8364 39.4913 24.2766 40.1588 24.4724 40.9125C24.4763 40.9288 24.4856 40.9434 24.4987 40.9538C24.5119 40.9642 24.5281 40.9699 24.5449 40.97H24.6574C25.589 40.9707 26.4823 41.3409 27.1413 41.9994C27.8003 42.6579 28.1711 43.5509 28.1724 44.4825C28.1721 44.4925 28.1738 44.5024 28.1774 44.5116C28.1811 44.5209 28.1866 44.5293 28.1936 44.5363C28.2006 44.5434 28.2091 44.5489 28.2183 44.5525C28.2276 44.5562 28.2375 44.5579 28.2474 44.5575H29.1449C29.3175 44.5576 29.4857 44.612 29.6257 44.7129C29.7657 44.8139 29.8704 44.9563 29.9249 45.12L32.6174 53.1975C32.6586 53.3211 32.6698 53.4528 32.6502 53.5816C32.6305 53.7104 32.5806 53.8327 32.5044 53.9384C32.4282 54.0441 32.328 54.1302 32.2121 54.1896C32.0961 54.249 31.9677 54.28 31.8374 54.28H1.30742ZM4.64742 46.2025C4.6313 46.2023 4.61554 46.2073 4.60248 46.2168C4.58942 46.2262 4.57976 46.2397 4.57492 46.255L2.48242 52.535C2.47695 52.5454 2.47409 52.557 2.47409 52.5688C2.47409 52.5805 2.47695 52.5921 2.48242 52.6025C2.48928 52.6122 2.49825 52.6201 2.50865 52.6257C2.51905 52.6314 2.53061 52.6346 2.54242 52.635H30.5724C30.5842 52.6346 30.5958 52.6314 30.6062 52.6257C30.6166 52.6201 30.6256 52.6122 30.6324 52.6025C30.6379 52.5921 30.6408 52.5805 30.6408 52.5688C30.6408 52.557 30.6379 52.5454 30.6324 52.535L28.5499 46.25C28.5451 46.2347 28.5354 46.2212 28.5224 46.2118C28.5093 46.2023 28.4935 46.1973 28.4774 46.1975L4.64742 46.2025ZM8.49992 42.6125C8.00417 42.6132 7.52891 42.8104 7.17836 43.161C6.82781 43.5115 6.63058 43.9868 6.62992 44.4825C6.62957 44.4925 6.63128 44.5024 6.63492 44.5116C6.63857 44.5209 6.64408 44.5293 6.65111 44.5363C6.65815 44.5434 6.66656 44.5489 6.67581 44.5525C6.68507 44.5562 6.69498 44.5579 6.70492 44.5575H26.4549C26.4649 44.5579 26.4748 44.5562 26.484 44.5525C26.4933 44.5489 26.5017 44.5434 26.5087 44.5363C26.5158 44.5293 26.5213 44.5209 26.5249 44.5116C26.5286 44.5024 26.5303 44.4925 26.5299 44.4825C26.5293 43.9868 26.332 43.5115 25.9815 43.161C25.6309 42.8104 25.1557 42.6132 24.6599 42.6125H23.7499C23.5322 42.6125 23.3234 42.5262 23.1692 42.3725C23.015 42.2188 22.9281 42.0102 22.9274 41.7925C22.9296 41.4293 22.8254 41.0735 22.6277 40.7688C22.43 40.4641 22.1475 40.224 21.8149 40.0781C21.4823 39.9321 21.1143 39.8867 20.7562 39.9475C20.3982 40.0083 20.0657 40.1725 19.7999 40.42C19.6471 40.5582 19.4485 40.6348 19.2424 40.635C19.1389 40.6346 19.0364 40.6151 18.9399 40.5775C18.7987 40.5207 18.6759 40.4259 18.585 40.3037C18.4941 40.1816 18.4387 40.0367 18.4249 39.885V39.87C18.3905 39.4022 18.1804 38.9648 17.8368 38.6455C17.4932 38.3262 17.0415 38.1487 16.5724 38.1487C16.1034 38.1487 15.6517 38.3262 15.308 38.6455C14.9644 38.9648 14.7543 39.4022 14.7199 39.87C14.7082 40.0241 14.6538 40.172 14.5629 40.2969C14.4719 40.4219 14.348 40.519 14.2049 40.5775C14.1077 40.6153 14.0043 40.6348 13.8999 40.635C13.6939 40.6348 13.4952 40.5582 13.3424 40.42C13.0766 40.1725 12.7442 40.0083 12.3861 39.9475C12.028 39.8867 11.66 39.9321 11.3274 40.0781C10.9949 40.224 10.7123 40.4641 10.5146 40.7688C10.3169 41.0735 10.2127 41.4293 10.2149 41.7925C10.2149 41.9002 10.1937 42.0068 10.1525 42.1063C10.1113 42.2058 10.0509 42.2962 9.97475 42.3724C9.89861 42.4485 9.80821 42.5089 9.70872 42.5501C9.60924 42.5913 9.50261 42.6125 9.39492 42.6125H8.49992Z" fill="black"/>
<path d="M23.7502 23.7701C23.5875 23.7701 23.4285 23.7218 23.2932 23.6314C23.158 23.5411 23.0525 23.4126 22.9903 23.2623C22.928 23.112 22.9117 22.9466 22.9435 22.7871C22.9752 22.6275 23.0535 22.481 23.1686 22.366C23.2836 22.2509 23.4302 22.1726 23.5897 22.1409C23.7493 22.1091 23.9146 22.1254 24.0649 22.1877C24.2152 22.2499 24.3437 22.3553 24.4341 22.4906C24.5244 22.6259 24.5727 22.7849 24.5727 22.9476C24.572 23.1655 24.4851 23.3743 24.331 23.5284C24.1769 23.6825 23.9681 23.7694 23.7502 23.7701Z" fill="black"/>
<path d="M32.715 23.7701C32.5523 23.7701 32.3933 23.7218 32.258 23.6314C32.1227 23.5411 32.0173 23.4126 31.9551 23.2623C31.8928 23.112 31.8765 22.9466 31.9083 22.7871C31.94 22.6275 32.0183 22.481 32.1334 22.366C32.2484 22.2509 32.3949 22.1726 32.5545 22.1409C32.714 22.1091 32.8794 22.1254 33.0297 22.1877C33.18 22.2499 33.3085 22.3553 33.3988 22.4906C33.4892 22.6259 33.5375 22.7849 33.5375 22.9476C33.5375 23.1657 33.4508 23.3749 33.2966 23.5292C33.1423 23.6834 32.9331 23.7701 32.715 23.7701Z" fill="black"/>
<path d="M28.2277 38.1276C25.8687 38.1249 23.6072 37.1867 21.9391 35.5187C20.2711 33.8506 19.3328 31.589 19.3302 29.2301V19.4201C19.3302 19.4097 19.328 19.3994 19.3237 19.3899C19.3194 19.3804 19.3131 19.3719 19.3052 19.3651C18.7652 18.8783 18.33 18.2867 18.0261 17.6263C17.7222 16.9659 17.5559 16.2505 17.5375 15.5238C17.519 14.797 17.6487 14.0741 17.9186 13.3991C18.1886 12.7241 18.5932 12.1112 19.1077 11.5976C19.2509 11.4547 19.4417 11.3695 19.6437 11.3585C19.8457 11.3474 20.0447 11.4112 20.2027 11.5376L24.4527 14.9301C24.4653 14.9409 24.4811 14.9471 24.4977 14.9476H32.3877C32.4062 14.9469 32.4238 14.9398 32.4377 14.9276L36.3377 11.5576C36.4989 11.4184 36.7077 11.3472 36.9203 11.3588C37.1329 11.3705 37.3327 11.4641 37.4777 11.6201C37.9766 12.1726 38.361 12.8186 38.6086 13.5206C38.8562 14.2227 38.9621 14.9668 38.9202 15.7101C38.8459 17.1425 38.2131 18.4888 37.1577 19.4601C37.1425 19.4745 37.1335 19.4942 37.1327 19.5151V29.2176C37.133 30.3873 36.903 31.5457 36.4556 32.6265C36.0083 33.7074 35.3524 34.6895 34.5255 35.5169C33.6986 36.3442 32.7168 37.0006 31.6363 37.4486C30.5557 37.8965 29.3974 38.1273 28.2277 38.1276ZM28.2277 33.6401C27.2277 33.6401 26.3577 34.2901 26.3577 35.0626C26.3577 35.8351 27.2152 36.4826 28.2277 36.4826C29.2402 36.4826 30.0977 35.8326 30.0977 35.0626C30.0977 34.2926 29.2502 33.6401 28.2277 33.6401ZM24.1127 16.5926C24.0933 16.5922 24.0744 16.5994 24.0602 16.6126L21.0002 19.6776C20.987 19.6918 20.9798 19.7107 20.9802 19.7301V29.2301C20.9833 30.5106 21.3245 31.7676 21.9694 32.8739C22.6143 33.9801 23.5399 34.8964 24.6527 35.5301C24.6651 35.5323 24.6778 35.5323 24.6902 35.5301C24.7064 35.5298 24.7221 35.5245 24.7352 35.5151C24.7466 35.5066 24.7554 35.495 24.7607 35.4818C24.766 35.4686 24.7676 35.4541 24.7652 35.4401C24.7405 35.3105 24.7246 35.1794 24.7177 35.0476C24.7871 34.219 25.1644 33.4465 25.7753 32.8823C26.3861 32.3182 27.1862 32.0034 28.0177 32.0001C28.0852 32.0001 28.1552 32.0001 28.2227 32.0001C28.2902 32.0001 28.3702 32.0001 28.4377 32.0001C29.2745 32.0007 30.0804 32.3169 30.6944 32.8855C31.3084 33.4541 31.6854 34.2333 31.7502 35.0676C31.7445 35.196 31.7295 35.3239 31.7052 35.4501C31.7022 35.4642 31.7034 35.4788 31.7088 35.4922C31.7141 35.5055 31.7233 35.517 31.7352 35.5251C31.7472 35.5348 31.7622 35.5401 31.7777 35.5401C31.7901 35.5423 31.8028 35.5423 31.8152 35.5401C32.9279 34.9064 33.8536 33.9901 34.4985 32.8839C35.1434 31.7776 35.4846 30.5206 35.4877 29.2401V27.4451C35.488 27.4354 35.4864 27.4257 35.4829 27.4166C35.4794 27.4075 35.4741 27.3992 35.4674 27.3922C35.4606 27.3852 35.4525 27.3796 35.4435 27.3758C35.4346 27.372 35.4249 27.3701 35.4152 27.3701H32.7152C31.5449 27.3701 30.4226 26.9052 29.5951 26.0777C28.7676 25.2502 28.3027 24.1279 28.3027 22.9576C28.3027 21.7873 28.7676 20.665 29.5951 19.8375C30.4226 19.01 31.5449 18.5451 32.7152 18.5451H34.1377C34.1524 18.545 34.1668 18.5408 34.1792 18.5328C34.1916 18.5248 34.2015 18.5135 34.2077 18.5001C34.2131 18.4861 34.2143 18.4709 34.2111 18.4563C34.208 18.4416 34.2008 18.4282 34.1902 18.4176L32.3952 16.6226C32.3809 16.6094 32.3621 16.6022 32.3427 16.6026L24.1127 16.5926ZM32.7152 20.1801C31.9812 20.1801 31.2773 20.4717 30.7583 20.9907C30.2393 21.5097 29.9477 22.2136 29.9477 22.9476C29.9477 23.6816 30.2393 24.3855 30.7583 24.9045C31.2773 25.4235 31.9812 25.7151 32.7152 25.7151H35.4077C35.4272 25.7144 35.4456 25.7063 35.4591 25.6923C35.4726 25.6783 35.4802 25.6596 35.4802 25.6401V20.2501C35.4802 20.2306 35.4726 20.2119 35.4591 20.1979C35.4456 20.1839 35.4272 20.1757 35.4077 20.1751L32.7152 20.1801ZM36.7152 13.4301C36.6972 13.4309 36.6798 13.437 36.6652 13.4476L33.9827 15.7501C33.9675 15.7645 33.9585 15.7842 33.9577 15.8051C33.957 15.8154 33.9587 15.8257 33.9626 15.8352C33.9665 15.8447 33.9725 15.8533 33.9802 15.8601L36.1427 18.0226C36.1495 18.0297 36.1576 18.0354 36.1666 18.0392C36.1757 18.0431 36.1854 18.0451 36.1952 18.0451C36.2051 18.0454 36.2149 18.0436 36.2239 18.0397C36.233 18.0358 36.2411 18.03 36.2477 18.0226C36.8556 17.3601 37.216 16.5078 37.2677 15.6101C37.307 14.8566 37.1337 14.1073 36.7677 13.4476C36.7619 13.4381 36.7543 13.4299 36.7453 13.4235C36.7362 13.4171 36.726 13.4125 36.7152 13.4101V13.4301ZM19.8102 13.3751C19.7889 13.3796 19.7701 13.3921 19.7577 13.4101C19.3038 14.1166 19.1051 14.957 19.1947 15.7919C19.2843 16.6268 19.6567 17.406 20.2502 18.0001C20.2647 18.0129 20.2834 18.02 20.3027 18.0201C20.3228 18.0199 20.3422 18.0129 20.3577 18.0001L22.6377 15.7201C22.645 15.7125 22.6506 15.7035 22.654 15.6935C22.6575 15.6836 22.6587 15.6731 22.6577 15.6626C22.6576 15.6519 22.6551 15.6414 22.6503 15.6319C22.6455 15.6224 22.6387 15.6141 22.6302 15.6076L19.8652 13.3951C19.8521 13.3835 19.8352 13.3773 19.8177 13.3776L19.8102 13.3751Z" fill="black"/>
<path d="M34.5001 47.1001C34.282 47.1001 34.0728 47.0134 33.9185 46.8592C33.7643 46.7049 33.6776 46.4957 33.6776 46.2776C33.6776 46.0594 33.7643 45.8502 33.9185 45.696C34.0728 45.5417 34.282 45.4551 34.5001 45.4551H38.0876C38.3058 45.4551 38.515 45.5417 38.6692 45.696C38.8235 45.8502 38.9101 46.0594 38.9101 46.2776C38.9101 46.4957 38.8235 46.7049 38.6692 46.8592C38.515 47.0134 38.3058 47.1001 38.0876 47.1001H34.5001Z" fill="black"/>
<path d="M34.5001 43.5C34.282 43.5 34.0728 43.4133 33.9185 43.2591C33.7643 43.1048 33.6776 42.8956 33.6776 42.6775C33.6776 42.4593 33.7643 42.2501 33.9185 42.0959C34.0728 41.9416 34.282 41.855 34.5001 41.855H38.0876C38.3058 41.855 38.515 41.9416 38.6692 42.0959C38.8235 42.2501 38.9101 42.4593 38.9101 42.6775C38.9101 42.8956 38.8235 43.1048 38.6692 43.2591C38.515 43.4133 38.3058 43.5 38.0876 43.5H34.5001Z" fill="black"/>
<path d="M45.2774 27.3601C45.0593 27.3601 44.85 27.2734 44.6958 27.1192C44.5415 26.9649 44.4549 26.7557 44.4549 26.5376C44.4549 26.3194 44.5415 26.1102 44.6958 25.956C44.85 25.8017 45.0593 25.7151 45.2774 25.7151H46.1749C46.393 25.7151 46.6022 25.8017 46.7565 25.956C46.9107 26.1102 46.9974 26.3194 46.9974 26.5376C46.9974 26.7557 46.9107 26.9649 46.7565 27.1192C46.6022 27.2734 46.393 27.3601 46.1749 27.3601H45.2774Z" fill="black"/>
<path d="M49.7625 27.3601C49.5998 27.3601 49.4408 27.3118 49.3055 27.2215C49.1703 27.1311 49.0648 27.0026 49.0026 26.8523C48.9403 26.7021 48.924 26.5367 48.9558 26.3771C48.9875 26.2176 49.0658 26.071 49.1809 25.956C49.2959 25.841 49.4425 25.7626 49.602 25.7309C49.7616 25.6992 49.9269 25.7154 50.0772 25.7777C50.2275 25.84 50.356 25.9454 50.4464 26.0806C50.5367 26.2159 50.585 26.3749 50.585 26.5376C50.5843 26.7555 50.4974 26.9643 50.3433 27.1185C50.1892 27.2726 49.9804 27.3594 49.7625 27.3601Z" fill="black"/>
<path d="M45.2774 18.3851C45.0593 18.3851 44.85 18.2984 44.6958 18.1442C44.5415 17.9899 44.4549 17.7807 44.4549 17.5626C44.4549 17.3444 44.5415 17.1352 44.6958 16.981C44.85 16.8267 45.0593 16.7401 45.2774 16.7401H49.7624C49.9805 16.7401 50.1897 16.8267 50.344 16.981C50.4982 17.1352 50.5849 17.3444 50.5849 17.5626C50.5849 17.7807 50.4982 17.9899 50.344 18.1442C50.1897 18.2984 49.9805 18.3851 49.7624 18.3851H45.2774Z" fill="black"/>
<path d="M45.2774 21.9751C45.0593 21.9751 44.85 21.8884 44.6958 21.7342C44.5415 21.5799 44.4549 21.3707 44.4549 21.1526C44.4549 20.9344 44.5415 20.7252 44.6958 20.571C44.85 20.4167 45.0593 20.3301 45.2774 20.3301H49.7624C49.9805 20.3301 50.1897 20.4167 50.344 20.571C50.4982 20.7252 50.5849 20.9344 50.5849 21.1526C50.5849 21.3707 50.4982 21.5799 50.344 21.7342C50.1897 21.8884 49.9805 21.9751 49.7624 21.9751H45.2774Z" fill="black"/>
<path d="M12.1476 24.0475C12.2165 24.2156 12.3356 24.3582 12.4887 24.4558C12.6418 24.5535 12.8213 24.6014 13.0027 24.593C13.1841 24.5846 13.3584 24.5203 13.5018 24.4089C13.6452 24.2975 13.7506 24.1445 13.8036 23.9708C13.8566 23.7971 13.8546 23.6113 13.7979 23.4388C13.7411 23.2664 13.6324 23.1157 13.4866 23.0074C13.3408 22.8992 13.1651 22.8387 12.9836 22.8342C12.802 22.8298 12.6236 22.8816 12.4726 22.9825C12.3047 23.096 12.1808 23.2637 12.1217 23.4575C12.0625 23.6514 12.0717 23.8596 12.1476 24.0475Z" fill="black"/>
</svg>
