<?xml version="1.0" encoding="UTF-8" standalone="no"?><!-- Generator: Gravit.io --><svg xmlns="http://www.w3.org/2000/svg" xmlns:xlink="http://www.w3.org/1999/xlink" style="isolation:isolate" viewBox="0 0 44 56" width="44pt" height="56pt"><defs><clipPath id="_clipPath_DQnV8ZmYWDqtNhzva982NeY00rIVVL41"><rect width="44" height="56"/></clipPath></defs><g clip-path="url(#_clipPath_DQnV8ZmYWDqtNhzva982NeY00rIVVL41)"><path d=" M 43.5 6.84 C 43.48 7.045 43.45 7.248 43.443 7.453 C 43.344 9.949 43.094 12.437 42.693 14.903 C 42.15 18.219 41.379 21.494 40.388 24.705 C 40.43 24.729 40.474 24.75 40.52 24.768 C 40.815 24.839 41.074 25.017 41.246 25.267 C 41.419 25.517 41.493 25.821 41.455 26.123 C 41.378 27.373 41.283 28.623 41.205 29.86 C 41.052 32.027 40.9 34.189 40.75 36.348 C 40.62 38.233 40.489 40.117 40.358 42 C 40.358 42.157 40.308 42.309 40.214 42.435 C 40.121 42.56 39.99 42.652 39.84 42.698 C 39.702 42.748 39.551 42.751 39.411 42.706 C 39.271 42.661 39.15 42.57 39.068 42.448 C 38.965 42.291 38.91 42.108 38.91 41.92 C 39.02 40.185 39.16 38.453 39.27 36.718 C 39.425 34.496 39.579 32.273 39.733 30.05 C 39.803 29.05 39.873 28.05 39.945 27.05 C 39.945 26.913 39.963 26.775 39.975 26.59 C 39.823 26.665 39.703 26.725 39.58 26.78 C 38.83 27.123 38.1 27.48 37.348 27.803 C 36.595 28.147 35.77 28.306 34.944 28.264 C 34.117 28.223 33.312 27.983 32.597 27.565 C 32.37 27.44 32.153 27.3 31.93 27.165 C 31.448 26.847 30.883 26.678 30.305 26.678 C 29.727 26.678 29.163 26.847 28.68 27.165 C 27.941 27.662 27.112 28.01 26.24 28.19 C 25.041 28.409 23.804 28.193 22.75 27.58 C 22.515 27.448 22.288 27.305 22.055 27.168 C 20.978 26.53 19.913 26.555 18.805 27.153 C 18.128 27.553 17.407 27.875 16.658 28.113 C 16.023 28.285 15.36 28.325 14.71 28.231 C 14.059 28.137 13.435 27.91 12.875 27.565 C 12.65 27.435 12.428 27.3 12.205 27.168 C 11.725 26.853 11.163 26.686 10.589 26.686 C 10.015 26.686 9.453 26.853 8.973 27.168 C 8.233 27.647 7.401 27.964 6.53 28.1 C 5.233 28.296 3.909 28.052 2.768 27.405 C 2.468 27.235 2.173 27.053 1.818 26.843 C 1.858 27.48 1.895 28.06 1.935 28.643 L 2.453 35.968 L 2.97 43.293 C 3.118 45.415 3.29 47.543 3.405 49.66 C 3.478 51.03 3.905 52.175 5.093 52.96 C 5.668 53.349 6.348 53.554 7.043 53.55 C 16.271 53.55 25.5 53.55 34.73 53.55 C 35.665 53.541 36.56 53.172 37.231 52.52 C 37.902 51.869 38.296 50.984 38.333 50.05 C 38.39 48.983 38.473 47.918 38.553 46.85 C 38.59 46.35 38.868 46.073 39.263 46.1 C 39.372 46.109 39.479 46.141 39.577 46.193 C 39.674 46.244 39.76 46.316 39.828 46.402 C 39.897 46.488 39.948 46.587 39.977 46.693 C 40.006 46.8 40.013 46.911 39.998 47.02 C 39.923 48.038 39.843 49.053 39.778 50.07 C 39.738 50.859 39.518 51.629 39.135 52.32 C 38.718 53.105 38.113 53.774 37.374 54.268 C 36.635 54.761 35.785 55.064 34.9 55.148 C 34.843 55.16 34.787 55.178 34.733 55.2 L 7.08 55.2 C 7.016 55.177 6.951 55.159 6.885 55.145 C 5.692 55.023 4.573 54.507 3.707 53.677 C 2.84 52.847 2.276 51.752 2.103 50.565 C 1.955 49.48 1.923 48.375 1.853 47.28 C 1.678 44.85 1.504 42.418 1.333 39.985 C 1.174 37.792 1.02 35.599 0.87 33.408 C 0.72 31.274 0.573 29.142 0.43 27.01 C 0.402 26.772 0.425 26.531 0.498 26.303 C 0.61 26.016 0.627 25.701 0.545 25.405 C 0.498 25.19 0.467 24.972 0.453 24.753 C 0.348 23.45 0.703 22.303 1.65 21.375 C 2.424 20.676 3.343 20.158 4.343 19.86 C 4.573 19.78 4.805 19.705 5.068 19.61 C 4.368 18.88 3.633 18.335 2.603 18.36 C 2.436 18.362 2.273 18.316 2.132 18.227 C 1.992 18.138 1.88 18.011 1.81 17.86 C 1.731 17.717 1.69 17.556 1.692 17.393 C 1.694 17.229 1.738 17.069 1.82 16.928 C 1.902 16.786 2.019 16.669 2.16 16.586 C 2.302 16.504 2.462 16.46 2.625 16.458 C 4.015 16.405 5.125 17.028 6.108 17.943 L 6.375 18.193 C 5.94 16.843 6.08 15.653 6.85 14.548 C 6.902 14.438 6.909 14.312 6.87 14.198 C 6.669 13.588 6.592 12.945 6.644 12.305 C 6.696 11.666 6.876 11.043 7.172 10.474 C 7.469 9.905 7.877 9.401 8.372 8.993 C 8.866 8.584 9.438 8.279 10.053 8.095 C 10.107 8.077 10.161 8.055 10.213 8.03 C 10.213 7.963 10.213 7.913 10.213 7.863 C 10.405 5.958 11.39 4.665 13.19 3.993 C 13.311 3.924 13.4 3.812 13.44 3.68 C 13.594 3.206 13.846 2.769 14.181 2.399 C 14.515 2.029 14.923 1.734 15.379 1.532 C 15.835 1.331 16.329 1.228 16.827 1.23 C 17.326 1.232 17.818 1.34 18.273 1.545 C 18.412 1.6 18.568 1.6 18.708 1.545 C 19.135 1.34 19.602 1.231 20.075 1.224 C 20.549 1.217 21.019 1.312 21.452 1.504 C 21.885 1.696 22.272 1.98 22.585 2.336 C 22.898 2.691 23.13 3.111 23.265 3.565 C 23.283 3.664 23.331 3.754 23.401 3.826 C 23.471 3.897 23.562 3.946 23.66 3.965 C 24.423 4.166 25.118 4.567 25.675 5.127 C 26.231 5.686 26.628 6.384 26.825 7.148 C 26.846 7.232 26.886 7.311 26.941 7.378 C 26.997 7.446 27.066 7.5 27.145 7.538 C 28.076 8.02 28.838 8.773 29.333 9.698 C 29.583 10.148 29.748 10.633 29.963 11.128 C 30.018 11.015 30.07 10.913 30.12 10.808 C 30.603 9.808 31.068 8.808 31.57 7.808 C 32.44 6.095 33.385 4.428 34.685 2.993 C 35.495 2.1 36.413 1.358 37.59 0.993 C 37.893 0.903 38.208 0.845 38.515 0.773 L 39.115 0.773 C 39.615 0.938 40.17 1.023 40.628 1.273 C 42.083 2.078 42.828 3.423 43.243 4.975 C 43.365 5.44 43.413 5.928 43.493 6.405 L 43.5 6.84 L 43.5 6.84 Z  M 25.148 27.15 C 25.21 27.154 25.273 27.154 25.335 27.15 C 26.015 27.075 26.565 26.705 27.128 26.363 C 28.38 25.599 29.881 25.356 31.31 25.688 C 32.095 25.85 32.77 26.263 33.465 26.635 C 33.916 26.889 34.422 27.029 34.939 27.044 C 35.456 27.058 35.969 26.946 36.433 26.718 C 37.048 26.433 37.658 26.138 38.28 25.865 C 38.368 25.833 38.446 25.781 38.509 25.711 C 38.571 25.642 38.615 25.558 38.638 25.468 C 39.23 23.285 39.888 21.113 40.41 18.913 C 41.072 16.119 41.505 13.276 41.705 10.413 C 41.798 9.118 41.848 7.82 41.888 6.523 C 41.918 5.871 41.809 5.22 41.57 4.613 C 41.331 4.006 40.967 3.456 40.5 3 C 40.198 2.668 39.798 2.441 39.359 2.352 C 38.92 2.262 38.463 2.314 38.055 2.5 C 37.333 2.802 36.689 3.264 36.173 3.853 C 35.17 4.954 34.328 6.192 33.673 7.53 C 32.653 9.53 31.728 11.578 30.693 13.57 C 29.245 16.282 27.983 19.09 26.915 21.973 C 26.298 23.68 25.75 25.398 25.148 27.15 Z  M 21.47 5.358 C 21.51 4.973 21.545 4.638 21.585 4.303 C 21.629 4.002 21.576 3.695 21.435 3.426 C 21.294 3.156 21.072 2.938 20.8 2.803 C 20.535 2.67 20.234 2.625 19.941 2.676 C 19.649 2.727 19.38 2.87 19.175 3.085 C 18.96 3.295 18.76 3.515 18.538 3.748 C 18.258 3.498 18.015 3.263 17.753 3.05 C 17.513 2.833 17.212 2.695 16.892 2.655 C 16.571 2.615 16.246 2.674 15.96 2.825 C 15.667 2.956 15.42 3.171 15.249 3.442 C 15.079 3.714 14.992 4.029 15 4.35 C 15 4.658 15 4.965 15 5.29 C 14.708 5.313 14.45 5.335 14.193 5.35 C 13.816 5.363 13.448 5.461 13.115 5.637 C 12.782 5.813 12.493 6.061 12.27 6.364 C 12.046 6.667 11.894 7.016 11.824 7.386 C 11.755 7.756 11.77 8.137 11.868 8.5 C 11.973 8.858 12.04 9.228 12.143 9.68 C 11.685 9.68 11.278 9.66 10.873 9.68 C 10.356 9.707 9.856 9.866 9.419 10.142 C 8.982 10.418 8.623 10.802 8.377 11.256 C 8.131 11.711 8.005 12.221 8.013 12.738 C 8.021 13.254 8.161 13.761 8.42 14.208 L 8.815 14.893 C 8.417 15.265 8.047 15.668 7.71 16.098 C 7.562 16.334 7.475 16.603 7.457 16.881 C 7.439 17.159 7.49 17.437 7.605 17.69 C 7.755 17.608 7.875 17.538 7.998 17.473 C 8.12 17.408 8.26 17.333 8.395 17.27 C 9.808 16.603 11.205 16.58 12.585 17.363 C 13.424 17.872 14.16 18.534 14.755 19.315 C 14.818 19.393 14.885 19.465 15.005 19.593 C 15.027 18.377 15.422 17.197 16.135 16.212 C 16.405 15.818 16.703 15.44 16.993 15.06 C 17.36 14.58 17.343 14.49 16.81 14.215 C 16.516 14.07 16.26 13.86 16.062 13.599 C 15.863 13.339 15.727 13.036 15.665 12.715 L 15.575 12.308 C 15.495 12.017 15.476 11.713 15.52 11.415 C 15.564 11.117 15.671 10.832 15.832 10.577 C 15.993 10.323 16.206 10.105 16.457 9.938 C 16.708 9.771 16.991 9.658 17.288 9.608 C 19.278 9.171 21.268 8.737 23.258 8.305 C 23.85 8.18 24.468 8.29 24.98 8.613 C 25.845 9.113 26.325 11.023 25.818 11.885 C 25.723 12.048 25.62 12.208 25.51 12.363 C 25.285 12.685 25.323 12.863 25.663 13.06 C 25.803 13.135 25.948 13.203 26.085 13.285 C 26.715 13.66 27.335 14.035 27.983 14.425 C 28.303 13.973 28.504 13.448 28.568 12.898 C 28.684 12.007 28.482 11.103 27.997 10.347 C 27.512 9.59 26.776 9.029 25.918 8.763 C 25.418 8.588 25.418 8.588 25.378 8.06 L 25.378 8.03 C 25.354 7.348 25.079 6.698 24.606 6.206 C 24.132 5.714 23.494 5.415 22.813 5.365 C 22.38 5.325 21.95 5.358 21.47 5.358 Z  M 15.52 27.048 C 15.714 26.096 15.732 25.118 15.573 24.16 C 15.21 22.055 14.048 20.41 12.518 18.998 C 11.518 18.088 10.518 18.033 9.355 18.748 C 8.779 19.112 8.239 19.531 7.743 19.998 C 6.984 20.692 6.078 21.206 5.093 21.5 C 4.369 21.724 3.672 22.024 3.013 22.395 C 1.98 22.985 1.605 23.955 1.85 25.11 C 1.864 25.191 1.907 25.265 1.97 25.318 C 2.55 25.648 3.145 25.955 3.72 26.29 C 4.352 26.68 5.08 26.89 5.823 26.895 C 6.685 26.895 7.423 26.55 8.148 26.115 C 9.274 25.441 10.613 25.216 11.898 25.483 C 12.753 25.64 13.475 26.078 14.213 26.503 C 14.637 26.711 15.074 26.893 15.52 27.048 Z  M 18.935 13.71 C 19.155 14.675 18.74 15.4 18.165 16.085 C 17.886 16.424 17.626 16.778 17.385 17.145 C 17.085 17.554 16.87 18.018 16.751 18.511 C 16.632 19.003 16.612 19.515 16.693 20.015 C 16.878 21.065 17.128 22.105 17.36 23.148 C 17.376 23.191 17.402 23.229 17.436 23.26 C 17.47 23.291 17.511 23.313 17.555 23.325 C 18.316 23.446 19.091 23.441 19.85 23.31 C 20.799 23.098 21.69 22.683 22.463 22.093 C 23.525 21.343 24.633 20.668 25.903 20.315 C 25.988 20.295 26.066 20.254 26.131 20.194 C 26.195 20.134 26.242 20.059 26.268 19.975 C 26.615 19.125 26.918 18.253 27.34 17.44 C 27.638 16.87 27.513 16.508 27.115 16.083 C 26.469 15.44 25.714 14.918 24.885 14.54 C 24.135 14.158 23.505 13.663 23.305 12.79 C 23.259 12.786 23.213 12.786 23.168 12.79 L 18.935 13.71 L 18.935 13.71 Z  M 24.31 10.675 C 24.31 10.053 23.743 9.645 23.06 9.795 C 21.353 10.173 19.652 10.555 17.955 10.94 C 17.809 10.973 17.668 11.027 17.538 11.1 C 17.331 11.214 17.172 11.398 17.087 11.618 C 17.003 11.839 17 12.082 17.078 12.305 C 17.253 12.74 17.655 12.918 18.193 12.805 L 18.835 12.665 L 23.478 11.628 C 24.013 11.5 24.313 11.153 24.31 10.675 Z  M 25.463 21.723 C 25.31 21.813 25.213 21.863 25.128 21.923 C 24.608 22.293 24.075 22.648 23.57 23.035 C 22.183 24.1 20.673 24.833 18.89 24.883 C 18.505 24.883 18.12 24.883 17.725 24.883 C 17.783 25.183 17.845 25.493 17.913 25.84 C 18.876 25.392 19.947 25.229 21 25.37 C 22.073 25.513 22.965 26.048 23.828 26.658 C 24.37 25.013 24.905 23.403 25.463 21.723 Z " fill="rgb(255,255,255)"/><path d=" M 11.43 49.61 L 6.305 49.61 C 6.225 49.61 6.145 49.61 6.055 49.61 C 5.828 49.61 5.61 49.52 5.449 49.359 C 5.288 49.198 5.198 48.98 5.198 48.753 C 5.198 48.525 5.288 48.307 5.449 48.146 C 5.61 47.986 5.828 47.895 6.055 47.895 C 6.135 47.895 6.215 47.895 6.305 47.895 L 16.555 47.895 C 17.195 47.895 17.643 48.245 17.648 48.75 C 17.653 49.255 17.203 49.615 16.563 49.615 L 11.43 49.61 L 11.43 49.61 Z " fill="rgb(255,255,255)"/><path d=" M 10.44 44.47 C 11.85 44.47 13.26 44.47 14.667 44.47 C 14.924 44.475 15.175 44.55 15.392 44.688 C 15.499 44.755 15.587 44.849 15.648 44.96 C 15.709 45.071 15.741 45.195 15.741 45.321 C 15.741 45.448 15.709 45.572 15.648 45.683 C 15.587 45.794 15.499 45.888 15.392 45.955 C 15.158 46.102 14.887 46.18 14.61 46.18 C 11.842 46.195 9.072 46.18 6.302 46.18 C 6.143 46.183 5.984 46.163 5.83 46.123 C 5.643 46.078 5.478 45.97 5.362 45.818 C 5.246 45.665 5.186 45.477 5.192 45.285 C 5.2 45.098 5.27 44.919 5.391 44.777 C 5.512 44.634 5.677 44.536 5.86 44.498 C 5.995 44.467 6.134 44.453 6.272 44.455 L 10.44 44.47 L 10.44 44.47 Z " fill="rgb(255,255,255)"/><path d=" M 9.5 41.05 C 10.577 41.05 11.657 41.05 12.735 41.05 C 12.874 41.048 13.013 41.065 13.147 41.1 C 13.333 41.14 13.499 41.243 13.618 41.39 C 13.737 41.538 13.802 41.722 13.802 41.911 C 13.802 42.101 13.737 42.285 13.618 42.433 C 13.499 42.58 13.333 42.683 13.147 42.723 C 13.003 42.759 12.854 42.777 12.705 42.775 L 6.205 42.775 C 5.597 42.775 5.185 42.42 5.182 41.913 C 5.18 41.405 5.595 41.048 6.197 41.045 L 9.5 41.05 L 9.5 41.05 Z " fill="rgb(255,255,255)"/><path d=" M 21.443 49.61 C 21.123 49.61 20.803 49.61 20.485 49.61 C 20.365 49.621 20.245 49.607 20.131 49.569 C 20.017 49.531 19.913 49.47 19.824 49.389 C 19.735 49.308 19.664 49.21 19.616 49.1 C 19.567 48.99 19.542 48.871 19.542 48.751 C 19.542 48.631 19.567 48.513 19.616 48.403 C 19.664 48.293 19.735 48.195 19.824 48.114 C 19.913 48.033 20.017 47.971 20.131 47.933 C 20.245 47.895 20.365 47.881 20.485 47.893 C 21.133 47.893 21.783 47.893 22.43 47.893 C 22.55 47.88 22.672 47.892 22.787 47.929 C 22.903 47.966 23.009 48.027 23.099 48.108 C 23.189 48.189 23.261 48.288 23.31 48.399 C 23.36 48.509 23.385 48.629 23.385 48.75 C 23.385 48.871 23.36 48.991 23.31 49.102 C 23.261 49.212 23.189 49.311 23.099 49.392 C 23.009 49.473 22.903 49.534 22.787 49.571 C 22.672 49.608 22.55 49.621 22.43 49.608 C 22.1 49.615 21.77 49.61 21.443 49.61 Z " fill="rgb(255,255,255)"/><path d=" M 40.27 44.38 C 40.272 44.485 40.253 44.589 40.214 44.686 C 40.175 44.784 40.117 44.872 40.044 44.947 C 39.97 45.021 39.882 45.08 39.785 45.12 C 39.689 45.161 39.585 45.181 39.48 45.18 C 39.374 45.182 39.269 45.163 39.171 45.124 C 39.073 45.085 38.983 45.027 38.907 44.953 C 38.831 44.88 38.771 44.792 38.729 44.695 C 38.687 44.598 38.664 44.493 38.663 44.388 C 38.661 44.282 38.68 44.177 38.719 44.079 C 38.758 43.98 38.816 43.891 38.889 43.815 C 38.963 43.739 39.051 43.678 39.148 43.636 C 39.245 43.594 39.349 43.572 39.455 43.57 C 39.563 43.566 39.67 43.585 39.77 43.624 C 39.87 43.663 39.962 43.723 40.038 43.799 C 40.114 43.875 40.174 43.965 40.214 44.065 C 40.254 44.165 40.273 44.273 40.27 44.38 Z " fill="rgb(255,255,255)"/><path d=" M 35.828 16.765 C 35.581 16.731 35.337 16.685 35.095 16.625 C 34.245 16.375 33.595 16.675 33.25 17.49 C 33.19 17.667 33.068 17.817 32.907 17.911 C 32.746 18.006 32.556 18.039 32.373 18.005 C 32.202 17.987 32.042 17.91 31.921 17.788 C 31.8 17.666 31.725 17.506 31.708 17.335 C 31.697 17.157 31.727 16.978 31.795 16.813 C 32.066 16.122 32.584 15.558 33.249 15.23 C 33.914 14.902 34.678 14.834 35.39 15.04 C 36.345 15.313 36.91 15.055 37.323 14.155 C 37.405 13.967 37.556 13.817 37.746 13.737 C 37.935 13.657 38.148 13.653 38.341 13.725 C 38.533 13.798 38.691 13.941 38.78 14.127 C 38.87 14.312 38.885 14.524 38.823 14.72 C 38.5 15.888 37.268 16.765 35.828 16.765 Z " fill="rgb(255,255,255)"/><path d=" M 34.078 23.333 C 33.755 23.27 33.43 23.22 33.115 23.138 C 32.778 23.033 32.413 23.059 32.094 23.212 C 31.775 23.364 31.525 23.632 31.395 23.96 C 31.178 24.475 30.75 24.683 30.3 24.493 C 29.85 24.303 29.708 23.86 29.905 23.358 C 30.179 22.67 30.698 22.107 31.361 21.778 C 32.025 21.45 32.787 21.378 33.5 21.578 C 34.463 21.848 35.013 21.598 35.435 20.695 C 35.476 20.598 35.535 20.51 35.61 20.436 C 35.685 20.362 35.774 20.304 35.872 20.265 C 35.97 20.226 36.074 20.207 36.18 20.208 C 36.285 20.21 36.389 20.233 36.485 20.275 C 36.681 20.358 36.835 20.516 36.915 20.712 C 36.994 20.909 36.993 21.13 36.91 21.325 C 36.698 21.908 36.313 22.412 35.807 22.77 C 35.301 23.129 34.698 23.325 34.078 23.333 Z " fill="rgb(255,255,255)"/><path d=" M 36.365 8.61 C 36.615 8.653 36.865 8.678 37.097 8.743 C 37.812 8.935 38.21 8.758 38.52 8.085 C 38.588 7.917 38.712 7.777 38.871 7.689 C 39.029 7.6 39.213 7.569 39.392 7.6 C 39.563 7.62 39.722 7.698 39.842 7.821 C 39.962 7.944 40.036 8.104 40.052 8.275 C 40.062 8.473 40.025 8.671 39.945 8.853 C 39.696 9.426 39.251 9.892 38.69 10.167 C 38.129 10.442 37.488 10.508 36.882 10.353 C 36.027 10.128 35.745 10.255 35.347 11.033 C 35.253 11.215 35.092 11.353 34.898 11.421 C 34.705 11.488 34.493 11.479 34.305 11.396 C 34.118 11.312 33.97 11.16 33.891 10.971 C 33.812 10.782 33.808 10.57 33.88 10.378 C 34.065 9.865 34.402 9.421 34.846 9.106 C 35.29 8.79 35.82 8.617 36.365 8.61 Z " fill="rgb(255,255,255)"/></g></svg>