<?xml version="1.0" encoding="UTF-8" standalone="no"?><!-- Generator: Gravit.io --><svg xmlns="http://www.w3.org/2000/svg" xmlns:xlink="http://www.w3.org/1999/xlink" style="isolation:isolate" viewBox="0 0 53 56" width="53pt" height="56pt"><defs><clipPath id="_clipPath_UIvf8ngi2000sxApxEYQBBagvkvA8aDY"><rect width="53" height="56"/></clipPath></defs><g clip-path="url(#_clipPath_UIvf8ngi2000sxApxEYQBBagvkvA8aDY)"><path d=" M 42.403 37.603 C 36.36 34.333 35.268 29.813 35.078 28.02 C 34.693 24.378 31.673 23.415 30.128 23.415 C 28.98 23.42 27.869 23.82 26.982 24.549 C 26.095 25.277 25.487 26.29 25.26 27.415 C 24.687 30.286 24.398 33.205 24.398 36.133 C 24.398 38.785 24.518 41.45 24.75 44.055 C 24.868 45.41 25.491 46.671 26.495 47.587 C 27.5 48.503 28.813 49.008 30.173 49 L 39 49 C 40.443 48.998 41.827 48.424 42.847 47.403 C 43.867 46.382 44.441 44.998 44.443 43.555 L 44.443 41.025 C 44.442 40.324 44.253 39.635 43.894 39.033 C 43.535 38.431 43.019 37.936 42.403 37.603 Z  M 42.853 43.548 C 42.852 44.569 42.446 45.548 41.723 46.27 C 41.001 46.992 40.021 47.398 39 47.398 L 30.173 47.398 C 29.211 47.404 28.282 47.046 27.571 46.398 C 26.861 45.749 26.421 44.856 26.34 43.898 C 26.11 41.34 25.995 38.723 25.995 36.118 C 25.994 33.297 26.272 30.483 26.825 27.718 C 26.979 26.954 27.391 26.266 27.993 25.771 C 28.594 25.276 29.348 25.004 30.128 25 C 30.25 25 33.16 25.038 33.49 28.178 C 34.138 34.31 39.408 37.788 41.645 38.998 C 42.01 39.194 42.315 39.485 42.527 39.84 C 42.74 40.195 42.852 40.601 42.853 41.015 L 42.853 43.548 L 42.853 43.548 Z " fill="rgb(0,0,0)"/><path d=" M 47.38 32.583 C 47.321 29.029 46.46 25.535 44.862 22.36 C 44.645 21.931 44.318 21.567 43.914 21.305 C 43.511 21.043 43.046 20.891 42.566 20.866 C 42.086 20.841 41.607 20.942 41.179 21.161 C 40.75 21.379 40.387 21.707 40.125 22.11 L 37.875 25.575 C 37.461 26.206 37.229 26.939 37.206 27.694 C 37.182 28.448 37.368 29.195 37.742 29.85 C 38.937 31.967 40.595 33.787 42.592 35.173 C 43.063 35.47 43.602 35.642 44.158 35.671 C 44.714 35.7 45.268 35.586 45.767 35.34 C 46.269 35.079 46.686 34.682 46.971 34.194 C 47.256 33.706 47.398 33.147 47.38 32.583 Z  M 45.015 33.925 C 44.779 34.055 44.512 34.117 44.243 34.103 C 43.975 34.089 43.715 33.999 43.495 33.845 C 41.697 32.598 40.206 30.959 39.132 29.053 C 38.902 28.651 38.788 28.193 38.803 27.731 C 38.817 27.268 38.96 26.819 39.215 26.433 L 41.465 22.97 C 41.568 22.793 41.718 22.648 41.898 22.551 C 42.078 22.454 42.282 22.409 42.486 22.42 C 42.69 22.431 42.888 22.499 43.056 22.615 C 43.224 22.732 43.357 22.893 43.44 23.08 C 44.904 26.048 45.705 29.299 45.787 32.608 C 45.795 32.877 45.726 33.144 45.589 33.377 C 45.453 33.61 45.254 33.8 45.015 33.925 Z " fill="rgb(0,0,0)"/><path d=" M 44.71 13.948 C 45.148 13.574 45.471 13.085 45.641 12.535 C 45.812 11.986 45.823 11.399 45.674 10.844 C 45.525 10.288 45.221 9.786 44.799 9.396 C 44.376 9.006 43.851 8.744 43.285 8.64 L 43.285 4.39 C 43.284 3.425 42.9 2.5 42.217 1.818 C 41.535 1.135 40.61 0.751 39.645 0.75 L 32.75 0.75 C 31.784 0.749 30.856 1.132 30.172 1.815 C 29.488 2.497 29.102 3.423 29.1 4.39 L 29.1 8.64 C 28.548 8.741 28.035 8.993 27.617 9.368 C 27.199 9.743 26.893 10.226 26.733 10.764 C 26.573 11.302 26.565 11.874 26.709 12.417 C 26.854 12.959 27.146 13.451 27.553 13.838 C 24.693 16.986 22.493 20.674 21.083 24.687 C 19.673 28.699 19.081 32.953 19.343 37.198 C 19.37 37.655 19.395 38.1 19.42 38.535 L 7.75 38.535 C 7.538 38.535 7.336 38.619 7.186 38.769 C 7.037 38.918 6.952 39.121 6.952 39.333 C 6.952 39.544 7.037 39.747 7.186 39.896 C 7.336 40.046 7.538 40.13 7.75 40.13 L 19.52 40.13 C 19.593 41.377 19.659 42.52 19.718 43.56 L 6.057 43.56 C 4.936 43.56 3.861 43.115 3.068 42.322 C 2.275 41.529 1.83 40.454 1.83 39.333 C 1.83 38.211 2.275 37.136 3.068 36.343 C 3.861 35.55 4.936 35.105 6.057 35.105 L 16.47 35.105 C 16.674 35.094 16.866 35.004 17.007 34.856 C 17.147 34.707 17.225 34.511 17.225 34.306 C 17.225 34.102 17.147 33.905 17.007 33.757 C 16.866 33.608 16.674 33.519 16.47 33.508 L 6.057 33.508 C 4.861 33.507 3.694 33.874 2.714 34.56 C 1.735 35.246 0.99 36.217 0.582 37.341 C 0.174 38.466 0.122 39.688 0.433 40.843 C 0.745 41.998 1.404 43.029 2.322 43.795 C 1.792 44.005 1.325 44.348 0.967 44.792 C 0.608 45.235 0.37 45.764 0.276 46.327 C 0.183 46.889 0.236 47.466 0.431 48.002 C 0.626 48.538 0.956 49.015 1.39 49.385 C 0.876 49.825 0.509 50.412 0.338 51.067 C 0.168 51.722 0.203 52.414 0.438 53.049 C 0.672 53.683 1.096 54.231 1.652 54.617 C 2.207 55.004 2.868 55.211 3.545 55.21 L 44.84 55.21 C 46.714 55.209 48.517 54.492 49.88 53.207 C 51.243 51.921 52.064 50.163 52.175 48.293 L 52.248 47.055 C 52.254 46.95 52.239 46.846 52.205 46.747 C 52.17 46.648 52.117 46.557 52.047 46.478 C 51.977 46.4 51.893 46.336 51.799 46.291 C 51.704 46.245 51.602 46.219 51.498 46.213 C 51.393 46.206 51.288 46.221 51.189 46.255 C 51.09 46.29 50.999 46.343 50.921 46.413 C 50.843 46.483 50.779 46.567 50.733 46.661 C 50.688 46.756 50.661 46.858 50.655 46.963 L 50.583 48.213 C 50.497 49.679 49.854 51.057 48.784 52.064 C 47.715 53.07 46.301 53.63 44.833 53.628 L 27.32 53.628 C 25.851 53.63 24.437 53.07 23.368 52.064 C 22.299 51.057 21.656 49.679 21.57 48.213 C 21.51 47.15 21.088 39.895 20.928 37.118 C 20.672 33.015 21.257 28.903 22.646 25.035 C 24.035 21.166 26.199 17.621 29.005 14.618 C 29.213 14.66 43.028 14.673 43.175 14.653 C 45.976 17.65 48.134 21.188 49.517 25.05 C 50.9 28.912 51.479 33.016 51.218 37.11 C 51.078 39.558 51.115 38.723 51.01 40.53 C 50.998 40.64 51.011 40.75 51.046 40.855 C 51.081 40.959 51.138 41.055 51.214 41.135 C 51.289 41.215 51.381 41.278 51.483 41.32 C 51.585 41.361 51.695 41.38 51.805 41.375 C 52.007 41.371 52.201 41.293 52.348 41.154 C 52.496 41.015 52.586 40.827 52.603 40.625 C 52.708 38.818 52.67 39.65 52.81 37.205 C 53.079 32.984 52.501 28.752 51.11 24.758 C 49.719 20.764 47.543 17.088 44.71 13.948 Z  M 22.75 53.615 L 3.545 53.615 C 3.314 53.624 3.084 53.586 2.868 53.504 C 2.652 53.421 2.455 53.296 2.288 53.136 C 2.122 52.976 1.989 52.784 1.899 52.571 C 1.809 52.359 1.762 52.13 1.762 51.899 C 1.762 51.668 1.809 51.439 1.899 51.226 C 1.989 51.014 2.122 50.822 2.288 50.661 C 2.455 50.501 2.652 50.376 2.868 50.294 C 3.084 50.212 3.314 50.174 3.545 50.183 C 3.756 50.183 3.959 50.099 4.109 49.949 C 4.258 49.799 4.342 49.597 4.342 49.385 C 4.342 49.174 4.258 48.971 4.109 48.821 C 3.959 48.672 3.756 48.588 3.545 48.588 C 3.09 48.588 2.654 48.407 2.332 48.085 C 2.011 47.764 1.83 47.327 1.83 46.873 C 1.83 46.418 2.011 45.981 2.332 45.66 C 2.654 45.338 3.09 45.158 3.545 45.158 L 19.795 45.158 C 19.865 46.345 19.993 48.49 20.003 48.588 L 7.75 48.588 C 7.538 48.588 7.336 48.672 7.186 48.821 C 7.037 48.971 6.952 49.174 6.952 49.385 C 6.952 49.597 7.037 49.799 7.186 49.949 C 7.336 50.099 7.538 50.183 7.75 50.183 L 20.35 50.183 C 20.801 51.535 21.635 52.727 22.75 53.615 Z  M 30.693 4.39 C 30.693 4.12 30.746 3.853 30.849 3.604 C 30.953 3.355 31.105 3.129 31.296 2.939 C 31.487 2.748 31.714 2.598 31.963 2.495 C 32.213 2.393 32.48 2.341 32.75 2.343 L 39.653 2.343 C 40.195 2.343 40.715 2.559 41.099 2.943 C 41.482 3.327 41.698 3.847 41.698 4.39 L 41.698 8.588 L 30.698 8.588 L 30.693 4.39 L 30.693 4.39 Z  M 42.728 13.085 L 29.655 13.085 C 29.281 13.07 28.927 12.91 28.667 12.639 C 28.408 12.369 28.263 12.009 28.263 11.634 C 28.263 11.259 28.408 10.899 28.667 10.628 C 28.927 10.358 29.281 10.198 29.655 10.183 L 42.733 10.183 C 43.107 10.198 43.461 10.358 43.72 10.628 C 43.98 10.899 44.125 11.259 44.125 11.634 C 44.125 12.009 43.98 12.369 43.72 12.639 C 43.461 12.91 43.107 13.07 42.733 13.085 L 42.728 13.085 L 42.728 13.085 Z " fill="rgb(0,0,0)"/><path d=" M 14.453 25.72 C 15.398 25.721 16.321 25.441 17.107 24.916 C 17.893 24.391 18.506 23.645 18.868 22.773 C 19.23 21.9 19.325 20.939 19.141 20.012 C 18.957 19.085 18.502 18.234 17.834 17.565 C 17.166 16.897 16.315 16.442 15.388 16.257 C 14.461 16.072 13.5 16.167 12.627 16.528 C 11.754 16.89 11.008 17.502 10.483 18.288 C 9.958 19.074 9.677 19.998 9.677 20.943 C 9.679 22.209 10.182 23.423 11.077 24.318 C 11.973 25.214 13.186 25.718 14.453 25.72 Z  M 14.453 17.51 C 15.132 17.51 15.797 17.711 16.362 18.088 C 16.927 18.465 17.368 19.002 17.628 19.629 C 17.888 20.257 17.957 20.948 17.824 21.615 C 17.692 22.281 17.364 22.893 16.884 23.374 C 16.403 23.854 15.791 24.182 15.125 24.314 C 14.458 24.447 13.767 24.378 13.139 24.118 C 12.512 23.858 11.975 23.417 11.598 22.852 C 11.221 22.287 11.02 21.622 11.02 20.943 C 11.019 20.491 11.107 20.044 11.279 19.626 C 11.451 19.209 11.704 18.829 12.023 18.51 C 12.341 18.19 12.72 17.936 13.137 17.763 C 13.554 17.59 14.001 17.5 14.453 17.5 L 14.453 17.51 L 14.453 17.51 Z " fill="rgb(0,0,0)"/><path d=" M 5.695 28.11 C 6.325 28.108 6.939 27.92 7.462 27.568 C 7.984 27.217 8.391 26.719 8.631 26.137 C 8.87 25.555 8.932 24.915 8.808 24.298 C 8.684 23.68 8.38 23.114 7.934 22.669 C 7.488 22.225 6.92 21.923 6.303 21.801 C 5.685 21.678 5.045 21.742 4.464 21.983 C 3.883 22.225 3.386 22.633 3.036 23.157 C 2.687 23.68 2.5 24.296 2.5 24.925 C 2.5 25.344 2.583 25.759 2.744 26.146 C 2.904 26.533 3.14 26.885 3.437 27.181 C 3.733 27.477 4.086 27.711 4.473 27.87 C 4.861 28.03 5.276 28.111 5.695 28.11 Z  M 5.695 23.03 C 6.07 23.03 6.436 23.141 6.748 23.349 C 7.06 23.558 7.302 23.854 7.446 24.2 C 7.589 24.546 7.627 24.927 7.554 25.295 C 7.481 25.662 7.3 26 7.035 26.265 C 6.77 26.53 6.432 26.71 6.065 26.784 C 5.697 26.857 5.316 26.819 4.97 26.676 C 4.624 26.532 4.328 26.289 4.119 25.978 C 3.911 25.666 3.8 25.3 3.8 24.925 C 3.8 24.676 3.849 24.43 3.944 24.2 C 4.04 23.97 4.179 23.761 4.355 23.585 C 4.531 23.409 4.74 23.27 4.97 23.174 C 5.2 23.079 5.446 23.03 5.695 23.03 Z " fill="rgb(0,0,0)"/><path d=" M 5.695 19.35 C 6.167 19.35 6.629 19.21 7.021 18.948 C 7.414 18.685 7.72 18.313 7.901 17.876 C 8.081 17.44 8.129 16.96 8.037 16.497 C 7.944 16.034 7.717 15.608 7.383 15.274 C 7.049 14.94 6.624 14.713 6.161 14.621 C 5.698 14.529 5.218 14.576 4.781 14.757 C 4.345 14.938 3.972 15.244 3.71 15.636 C 3.447 16.029 3.307 16.49 3.307 16.963 C 3.307 17.596 3.559 18.203 4.007 18.651 C 4.454 19.099 5.062 19.35 5.695 19.35 Z  M 5.695 15.963 C 5.893 15.963 6.086 16.021 6.251 16.131 C 6.415 16.241 6.543 16.397 6.619 16.58 C 6.695 16.763 6.714 16.964 6.676 17.158 C 6.637 17.352 6.542 17.53 6.402 17.67 C 6.262 17.81 6.084 17.905 5.89 17.943 C 5.696 17.982 5.495 17.962 5.312 17.886 C 5.13 17.811 4.973 17.683 4.863 17.518 C 4.754 17.354 4.695 17.16 4.695 16.963 C 4.695 16.831 4.721 16.701 4.771 16.58 C 4.821 16.459 4.895 16.348 4.988 16.255 C 5.081 16.163 5.191 16.089 5.312 16.039 C 5.434 15.988 5.564 15.963 5.695 15.963 Z " fill="rgb(0,0,0)"/><path d=" M 52.188 43.173 C 52.038 43.059 51.856 42.997 51.669 42.994 C 51.481 42.992 51.298 43.049 51.145 43.158 C 50.993 43.267 50.879 43.422 50.82 43.6 C 50.762 43.778 50.762 43.97 50.82 44.149 C 50.879 44.327 50.993 44.482 51.145 44.591 C 51.298 44.699 51.481 44.757 51.669 44.754 C 51.856 44.752 52.038 44.689 52.188 44.576 C 52.337 44.463 52.447 44.305 52.5 44.125 C 52.551 43.953 52.548 43.77 52.492 43.6 C 52.436 43.43 52.33 43.281 52.188 43.173 Z " fill="rgb(255,255,255)"/></g></svg>