<svg width="53" height="56" viewBox="0 0 53 56" fill="none" xmlns="http://www.w3.org/2000/svg">
<path d="M42.4025 37.6025C36.36 34.3325 35.2675 29.8125 35.0775 28.02C34.6925 24.3775 31.6725 23.415 30.1275 23.415C28.9797 23.4195 27.8686 23.8199 26.9818 24.5486C26.095 25.2774 25.4868 26.2898 25.26 27.415C24.6866 30.2855 24.3977 33.2054 24.3975 36.1325C24.3975 38.785 24.5175 41.45 24.75 44.055C24.8675 45.4097 25.4905 46.6706 26.4952 47.5869C27.5 48.5031 28.8128 49.0076 30.1725 49H39C40.4433 48.998 41.8268 48.4237 42.8471 47.4029C43.8674 46.3821 44.4412 44.9983 44.4425 43.555V41.025C44.4424 40.3237 44.2527 39.6354 43.8936 39.033C43.5345 38.4305 43.0193 37.9363 42.4025 37.6025ZM42.8525 43.5475C42.8519 44.5688 42.4457 45.5481 41.7233 46.27C41.0009 46.992 40.0213 47.3975 39 47.3975H30.1725C29.2105 47.4035 28.2816 47.0464 27.5712 46.3977C26.8608 45.7489 26.4212 44.8562 26.34 43.8975C26.11 41.34 25.995 38.7225 25.995 36.1175C25.9939 33.297 26.2719 30.4833 26.825 27.7175C26.9787 26.9537 27.3911 26.2662 27.9927 25.7712C28.5944 25.2761 29.3484 25.0037 30.1275 25C30.25 25 33.16 25.0375 33.49 28.1775C34.1375 34.31 39.4075 37.7875 41.645 38.9975C42.0097 39.1935 42.3145 39.4845 42.5271 39.8397C42.7397 40.1949 42.8522 40.6011 42.8525 41.015V43.5475Z" fill="white"/>
<path d="M47.3798 32.5825C47.3208 29.029 46.4603 25.5346 44.8623 22.36C44.6445 21.9312 44.3176 21.5673 43.9144 21.305C43.5113 21.0427 43.0461 20.8913 42.5658 20.8659C42.0855 20.8406 41.607 20.9422 41.1785 21.1606C40.75 21.379 40.3865 21.7065 40.1248 22.11L37.8748 25.575C37.4606 26.2061 37.2291 26.9394 37.2057 27.6938C37.1823 28.4483 37.368 29.1945 37.7423 29.85C38.9371 31.9671 40.5951 33.7866 42.5923 35.1725C43.0629 35.47 43.602 35.6417 44.1579 35.671C44.7139 35.7004 45.2681 35.5864 45.7673 35.34C46.2685 35.0789 46.6858 34.6816 46.9711 34.1937C47.2564 33.7059 47.3981 33.1474 47.3798 32.5825ZM45.0148 33.925C44.7794 34.0553 44.5121 34.1169 44.2434 34.1027C43.9747 34.0886 43.7153 33.9993 43.4948 33.845C41.6973 32.5976 40.2058 30.9591 39.1323 29.0525C38.9022 28.651 38.7881 28.1934 38.8027 27.7308C38.8172 27.2683 38.9599 26.8188 39.2148 26.4325L41.4648 22.97C41.5678 22.7931 41.7176 22.648 41.8978 22.5509C42.0781 22.4538 42.2816 22.4085 42.486 22.4199C42.6904 22.4313 42.8877 22.4989 43.056 22.6154C43.2243 22.732 43.3572 22.8927 43.4398 23.08C44.9043 26.0479 45.7053 29.299 45.7873 32.6075C45.7945 32.8774 45.7259 33.1438 45.5894 33.3767C45.4528 33.6095 45.2538 33.7995 45.0148 33.925Z" fill="white"/>
<path d="M44.71 13.9475C45.1477 13.5742 45.4706 13.0845 45.6413 12.5351C45.8119 11.9857 45.8233 11.3992 45.6742 10.8436C45.525 10.288 45.2214 9.78605 44.7985 9.39602C44.3756 9.006 43.8508 8.74385 43.285 8.64V4.39C43.2836 3.42502 42.8997 2.49994 42.2174 1.81759C41.535 1.13525 40.61 0.751324 39.645 0.750001H32.75C31.7835 0.749336 30.8562 1.1323 30.1718 1.81479C29.4875 2.49728 29.102 3.42349 29.1 4.39V8.64C28.5479 8.74128 28.0345 8.99333 27.6168 9.36825C27.199 9.74318 26.8931 10.2264 26.7329 10.7644C26.5727 11.3024 26.5645 11.8742 26.7092 12.4165C26.8538 12.9589 27.1457 13.4507 27.5525 13.8375C24.6931 16.9855 22.4934 20.6744 21.0833 24.6866C19.6732 28.6988 19.0813 32.9528 19.3425 37.1975C19.37 37.655 19.395 38.1 19.42 38.535H7.74997C7.53846 38.535 7.33562 38.619 7.18606 38.7686C7.0365 38.9181 6.95247 39.121 6.95247 39.3325C6.95247 39.544 7.0365 39.7469 7.18606 39.8964C7.33562 40.046 7.53846 40.13 7.74997 40.13H19.52C19.5933 41.3767 19.6591 42.52 19.7175 43.56H6.05747C4.93627 43.56 3.86099 43.1146 3.06818 42.3218C2.27537 41.529 1.82997 40.4537 1.82997 39.3325C1.82997 38.2113 2.27537 37.136 3.06818 36.3432C3.86099 35.5504 4.93627 35.105 6.05747 35.105H16.47C16.6741 35.0936 16.8661 35.0044 17.0065 34.8559C17.147 34.7074 17.2253 34.5107 17.2253 34.3063C17.2253 34.1018 17.147 33.9051 17.0065 33.7566C16.8661 33.6081 16.6741 33.5189 16.47 33.5075H6.05747C4.86147 33.5065 3.69419 33.874 2.71447 34.56C1.73474 35.246 0.990147 36.2171 0.581991 37.3413C0.173834 38.4655 0.121937 39.6882 0.43336 40.8429C0.744783 41.9977 1.4044 43.0285 2.32247 43.795C1.79212 44.0048 1.32502 44.3481 0.966519 44.7916C0.60802 45.2352 0.370308 45.7639 0.276466 46.3265C0.182624 46.889 0.235841 47.4663 0.430948 48.0022C0.626055 48.5381 0.956423 49.0145 1.38997 49.385C0.875713 49.825 0.508703 50.4121 0.338407 51.0672C0.168111 51.7222 0.202714 52.4137 0.437552 53.0485C0.67239 53.6833 1.09617 54.2308 1.65179 54.6173C2.20741 55.0038 2.86815 55.2106 3.54497 55.21H44.84C46.7139 55.2088 48.5166 54.4922 49.8799 53.2065C51.2432 51.9208 52.0641 50.1631 52.175 48.2925L52.2475 47.055C52.2535 46.9504 52.239 46.8457 52.2046 46.7468C52.1702 46.6478 52.1166 46.5567 52.047 46.4784C51.9773 46.4002 51.8929 46.3364 51.7987 46.2908C51.7044 46.2452 51.602 46.2186 51.4975 46.2125C51.3929 46.2064 51.2882 46.221 51.1892 46.2554C51.0903 46.2898 50.9991 46.3434 50.9209 46.413C50.8427 46.4827 50.7789 46.567 50.7333 46.6613C50.6877 46.7556 50.661 46.8579 50.655 46.9625L50.5825 48.2125C50.4969 49.6787 49.8535 51.0566 48.7843 52.0635C47.7151 53.0704 46.3012 53.63 44.8325 53.6275H27.32C25.8513 53.63 24.4373 53.0704 23.3681 52.0635C22.2989 51.0566 21.6555 49.6787 21.57 48.2125C21.51 47.15 21.0875 39.895 20.9275 37.1175C20.6724 33.0149 21.2573 28.9034 22.6462 25.0346C24.035 21.1658 26.1988 17.6211 29.005 14.6175C29.2125 14.66 43.0275 14.6725 43.175 14.6525C45.9755 17.6499 48.1336 21.1883 49.5167 25.0502C50.8997 28.9122 51.4785 33.0162 51.2175 37.11C51.0775 39.5575 51.115 38.7225 51.01 40.53C50.9983 40.6396 51.0105 40.7503 51.0456 40.8547C51.0808 40.9591 51.138 41.0547 51.2135 41.135C51.289 41.2152 51.3809 41.2782 51.483 41.3196C51.5851 41.361 51.6949 41.3799 51.805 41.375C52.0073 41.3713 52.201 41.2925 52.3484 41.1538C52.4958 41.0152 52.5864 40.8267 52.6025 40.625C52.7075 38.8175 52.67 39.65 52.81 37.205C53.0791 32.9841 52.5011 28.752 51.1101 24.7578C49.719 20.7636 47.5429 17.088 44.71 13.9475ZM22.75 53.615H3.54497C3.31408 53.6238 3.08378 53.586 2.86787 53.5037C2.65195 53.4214 2.45486 53.2964 2.28839 53.1362C2.12192 52.9759 1.98949 52.7837 1.89904 52.5711C1.80858 52.3585 1.76196 52.1298 1.76196 51.8988C1.76196 51.6677 1.80858 51.439 1.89904 51.2264C1.98949 51.0138 2.12192 50.8216 2.28839 50.6614C2.45486 50.5011 2.65195 50.3761 2.86787 50.2938C3.08378 50.2116 3.31408 50.1737 3.54497 50.1825C3.75648 50.1825 3.95933 50.0985 4.10889 49.9489C4.25845 49.7994 4.34247 49.5965 4.34247 49.385C4.34247 49.1735 4.25845 48.9706 4.10889 48.8211C3.95933 48.6715 3.75648 48.5875 3.54497 48.5875C3.09013 48.5875 2.65391 48.4068 2.33228 48.0852C2.01066 47.7636 1.82997 47.3274 1.82997 46.8725C1.82997 46.4177 2.01066 45.9814 2.33228 45.6598C2.65391 45.3382 3.09013 45.1575 3.54497 45.1575H19.795C19.865 46.345 19.9925 48.49 20.0025 48.5875H7.74997C7.53846 48.5875 7.33562 48.6715 7.18606 48.8211C7.0365 48.9706 6.95247 49.1735 6.95247 49.385C6.95247 49.5965 7.0365 49.7994 7.18606 49.9489C7.33562 50.0985 7.53846 50.1825 7.74997 50.1825H20.35C20.8013 51.5346 21.635 52.7269 22.75 53.615ZM30.6925 4.39C30.6925 4.12028 30.7458 3.85321 30.8493 3.60414C30.9528 3.35507 31.1045 3.12891 31.2957 2.93865C31.4869 2.74839 31.7138 2.59778 31.9634 2.49548C32.2129 2.39317 32.4803 2.34118 32.75 2.3425H39.6525C40.1951 2.34316 40.7152 2.55917 41.0987 2.94308C41.4821 3.32699 41.6975 3.8474 41.6975 4.39V8.5875H30.6975L30.6925 4.39ZM42.7275 13.085H29.655C29.2805 13.0695 28.9265 12.9098 28.6671 12.6393C28.4076 12.3688 28.2627 12.0085 28.2627 11.6338C28.2627 11.259 28.4076 10.8987 28.6671 10.6282C28.9265 10.3577 29.2805 10.198 29.655 10.1825H42.7325C43.1069 10.198 43.4609 10.3577 43.7204 10.6282C43.9798 10.8987 44.1247 11.259 44.1247 11.6338C44.1247 12.0085 43.9798 12.3688 43.7204 12.6393C43.4609 12.9098 43.1069 13.0695 42.7325 13.085H42.7275Z" fill="white"/>
<path d="M14.4525 25.72C15.3975 25.7205 16.3214 25.4407 17.1074 24.916C17.8934 24.3914 18.5061 23.6454 18.8681 22.7725C19.2301 21.8996 19.3251 20.9389 19.141 20.012C18.9569 19.0851 18.5021 18.2336 17.8341 17.5652C17.166 16.8968 16.3148 16.4415 15.388 16.257C14.4611 16.0724 13.5004 16.1669 12.6273 16.5284C11.7542 16.8899 11.0079 17.5023 10.4828 18.288C9.95775 19.0737 9.67749 19.9975 9.67749 20.9425C9.67881 22.2087 10.1822 23.4227 11.0774 24.3183C11.9725 25.2139 13.1863 25.718 14.4525 25.72ZM14.4525 17.51C15.1321 17.5095 15.7965 17.7106 16.3618 18.0878C16.9271 18.4651 17.3677 19.0015 17.628 19.6293C17.8883 20.2571 17.9566 20.9479 17.8241 21.6145C17.6916 22.2811 17.3644 22.8933 16.8839 23.3739C16.4034 23.8544 15.7911 24.1816 15.1245 24.3141C14.458 24.4466 13.7671 24.3783 13.1393 24.118C12.5116 23.8577 11.9751 23.4171 11.5979 22.8518C11.2206 22.2865 11.0195 21.6221 11.02 20.9425C11.019 20.491 11.107 20.0437 11.2791 19.6262C11.4511 19.2088 11.7037 18.8293 12.0225 18.5096C12.3413 18.1899 12.7201 17.9361 13.137 17.7629C13.554 17.5896 14.001 17.5003 14.4525 17.5V17.51Z" fill="white"/>
<path d="M5.69512 28.11C6.32463 28.108 6.93943 27.9195 7.46188 27.5683C7.98433 27.2172 8.39101 26.7191 8.63054 26.1369C8.87007 25.5548 8.93172 24.9147 8.8077 24.2975C8.68368 23.6803 8.37955 23.1138 7.93372 22.6693C7.4879 22.2249 6.92037 21.9225 6.30282 21.8005C5.68526 21.6784 5.04538 21.742 4.46398 21.9834C3.88258 22.2247 3.38574 22.633 3.0362 23.1565C2.68667 23.6801 2.50013 24.2955 2.50012 24.925C2.50012 25.3441 2.58283 25.7591 2.74352 26.1461C2.9042 26.5332 3.1397 26.8848 3.43652 27.1807C3.73333 27.4765 4.08563 27.7109 4.4732 27.8704C4.86078 28.0299 5.27602 28.1113 5.69512 28.11ZM5.69512 23.03C6.06992 23.03 6.4363 23.1411 6.74793 23.3493C7.05956 23.5576 7.30244 23.8535 7.44587 24.1998C7.5893 24.5461 7.62683 24.9271 7.55371 25.2947C7.48059 25.6623 7.30011 25.9999 7.03509 26.2649C6.77007 26.53 6.43241 26.7104 6.06482 26.7836C5.69722 26.8567 5.3162 26.8192 4.96994 26.6757C4.62367 26.5323 4.32771 26.2894 4.11949 25.9778C3.91126 25.6661 3.80012 25.2998 3.80012 24.925C3.80012 24.6761 3.84914 24.4297 3.94437 24.1998C4.0396 23.9699 4.17919 23.761 4.35515 23.585C4.53112 23.409 4.74003 23.2695 4.96994 23.1742C5.19985 23.079 5.44627 23.03 5.69512 23.03Z" fill="white"/>
<path d="M5.69493 19.35C6.16714 19.35 6.62873 19.21 7.02136 18.9477C7.41398 18.6853 7.71999 18.3125 7.9007 17.8762C8.0814 17.4399 8.12868 16.9599 8.03656 16.4968C7.94444 16.0336 7.71705 15.6082 7.38315 15.2743C7.04925 14.9404 6.62384 14.713 6.16071 14.6209C5.69758 14.5288 5.21754 14.5761 4.78128 14.7568C4.34502 14.9375 3.97214 15.2435 3.7098 15.6361C3.44746 16.0287 3.30743 16.4903 3.30743 16.9625C3.30743 17.5957 3.55897 18.203 4.00672 18.6508C4.45446 19.0985 5.06173 19.35 5.69493 19.35ZM5.69493 15.9625C5.89271 15.9625 6.08606 16.0212 6.2505 16.1311C6.41495 16.241 6.54313 16.3971 6.61881 16.5799C6.6945 16.7626 6.7143 16.9637 6.67572 17.1576C6.63713 17.3516 6.54189 17.5298 6.40204 17.6697C6.26219 17.8095 6.08401 17.9047 5.89002 17.9433C5.69604 17.9819 5.49498 17.9621 5.31225 17.8864C5.12952 17.8107 4.97335 17.6826 4.86346 17.5181C4.75358 17.3537 4.69493 17.1603 4.69493 16.9625C4.69493 16.8312 4.7208 16.7012 4.77105 16.5799C4.82131 16.4585 4.89497 16.3483 4.98783 16.2554C5.08069 16.1626 5.19093 16.0889 5.31225 16.0387C5.43358 15.9884 5.56361 15.9625 5.69493 15.9625Z" fill="white"/>
<path d="M52.1875 43.1725C52.038 43.0593 51.8562 42.9969 51.6687 42.9943C51.4812 42.9917 51.2978 43.0491 51.1452 43.158C50.9926 43.267 50.8788 43.4218 50.8203 43.6C50.7619 43.7782 50.7619 43.9704 50.8204 44.1486C50.8788 44.3267 50.9927 44.4816 51.1453 44.5905C51.2979 44.6994 51.4814 44.7568 51.6689 44.7541C51.8564 44.7515 52.0381 44.6891 52.1876 44.5759C52.3371 44.4627 52.4466 44.3047 52.5 44.125C52.5507 43.9533 52.548 43.7702 52.4922 43.6001C52.4363 43.4299 52.3301 43.2808 52.1875 43.1725Z" fill="white"/>
</svg>
