<?xml version="1.0" encoding="UTF-8" standalone="no"?><!-- Generator: Gravit.io --><svg xmlns="http://www.w3.org/2000/svg" xmlns:xlink="http://www.w3.org/1999/xlink" style="isolation:isolate" viewBox="0 0 55 55" width="55pt" height="55pt"><defs><clipPath id="_clipPath_h7rGTpawrvasISf7zoft12ct2B4NL37G"><rect width="55" height="55"/></clipPath></defs><g clip-path="url(#_clipPath_h7rGTpawrvasISf7zoft12ct2B4NL37G)"><path d=" M 34.5 50.69 C 34.388 50.69 34.278 50.667 34.175 50.623 C 34.072 50.579 33.98 50.514 33.903 50.433 C 33.826 50.352 33.766 50.256 33.728 50.151 C 33.689 50.046 33.672 49.934 33.678 49.823 C 33.699 49.607 33.8 49.408 33.962 49.264 C 34.124 49.12 34.334 49.042 34.55 49.045 L 39.883 49.045 C 40.141 49.045 40.388 48.943 40.57 48.76 C 40.753 48.578 40.855 48.331 40.855 48.073 L 40.855 16.668 C 40.855 16.53 40.89 16.394 40.955 16.273 L 44.893 9.055 C 44.973 8.907 45.014 8.74 45.011 8.572 C 45.008 8.403 44.961 8.238 44.874 8.093 C 44.788 7.948 44.666 7.828 44.519 7.745 C 44.372 7.661 44.206 7.617 44.038 7.618 L 19.413 7.618 C 19.239 7.617 19.068 7.663 18.918 7.751 C 18.768 7.839 18.645 7.966 18.56 8.118 L 13.915 16.658 C 13.837 16.801 13.796 16.962 13.795 17.125 L 13.795 20.875 C 13.796 20.99 13.774 21.103 13.731 21.209 C 13.688 21.316 13.624 21.412 13.544 21.493 C 13.463 21.575 13.367 21.639 13.261 21.683 C 13.156 21.727 13.042 21.75 12.928 21.75 C 12.722 21.75 12.524 21.667 12.379 21.522 C 12.233 21.376 12.151 21.179 12.15 20.973 L 12.15 16.668 C 12.15 16.53 12.185 16.394 12.25 16.273 L 17.415 6.803 C 17.494 6.66 17.535 6.5 17.535 6.338 L 17.535 2.31 C 17.535 1.855 17.716 1.418 18.037 1.096 C 18.359 0.773 18.795 0.591 19.25 0.59 L 46.175 0.59 C 46.631 0.591 47.068 0.772 47.391 1.095 C 47.713 1.417 47.894 1.854 47.895 2.31 L 47.895 6.273 C 47.896 6.457 47.948 6.638 48.045 6.795 L 54.045 16.225 C 54.128 16.358 54.172 16.511 54.173 16.668 L 54.173 46.278 C 54.169 47.447 53.703 48.567 52.877 49.394 C 52.05 50.221 50.929 50.687 49.76 50.69 L 34.5 50.69 L 34.5 50.69 Z  M 47.19 9.353 C 47.016 9.351 46.845 9.396 46.695 9.484 C 46.544 9.573 46.421 9.7 46.338 9.853 L 42.628 16.65 C 42.55 16.794 42.51 16.954 42.51 17.118 L 42.51 48.073 C 42.51 48.331 42.613 48.578 42.795 48.76 C 42.977 48.943 43.225 49.045 43.483 49.045 L 48.865 49.045 C 49.837 49.044 50.769 48.658 51.456 47.971 C 52.143 47.284 52.529 46.352 52.53 45.38 L 52.53 17.188 C 52.53 17.003 52.477 16.823 52.378 16.668 L 48 9.803 C 47.914 9.666 47.794 9.552 47.653 9.474 C 47.511 9.395 47.352 9.353 47.19 9.353 Z  M 20.153 2.235 C 19.895 2.235 19.647 2.338 19.465 2.52 C 19.283 2.702 19.18 2.95 19.18 3.208 L 19.18 5 C 19.18 5.258 19.283 5.505 19.465 5.688 C 19.647 5.87 19.895 5.973 20.153 5.973 L 45.278 5.973 C 45.536 5.973 45.783 5.87 45.965 5.688 C 46.148 5.505 46.25 5.258 46.25 5 L 46.25 3.208 C 46.25 2.95 46.148 2.702 45.965 2.52 C 45.783 2.338 45.536 2.235 45.278 2.235 L 20.153 2.235 L 20.153 2.235 Z " fill="rgb(255,255,255)"/><path d=" M 12.948 25.533 C 12.833 25.532 12.72 25.554 12.614 25.598 C 12.508 25.642 12.412 25.706 12.331 25.786 C 12.25 25.867 12.186 25.963 12.142 26.069 C 12.098 26.175 12.075 26.288 12.075 26.403 L 12.075 35.613 C 12.078 35.849 12.174 36.075 12.342 36.241 C 12.51 36.407 12.736 36.5 12.973 36.5 C 13.211 36.5 13.439 36.405 13.607 36.237 C 13.776 36.069 13.87 35.841 13.87 35.603 L 13.87 26.455 C 13.87 26.21 13.773 25.976 13.6 25.803 C 13.427 25.63 13.192 25.533 12.948 25.533 Z " fill="rgb(255,255,255)"/><path d=" M 12.973 36.435 C 12.755 36.434 12.546 36.348 12.392 36.193 C 12.238 36.039 12.151 35.831 12.15 35.613 L 12.15 26.403 C 12.15 26.191 12.234 25.988 12.384 25.839 C 12.533 25.689 12.736 25.605 12.948 25.605 C 13.173 25.606 13.388 25.696 13.547 25.855 C 13.706 26.014 13.795 26.23 13.795 26.455 L 13.795 35.613 C 13.795 35.831 13.708 36.04 13.554 36.194 C 13.4 36.348 13.191 36.435 12.973 36.435 Z " fill="rgb(255,255,255)"/><path d=" M 1.307 54.28 C 1.177 54.279 1.049 54.248 0.934 54.189 C 0.818 54.129 0.718 54.043 0.642 53.937 C 0.566 53.832 0.516 53.71 0.496 53.581 C 0.476 53.453 0.487 53.321 0.527 53.198 L 3.22 45.12 C 3.274 44.956 3.379 44.814 3.519 44.713 C 3.659 44.612 3.827 44.558 4 44.558 L 4.897 44.558 C 4.917 44.558 4.936 44.55 4.95 44.536 C 4.965 44.522 4.972 44.502 4.972 44.483 C 4.973 44.02 5.065 43.563 5.243 43.136 C 5.42 42.709 5.68 42.321 6.008 41.995 C 6.336 41.669 6.724 41.41 7.152 41.234 C 7.58 41.059 8.038 40.969 8.5 40.97 L 8.612 40.97 C 8.629 40.97 8.645 40.964 8.659 40.954 C 8.672 40.943 8.681 40.929 8.685 40.913 C 8.88 40.161 9.318 39.495 9.932 39.018 C 10.545 38.542 11.298 38.281 12.075 38.278 C 12.502 38.276 12.926 38.354 13.325 38.508 L 13.352 38.508 C 13.367 38.508 13.381 38.504 13.393 38.496 C 13.405 38.489 13.414 38.478 13.42 38.465 C 13.706 37.872 14.154 37.372 14.711 37.021 C 15.269 36.671 15.914 36.486 16.572 36.486 C 17.231 36.486 17.876 36.671 18.434 37.021 C 18.991 37.372 19.439 37.872 19.725 38.465 C 19.731 38.478 19.74 38.489 19.752 38.496 C 19.764 38.504 19.778 38.508 19.792 38.508 L 19.82 38.508 C 20.219 38.354 20.643 38.276 21.07 38.278 C 21.849 38.279 22.605 38.538 23.221 39.015 C 23.836 39.491 24.277 40.159 24.472 40.913 C 24.476 40.929 24.486 40.943 24.499 40.954 C 24.512 40.964 24.528 40.97 24.545 40.97 L 24.657 40.97 C 25.589 40.971 26.482 41.341 27.141 41.999 C 27.8 42.658 28.171 43.551 28.172 44.483 C 28.172 44.493 28.174 44.502 28.177 44.512 C 28.181 44.521 28.187 44.529 28.194 44.536 C 28.201 44.543 28.209 44.549 28.218 44.553 C 28.228 44.556 28.238 44.558 28.247 44.558 L 29.145 44.558 C 29.318 44.558 29.486 44.612 29.626 44.713 C 29.766 44.814 29.87 44.956 29.925 45.12 L 32.617 53.198 C 32.659 53.321 32.67 53.453 32.65 53.582 C 32.63 53.71 32.581 53.833 32.504 53.938 C 32.428 54.044 32.328 54.13 32.212 54.19 C 32.096 54.249 31.968 54.28 31.837 54.28 L 1.307 54.28 L 1.307 54.28 Z  M 4.647 46.203 C 4.631 46.202 4.616 46.207 4.602 46.217 C 4.589 46.226 4.58 46.24 4.575 46.255 L 2.482 52.535 C 2.477 52.545 2.474 52.557 2.474 52.569 C 2.474 52.581 2.477 52.592 2.482 52.603 C 2.489 52.612 2.498 52.62 2.509 52.626 C 2.519 52.631 2.531 52.635 2.542 52.635 L 30.572 52.635 C 30.584 52.635 30.596 52.631 30.606 52.626 C 30.617 52.62 30.626 52.612 30.632 52.603 C 30.638 52.592 30.641 52.581 30.641 52.569 C 30.641 52.557 30.638 52.545 30.632 52.535 L 28.55 46.25 C 28.545 46.235 28.535 46.221 28.522 46.212 C 28.509 46.202 28.494 46.197 28.477 46.198 L 4.647 46.203 L 4.647 46.203 Z  M 8.5 42.613 C 8.004 42.613 7.529 42.81 7.178 43.161 C 6.828 43.512 6.631 43.987 6.63 44.483 C 6.63 44.493 6.631 44.502 6.635 44.512 C 6.639 44.521 6.644 44.529 6.651 44.536 C 6.658 44.543 6.667 44.549 6.676 44.553 C 6.685 44.556 6.695 44.558 6.705 44.558 L 26.455 44.558 C 26.465 44.558 26.475 44.556 26.484 44.553 C 26.493 44.549 26.502 44.543 26.509 44.536 C 26.516 44.529 26.521 44.521 26.525 44.512 C 26.529 44.502 26.53 44.493 26.53 44.483 C 26.529 43.987 26.332 43.512 25.982 43.161 C 25.631 42.81 25.156 42.613 24.66 42.613 L 23.75 42.613 C 23.532 42.613 23.323 42.526 23.169 42.373 C 23.015 42.219 22.928 42.01 22.927 41.793 C 22.93 41.429 22.825 41.074 22.628 40.769 C 22.43 40.464 22.148 40.224 21.815 40.078 C 21.482 39.932 21.114 39.887 20.756 39.948 C 20.398 40.008 20.066 40.173 19.8 40.42 C 19.647 40.558 19.449 40.635 19.242 40.635 C 19.139 40.635 19.036 40.615 18.94 40.578 C 18.799 40.521 18.676 40.426 18.585 40.304 C 18.494 40.182 18.439 40.037 18.425 39.885 L 18.425 39.87 C 18.391 39.402 18.18 38.965 17.837 38.646 C 17.493 38.326 17.042 38.149 16.572 38.149 C 16.103 38.149 15.652 38.326 15.308 38.646 C 14.964 38.965 14.754 39.402 14.72 39.87 C 14.708 40.024 14.654 40.172 14.563 40.297 C 14.472 40.422 14.348 40.519 14.205 40.578 C 14.108 40.615 14.004 40.635 13.9 40.635 C 13.694 40.635 13.495 40.558 13.342 40.42 C 13.077 40.173 12.744 40.008 12.386 39.948 C 12.028 39.887 11.66 39.932 11.327 40.078 C 10.995 40.224 10.712 40.464 10.515 40.769 C 10.317 41.074 10.213 41.429 10.215 41.793 C 10.215 41.9 10.194 42.007 10.153 42.106 C 10.111 42.206 10.051 42.296 9.975 42.372 C 9.899 42.449 9.808 42.509 9.709 42.55 C 9.609 42.591 9.503 42.613 9.395 42.613 L 8.5 42.613 L 8.5 42.613 Z " fill="rgb(255,255,255)"/><path d=" M 23.75 23.77 C 23.588 23.77 23.429 23.722 23.293 23.631 C 23.158 23.541 23.053 23.413 22.99 23.262 C 22.928 23.112 22.912 22.947 22.944 22.787 C 22.975 22.628 23.054 22.481 23.169 22.366 C 23.284 22.251 23.43 22.173 23.59 22.141 C 23.749 22.109 23.915 22.125 24.065 22.188 C 24.215 22.25 24.344 22.355 24.434 22.491 C 24.524 22.626 24.573 22.785 24.573 22.948 C 24.572 23.166 24.485 23.374 24.331 23.528 C 24.177 23.683 23.968 23.769 23.75 23.77 Z " fill="rgb(255,255,255)"/><path d=" M 32.715 23.77 C 32.552 23.77 32.393 23.722 32.258 23.631 C 32.123 23.541 32.017 23.413 31.955 23.262 C 31.893 23.112 31.877 22.947 31.908 22.787 C 31.94 22.628 32.018 22.481 32.133 22.366 C 32.248 22.251 32.395 22.173 32.554 22.141 C 32.714 22.109 32.879 22.125 33.03 22.188 C 33.18 22.25 33.309 22.355 33.399 22.491 C 33.489 22.626 33.538 22.785 33.538 22.948 C 33.538 23.166 33.451 23.375 33.297 23.529 C 33.142 23.683 32.933 23.77 32.715 23.77 Z " fill="rgb(255,255,255)"/><path d=" M 28.228 38.128 C 25.869 38.125 23.607 37.187 21.939 35.519 C 20.271 33.851 19.333 31.589 19.33 29.23 L 19.33 19.42 C 19.33 19.41 19.328 19.399 19.324 19.39 C 19.319 19.38 19.313 19.372 19.305 19.365 C 18.765 18.878 18.33 18.287 18.026 17.626 C 17.722 16.966 17.556 16.25 17.538 15.524 C 17.519 14.797 17.649 14.074 17.919 13.399 C 18.189 12.724 18.593 12.111 19.108 11.598 C 19.251 11.455 19.442 11.37 19.644 11.359 C 19.846 11.347 20.045 11.411 20.203 11.538 L 24.453 14.93 C 24.465 14.941 24.481 14.947 24.498 14.948 L 32.388 14.948 C 32.406 14.947 32.424 14.94 32.438 14.928 L 36.338 11.558 C 36.499 11.418 36.708 11.347 36.92 11.359 C 37.133 11.371 37.333 11.464 37.478 11.62 C 37.977 12.173 38.361 12.819 38.609 13.521 C 38.856 14.223 38.962 14.967 38.92 15.71 C 38.846 17.143 38.213 18.489 37.158 19.46 C 37.143 19.475 37.134 19.494 37.133 19.515 L 37.133 29.218 C 37.133 30.387 36.903 31.546 36.456 32.627 C 36.008 33.707 35.352 34.69 34.526 35.517 C 33.699 36.344 32.717 37.001 31.636 37.449 C 30.556 37.897 29.397 38.127 28.228 38.128 Z  M 28.228 33.64 C 27.228 33.64 26.358 34.29 26.358 35.063 C 26.358 35.835 27.215 36.483 28.228 36.483 C 29.24 36.483 30.098 35.833 30.098 35.063 C 30.098 34.293 29.25 33.64 28.228 33.64 Z  M 24.113 16.593 C 24.093 16.592 24.074 16.599 24.06 16.613 L 21 19.678 C 20.987 19.692 20.98 19.711 20.98 19.73 L 20.98 29.23 C 20.983 30.511 21.325 31.768 21.969 32.874 C 22.614 33.98 23.54 34.896 24.653 35.53 C 24.665 35.532 24.678 35.532 24.69 35.53 C 24.706 35.53 24.722 35.525 24.735 35.515 C 24.747 35.507 24.755 35.495 24.761 35.482 C 24.766 35.469 24.768 35.454 24.765 35.44 C 24.741 35.311 24.725 35.179 24.718 35.048 C 24.787 34.219 25.164 33.447 25.775 32.882 C 26.386 32.318 27.186 32.003 28.018 32 C 28.085 32 28.155 32 28.223 32 C 28.29 32 28.37 32 28.438 32 C 29.275 32.001 30.08 32.317 30.694 32.886 C 31.308 33.454 31.685 34.233 31.75 35.068 C 31.745 35.196 31.73 35.324 31.705 35.45 C 31.702 35.464 31.703 35.479 31.709 35.492 C 31.714 35.506 31.723 35.517 31.735 35.525 C 31.747 35.535 31.762 35.54 31.778 35.54 C 31.79 35.542 31.803 35.542 31.815 35.54 C 32.928 34.906 33.854 33.99 34.499 32.884 C 35.143 31.778 35.485 30.521 35.488 29.24 L 35.488 27.445 C 35.488 27.435 35.486 27.426 35.483 27.417 C 35.479 27.408 35.474 27.399 35.467 27.392 C 35.461 27.385 35.453 27.38 35.444 27.376 C 35.435 27.372 35.425 27.37 35.415 27.37 L 32.715 27.37 C 31.545 27.37 30.423 26.905 29.595 26.078 C 28.768 25.25 28.303 24.128 28.303 22.958 C 28.303 21.787 28.768 20.665 29.595 19.838 C 30.423 19.01 31.545 18.545 32.715 18.545 L 34.138 18.545 C 34.152 18.545 34.167 18.541 34.179 18.533 C 34.192 18.525 34.202 18.514 34.208 18.5 C 34.213 18.486 34.214 18.471 34.211 18.456 C 34.208 18.442 34.201 18.428 34.19 18.418 L 32.395 16.623 C 32.381 16.609 32.362 16.602 32.343 16.603 L 24.113 16.593 L 24.113 16.593 Z  M 32.715 20.18 C 31.981 20.18 31.277 20.472 30.758 20.991 C 30.239 21.51 29.948 22.214 29.948 22.948 C 29.948 23.682 30.239 24.386 30.758 24.905 C 31.277 25.424 31.981 25.715 32.715 25.715 L 35.408 25.715 C 35.427 25.714 35.446 25.706 35.459 25.692 C 35.473 25.678 35.48 25.66 35.48 25.64 L 35.48 20.25 C 35.48 20.231 35.473 20.212 35.459 20.198 C 35.446 20.184 35.427 20.176 35.408 20.175 L 32.715 20.18 L 32.715 20.18 Z  M 36.715 13.43 C 36.697 13.431 36.68 13.437 36.665 13.448 L 33.983 15.75 C 33.968 15.765 33.959 15.784 33.958 15.805 C 33.957 15.815 33.959 15.826 33.963 15.835 C 33.967 15.845 33.973 15.853 33.98 15.86 L 36.143 18.023 C 36.15 18.03 36.158 18.035 36.167 18.039 C 36.176 18.043 36.185 18.045 36.195 18.045 C 36.205 18.045 36.215 18.044 36.224 18.04 C 36.233 18.036 36.241 18.03 36.248 18.023 C 36.856 17.36 37.216 16.508 37.268 15.61 C 37.307 14.857 37.134 14.107 36.768 13.448 C 36.762 13.438 36.754 13.43 36.745 13.424 C 36.736 13.417 36.726 13.413 36.715 13.41 L 36.715 13.43 L 36.715 13.43 Z  M 19.81 13.375 C 19.789 13.38 19.77 13.392 19.758 13.41 C 19.304 14.117 19.105 14.957 19.195 15.792 C 19.284 16.627 19.657 17.406 20.25 18 C 20.265 18.013 20.283 18.02 20.303 18.02 C 20.323 18.02 20.342 18.013 20.358 18 L 22.638 15.72 C 22.645 15.713 22.651 15.704 22.654 15.694 C 22.658 15.684 22.659 15.673 22.658 15.663 C 22.658 15.652 22.655 15.641 22.65 15.632 C 22.646 15.622 22.639 15.614 22.63 15.608 L 19.865 13.395 C 19.852 13.384 19.835 13.377 19.818 13.378 L 19.81 13.375 L 19.81 13.375 Z " fill="rgb(255,255,255)"/><path d=" M 34.5 47.1 C 34.282 47.1 34.073 47.013 33.919 46.859 C 33.764 46.705 33.678 46.496 33.678 46.278 C 33.678 46.059 33.764 45.85 33.919 45.696 C 34.073 45.542 34.282 45.455 34.5 45.455 L 38.088 45.455 C 38.306 45.455 38.515 45.542 38.669 45.696 C 38.824 45.85 38.91 46.059 38.91 46.278 C 38.91 46.496 38.824 46.705 38.669 46.859 C 38.515 47.013 38.306 47.1 38.088 47.1 L 34.5 47.1 L 34.5 47.1 Z " fill="rgb(255,255,255)"/><path d=" M 34.5 43.5 C 34.282 43.5 34.073 43.413 33.919 43.259 C 33.764 43.105 33.678 42.896 33.678 42.678 C 33.678 42.459 33.764 42.25 33.919 42.096 C 34.073 41.942 34.282 41.855 34.5 41.855 L 38.088 41.855 C 38.306 41.855 38.515 41.942 38.669 42.096 C 38.824 42.25 38.91 42.459 38.91 42.678 C 38.91 42.896 38.824 43.105 38.669 43.259 C 38.515 43.413 38.306 43.5 38.088 43.5 L 34.5 43.5 L 34.5 43.5 Z " fill="rgb(255,255,255)"/><path d=" M 45.277 27.36 C 45.059 27.36 44.85 27.273 44.696 27.119 C 44.542 26.965 44.455 26.756 44.455 26.538 C 44.455 26.319 44.542 26.11 44.696 25.956 C 44.85 25.802 45.059 25.715 45.277 25.715 L 46.175 25.715 C 46.393 25.715 46.602 25.802 46.757 25.956 C 46.911 26.11 46.997 26.319 46.997 26.538 C 46.997 26.756 46.911 26.965 46.757 27.119 C 46.602 27.273 46.393 27.36 46.175 27.36 L 45.277 27.36 L 45.277 27.36 Z " fill="rgb(255,255,255)"/><path d=" M 49.763 27.36 C 49.6 27.36 49.441 27.312 49.306 27.222 C 49.17 27.131 49.065 27.003 49.003 26.852 C 48.94 26.702 48.924 26.537 48.956 26.377 C 48.988 26.218 49.066 26.071 49.181 25.956 C 49.296 25.841 49.443 25.763 49.602 25.731 C 49.762 25.699 49.927 25.715 50.077 25.778 C 50.228 25.84 50.356 25.945 50.446 26.081 C 50.537 26.216 50.585 26.375 50.585 26.538 C 50.584 26.756 50.497 26.964 50.343 27.119 C 50.189 27.273 49.98 27.359 49.763 27.36 Z " fill="rgb(255,255,255)"/><path d=" M 45.277 18.385 C 45.059 18.385 44.85 18.298 44.696 18.144 C 44.542 17.99 44.455 17.781 44.455 17.563 C 44.455 17.344 44.542 17.135 44.696 16.981 C 44.85 16.827 45.059 16.74 45.277 16.74 L 49.762 16.74 C 49.981 16.74 50.19 16.827 50.344 16.981 C 50.498 17.135 50.585 17.344 50.585 17.563 C 50.585 17.781 50.498 17.99 50.344 18.144 C 50.19 18.298 49.981 18.385 49.762 18.385 L 45.277 18.385 L 45.277 18.385 Z " fill="rgb(255,255,255)"/><path d=" M 45.277 21.975 C 45.059 21.975 44.85 21.888 44.696 21.734 C 44.542 21.58 44.455 21.371 44.455 21.153 C 44.455 20.934 44.542 20.725 44.696 20.571 C 44.85 20.417 45.059 20.33 45.277 20.33 L 49.762 20.33 C 49.981 20.33 50.19 20.417 50.344 20.571 C 50.498 20.725 50.585 20.934 50.585 21.153 C 50.585 21.371 50.498 21.58 50.344 21.734 C 50.19 21.888 49.981 21.975 49.762 21.975 L 45.277 21.975 L 45.277 21.975 Z " fill="rgb(255,255,255)"/><path d=" M 12.148 24.048 C 12.217 24.216 12.336 24.358 12.489 24.456 C 12.642 24.554 12.821 24.601 13.003 24.593 C 13.184 24.585 13.358 24.52 13.502 24.409 C 13.645 24.298 13.751 24.145 13.804 23.971 C 13.857 23.797 13.855 23.611 13.798 23.439 C 13.741 23.266 13.632 23.116 13.487 23.007 C 13.341 22.899 13.165 22.839 12.984 22.834 C 12.802 22.83 12.624 22.882 12.473 22.983 C 12.305 23.096 12.181 23.264 12.122 23.458 C 12.063 23.651 12.072 23.86 12.148 24.048 Z " fill="rgb(255,255,255)"/></g></svg>