<svg width="52" height="55" viewBox="0 0 52 55" fill="none" xmlns="http://www.w3.org/2000/svg">
<path d="M25.1599 54.7926C23.9846 54.7893 22.8585 54.321 22.0275 53.4899C21.1965 52.6589 20.7282 51.5328 20.7249 50.3576V35.9276C20.729 34.9063 21.0836 33.9173 21.7293 33.126C22.3749 32.3347 23.2726 31.789 24.2724 31.5801C24.2891 31.5767 24.3042 31.5676 24.3151 31.5544C24.3261 31.5412 24.3321 31.5247 24.3324 31.5076V28.7576C24.2619 28.0616 24.3305 27.3586 24.5344 26.6895C24.7383 26.0203 25.0733 25.3985 25.5199 24.8601C26.8649 23.2701 29.1699 22.4651 32.3749 22.4651C40.0799 22.4651 44.5374 19.9001 44.5799 19.8751C44.7072 19.7978 44.8534 19.7571 45.0023 19.7576C45.1115 19.7586 45.2194 19.7812 45.3198 19.8241C45.4202 19.867 45.5112 19.9294 45.5874 20.0076C45.7474 20.1676 49.4524 23.9501 47.6399 28.8276C47.6375 28.8357 47.6375 28.8444 47.6399 28.8526V31.5001C47.6401 31.5172 47.6462 31.5337 47.6571 31.5469C47.668 31.5601 47.6831 31.5691 47.6999 31.5726C48.7013 31.7813 49.6005 32.3279 50.2468 33.1208C50.8932 33.9137 51.2473 34.9046 51.2499 35.9276V50.3576C51.2466 51.5328 50.7782 52.6589 49.9472 53.4899C49.1162 54.321 47.9901 54.7893 46.8148 54.7926H25.1599ZM22.4549 49.3801C22.445 49.3801 22.4353 49.382 22.4262 49.3858C22.4171 49.3895 22.4088 49.3951 22.4018 49.402C22.3949 49.409 22.3893 49.4173 22.3856 49.4264C22.3818 49.4355 22.3799 49.4452 22.3799 49.4551V50.3576C22.3805 51.0947 22.6736 51.8014 23.1948 52.3226C23.716 52.8438 24.4228 53.1369 25.1599 53.1376H46.8074C47.5444 53.1369 48.2512 52.8438 48.7724 52.3226C49.2936 51.8014 49.5867 51.0947 49.5874 50.3576V49.4551C49.5874 49.4352 49.5794 49.4161 49.5654 49.402C49.5513 49.388 49.5322 49.3801 49.5124 49.3801H22.4549ZM47.7049 38.5576C47.6949 38.5572 47.685 38.5589 47.6757 38.5626C47.6665 38.5662 47.6581 38.5717 47.651 38.5788C47.644 38.5858 47.6385 38.5942 47.6348 38.6035C47.6312 38.6127 47.6295 38.6226 47.6299 38.6326V47.6526C47.6299 47.6725 47.6378 47.6915 47.6518 47.7056C47.6659 47.7197 47.685 47.7276 47.7049 47.7276H49.5074C49.5272 47.7276 49.5463 47.7197 49.5604 47.7056C49.5744 47.6915 49.5824 47.6725 49.5824 47.6526V38.6326C49.5827 38.6226 49.581 38.6127 49.5774 38.6035C49.5737 38.5942 49.5682 38.5858 49.5612 38.5788C49.5541 38.5717 49.5457 38.5662 49.5365 38.5626C49.5272 38.5589 49.5173 38.5572 49.5074 38.5576H47.7049ZM38.6849 38.5576C38.6749 38.5572 38.665 38.5589 38.6557 38.5626C38.6465 38.5662 38.6381 38.5717 38.631 38.5788C38.624 38.5858 38.6185 38.5942 38.6149 38.6035C38.6112 38.6127 38.6095 38.6226 38.6099 38.6326V47.6526C38.6099 47.6725 38.6178 47.6915 38.6318 47.7056C38.6459 47.7197 38.665 47.7276 38.6849 47.7276H45.8999C45.9197 47.7276 45.9388 47.7197 45.9529 47.7056C45.967 47.6915 45.9748 47.6725 45.9748 47.6526V38.6326C45.9752 38.6226 45.9735 38.6127 45.9699 38.6035C45.9662 38.5942 45.9607 38.5858 45.9537 38.5788C45.9466 38.5717 45.9382 38.5662 45.929 38.5626C45.9197 38.5589 45.9098 38.5572 45.8999 38.5576H38.6849ZM22.4499 38.5576C22.4399 38.5572 22.43 38.5589 22.4207 38.5626C22.4115 38.5662 22.4031 38.5717 22.396 38.5788C22.389 38.5858 22.3835 38.5942 22.3799 38.6035C22.3762 38.6127 22.3745 38.6226 22.3749 38.6326V47.6526C22.3749 47.6725 22.3828 47.6915 22.3968 47.7056C22.4109 47.7197 22.43 47.7276 22.4499 47.7276H36.8799C36.8997 47.7276 36.9188 47.7197 36.9329 47.7056C36.947 47.6915 36.9549 47.6725 36.9549 47.6526V38.6326C36.9552 38.6226 36.9535 38.6127 36.9499 38.6035C36.9462 38.5942 36.9407 38.5858 36.9337 38.5788C36.9266 38.5717 36.9182 38.5662 36.909 38.5626C36.8997 38.5589 36.8898 38.5572 36.8799 38.5576H22.4499ZM25.1549 33.1451C24.4175 33.1464 23.7108 33.4401 23.1897 33.9617C22.6685 34.4833 22.3755 35.1902 22.3749 35.9276V36.8276C22.3745 36.8375 22.3762 36.8474 22.3799 36.8567C22.3835 36.8659 22.389 36.8743 22.396 36.8814C22.4031 36.8884 22.4115 36.8939 22.4207 36.8976C22.43 36.9012 22.4399 36.9029 22.4499 36.9026H49.5124C49.5223 36.9029 49.5322 36.9012 49.5415 36.8976C49.5507 36.8939 49.5591 36.8884 49.5662 36.8814C49.5732 36.8743 49.5787 36.8659 49.5824 36.8567C49.586 36.8474 49.5877 36.8375 49.5874 36.8276V35.9276C49.5867 35.1902 49.2937 34.4833 48.7725 33.9617C48.2514 33.4401 47.5447 33.1464 46.8074 33.1451H25.1549ZM26.0574 29.5376C26.0474 29.5372 26.0375 29.5389 26.0282 29.5426C26.019 29.5462 26.0106 29.5517 26.0035 29.5588C25.9965 29.5658 25.991 29.5742 25.9874 29.5835C25.9837 29.5927 25.982 29.6026 25.9824 29.6126V31.4176C25.9824 31.4375 25.9903 31.4565 26.0043 31.4706C26.0184 31.4847 26.0375 31.4926 26.0574 31.4926H45.8999C45.9197 31.4926 45.9388 31.4847 45.9529 31.4706C45.967 31.4565 45.9748 31.4375 45.9748 31.4176V29.6126C45.9752 29.6026 45.9735 29.5927 45.9699 29.5835C45.9662 29.5742 45.9607 29.5658 45.9537 29.5588C45.9466 29.5517 45.9382 29.5462 45.929 29.5426C45.9197 29.5389 45.9098 29.5372 45.8999 29.5376H26.0574ZM32.3749 24.1251C29.7349 24.1251 27.8074 24.7451 26.7999 25.9151C26.3428 26.4464 26.057 27.1035 25.9799 27.8001C25.9781 27.8104 25.9788 27.8209 25.9819 27.8309C25.9849 27.8409 25.9902 27.85 25.9974 27.8576C26.0041 27.8656 26.0125 27.872 26.022 27.8763C26.0315 27.8806 26.0419 27.8828 26.0524 27.8826H46.1674C46.1837 27.8822 46.1995 27.8767 46.2125 27.8668C46.2255 27.857 46.2351 27.8432 46.2399 27.8276C46.5075 26.765 46.5206 25.6543 46.2783 24.5856C46.0359 23.517 45.5448 22.5207 44.8449 21.6776C44.8384 21.6684 44.8298 21.6611 44.8197 21.6563C44.8096 21.6515 44.7985 21.6493 44.7873 21.6501C44.7775 21.6476 44.7672 21.6476 44.7574 21.6501C41.0795 23.2901 37.0968 24.1352 33.0699 24.1301C32.8399 24.1301 32.6074 24.1301 32.3774 24.1301L32.3749 24.1251Z" fill="black"/>
<path d="M30.5724 16.9101C28.9148 16.9101 27.3251 16.2516 26.153 15.0795C24.9809 13.9074 24.3224 12.3177 24.3224 10.6601V8.8676C24.323 8.64834 24.4104 8.43824 24.5655 8.2832C24.7205 8.12815 24.9306 8.04076 25.1499 8.0401H27.8549C29.5125 8.0401 31.1022 8.69858 32.2743 9.87068C33.4464 11.0428 34.1049 12.6325 34.1049 14.2901V16.0926C34.1049 16.3121 34.0177 16.5225 33.8625 16.6777C33.7073 16.8329 33.4969 16.9201 33.2774 16.9201L30.5724 16.9101ZM26.0724 9.6951C26.0624 9.69475 26.0525 9.69645 26.0433 9.7001C26.034 9.70374 26.0256 9.70925 26.0186 9.71629C26.0115 9.72332 26.006 9.73173 26.0024 9.74099C25.9987 9.75025 25.997 9.76016 25.9974 9.7701V10.6726C26.002 11.8848 26.4854 13.046 27.3423 13.9034C28.1992 14.7608 29.3602 15.2448 30.5724 15.2501H30.7074C30.7225 15.2495 30.7371 15.2443 30.7492 15.2352C30.7614 15.2261 30.7705 15.2136 30.7753 15.1993C30.7802 15.1849 30.7806 15.1695 30.7765 15.1549C30.7724 15.1403 30.764 15.1273 30.7524 15.1176L28.9199 13.6501C28.8398 13.5864 28.773 13.5074 28.7235 13.4179C28.6739 13.3283 28.6426 13.2298 28.6312 13.128C28.6198 13.0263 28.6286 12.9233 28.6572 12.825C28.6857 12.7267 28.7333 12.635 28.7974 12.5551C28.8687 12.4651 28.9571 12.3901 29.0575 12.3344C29.1579 12.2787 29.2684 12.2435 29.3825 12.2307C29.4966 12.2179 29.6121 12.2279 29.7224 12.2599C29.8326 12.292 29.9354 12.3456 30.0249 12.4176L32.3199 14.2526C32.3332 14.2638 32.35 14.2699 32.3674 14.2701C32.3781 14.2726 32.3892 14.2726 32.3999 14.2701C32.413 14.2638 32.424 14.2538 32.4315 14.2414C32.4391 14.229 32.4429 14.2146 32.4424 14.2001C32.4145 13.0024 31.9212 11.8628 31.0671 11.0227C30.213 10.1826 29.0653 9.70822 27.8674 9.7001L26.0724 9.6951Z" fill="black"/>
<path d="M36.885 19.615C36.666 19.615 36.4559 19.5282 36.3008 19.3736C36.1457 19.2189 36.0582 19.0091 36.0575 18.79V16.985C36.0575 15.3274 36.716 13.7377 37.8881 12.5656C39.0602 11.3935 40.6499 10.735 42.3075 10.735H45C45.2191 10.735 45.4292 10.8219 45.5843 10.9765C45.7394 11.1312 45.8269 11.341 45.8275 11.56V13.365C45.8242 15.0183 45.166 16.6029 43.997 17.772C42.8279 18.941 41.2433 19.5992 39.59 19.6025L36.885 19.615ZM40.7025 14.885C40.815 14.8853 40.9259 14.9108 41.0272 14.9597C41.1285 15.0086 41.2174 15.0796 41.2875 15.1675C41.3619 15.2603 41.4173 15.3668 41.4505 15.4809C41.4838 15.5951 41.4942 15.7146 41.4812 15.8328C41.4682 15.951 41.432 16.0654 41.3748 16.1696C41.3175 16.2738 41.2403 16.3657 41.1475 16.44L39.3975 17.8275C39.385 17.8373 39.376 17.8509 39.3719 17.8662C39.3679 17.8816 39.3689 17.8979 39.375 17.9125C39.3798 17.9273 39.3892 17.9401 39.4018 17.949C39.4144 17.958 39.4295 17.9628 39.445 17.9625H39.58C40.7948 17.9586 41.9587 17.4743 42.8177 16.6153C43.6767 15.7563 44.1611 14.5923 44.165 13.3775V12.475C44.1644 12.4554 44.1563 12.4366 44.1424 12.4227C44.1284 12.4088 44.1097 12.4007 44.09 12.4H42.285C41.0868 12.4082 39.9389 12.8825 39.0844 13.7225C38.2299 14.5625 37.7361 15.7022 37.7075 16.9C37.7078 16.9141 37.7119 16.9278 37.7194 16.9397C37.7269 16.9516 37.7375 16.9612 37.75 16.9675C37.7622 16.9746 37.776 16.9783 37.79 16.9783C37.8041 16.9783 37.8179 16.9746 37.83 16.9675L40.2225 15.0525C40.3581 14.9425 40.5279 14.8833 40.7025 14.885Z" fill="black"/>
<path d="M5.31756 51.1851C5.10004 51.1818 4.89249 51.0933 4.7396 50.9385C4.58671 50.7838 4.50069 50.5752 4.50006 50.3576V46.7501C4.50006 46.5306 4.58724 46.3202 4.74243 46.165C4.89762 46.0098 5.10809 45.9226 5.32756 45.9226C5.54703 45.9226 5.7575 46.0098 5.91269 46.165C6.06788 46.3202 6.15506 46.5306 6.15506 46.7501V48.5526C6.15506 48.8119 6.25805 49.0605 6.44136 49.2438C6.62468 49.4271 6.87331 49.5301 7.13256 49.5301C7.35203 49.5301 7.5625 49.6173 7.71769 49.7725C7.87288 49.9277 7.96006 50.1381 7.96006 50.3576C7.96006 50.5771 7.87288 50.7876 7.71769 50.9427C7.5625 51.0979 7.35203 51.1851 7.13256 51.1851H5.31756Z" fill="black"/>
<path d="M3.5251 54.7926C2.82447 54.792 2.15272 54.5134 1.6573 54.0179C1.16188 53.5225 0.883261 52.8508 0.882599 52.1501V34.9001C0.883259 34.6669 0.976185 34.4435 1.14107 34.2786C1.30596 34.1137 1.52941 34.0208 1.7626 34.0201C1.96771 34.0201 2.16446 34.1014 2.30972 34.2462C2.45499 34.391 2.53694 34.5875 2.5376 34.7926V38.6276C2.53924 38.6499 2.54866 38.6708 2.5642 38.6868C2.57974 38.7028 2.60041 38.7128 2.6226 38.7151H17.0301C17.0527 38.7134 17.074 38.7036 17.09 38.6876C17.1061 38.6715 17.1159 38.6503 17.1176 38.6276V26.0176C17.1159 25.995 17.1061 25.9737 17.09 25.9577C17.074 25.9416 17.0527 25.9319 17.0301 25.9301H13.5001V25.1026C13.4988 24.1264 13.1104 23.1905 12.4201 22.5002C11.7297 21.8099 10.7939 21.4215 9.8176 21.4201H9.6501C7.7126 21.5076 6.1351 23.2076 6.1351 25.2126V25.9276H2.6226C2.60041 25.9299 2.57974 25.9399 2.5642 25.9559C2.54866 25.9719 2.53924 25.9929 2.5376 26.0151V29.0151C2.53694 29.2326 2.45042 29.4411 2.29685 29.5951C2.14329 29.7492 1.9351 29.8363 1.7176 29.8376C1.49591 29.837 1.28353 29.7484 1.12701 29.5915C0.970491 29.4345 0.882598 29.2218 0.882599 29.0001V17.8876C0.887302 16.8683 1.24085 15.8813 1.88445 15.0908C2.52804 14.3003 3.42287 13.7539 4.4201 13.5426C4.43691 13.54 4.45209 13.531 4.4626 13.5176C4.47769 13.5009 4.48729 13.48 4.4901 13.4576V10.9576C4.49075 10.6623 4.60801 10.3792 4.81636 10.1699C5.02471 9.96064 5.30729 9.84211 5.6026 9.84013H7.1026C7.11242 9.84013 7.12213 9.83814 7.13116 9.83427C7.14018 9.83041 7.14833 9.82474 7.1551 9.81763C7.17267 9.80005 7.18408 9.77724 7.1876 9.75264V7.97764C7.18549 7.95556 7.17593 7.93486 7.16047 7.91895C7.14502 7.90304 7.12461 7.89288 7.1026 7.89013H4.4276C4.20525 7.89013 3.99197 7.80198 3.83451 7.64499C3.67705 7.488 3.58826 7.27498 3.5876 7.05263V1.66513C3.58826 1.44256 3.67697 1.22928 3.83436 1.07189C3.99175 0.914506 4.20502 0.825794 4.4276 0.825134H15.2276C15.4499 0.825796 15.663 0.914588 15.82 1.07205C15.9769 1.22951 16.0651 1.44279 16.0651 1.66513V7.05263C16.0651 7.27475 15.9769 7.48777 15.8198 7.64484C15.6627 7.8019 15.4497 7.89013 15.2276 7.89013H12.5451C12.5226 7.89234 12.5016 7.90227 12.4857 7.91823C12.4697 7.93418 12.4598 7.95518 12.4576 7.97764V9.75013C12.4593 9.77277 12.4691 9.79403 12.4851 9.81008C12.5012 9.82613 12.5225 9.83591 12.5451 9.83763H14.0451C14.3362 9.83829 14.6152 9.95405 14.8213 10.1597C15.0274 10.3653 15.1438 10.644 15.1451 10.9351V13.4501C15.1447 13.4672 15.15 13.4839 15.1601 13.4976C15.1738 13.5147 15.192 13.5277 15.2126 13.5351C16.2101 13.7463 17.1052 14.2926 17.7492 15.083C18.3932 15.8735 18.7473 16.8606 18.7526 17.8801V52.1501C18.7513 52.851 18.4721 53.5227 17.9763 54.0181C17.4805 54.5134 16.8085 54.792 16.1076 54.7926H3.5251ZM2.6226 40.3601C2.60059 40.3629 2.58018 40.373 2.56472 40.3889C2.54927 40.4049 2.5397 40.4256 2.5376 40.4476V52.1501C2.5376 52.2815 2.56347 52.4115 2.61372 52.5328C2.66397 52.6541 2.73763 52.7644 2.83049 52.8572C2.92335 52.9501 3.03359 53.0238 3.15492 53.074C3.27624 53.1243 3.40628 53.1501 3.5376 53.1501H16.1401C16.4053 53.1501 16.6597 53.0448 16.8472 52.8572C17.0347 52.6697 17.1401 52.4154 17.1401 52.1501V40.4476C17.1379 40.4252 17.128 40.4042 17.112 40.3882C17.0961 40.3723 17.0751 40.3623 17.0526 40.3601H2.6226ZM9.8326 19.7501C11.0919 19.7495 12.3106 20.1955 13.272 21.009C14.2333 21.8225 14.8749 22.9506 15.0826 24.1926C15.0878 24.2123 15.099 24.2299 15.1147 24.2429C15.1304 24.256 15.1498 24.2637 15.1701 24.2651H17.0251C17.0477 24.2634 17.069 24.2536 17.085 24.2376C17.1011 24.2215 17.1109 24.2003 17.1126 24.1776V17.9001C17.1119 17.1595 16.8176 16.4493 16.2941 15.9254C15.7706 15.4014 15.0607 15.1065 14.3201 15.1051H5.3201C4.58119 15.1091 3.87386 15.4052 3.35254 15.9289C2.83122 16.4526 2.53825 17.1612 2.5376 17.9001V24.1876C2.53924 24.2099 2.54866 24.2308 2.5642 24.2468C2.57974 24.2628 2.60041 24.2728 2.6226 24.2751H4.4801C4.50023 24.274 4.51944 24.2663 4.53478 24.2532C4.55013 24.2401 4.56077 24.2223 4.5651 24.2026C4.77637 22.9582 5.42105 21.8285 6.38508 21.0137C7.34911 20.1988 8.57032 19.7512 9.8326 19.7501ZM6.6751 11.5001C6.53474 11.5008 6.40031 11.5568 6.30106 11.6561C6.20181 11.7553 6.14576 11.8898 6.1451 12.0301V12.9101C6.1451 12.9817 6.1592 13.0526 6.18658 13.1187C6.21397 13.1848 6.25412 13.2449 6.30473 13.2955C6.35533 13.3461 6.41541 13.3863 6.48154 13.4136C6.54766 13.441 6.61853 13.4551 6.6901 13.4551H12.9401C13.0926 13.4551 13.2389 13.3946 13.3467 13.2867C13.4545 13.1789 13.5151 13.0326 13.5151 12.8801V12.0651C13.5148 11.9906 13.4998 11.9169 13.4709 11.8482C13.4421 11.7794 13.4 11.717 13.3471 11.6646C13.2942 11.6121 13.2314 11.5706 13.1625 11.5424C13.0935 11.5142 13.0196 11.4998 12.9451 11.5001H6.6751ZM8.9251 7.89263C8.90264 7.89484 8.88164 7.90477 8.86569 7.92072C8.84973 7.93668 8.83981 7.95768 8.8376 7.98013V9.75013C8.83932 9.77277 8.8491 9.79403 8.86515 9.81008C8.8812 9.82613 8.90247 9.83591 8.9251 9.83763H10.7051C10.7276 9.83543 10.7486 9.8255 10.7645 9.80954C10.7805 9.79359 10.7904 9.77259 10.7926 9.75013V7.97764C10.7899 7.95535 10.7799 7.9346 10.764 7.91873C10.7481 7.90285 10.7274 7.89278 10.7051 7.89013L8.9251 7.89263ZM6.2926 2.48013C6.01432 2.48079 5.74764 2.59163 5.55087 2.7884C5.3541 2.98517 5.24326 3.25186 5.2426 3.53013V5.10013C5.24095 5.25056 5.26915 5.39982 5.32557 5.53928C5.382 5.67873 5.46552 5.80561 5.57131 5.91256C5.67711 6.01951 5.80306 6.10442 5.94189 6.16237C6.08072 6.22031 6.22966 6.25014 6.3801 6.25013H13.6301C13.8374 6.24948 14.0361 6.16682 14.1827 6.02022C14.3293 5.87361 14.4119 5.67496 14.4126 5.46764V3.35763C14.4126 3.12491 14.3201 2.90171 14.1556 2.73715C13.991 2.57259 13.7678 2.48013 13.5351 2.48013H12.5351C12.5129 2.48178 12.4919 2.49119 12.4759 2.50673C12.4599 2.52228 12.4499 2.54295 12.4476 2.56513V3.79263C12.4476 3.92524 12.3949 4.05242 12.3012 4.14619C12.2074 4.23996 12.0802 4.29263 11.9476 4.29263H11.3276C11.2574 4.29234 11.1879 4.27796 11.1233 4.25033C11.0588 4.22271 11.0004 4.18242 10.9517 4.13183C10.903 4.08125 10.8649 4.0214 10.8397 3.95584C10.8145 3.89028 10.8028 3.82033 10.8051 3.75013V2.56513C10.8024 2.54313 10.7922 2.52271 10.7763 2.50726C10.7604 2.49181 10.7397 2.48224 10.7176 2.48013H8.9376C8.91536 2.48178 8.8944 2.49119 8.8784 2.50673C8.86241 2.52228 8.85239 2.54295 8.8501 2.56513V3.81513C8.8501 3.94177 8.79979 4.06323 8.71024 4.15278C8.62069 4.24233 8.49924 4.29263 8.3726 4.29263H7.6026C7.49452 4.29263 7.39087 4.2497 7.31445 4.17328C7.23803 4.09686 7.1951 3.99321 7.1951 3.88513V2.56513C7.1929 2.54334 7.18324 2.52297 7.16775 2.50748C7.15226 2.49199 7.1319 2.48233 7.1101 2.48013H6.2926Z" fill="black"/>
<path d="M0.845113 32.2776C0.913945 32.4456 1.03307 32.5883 1.18615 32.6859C1.33924 32.7836 1.51878 32.8315 1.70017 32.8231C1.88155 32.8147 2.0559 32.7504 2.19929 32.639C2.34269 32.5276 2.44812 32.3745 2.50112 32.2009C2.55411 32.0272 2.55209 31.8414 2.49532 31.6689C2.43856 31.4964 2.32982 31.3457 2.18403 31.2375C2.03825 31.1292 1.86254 31.0687 1.68102 31.0643C1.49949 31.0598 1.32103 31.1116 1.17011 31.2126C1.0029 31.3267 0.879577 31.4944 0.820492 31.688C0.761408 31.8816 0.770093 32.0896 0.845113 32.2776Z" fill="black"/>
</svg>
