<svg width="55" height="55" viewBox="0 0 55 55" fill="none" xmlns="http://www.w3.org/2000/svg">
<path d="M30.0275 54.42C28.9531 54.4193 27.8976 54.1384 26.965 53.605C26.9012 53.5679 26.8288 53.548 26.755 53.5475C26.6502 53.5477 26.5496 53.589 26.475 53.6625C25.9874 54.1436 25.3299 54.4131 24.645 54.4125H3.44497C2.66495 54.4106 1.9174 54.1 1.36561 53.5487C0.813811 52.9973 0.502609 52.2501 0.499969 51.47V27.65C0.512779 27.6445 0.523779 27.6354 0.53173 27.6239C0.53968 27.6125 0.544266 27.599 0.54497 27.585C0.684759 26.1546 1.01085 24.7485 1.51497 23.4025C1.55169 23.3002 1.61023 23.207 1.68653 23.1295C1.76284 23.052 1.85508 22.9921 1.95687 22.9538C2.05865 22.9155 2.16755 22.8998 2.27601 22.9078C2.38447 22.9158 2.48989 22.9473 2.58497 23C2.77267 23.1038 2.91743 23.2708 2.99344 23.4714C3.06945 23.6719 3.07176 23.8929 2.99997 24.095C2.62809 25.1002 2.36737 26.1431 2.22247 27.205C2.21623 27.2618 2.22214 27.3193 2.23981 27.3736C2.25748 27.4279 2.28651 27.4778 2.32497 27.52C2.36361 27.5625 2.41069 27.5965 2.46322 27.6197C2.51574 27.643 2.57253 27.655 2.62997 27.655H25.155C25.2124 27.6547 25.2691 27.6425 25.3215 27.6193C25.374 27.5961 25.4211 27.5623 25.46 27.52C25.4971 27.4776 25.5252 27.4279 25.5424 27.3742C25.5596 27.3204 25.5656 27.2637 25.56 27.2075C25.3363 25.1335 24.5634 23.1567 23.321 21.481C22.0785 19.8053 20.4115 18.4914 18.4918 17.6749C16.5722 16.8584 14.4695 16.5688 12.4006 16.8361C10.3318 17.1033 8.37164 17.9176 6.72247 19.195C6.57888 19.3046 6.40306 19.3635 6.22247 19.3625C6.03893 19.3608 5.86188 19.2944 5.72247 19.175C5.62538 19.0963 5.54744 18.9966 5.49453 18.8834C5.44163 18.7702 5.41514 18.6464 5.41706 18.5214C5.41899 18.3965 5.44928 18.2736 5.50565 18.162C5.56202 18.0505 5.643 17.9532 5.74247 17.8775C6.54659 17.257 7.4189 16.7303 8.34247 16.3075C8.41525 16.2771 8.47761 16.2261 8.52199 16.1609C8.56636 16.0956 8.59085 16.0189 8.59247 15.94V11.095C8.59247 10.7288 8.73778 10.3775 8.99651 10.1183C9.25524 9.85915 9.60624 9.7132 9.97247 9.71254H10.875C10.983 9.71254 11.0867 9.6696 11.1631 9.59318C11.2395 9.51676 11.2825 9.41311 11.2825 9.30504V6.38254C11.2825 6.27446 11.2395 6.17081 11.1631 6.09439C11.0867 6.01797 10.983 5.97504 10.875 5.97504H9.38247C9.16741 5.97437 8.96139 5.88848 8.80956 5.73618C8.65773 5.58388 8.57247 5.37759 8.57247 5.16254V1.46504C8.57444 1.27472 8.65144 1.09287 8.78672 0.958992C8.922 0.825115 9.10464 0.750025 9.29497 0.750035H18.5575C18.6401 0.749706 18.7219 0.765694 18.7984 0.797081C18.8748 0.828469 18.9443 0.874638 19.0028 0.93294C19.0613 0.991241 19.1078 1.06053 19.1395 1.13682C19.1712 1.21312 19.1875 1.29492 19.1875 1.37754V2.12754C19.1881 2.23518 19.2314 2.33819 19.3077 2.41407C19.3841 2.48995 19.4873 2.53254 19.595 2.53254H24.3125C25.0929 2.5365 25.84 2.84932 26.3905 3.40259C26.941 3.95586 27.25 4.70458 27.25 5.48504V6.61504C27.25 6.68134 27.2236 6.74493 27.1767 6.79181C27.1299 6.8387 27.0663 6.86504 27 6.86504H25.875C25.8087 6.86504 25.7451 6.8387 25.6982 6.79181C25.6513 6.74493 25.625 6.68134 25.625 6.61504V5.48504C25.625 5.13893 25.4875 4.807 25.2427 4.56226C24.998 4.31753 24.6661 4.18004 24.32 4.18004H19.595C19.4869 4.18004 19.3832 4.22297 19.3068 4.29939C19.2304 4.37581 19.1875 4.47946 19.1875 4.58754V5.13754C19.1875 5.35966 19.0992 5.57268 18.9422 5.72974C18.7851 5.8868 18.5721 5.97504 18.35 5.97504H16.9025C16.7953 5.97635 16.6929 6.01986 16.6175 6.09614C16.5422 6.17242 16.5 6.27532 16.5 6.38254V9.30504C16.5 9.41311 16.5429 9.51676 16.6193 9.59318C16.6957 9.6696 16.7994 9.71254 16.9075 9.71254H17.6925C18.0903 9.71254 18.4718 9.87057 18.7531 10.1519C19.0344 10.4332 19.1925 10.8147 19.1925 11.2125V15.94C19.1938 16.019 19.2181 16.0959 19.2626 16.1611C19.307 16.2264 19.3695 16.2773 19.4425 16.3075C21.6375 17.3098 23.5204 18.8872 24.8919 20.8726C26.2633 22.858 27.072 25.1774 27.2325 27.585C27.2332 27.599 27.2378 27.6125 27.2457 27.6239C27.2537 27.6354 27.2647 27.6445 27.2775 27.65V35.525C27.2778 35.5791 27.2888 35.6325 27.3098 35.6823C27.3308 35.732 27.3615 35.7772 27.4 35.815C27.4753 35.8892 27.5768 35.9305 27.6825 35.93C27.7205 35.9302 27.7583 35.9251 27.795 35.915C28.1091 35.809 28.4363 35.7468 28.7675 35.73H29.4925C29.9265 35.7299 30.3588 35.7827 30.78 35.8875C32.7234 36.3803 34.72 36.6322 36.725 36.6375H39.5C41.4863 36.6368 43.4652 36.3933 45.3925 35.9125C45.831 35.7991 46.282 35.7412 46.735 35.74H47.0775C48.4839 35.744 49.8316 36.3045 50.8261 37.2989C51.8206 38.2934 52.381 39.6411 52.385 41.0475C52.3841 41.8011 52.2204 42.5456 51.905 43.23C51.8754 43.2932 51.8624 43.3628 51.8672 43.4324C51.872 43.5019 51.8945 43.5691 51.9325 43.6275C51.9687 43.6848 52.0189 43.7318 52.0784 43.7642C52.1379 43.7966 52.2047 43.8132 52.2725 43.8125H53.3275C53.5538 43.8132 53.7706 43.9036 53.9304 44.0638C54.0902 44.2241 54.18 44.4412 54.18 44.6675V48C54.1793 48.2737 54.0703 48.5359 53.8768 48.7294C53.6833 48.9229 53.4211 49.0319 53.1475 49.0325H52.67C52.5743 49.0329 52.4818 49.0669 52.4086 49.1286C52.3355 49.1903 52.2864 49.2758 52.27 49.37C51.9988 50.7874 51.2426 52.0661 50.1314 52.9867C49.0201 53.9073 47.623 54.4123 46.18 54.415H30.0275V54.42ZM25.635 49.0375C25.6151 49.0375 25.596 49.0454 25.5819 49.0595C25.5679 49.0736 25.56 49.0926 25.56 49.1125V49.13C25.56 49.1625 25.56 49.18 25.5775 49.195C25.595 49.21 25.5775 49.2175 25.5775 49.23C25.6342 49.4763 25.7119 49.7172 25.81 49.95C25.8344 50.0114 25.862 50.0715 25.8925 50.13C25.9956 50.3455 26.1151 50.5528 26.25 50.75L26.295 50.82C26.32 50.8575 26.345 50.8975 26.3725 50.935C26.5439 51.1673 26.7364 51.3832 26.9475 51.58C27.7852 52.3523 28.8831 52.7808 30.0225 52.78H46.175C47.1497 52.7823 48.0993 52.4713 48.8838 51.8929C49.6684 51.3145 50.2463 50.4993 50.5325 49.5675C50.5522 49.5071 50.557 49.4429 50.5465 49.3802C50.5361 49.3175 50.5107 49.2583 50.4725 49.2075C50.4343 49.156 50.3846 49.1142 50.3272 49.0856C50.2699 49.0569 50.2066 49.0421 50.1425 49.0425L25.635 49.0375ZM2.54747 47.25C2.43983 47.2507 2.33682 47.2939 2.26094 47.3703C2.18506 47.4466 2.14247 47.5499 2.14247 47.6575V51.4775C2.14247 51.8232 2.27962 52.1548 2.52381 52.3994C2.768 52.6441 3.09929 52.7819 3.44497 52.7825H24.645C24.7795 52.7821 24.9124 52.7531 25.035 52.6975C25.0901 52.6731 25.1389 52.6362 25.1775 52.5898C25.2161 52.5434 25.2434 52.4887 25.2575 52.43C25.2722 52.3698 25.2732 52.307 25.2602 52.2464C25.2472 52.1858 25.2206 52.1289 25.1825 52.08C25.085 51.955 24.9875 51.83 24.9 51.6875C24.85 51.615 24.8025 51.54 24.7575 51.465C24.6425 51.2775 24.5375 51.0775 24.4475 50.9025L24.4325 50.87C24.415 50.84 24.3975 50.8075 24.3825 50.775C24.2741 50.5309 24.1806 50.2805 24.1025 50.025L24.0725 49.92L24.055 49.8475C23.9974 49.6435 23.9506 49.4365 23.915 49.2275C23.9161 49.2067 23.9161 49.1859 23.915 49.165C23.9076 49.1431 23.9026 49.1205 23.9 49.0975C23.897 49.0799 23.8878 49.0639 23.874 49.0524C23.8603 49.041 23.8429 49.0348 23.825 49.035H22.885C22.6611 49.0344 22.4465 48.9451 22.2882 48.7868C22.1299 48.6285 22.0406 48.4139 22.04 48.19V47.65C22.04 47.5424 21.9974 47.4391 21.9215 47.3628C21.8456 47.2864 21.7426 47.2432 21.635 47.2425L2.54747 47.25ZM24.08 45.455C23.9719 45.455 23.8682 45.498 23.7918 45.5744C23.7154 45.6508 23.6725 45.7545 23.6725 45.8625V46.9925C23.6725 47.1006 23.7154 47.2043 23.7918 47.2807C23.8682 47.3571 23.9719 47.4 24.08 47.4H52.125C52.2326 47.3994 52.3356 47.3562 52.4115 47.2798C52.4874 47.2035 52.53 47.1002 52.53 46.9925V45.8625C52.53 45.7549 52.4874 45.6516 52.4115 45.5753C52.3356 45.4989 52.2326 45.4557 52.125 45.455H24.08ZM2.54747 29.3C2.43983 29.3007 2.33682 29.3439 2.26094 29.4203C2.18506 29.4966 2.14247 29.5999 2.14247 29.7075V45.185C2.14313 45.2923 2.18601 45.3949 2.26182 45.4707C2.33763 45.5465 2.44026 45.5894 2.54747 45.59H21.6225C21.7297 45.5894 21.8323 45.5465 21.9081 45.4707C21.9839 45.3949 22.0268 45.2923 22.0275 45.185V44.3025C22.0306 44.1709 22.0843 44.0456 22.1774 43.9525C22.2705 43.8594 22.3959 43.8057 22.5275 43.8025L23.7775 43.7675C23.8589 43.7654 23.9386 43.7435 24.0097 43.7035C24.0807 43.6636 24.1409 43.6069 24.185 43.5384C24.2291 43.4699 24.2558 43.3916 24.2628 43.3104C24.2698 43.2292 24.2568 43.1476 24.225 43.0725L24.1825 42.9675C24.1325 42.8425 24.09 42.7175 24.05 42.5875L24.03 42.5225C24.0125 42.465 23.995 42.4075 23.98 42.3475C23.945 42.2125 23.9175 42.075 23.89 41.9125L23.875 41.825C23.875 41.785 23.8575 41.7425 23.8525 41.7025C23.8016 41.2874 23.8016 40.8677 23.8525 40.4525C23.8525 40.415 23.865 40.3775 23.8725 40.34L23.885 40.26C23.905 40.13 23.925 40.01 23.9525 39.875C23.965 39.82 23.98 39.77 23.995 39.7175L24.0125 39.6525C24.045 39.54 24.075 39.425 24.115 39.315C24.135 39.2575 24.1575 39.2025 24.18 39.145L24.2475 38.9825C24.275 38.915 24.305 38.8475 24.335 38.78C24.365 38.7125 24.41 38.6325 24.45 38.56C24.49 38.4875 24.5575 38.365 24.615 38.2725C24.6725 38.18 24.7075 38.13 24.755 38.06C24.8025 37.99 24.8825 37.8825 24.9525 37.795C25.0225 37.7075 25.0575 37.6625 25.1125 37.5975C25.1675 37.5325 25.265 37.4325 25.345 37.3475L25.485 37.21C25.4916 37.2023 25.4975 37.1939 25.5025 37.185L25.6075 36.935C25.61 36.9261 25.61 36.9165 25.6075 36.9075V29.7075C25.6075 29.5995 25.5645 29.4958 25.4881 29.4194C25.4117 29.343 25.308 29.3 25.2 29.3H2.54747ZM29.13 37.375C28.3362 37.3793 27.5654 37.6427 26.935 38.125C26.6992 38.297 26.4859 38.4977 26.3 38.7225C25.7008 39.4369 25.4037 40.3567 25.4719 41.2866C25.5401 42.2165 25.968 43.0832 26.665 43.7025C26.7404 43.7682 26.8374 43.8038 26.9375 43.8025H49.2975C49.3992 43.804 49.4976 43.7664 49.5725 43.6975C49.9415 43.3593 50.2367 42.9484 50.4393 42.4906C50.642 42.0329 50.7477 41.5381 50.75 41.0375C50.7486 40.0662 50.362 39.135 49.6749 38.4483C48.9878 37.7617 48.0563 37.3757 47.085 37.375H46.7825C46.4454 37.3769 46.1097 37.4189 45.7825 37.5C43.7299 38.011 41.6227 38.2696 39.5075 38.27H36.7075C34.5873 38.2705 32.4749 38.012 30.4175 37.5C30.1098 37.4194 29.7931 37.3782 29.475 37.3775L29.13 37.375ZM11.095 11.3575C10.9784 11.3579 10.8631 11.3813 10.7557 11.4264C10.6483 11.4715 10.5508 11.5375 10.469 11.6204C10.3872 11.7034 10.3226 11.8018 10.279 11.9098C10.2354 12.0179 10.2136 12.1335 10.215 12.25V14.355C10.215 14.5539 10.294 14.7447 10.4346 14.8854C10.5753 15.026 10.7661 15.105 10.965 15.105H16.675C16.9044 15.105 17.1244 15.0139 17.2866 14.8517C17.4488 14.6895 17.54 14.4694 17.54 14.24V12.1325C17.54 11.927 17.4583 11.7299 17.313 11.5845C17.1676 11.4392 16.9705 11.3575 16.765 11.3575H11.095ZM13.315 5.97504C13.2069 5.97504 13.1032 6.01797 13.0268 6.09439C12.9504 6.17081 12.9075 6.27446 12.9075 6.38254V9.30504C12.9075 9.41311 12.9504 9.51676 13.0268 9.59318C13.1032 9.6696 13.2069 9.71254 13.315 9.71254H14.445C14.553 9.71254 14.6567 9.6696 14.7331 9.59318C14.8095 9.51676 14.8525 9.41311 14.8525 9.30504V6.38254C14.8525 6.27446 14.8095 6.17081 14.7331 6.09439C14.6567 6.01797 14.553 5.97504 14.445 5.97504H13.315ZM10.6225 2.38504C10.5144 2.38504 10.4107 2.42797 10.3343 2.50439C10.2579 2.58081 10.215 2.68446 10.215 2.79254V3.92254C10.215 4.03061 10.2579 4.13426 10.3343 4.21068C10.4107 4.2871 10.5144 4.33004 10.6225 4.33004H17.135C17.243 4.33004 17.3467 4.2871 17.4231 4.21068C17.4995 4.13426 17.5425 4.03061 17.5425 3.92254V2.79254C17.5425 2.68446 17.4995 2.58081 17.4231 2.50439C17.3467 2.42797 17.243 2.38504 17.135 2.38504H10.6225Z" fill="black"/>
<path d="M34.5124 20.4026C33.4472 20.4021 32.4057 20.7175 31.5198 21.3091C30.6338 21.9006 29.9432 22.7416 29.5353 23.7257C29.1274 24.7097 29.0206 25.7927 29.2283 26.8375C29.436 27.8823 29.9489 28.8421 30.7022 29.5953C31.4554 30.3486 32.4152 30.8615 33.46 31.0692C34.5048 31.2769 35.5878 31.1701 36.5718 30.7622C37.5559 30.3543 38.3969 29.6637 38.9884 28.7777C39.58 27.8918 39.8954 26.8503 39.8949 25.7851C39.8949 24.3575 39.3279 22.9885 38.3184 21.9791C37.309 20.9696 35.94 20.4026 34.5124 20.4026ZM34.5124 29.3751C33.8024 29.3751 33.1083 29.1645 32.5179 28.77C31.9276 28.3756 31.4674 27.8149 31.1957 27.1589C30.924 26.5029 30.8529 25.7811 30.9914 25.0847C31.1299 24.3883 31.4719 23.7486 31.9739 23.2465C32.476 22.7445 33.1157 22.4026 33.8121 22.264C34.5085 22.1255 35.2303 22.1966 35.8863 22.4683C36.5423 22.74 37.1029 23.2002 37.4974 23.7906C37.8919 24.3809 38.1024 25.075 38.1024 25.7851C38.1024 26.2565 38.0096 26.7233 37.8292 27.1589C37.6488 27.5944 37.3843 27.9902 37.051 28.3236C36.7176 28.6569 36.3218 28.9214 35.8863 29.1018C35.4507 29.2822 34.9839 29.3751 34.5124 29.3751Z" fill="black"/>
<path d="M34.5127 31.095C33.4624 31.0955 32.4355 30.7845 31.562 30.2013C30.6884 29.6182 30.0074 28.789 29.6051 27.8188C29.2029 26.8486 29.0973 25.7808 29.302 24.7506C29.5066 23.7204 30.0121 22.774 30.7546 22.0312C31.4971 21.2883 32.4433 20.7823 33.4734 20.5772C34.5035 20.3721 35.5713 20.4771 36.5417 20.879C37.5121 21.2808 38.3416 21.9614 38.9252 22.8347C39.5087 23.708 39.8202 24.7347 39.8202 25.785C39.8163 27.1917 39.2559 28.5396 38.2615 29.5345C37.2671 30.5294 35.9194 31.0904 34.5127 31.095ZM34.5127 22.1225C33.7878 22.1225 33.0791 22.3375 32.4763 22.7403C31.8735 23.1432 31.4038 23.7157 31.1265 24.3856C30.8491 25.0554 30.7767 25.7924 30.9183 26.5034C31.0599 27.2144 31.4093 27.8675 31.9221 28.3799C32.4349 28.8924 33.0881 29.2413 33.7993 29.3824C34.5104 29.5235 35.2473 29.4506 35.917 29.1728C36.5866 28.895 37.1589 28.4249 37.5613 27.8219C37.9637 27.2188 38.1782 26.51 38.1777 25.785C38.1771 24.8134 37.7906 23.8819 37.1034 23.1951C36.4161 22.5083 35.4843 22.1225 34.5127 22.1225Z" fill="black"/>
<path d="M44.3827 26.6826C43.6725 26.6821 42.9782 26.8922 42.3875 27.2864C41.7968 27.6806 41.3363 28.2411 41.0642 28.897C40.7921 29.553 40.7206 30.2749 40.8588 30.9714C40.9971 31.668 41.3388 32.3079 41.8408 32.8102C42.3427 33.3125 42.9824 33.6547 43.6789 33.7934C44.3753 33.9321 45.0973 33.8612 45.7534 33.5896C46.4095 33.3179 46.9704 32.8578 47.365 32.2673C47.7596 31.6769 47.9702 30.9827 47.9702 30.2726C47.9702 29.3209 47.5923 28.4081 46.9196 27.735C46.2468 27.0618 45.3344 26.6833 44.3827 26.6826ZM44.3827 32.0651C44.0274 32.0656 43.68 31.9607 43.3845 31.7636C43.0889 31.5666 42.8584 31.2863 42.7223 30.9582C42.5861 30.6301 42.5504 30.2689 42.6195 29.9205C42.6887 29.5721 42.8597 29.252 43.1109 29.0008C43.3621 28.7496 43.6822 28.5786 44.0306 28.5095C44.379 28.4403 44.7401 28.476 45.0682 28.6122C45.3963 28.7484 45.6766 28.9788 45.8737 29.2744C46.0707 29.57 46.1757 29.9174 46.1752 30.2726C46.1752 30.748 45.9863 31.2039 45.6502 31.5401C45.314 31.8762 44.8581 32.0651 44.3827 32.0651Z" fill="black"/>
<path d="M44.3825 33.7851C43.6866 33.7856 43.0062 33.5794 42.4275 33.1928C41.8488 32.8062 41.3979 32.2566 41.1319 31.6134C40.8659 30.9703 40.7968 30.2627 40.9334 29.5803C41.07 28.8979 41.406 28.2714 41.899 27.7802C42.392 27.2889 43.0197 26.9551 43.7026 26.821C44.3855 26.6868 45.0928 26.7584 45.735 27.0267C46.3772 27.295 46.9252 27.7478 47.3098 28.3279C47.6943 28.908 47.898 29.5891 47.895 30.2851C47.8904 31.2141 47.5185 32.1035 46.8604 32.7592C46.2023 33.415 45.3115 33.7838 44.3825 33.7851ZM44.3825 28.4026C44.0126 28.4021 43.6508 28.5113 43.3429 28.7165C43.0351 28.9217 42.795 29.2136 42.6531 29.5552C42.5112 29.8969 42.4738 30.2729 42.5456 30.6358C42.6175 30.9988 42.7954 31.3322 43.0568 31.594C43.3183 31.8557 43.6515 32.0341 44.0143 32.1064C44.3771 32.1788 44.7532 32.1419 45.0951 32.0005C45.4369 31.859 45.7291 31.6193 45.9347 31.3117C46.1403 31.0042 46.25 30.6425 46.25 30.2726C46.25 29.777 46.0533 29.3018 45.7032 28.9512C45.353 28.6005 44.878 28.4032 44.3825 28.4026Z" fill="black"/>
<path d="M44.3827 18.61C43.8499 18.6096 43.329 18.7671 42.8858 19.0628C42.4427 19.3584 42.0972 19.7789 41.8931 20.271C41.689 20.7631 41.6355 21.3047 41.7393 21.8272C41.8431 22.3497 42.0996 22.8297 42.4763 23.2064C42.853 23.5831 43.333 23.8396 43.8555 23.9434C44.378 24.0472 44.9196 23.9937 45.4117 23.7896C45.9038 23.5855 46.3243 23.24 46.6199 22.7969C46.9156 22.3537 47.0731 21.8328 47.0726 21.3C47.072 20.5868 46.7884 19.903 46.284 19.3987C45.7797 18.8943 45.0959 18.6107 44.3827 18.61ZM44.3827 22.1975C44.205 22.198 44.0313 22.1458 43.8833 22.0475C43.7354 21.9492 43.62 21.8092 43.5517 21.6452C43.4834 21.4813 43.4652 21.3008 43.4996 21.1265C43.5339 20.9522 43.6192 20.7921 43.7446 20.6663C43.8701 20.5405 44.03 20.4548 44.2041 20.42C44.3783 20.3851 44.5589 20.4028 44.723 20.4706C44.8872 20.5385 45.0275 20.6535 45.1262 20.8012C45.2249 20.9488 45.2777 21.1224 45.2777 21.3C45.2777 21.5376 45.1834 21.7656 45.0157 21.9338C44.8479 22.102 44.6202 22.1969 44.3827 22.1975Z" fill="black"/>
<path d="M44.3827 23.9175C43.865 23.9175 43.3589 23.764 42.9285 23.4764C42.498 23.1888 42.1626 22.78 41.9644 22.3017C41.7663 21.8234 41.7145 21.2971 41.8155 20.7894C41.9165 20.2816 42.1658 19.8152 42.5318 19.4492C42.8979 19.0831 43.3643 18.8338 43.8721 18.7328C44.3798 18.6318 44.9061 18.6837 45.3844 18.8818C45.8627 19.0799 46.2715 19.4154 46.5591 19.8458C46.8467 20.2763 47.0002 20.7823 47.0002 21.3C46.9989 21.9938 46.7227 22.6588 46.2321 23.1494C45.7415 23.64 45.0765 23.9162 44.3827 23.9175ZM44.3827 20.3275C44.1902 20.327 44.002 20.3836 43.8417 20.4902C43.6815 20.5968 43.5564 20.7485 43.4824 20.9261C43.4085 21.1038 43.3888 21.2994 43.4261 21.4882C43.4633 21.677 43.5557 21.8505 43.6917 21.9868C43.8276 22.1231 44.0008 22.2159 44.1896 22.2537C44.3783 22.2914 44.5739 22.2723 44.7518 22.1987C44.9296 22.1252 45.0817 22.0006 45.1886 21.8406C45.2956 21.6806 45.3527 21.4925 45.3527 21.3C45.3527 21.0425 45.2506 20.7956 45.0687 20.6132C44.8869 20.4309 44.6402 20.3282 44.3827 20.3275Z" fill="black"/>
<path d="M19.2624 31.17H8.49738C8.00171 31.17 7.59988 31.5719 7.59988 32.0675C7.59988 32.5632 8.00171 32.965 8.49738 32.965H19.2624C19.7581 32.965 20.1599 32.5632 20.1599 32.0675C20.1599 31.5719 19.7581 31.17 19.2624 31.17Z" fill="black"/>
<path d="M8.50019 32.8875C8.38609 32.8984 8.27096 32.8854 8.16219 32.8492C8.05342 32.813 7.95341 32.7545 7.86858 32.6774C7.78375 32.6004 7.71597 32.5064 7.66958 32.4016C7.6232 32.2967 7.59924 32.1834 7.59924 32.0687C7.59924 31.9541 7.6232 31.8408 7.66958 31.7359C7.71597 31.6311 7.78375 31.5371 7.86858 31.46C7.95341 31.383 8.05342 31.3244 8.16219 31.2883C8.27096 31.2521 8.38609 31.2391 8.50019 31.25H19.2652C19.3769 31.2438 19.4886 31.2605 19.5936 31.299C19.6986 31.3375 19.7946 31.397 19.8759 31.4738C19.9571 31.5507 20.0218 31.6433 20.066 31.746C20.1102 31.8488 20.133 31.9594 20.133 32.0712C20.133 32.1831 20.1102 32.2937 20.066 32.3964C20.0218 32.4992 19.9571 32.5918 19.8759 32.6687C19.7946 32.7455 19.6986 32.805 19.5936 32.8435C19.4886 32.882 19.3769 32.8987 19.2652 32.8925L8.50019 32.8875Z" fill="black"/>
<path d="M3.10004 21.2501C3.16936 21.4171 3.28853 21.5585 3.44128 21.6552C3.59403 21.7518 3.7729 21.7989 3.95345 21.7901C4.13399 21.7812 4.30739 21.7168 4.44995 21.6057C4.59251 21.4946 4.69727 21.3421 4.74992 21.1692C4.80256 20.9963 4.80052 20.8113 4.74408 20.6396C4.68763 20.4679 4.57953 20.3178 4.43455 20.2098C4.28957 20.1019 4.11479 20.0413 3.9341 20.0365C3.75341 20.0316 3.57562 20.0826 3.42504 20.1826C3.25655 20.2962 3.13228 20.4643 3.0731 20.6587C3.01391 20.8531 3.02343 21.0619 3.10004 21.2501Z" fill="black"/>
</svg>
