<?xml version="1.0" encoding="UTF-8" standalone="no"?><!-- Generator: Gravit.io --><svg xmlns="http://www.w3.org/2000/svg" xmlns:xlink="http://www.w3.org/1999/xlink" style="isolation:isolate" viewBox="0 0 55 54" width="55pt" height="54pt"><defs><clipPath id="_clipPath_GPjWt18xPrvC2x5gS7fjUr7ukdS25KNC"><rect width="55" height="54"/></clipPath></defs><g clip-path="url(#_clipPath_GPjWt18xPrvC2x5gS7fjUr7ukdS25KNC)"><path d=" M 34.76 10.282 C 34.76 9.788 34.36 9.387 33.865 9.387 C 33.371 9.387 32.97 9.788 32.97 10.282 C 32.97 10.777 33.371 11.177 33.865 11.177 C 34.36 11.177 34.76 10.777 34.76 10.282 Z " fill="rgb(255,255,255)"/><path d=" M 51.765 32.845 L 43.71 32.845 C 43.661 32.844 43.613 32.824 43.578 32.789 C 43.543 32.754 43.523 32.707 43.523 32.658 L 43.523 19.233 C 43.523 19.183 43.542 19.135 43.578 19.1 C 43.613 19.065 43.66 19.045 43.71 19.045 L 51.765 19.045 C 51.858 19.045 51.95 19.027 52.036 18.991 C 52.122 18.956 52.2 18.904 52.265 18.838 C 52.331 18.772 52.383 18.694 52.419 18.608 C 52.454 18.522 52.473 18.43 52.473 18.338 L 52.473 13.898 L 54.25 1.432 C 54.264 1.34 54.259 1.247 54.236 1.156 C 54.214 1.066 54.173 0.981 54.117 0.907 C 54.062 0.833 53.991 0.77 53.911 0.723 C 53.831 0.676 53.742 0.645 53.65 0.632 C 53.617 0.63 53.583 0.63 53.55 0.632 L 28.5 0.632 C 28.312 0.632 28.133 0.707 28 0.84 C 27.867 0.972 27.793 1.152 27.793 1.34 C 27.79 1.373 27.79 1.407 27.793 1.44 L 29.573 13.905 L 29.573 18.345 C 29.573 18.438 29.591 18.53 29.626 18.616 C 29.662 18.702 29.714 18.78 29.78 18.845 C 29.846 18.911 29.924 18.963 30.009 18.999 C 30.095 19.034 30.187 19.053 30.28 19.053 L 38.335 19.053 C 38.385 19.053 38.433 19.072 38.468 19.107 C 38.503 19.143 38.523 19.19 38.523 19.24 L 38.523 32.665 C 38.522 32.715 38.502 32.762 38.467 32.797 C 38.432 32.832 38.385 32.852 38.335 32.853 L 37.44 32.853 C 37.08 32.853 36.725 32.931 36.398 33.081 C 36.072 33.231 35.781 33.45 35.547 33.723 C 35.312 33.995 35.139 34.315 35.04 34.661 C 34.94 35.006 34.917 35.369 34.97 35.725 C 35.073 36.325 35.386 36.868 35.853 37.257 C 36.321 37.646 36.912 37.856 37.52 37.848 L 38.335 37.848 C 38.385 37.848 38.433 37.867 38.468 37.902 C 38.503 37.938 38.523 37.985 38.523 38.035 L 38.523 39.825 C 38.522 39.875 38.502 39.922 38.467 39.957 C 38.432 39.992 38.385 40.012 38.335 40.013 L 32.075 40.013 C 32.049 40.012 32.024 40.007 32 39.997 C 31.977 39.986 31.955 39.971 31.938 39.953 C 31.903 39.914 31.885 39.864 31.888 39.813 L 32.723 27.283 C 32.726 27.235 32.747 27.19 32.782 27.158 C 32.817 27.125 32.862 27.107 32.91 27.108 L 33.865 27.108 C 33.958 27.108 34.05 27.089 34.136 27.054 C 34.222 27.018 34.3 26.966 34.365 26.9 C 34.431 26.835 34.483 26.757 34.519 26.671 C 34.554 26.585 34.573 26.493 34.573 26.4 L 34.573 22.813 C 34.573 22.625 34.498 22.445 34.365 22.312 C 34.233 22.18 34.053 22.105 33.865 22.105 L 27.533 22.105 C 27.487 22.105 27.443 22.088 27.409 22.057 C 27.375 22.027 27.353 21.985 27.348 21.94 C 27.208 21.014 26.859 20.133 26.326 19.363 C 25.793 18.593 25.09 17.956 24.273 17.5 C 24.251 17.489 24.232 17.474 24.216 17.455 C 24.2 17.436 24.188 17.415 24.181 17.392 C 24.173 17.368 24.17 17.344 24.172 17.32 C 24.175 17.295 24.181 17.272 24.193 17.25 C 24.55 16.455 24.732 15.593 24.726 14.722 C 24.721 13.85 24.528 12.99 24.161 12.2 C 23.794 11.41 23.262 10.707 22.6 10.141 C 21.937 9.574 21.161 9.157 20.324 8.917 C 19.486 8.677 18.606 8.62 17.745 8.749 C 16.883 8.879 16.059 9.192 15.33 9.668 C 14.6 10.144 13.981 10.772 13.514 11.508 C 13.048 12.244 12.746 13.072 12.628 13.935 C 12.622 13.98 12.6 14.022 12.566 14.052 C 12.532 14.081 12.488 14.098 12.443 14.098 L 12.42 14.098 C 12.105 14.063 11.788 14.045 11.47 14.045 C 9.314 14.044 7.233 14.841 5.629 16.282 C 4.025 17.724 3.011 19.708 2.783 21.853 L 2.783 21.93 C 2.778 21.976 2.756 22.019 2.721 22.051 C 2.687 22.082 2.642 22.1 2.595 22.1 L 1.645 22.1 C 1.457 22.1 1.277 22.175 1.145 22.307 C 1.012 22.44 0.938 22.62 0.938 22.808 L 0.938 26.388 C 0.938 26.48 0.956 26.572 0.991 26.658 C 1.027 26.744 1.079 26.822 1.145 26.888 C 1.21 26.954 1.288 27.006 1.374 27.041 C 1.46 27.077 1.552 27.095 1.645 27.095 L 2.598 27.095 C 2.645 27.095 2.691 27.113 2.726 27.145 C 2.761 27.178 2.782 27.222 2.785 27.27 L 3.965 45 C 3.973 45.094 3.999 45.186 4.043 45.27 C 4.087 45.354 4.148 45.429 4.221 45.489 C 4.294 45.549 4.379 45.594 4.47 45.621 C 4.561 45.647 4.656 45.656 4.75 45.645 C 4.931 45.625 5.097 45.536 5.214 45.396 C 5.331 45.256 5.39 45.077 5.378 44.895 L 4.205 27.3 C 4.202 27.248 4.22 27.197 4.255 27.158 C 4.273 27.139 4.294 27.124 4.318 27.115 C 4.342 27.105 4.367 27.1 4.393 27.1 L 31.118 27.1 C 31.143 27.1 31.169 27.105 31.192 27.115 C 31.216 27.124 31.237 27.139 31.255 27.158 C 31.29 27.197 31.308 27.248 31.305 27.3 L 30.473 39.83 C 30.469 39.878 30.448 39.922 30.413 39.955 C 30.379 39.987 30.333 40.005 30.285 40.005 L 28.5 40.005 C 27.837 40.005 27.201 40.268 26.732 40.737 C 26.264 41.206 26 41.842 26 42.505 L 26 52.35 C 25.999 52.4 25.98 52.447 25.944 52.482 C 25.909 52.517 25.862 52.537 25.813 52.538 L 6.063 52.538 C 6.015 52.537 5.97 52.519 5.935 52.486 C 5.9 52.454 5.879 52.41 5.875 52.363 L 5.685 49.5 C 5.679 49.404 5.653 49.311 5.61 49.226 C 5.567 49.14 5.507 49.065 5.433 49.003 C 5.36 48.942 5.275 48.896 5.183 48.868 C 5.092 48.841 4.995 48.832 4.9 48.843 C 4.719 48.863 4.553 48.952 4.436 49.092 C 4.319 49.231 4.261 49.411 4.273 49.593 L 4.523 53.278 C 4.534 53.457 4.613 53.625 4.744 53.748 C 4.875 53.871 5.048 53.94 5.228 53.94 L 53.555 53.94 C 53.743 53.94 53.923 53.865 54.055 53.733 C 54.188 53.6 54.263 53.42 54.263 53.233 L 54.263 35.333 C 54.259 34.672 53.995 34.04 53.527 33.574 C 53.059 33.108 52.426 32.846 51.765 32.845 Z  M 30.875 13 L 29.343 2.25 C 29.338 2.224 29.34 2.197 29.347 2.171 C 29.354 2.146 29.367 2.122 29.385 2.102 C 29.403 2.082 29.424 2.065 29.449 2.054 C 29.474 2.043 29.501 2.037 29.528 2.037 L 32.97 2.037 C 33.02 2.037 33.068 2.057 33.103 2.092 C 33.138 2.128 33.158 2.175 33.158 2.225 L 33.158 6.725 C 33.158 6.837 33.185 6.948 33.237 7.048 C 33.29 7.147 33.366 7.232 33.459 7.295 C 33.552 7.359 33.659 7.398 33.771 7.411 C 33.882 7.424 33.995 7.409 34.1 7.367 C 34.243 7.311 34.365 7.211 34.449 7.083 C 34.534 6.955 34.577 6.804 34.573 6.65 L 34.573 2.227 C 34.573 2.178 34.592 2.13 34.628 2.095 C 34.663 2.06 34.71 2.04 34.76 2.04 L 36.55 2.04 C 36.6 2.04 36.648 2.06 36.683 2.095 C 36.718 2.13 36.738 2.178 36.738 2.227 L 36.738 3.165 C 36.738 3.286 36.772 3.405 36.835 3.509 C 36.898 3.612 36.988 3.697 37.095 3.754 C 37.202 3.811 37.322 3.838 37.443 3.832 C 37.564 3.826 37.682 3.787 37.783 3.72 C 37.899 3.647 37.994 3.546 38.058 3.425 C 38.123 3.305 38.156 3.169 38.153 3.032 L 38.153 2.227 C 38.153 2.178 38.172 2.13 38.208 2.095 C 38.243 2.06 38.29 2.04 38.34 2.04 L 43.71 2.04 C 43.76 2.04 43.808 2.06 43.843 2.095 C 43.878 2.13 43.898 2.178 43.898 2.227 L 43.898 4.107 C 43.898 4.271 43.963 4.428 44.078 4.544 C 44.194 4.66 44.351 4.725 44.515 4.725 L 44.733 4.725 C 44.809 4.725 44.885 4.71 44.955 4.681 C 45.026 4.651 45.09 4.608 45.144 4.554 C 45.198 4.5 45.24 4.436 45.269 4.365 C 45.298 4.295 45.313 4.219 45.313 4.142 L 45.313 2.227 C 45.313 2.178 45.332 2.13 45.368 2.095 C 45.403 2.06 45.45 2.04 45.5 2.04 L 47.29 2.04 C 47.34 2.04 47.388 2.06 47.423 2.095 C 47.458 2.13 47.478 2.178 47.478 2.227 L 47.478 6.647 C 47.479 6.752 47.502 6.855 47.546 6.951 C 47.589 7.046 47.651 7.132 47.729 7.202 C 47.806 7.272 47.898 7.326 47.997 7.359 C 48.096 7.393 48.201 7.406 48.305 7.397 C 48.467 7.374 48.616 7.292 48.724 7.169 C 48.831 7.045 48.891 6.887 48.893 6.722 L 48.893 2.222 C 48.893 2.173 48.912 2.125 48.948 2.09 C 48.983 2.055 49.03 2.035 49.08 2.035 L 52.523 2.035 C 52.55 2.035 52.577 2.04 52.601 2.051 C 52.626 2.063 52.648 2.079 52.665 2.1 C 52.683 2.12 52.696 2.143 52.703 2.169 C 52.71 2.194 52.712 2.221 52.708 2.247 L 51.175 12.998 C 51.169 13.042 51.147 13.084 51.113 13.113 C 51.079 13.143 51.035 13.16 50.99 13.16 L 31.06 13.16 C 31.015 13.16 30.972 13.144 30.938 13.114 C 30.904 13.085 30.882 13.044 30.875 13 Z  M 31.18 17.638 C 31.131 17.637 31.083 17.617 31.048 17.582 C 31.013 17.547 30.993 17.5 30.993 17.45 L 30.993 14.75 C 30.993 14.7 31.012 14.653 31.048 14.617 C 31.083 14.582 31.13 14.563 31.18 14.563 L 50.87 14.563 C 50.92 14.563 50.968 14.582 51.003 14.617 C 51.038 14.653 51.058 14.7 51.058 14.75 L 51.058 17.435 C 51.057 17.485 51.037 17.532 51.002 17.567 C 50.967 17.602 50.92 17.622 50.87 17.623 L 31.18 17.638 L 31.18 17.638 Z  M 42.108 19.24 L 42.108 32.665 C 42.107 32.715 42.087 32.762 42.052 32.797 C 42.017 32.832 41.97 32.852 41.92 32.853 L 40.13 32.853 C 40.081 32.852 40.033 32.832 39.998 32.797 C 39.963 32.762 39.943 32.715 39.943 32.665 L 39.943 19.24 C 39.943 19.19 39.962 19.143 39.998 19.107 C 40.033 19.072 40.08 19.053 40.13 19.053 L 41.92 19.053 C 41.969 19.052 42.015 19.071 42.05 19.105 C 42.085 19.138 42.106 19.184 42.108 19.233 L 42.108 19.24 L 42.108 19.24 Z  M 11.47 15.465 C 11.775 15.465 12.08 15.485 12.383 15.523 C 12.628 15.552 12.872 15.595 13.113 15.65 L 13.155 15.65 C 13.917 15.829 14.645 16.129 15.313 16.538 C 15.455 16.624 15.618 16.67 15.785 16.67 C 15.914 16.671 16.041 16.643 16.158 16.588 C 16.274 16.533 16.377 16.453 16.458 16.353 C 16.508 16.29 16.545 16.218 16.565 16.14 C 16.586 16.063 16.59 15.982 16.578 15.903 C 16.566 15.823 16.538 15.746 16.495 15.677 C 16.452 15.609 16.395 15.55 16.328 15.505 C 15.657 15.065 14.931 14.718 14.168 14.473 C 14.125 14.46 14.089 14.433 14.064 14.397 C 14.04 14.36 14.028 14.316 14.033 14.273 C 14.135 13.301 14.542 12.386 15.194 11.658 C 15.846 10.93 16.711 10.426 17.666 10.217 C 18.621 10.008 19.617 10.106 20.514 10.495 C 21.41 10.885 22.161 11.547 22.66 12.388 C 23.035 13.025 23.254 13.743 23.3 14.481 C 23.346 15.219 23.217 15.958 22.925 16.638 C 22.833 16.84 22.725 17.035 22.6 17.22 C 22.568 17.27 22.535 17.32 22.505 17.373 C 22.409 17.528 22.377 17.715 22.415 17.893 C 22.454 18.072 22.561 18.228 22.713 18.33 C 22.763 18.363 22.816 18.389 22.873 18.41 C 23.63 18.68 24.306 19.14 24.834 19.747 C 25.363 20.353 25.726 21.085 25.89 21.873 C 25.896 21.9 25.895 21.928 25.888 21.955 C 25.881 21.982 25.868 22.006 25.85 22.028 C 25.833 22.05 25.811 22.067 25.786 22.08 C 25.761 22.092 25.733 22.098 25.705 22.098 L 4.39 22.098 C 4.364 22.097 4.337 22.091 4.313 22.08 C 4.289 22.068 4.268 22.052 4.25 22.032 C 4.233 22.012 4.22 21.989 4.212 21.963 C 4.204 21.938 4.202 21.911 4.205 21.885 C 4.428 20.114 5.289 18.486 6.626 17.304 C 7.963 16.122 9.686 15.469 11.47 15.465 Z  M 2.54 25.685 C 2.491 25.684 2.443 25.664 2.408 25.629 C 2.373 25.594 2.353 25.547 2.353 25.498 L 2.353 23.708 C 2.353 23.658 2.372 23.61 2.407 23.575 C 2.443 23.54 2.49 23.52 2.54 23.52 L 32.97 23.52 C 33.02 23.52 33.068 23.54 33.103 23.575 C 33.138 23.61 33.158 23.658 33.158 23.708 L 33.158 25.5 C 33.157 25.55 33.137 25.597 33.102 25.632 C 33.067 25.667 33.02 25.687 32.97 25.688 L 2.54 25.685 L 2.54 25.685 Z  M 52.848 52.348 C 52.847 52.397 52.827 52.444 52.792 52.479 C 52.757 52.514 52.71 52.534 52.66 52.535 L 49.975 52.535 C 49.926 52.534 49.878 52.514 49.843 52.479 C 49.808 52.444 49.788 52.397 49.788 52.348 L 49.788 48.768 C 49.788 48.58 49.713 48.4 49.58 48.267 C 49.448 48.135 49.268 48.06 49.08 48.06 C 48.892 48.06 48.713 48.135 48.58 48.267 C 48.447 48.4 48.373 48.58 48.373 48.768 L 48.373 52.348 C 48.372 52.397 48.352 52.444 48.317 52.479 C 48.282 52.514 48.235 52.534 48.185 52.535 L 45.5 52.535 C 45.451 52.534 45.403 52.514 45.368 52.479 C 45.333 52.444 45.313 52.397 45.313 52.348 L 45.313 48.768 C 45.313 48.58 45.238 48.4 45.105 48.267 C 44.973 48.135 44.793 48.06 44.605 48.06 C 44.417 48.06 44.238 48.135 44.105 48.267 C 43.972 48.4 43.898 48.58 43.898 48.768 L 43.898 52.348 C 43.897 52.397 43.877 52.444 43.842 52.479 C 43.807 52.514 43.76 52.534 43.71 52.535 L 41.025 52.535 C 40.976 52.534 40.928 52.514 40.893 52.479 C 40.858 52.444 40.838 52.397 40.838 52.348 L 40.838 48.768 C 40.838 48.58 40.763 48.4 40.63 48.267 C 40.498 48.135 40.318 48.06 40.13 48.06 C 39.942 48.06 39.763 48.135 39.63 48.267 C 39.497 48.4 39.423 48.58 39.423 48.768 L 39.423 52.348 C 39.422 52.397 39.402 52.444 39.367 52.479 C 39.332 52.514 39.285 52.534 39.235 52.535 L 36.55 52.535 C 36.501 52.534 36.453 52.514 36.418 52.479 C 36.383 52.444 36.363 52.397 36.363 52.348 L 36.363 48.768 C 36.363 48.58 36.288 48.4 36.155 48.267 C 36.023 48.135 35.843 48.06 35.655 48.06 C 35.467 48.06 35.288 48.135 35.155 48.267 C 35.022 48.4 34.948 48.58 34.948 48.768 L 34.948 52.348 C 34.947 52.397 34.927 52.444 34.892 52.479 C 34.857 52.514 34.81 52.534 34.76 52.535 L 32.075 52.535 C 32.026 52.534 31.978 52.514 31.943 52.479 C 31.908 52.444 31.888 52.397 31.888 52.348 L 31.888 48.768 C 31.888 48.58 31.813 48.4 31.68 48.267 C 31.548 48.135 31.368 48.06 31.18 48.06 C 30.992 48.06 30.813 48.135 30.68 48.267 C 30.547 48.4 30.473 48.58 30.473 48.768 L 30.473 52.348 C 30.472 52.397 30.452 52.444 30.417 52.479 C 30.382 52.514 30.335 52.534 30.285 52.535 L 27.6 52.535 C 27.551 52.534 27.503 52.514 27.468 52.479 C 27.433 52.444 27.413 52.397 27.413 52.348 L 27.413 45.188 C 27.413 45.138 27.432 45.09 27.468 45.055 C 27.503 45.02 27.55 45 27.6 45 L 52.66 45 C 52.71 45 52.758 45.02 52.793 45.055 C 52.828 45.09 52.848 45.138 52.848 45.188 L 52.848 52.348 L 52.848 52.348 Z  M 52.848 43.398 C 52.847 43.447 52.827 43.494 52.792 43.529 C 52.757 43.564 52.71 43.584 52.66 43.585 L 27.6 43.585 C 27.551 43.584 27.503 43.564 27.468 43.529 C 27.433 43.494 27.413 43.447 27.413 43.398 L 27.413 42.5 C 27.413 42.358 27.441 42.217 27.495 42.086 C 27.549 41.954 27.629 41.835 27.73 41.735 C 27.83 41.634 27.95 41.554 28.081 41.5 C 28.212 41.446 28.353 41.418 28.495 41.418 L 48.185 41.418 C 48.545 41.417 48.901 41.339 49.228 41.189 C 49.554 41.039 49.845 40.82 50.08 40.547 C 50.314 40.274 50.487 39.953 50.586 39.607 C 50.686 39.262 50.709 38.898 50.655 38.543 C 50.553 37.943 50.239 37.4 49.772 37.011 C 49.304 36.623 48.713 36.414 48.105 36.423 L 37.445 36.423 C 37.284 36.422 37.125 36.385 36.979 36.316 C 36.834 36.246 36.706 36.145 36.604 36.019 C 36.503 35.894 36.43 35.747 36.393 35.59 C 36.355 35.434 36.352 35.27 36.385 35.113 C 36.442 34.862 36.585 34.639 36.788 34.482 C 36.991 34.324 37.243 34.242 37.5 34.25 L 51.778 34.25 C 52.065 34.25 52.34 34.364 52.543 34.567 C 52.746 34.77 52.86 35.045 52.86 35.333 L 52.848 43.398 L 52.848 43.398 Z  M 39.943 39.818 L 39.943 38.028 C 39.943 37.978 39.962 37.93 39.998 37.895 C 40.033 37.86 40.08 37.84 40.13 37.84 L 41.92 37.84 C 41.97 37.84 42.018 37.86 42.053 37.895 C 42.088 37.93 42.108 37.978 42.108 38.028 L 42.108 39.818 C 42.107 39.867 42.087 39.914 42.052 39.949 C 42.017 39.984 41.97 40.004 41.92 40.005 L 40.13 40.005 C 40.081 40.004 40.033 39.984 39.998 39.949 C 39.963 39.914 39.943 39.867 39.943 39.818 Z  M 43.523 39.818 L 43.523 38.028 C 43.523 37.978 43.542 37.93 43.578 37.895 C 43.613 37.86 43.66 37.84 43.71 37.84 L 48.185 37.84 C 48.346 37.84 48.505 37.877 48.651 37.946 C 48.796 38.015 48.924 38.117 49.026 38.242 C 49.128 38.367 49.2 38.513 49.238 38.67 C 49.276 38.827 49.278 38.99 49.245 39.148 C 49.187 39.395 49.046 39.615 48.845 39.771 C 48.645 39.927 48.397 40.009 48.143 40.005 L 43.71 40.005 C 43.661 40.004 43.613 39.984 43.578 39.949 C 43.543 39.914 43.523 39.867 43.523 39.818 Z " fill="rgb(255,255,255)"/><path d=" M 4.078 47.6 C 4.148 47.767 4.267 47.908 4.42 48.005 C 4.573 48.101 4.752 48.148 4.932 48.139 C 5.113 48.129 5.286 48.065 5.429 47.953 C 5.571 47.842 5.676 47.689 5.728 47.516 C 5.78 47.343 5.778 47.158 5.721 46.986 C 5.664 46.815 5.555 46.665 5.41 46.557 C 5.265 46.45 5.09 46.389 4.909 46.385 C 4.728 46.381 4.551 46.432 4.4 46.533 C 4.232 46.646 4.109 46.815 4.05 47.009 C 3.991 47.203 4.001 47.412 4.078 47.6 Z " fill="rgb(255,255,255)"/></g></svg>