<?xml version="1.0" encoding="UTF-8" standalone="no"?><!-- Generator: Gravit.io --><svg xmlns="http://www.w3.org/2000/svg" xmlns:xlink="http://www.w3.org/1999/xlink" style="isolation:isolate" viewBox="0 0 60 56" width="60pt" height="56pt"><defs><clipPath id="_clipPath_aHXgGXVRwOfXw0FlgmvRJCvEiIU4f6VD"><rect width="60" height="56"/></clipPath></defs><g clip-path="url(#_clipPath_aHXgGXVRwOfXw0FlgmvRJCvEiIU4f6VD)"><path d=" M 58.093 20.805 L 57.273 19.985 L 57.273 17.638 C 57.271 17.124 57.107 16.625 56.803 16.211 C 56.499 15.798 56.072 15.492 55.583 15.338 C 55.426 14.697 55.058 14.127 54.539 13.719 C 54.021 13.311 53.38 13.089 52.72 13.088 L 52.558 13.088 L 52.558 12.818 C 52.558 12.024 52.346 11.245 51.944 10.562 C 51.542 9.878 50.964 9.315 50.27 8.93 L 50.163 8.87 C 49.72 8.624 49.351 8.264 49.094 7.828 C 48.836 7.391 48.701 6.894 48.7 6.387 L 48.7 4.78 C 48.713 4.286 48.627 3.795 48.447 3.336 C 48.267 2.876 47.997 2.457 47.652 2.104 C 47.308 1.75 46.896 1.469 46.441 1.277 C 45.986 1.085 45.498 0.986 45.004 0.986 C 44.51 0.986 44.022 1.085 43.567 1.277 C 43.112 1.469 42.7 1.75 42.356 2.104 C 42.011 2.457 41.741 2.876 41.561 3.336 C 41.381 3.795 41.295 4.286 41.308 4.78 L 41.308 6.387 C 41.307 6.894 41.172 7.391 40.915 7.827 C 40.658 8.264 40.29 8.624 39.848 8.87 L 39.738 8.93 C 39.044 9.315 38.466 9.878 38.064 10.562 C 37.662 11.245 37.45 12.024 37.45 12.818 L 37.45 13.085 L 37.29 13.085 C 36.63 13.086 35.989 13.308 35.469 13.715 C 34.95 14.123 34.582 14.694 34.425 15.335 C 33.936 15.489 33.508 15.796 33.204 16.209 C 32.901 16.622 32.736 17.122 32.735 17.635 L 32.735 19.983 L 31.915 20.803 C 31.759 20.959 31.615 21.126 31.483 21.303 L 13.428 21.303 C 13.226 21.303 13.033 21.382 12.891 21.525 C 12.749 21.667 12.669 21.86 12.669 22.061 C 12.669 22.262 12.749 22.455 12.891 22.598 C 13.033 22.74 13.226 22.82 13.428 22.82 L 30.678 22.82 C 30.424 23.592 30.358 24.414 30.485 25.218 C 30.533 25.513 30.585 25.843 30.64 26.195 C 30.262 26.668 29.995 27.218 29.858 27.808 C 29.851 27.837 29.834 27.863 29.811 27.882 C 29.787 27.9 29.758 27.91 29.728 27.91 L 17.108 27.91 C 17.078 27.91 17.048 27.9 17.025 27.882 C 17.001 27.863 16.984 27.837 16.978 27.808 C 16.771 26.908 16.265 26.104 15.542 25.529 C 14.82 24.954 13.924 24.642 13 24.643 L 4.368 24.643 C 4.349 24.642 4.331 24.638 4.314 24.63 C 4.297 24.623 4.282 24.611 4.27 24.598 C 4.258 24.584 4.248 24.567 4.242 24.55 C 4.236 24.532 4.234 24.514 4.235 24.495 L 4.305 23.745 C 4.309 23.618 4.338 23.493 4.391 23.377 C 4.444 23.261 4.518 23.157 4.611 23.07 C 4.704 22.983 4.813 22.916 4.932 22.871 C 5.051 22.826 5.178 22.806 5.305 22.81 L 6.62 22.81 C 6.821 22.81 7.014 22.73 7.157 22.588 C 7.299 22.445 7.379 22.252 7.379 22.051 C 7.379 21.85 7.299 21.657 7.157 21.515 C 7.014 21.372 6.821 21.293 6.62 21.293 L 5.293 21.293 C 4.662 21.291 4.054 21.527 3.59 21.955 C 3.127 22.382 2.842 22.969 2.793 23.598 L 2.708 24.515 C 2.705 24.548 2.69 24.58 2.665 24.602 C 2.641 24.625 2.609 24.638 2.575 24.638 L 1.485 24.638 C 1.286 24.638 1.095 24.717 0.955 24.857 C 0.814 24.998 0.735 25.189 0.735 25.388 L 0.735 32.06 C 0.735 32.259 0.814 32.45 0.955 32.59 C 1.095 32.731 1.286 32.81 1.485 32.81 L 2.195 32.81 C 2.231 32.81 2.265 32.824 2.291 32.85 C 2.316 32.875 2.33 32.909 2.33 32.945 L 2.33 35.053 C 2.33 35.18 2.33 35.303 2.348 35.44 C 2.428 36.813 2.865 41.645 5.07 46.178 C 6.355 48.82 8.028 50.928 10.04 52.428 C 12.515 54.27 15.505 55.203 18.93 55.205 L 27.78 55.205 C 30.209 55.24 32.609 54.69 34.78 53.6 C 36.386 54.769 38.319 55.399 40.305 55.403 L 49.688 55.403 C 50.988 55.403 52.274 55.132 53.464 54.609 C 54.654 54.085 55.722 53.32 56.601 52.361 C 57.48 51.403 58.149 50.272 58.567 49.041 C 58.986 47.81 59.143 46.505 59.03 45.21 C 58.64 40.765 58.445 37.58 58.445 35.74 C 58.445 32.325 59.113 27.675 59.513 25.205 C 59.639 24.412 59.577 23.599 59.33 22.835 C 59.083 22.07 58.659 21.375 58.093 20.805 Z  M 34.343 17.638 C 34.343 17.425 34.427 17.221 34.578 17.07 C 34.728 16.92 34.932 16.835 35.145 16.835 C 35.359 16.835 35.563 16.75 35.714 16.599 C 35.865 16.448 35.95 16.244 35.95 16.03 C 35.951 15.675 36.092 15.335 36.343 15.084 C 36.595 14.833 36.935 14.693 37.29 14.693 L 39.86 14.693 C 39.969 14.699 40.079 14.682 40.182 14.645 C 40.285 14.607 40.379 14.549 40.458 14.474 C 40.538 14.398 40.601 14.308 40.644 14.207 C 40.688 14.107 40.71 13.998 40.71 13.889 C 40.71 13.779 40.688 13.671 40.644 13.57 C 40.601 13.47 40.538 13.379 40.458 13.304 C 40.379 13.229 40.285 13.17 40.182 13.133 C 40.079 13.095 39.969 13.079 39.86 13.085 L 39.058 13.085 L 39.058 12.818 C 39.058 12.311 39.193 11.814 39.45 11.378 C 39.707 10.941 40.075 10.581 40.518 10.335 L 40.628 10.275 C 41.32 9.889 41.898 9.326 42.3 8.642 C 42.702 7.959 42.914 7.18 42.915 6.387 L 42.915 4.78 C 42.905 4.5 42.952 4.22 43.053 3.958 C 43.153 3.696 43.306 3.457 43.501 3.256 C 43.696 3.054 43.929 2.893 44.187 2.784 C 44.446 2.674 44.723 2.618 45.004 2.618 C 45.284 2.618 45.562 2.674 45.82 2.784 C 46.079 2.893 46.312 3.054 46.507 3.256 C 46.702 3.457 46.854 3.696 46.955 3.958 C 47.055 4.22 47.102 4.5 47.093 4.78 L 47.093 6.387 C 47.093 7.18 47.306 7.959 47.708 8.642 C 48.11 9.326 48.687 9.889 49.38 10.275 L 49.49 10.335 C 49.933 10.581 50.302 10.941 50.558 11.377 C 50.815 11.814 50.95 12.311 50.95 12.818 L 50.95 13.085 L 43.61 13.085 C 43.405 13.096 43.211 13.186 43.07 13.336 C 42.929 13.485 42.85 13.683 42.85 13.889 C 42.85 14.094 42.929 14.292 43.07 14.442 C 43.211 14.591 43.405 14.681 43.61 14.693 L 52.718 14.693 C 53.073 14.693 53.413 14.833 53.664 15.084 C 53.915 15.335 54.057 15.675 54.058 16.03 C 54.058 16.244 54.142 16.448 54.293 16.599 C 54.444 16.75 54.649 16.835 54.863 16.835 C 55.075 16.835 55.28 16.92 55.43 17.07 C 55.581 17.221 55.665 17.425 55.665 17.638 L 55.665 19.513 L 54.38 19.513 L 54.38 18.603 C 54.369 18.397 54.279 18.204 54.13 18.062 C 53.98 17.921 53.782 17.842 53.576 17.842 C 53.371 17.842 53.173 17.921 53.023 18.062 C 52.874 18.204 52.784 18.397 52.773 18.603 L 52.773 19.513 L 50.093 19.513 L 50.093 18.603 C 50.081 18.397 49.991 18.204 49.842 18.062 C 49.693 17.921 49.495 17.842 49.289 17.842 C 49.083 17.842 48.885 17.921 48.736 18.062 C 48.586 18.204 48.497 18.397 48.485 18.603 L 48.485 19.513 L 45.808 19.513 L 45.808 18.603 C 45.796 18.397 45.706 18.204 45.557 18.062 C 45.408 17.921 45.21 17.842 45.004 17.842 C 44.798 17.842 44.6 17.921 44.451 18.062 C 44.301 18.204 44.212 18.397 44.2 18.603 L 44.2 19.513 L 41.52 19.513 L 41.52 18.603 C 41.52 18.39 41.436 18.186 41.285 18.035 C 41.135 17.885 40.93 17.8 40.718 17.8 C 40.505 17.8 40.301 17.885 40.15 18.035 C 40 18.186 39.915 18.39 39.915 18.603 L 39.915 19.513 L 37.235 19.513 L 37.235 18.603 C 37.224 18.397 37.134 18.204 36.985 18.062 C 36.835 17.921 36.637 17.842 36.431 17.842 C 36.226 17.842 36.028 17.921 35.878 18.062 C 35.729 18.204 35.639 18.397 35.628 18.603 L 35.628 19.513 L 34.343 19.513 L 34.343 17.638 L 34.343 17.638 Z  M 10.798 26.293 C 10.798 26.257 10.812 26.222 10.837 26.197 C 10.862 26.172 10.897 26.158 10.933 26.158 L 13 26.158 C 13.67 26.178 14.306 26.459 14.772 26.941 C 15.239 27.422 15.5 28.066 15.5 28.736 C 15.5 29.407 15.239 30.051 14.772 30.532 C 14.306 31.013 13.67 31.294 13 31.315 L 10.933 31.315 C 10.897 31.315 10.862 31.301 10.837 31.275 C 10.812 31.25 10.798 31.216 10.798 31.18 L 10.798 26.293 L 10.798 26.293 Z  M 2.375 31.315 C 2.34 31.314 2.306 31.3 2.281 31.275 C 2.256 31.249 2.243 31.215 2.243 31.18 L 2.243 26.293 C 2.243 26.257 2.256 26.223 2.281 26.198 C 2.306 26.173 2.34 26.158 2.375 26.158 L 9.148 26.158 C 9.165 26.158 9.183 26.161 9.199 26.168 C 9.216 26.175 9.231 26.185 9.243 26.197 C 9.256 26.21 9.266 26.224 9.272 26.241 C 9.279 26.257 9.283 26.275 9.283 26.293 L 9.283 31.18 C 9.283 31.198 9.279 31.215 9.272 31.232 C 9.266 31.248 9.256 31.263 9.243 31.275 C 9.231 31.288 9.216 31.298 9.199 31.305 C 9.183 31.312 9.165 31.315 9.148 31.315 L 2.375 31.315 L 2.375 31.315 Z  M 17.893 53.608 C 17.88 53.622 17.864 53.635 17.847 53.643 C 17.829 53.651 17.81 53.655 17.79 53.655 C 12.713 53.303 8.895 50.57 6.445 45.533 C 5.45 43.439 4.738 41.223 4.328 38.943 C 4.323 38.917 4.326 38.892 4.336 38.868 C 4.345 38.845 4.362 38.824 4.383 38.81 C 4.405 38.793 4.432 38.784 4.46 38.785 C 4.483 38.785 4.506 38.791 4.525 38.803 C 4.648 38.87 4.775 38.938 4.92 38.998 C 5.135 39.09 5.363 39.168 5.583 39.248 L 6.02 39.4 C 8.646 40.393 11.009 41.976 12.925 44.028 C 13.561 44.704 14.146 45.427 14.675 46.19 L 14.88 46.49 C 15.979 48.159 16.847 49.97 17.46 51.873 C 17.638 52.418 17.798 52.965 17.935 53.493 C 17.938 53.514 17.936 53.535 17.928 53.555 C 17.921 53.575 17.909 53.593 17.893 53.608 Z  M 27.67 51.883 C 27.503 52.423 27.343 52.998 27.2 53.593 C 27.193 53.622 27.176 53.647 27.153 53.666 C 27.129 53.685 27.1 53.695 27.07 53.695 L 19.64 53.695 C 19.61 53.695 19.581 53.685 19.557 53.667 C 19.534 53.648 19.517 53.622 19.51 53.593 C 19.084 51.815 18.478 50.086 17.7 48.433 C 16.948 46.847 16.006 45.358 14.895 44 C 12.828 41.48 10.175 39.506 7.168 38.25 C 6.888 38.133 6.605 38.023 6.33 37.923 L 6.04 37.823 C 5.828 37.755 5.62 37.676 5.418 37.585 C 5.021 37.394 4.675 37.112 4.409 36.761 C 4.143 36.41 3.964 36.001 3.888 35.568 C 3.863 35.41 3.849 35.252 3.845 35.093 L 3.845 32.99 C 3.845 32.954 3.859 32.92 3.885 32.895 C 3.91 32.869 3.944 32.855 3.98 32.855 L 13 32.855 C 13.949 32.849 14.867 32.514 15.596 31.908 C 16.326 31.301 16.822 30.46 17 29.528 C 17.006 29.497 17.023 29.47 17.047 29.45 C 17.071 29.431 17.102 29.42 17.133 29.42 L 29.69 29.42 C 29.721 29.42 29.751 29.431 29.776 29.45 C 29.8 29.47 29.816 29.497 29.823 29.528 C 30.016 30.505 30.56 31.379 31.353 31.983 C 31.47 33.29 31.55 34.59 31.55 35.748 C 31.55 37.568 31.355 40.708 30.975 45.08 C 30.93 45.143 30.883 45.205 30.838 45.27 C 30.083 46.347 29.429 47.491 28.883 48.688 C 28.406 49.723 28 50.791 27.67 51.883 Z  M 28.92 53.655 C 28.901 53.655 28.881 53.651 28.864 53.643 C 28.846 53.635 28.83 53.622 28.818 53.608 C 28.804 53.591 28.794 53.572 28.79 53.551 C 28.785 53.53 28.785 53.508 28.79 53.488 L 28.825 53.355 C 28.92 53.003 29.025 52.635 29.153 52.225 C 29.564 50.903 30.09 49.62 30.725 48.39 L 30.725 48.365 C 30.838 48.15 30.958 47.935 31.08 47.72 C 31.397 49.455 32.197 51.066 33.388 52.368 C 33.433 52.42 33.483 52.468 33.53 52.518 C 32.072 53.17 30.509 53.556 28.915 53.655 L 28.92 53.655 L 28.92 53.655 Z  M 57.933 24.958 C 57.823 25.643 57.683 26.495 57.558 27.443 L 38.04 27.443 C 37.931 27.436 37.821 27.453 37.719 27.49 C 37.616 27.528 37.522 27.586 37.442 27.661 C 37.363 27.737 37.299 27.827 37.256 27.928 C 37.213 28.028 37.19 28.137 37.19 28.246 C 37.19 28.356 37.213 28.464 37.256 28.565 C 37.299 28.665 37.363 28.756 37.442 28.831 C 37.522 28.906 37.616 28.965 37.719 29.002 C 37.821 29.04 37.931 29.056 38.04 29.05 L 57.345 29.05 C 57.05 31.271 56.883 33.507 56.845 35.748 C 56.845 37.633 57.043 40.868 57.435 45.358 C 57.53 46.432 57.399 47.514 57.052 48.535 C 56.706 49.556 56.15 50.493 55.421 51.288 C 54.692 52.082 53.805 52.716 52.818 53.149 C 51.83 53.582 50.763 53.805 49.685 53.803 L 40.313 53.803 C 39.235 53.804 38.168 53.581 37.181 53.148 C 36.194 52.714 35.307 52.08 34.579 51.286 C 33.85 50.492 33.294 49.555 32.947 48.534 C 32.6 47.513 32.469 46.431 32.563 45.358 C 32.955 40.858 33.153 37.633 33.153 35.748 C 33.116 33.507 32.949 31.271 32.653 29.05 L 34.278 29.05 C 34.387 29.056 34.496 29.04 34.599 29.002 C 34.702 28.965 34.796 28.906 34.876 28.831 C 34.955 28.756 35.019 28.665 35.062 28.565 C 35.105 28.464 35.127 28.356 35.127 28.246 C 35.127 28.137 35.105 28.028 35.062 27.928 C 35.019 27.827 34.955 27.737 34.876 27.661 C 34.796 27.586 34.702 27.528 34.599 27.49 C 34.496 27.453 34.387 27.436 34.278 27.443 L 32.45 27.443 C 32.318 26.495 32.185 25.643 32.075 24.958 C 31.989 24.414 32.032 23.857 32.202 23.333 C 32.371 22.809 32.662 22.333 33.05 21.943 L 33.873 21.12 L 56.138 21.12 L 56.958 21.943 C 57.346 22.333 57.636 22.809 57.806 23.333 C 57.975 23.857 58.019 24.414 57.933 24.958 Z " fill="rgb(255,255,255)"/><path d=" M 50.79 33.335 L 53.04 33.335 C 53.253 33.335 53.457 33.25 53.608 33.1 C 53.758 32.949 53.843 32.745 53.843 32.533 C 53.843 32.32 53.758 32.115 53.608 31.965 C 53.457 31.815 53.253 31.73 53.04 31.73 L 50.79 31.73 C 50.577 31.73 50.373 31.815 50.223 31.965 C 50.072 32.115 49.988 32.32 49.988 32.533 C 49.988 32.745 50.072 32.949 50.223 33.1 C 50.373 33.25 50.577 33.335 50.79 33.335 Z " fill="rgb(255,255,255)"/><path d=" M 50.79 37.623 L 53.04 37.623 C 53.15 37.629 53.259 37.612 53.362 37.575 C 53.465 37.537 53.559 37.479 53.638 37.404 C 53.718 37.328 53.781 37.238 53.824 37.137 C 53.868 37.037 53.89 36.928 53.89 36.819 C 53.89 36.709 53.868 36.601 53.824 36.5 C 53.781 36.4 53.718 36.309 53.638 36.234 C 53.559 36.159 53.465 36.1 53.362 36.063 C 53.259 36.025 53.15 36.009 53.04 36.015 L 50.79 36.015 C 50.585 36.026 50.392 36.116 50.25 36.266 C 50.109 36.415 50.03 36.613 50.03 36.819 C 50.03 37.025 50.109 37.222 50.25 37.372 C 50.392 37.521 50.585 37.611 50.79 37.623 Z " fill="rgb(255,255,255)"/><path d=" M 50.79 41.908 L 53.04 41.908 C 53.15 41.914 53.259 41.897 53.362 41.86 C 53.465 41.822 53.559 41.764 53.638 41.689 C 53.718 41.613 53.781 41.523 53.824 41.422 C 53.868 41.322 53.89 41.213 53.89 41.104 C 53.89 40.994 53.868 40.886 53.824 40.785 C 53.781 40.685 53.718 40.594 53.638 40.519 C 53.559 40.444 53.465 40.386 53.362 40.348 C 53.259 40.31 53.15 40.294 53.04 40.3 L 50.79 40.3 C 50.585 40.312 50.392 40.401 50.25 40.551 C 50.109 40.7 50.03 40.898 50.03 41.104 C 50.03 41.31 50.109 41.507 50.25 41.657 C 50.392 41.806 50.585 41.896 50.79 41.908 Z " fill="rgb(255,255,255)"/><path d=" M 50.79 46.195 L 53.04 46.195 C 53.15 46.201 53.259 46.185 53.362 46.147 C 53.465 46.11 53.559 46.051 53.638 45.976 C 53.718 45.901 53.781 45.81 53.824 45.71 C 53.868 45.609 53.89 45.501 53.89 45.391 C 53.89 45.282 53.868 45.173 53.824 45.073 C 53.781 44.972 53.718 44.882 53.638 44.806 C 53.559 44.731 53.465 44.673 53.362 44.635 C 53.259 44.598 53.15 44.581 53.04 44.588 L 50.79 44.588 C 50.585 44.599 50.392 44.689 50.25 44.838 C 50.109 44.988 50.03 45.186 50.03 45.391 C 50.03 45.597 50.109 45.795 50.25 45.944 C 50.392 46.094 50.585 46.184 50.79 46.195 Z " fill="rgb(255,255,255)"/><path d=" M 50.79 50.48 L 53.04 50.48 C 53.15 50.486 53.259 50.47 53.362 50.432 C 53.465 50.395 53.559 50.336 53.638 50.261 C 53.718 50.186 53.781 50.095 53.824 49.995 C 53.868 49.894 53.89 49.786 53.89 49.676 C 53.89 49.567 53.868 49.458 53.824 49.358 C 53.781 49.257 53.718 49.167 53.638 49.091 C 53.559 49.016 53.465 48.958 53.362 48.92 C 53.259 48.883 53.15 48.866 53.04 48.873 L 50.79 48.873 C 50.585 48.884 50.392 48.974 50.25 49.123 C 50.109 49.273 50.03 49.471 50.03 49.676 C 50.03 49.882 50.109 50.08 50.25 50.229 C 50.392 50.379 50.585 50.469 50.79 50.48 Z " fill="rgb(255,255,255)"/><path d=" M 10.04 22.815 L 10.07 22.815 C 10.228 22.814 10.382 22.762 10.51 22.668 C 10.637 22.574 10.731 22.442 10.779 22.291 C 10.827 22.14 10.825 21.978 10.775 21.828 C 10.725 21.678 10.629 21.547 10.5 21.455 C 10.405 21.387 10.295 21.342 10.18 21.324 C 10.064 21.306 9.946 21.316 9.834 21.352 C 9.723 21.388 9.622 21.449 9.538 21.531 C 9.455 21.613 9.392 21.713 9.354 21.824 C 9.317 21.935 9.305 22.053 9.321 22.169 C 9.338 22.284 9.38 22.395 9.447 22.491 C 9.513 22.588 9.601 22.667 9.704 22.723 C 9.806 22.779 9.921 22.811 10.038 22.815 L 10.04 22.815 L 10.04 22.815 Z " fill="rgb(255,255,255)"/><path d=" M 27.89 40.808 C 27.878 40.736 27.883 40.662 27.906 40.593 C 27.929 40.523 27.968 40.461 28.02 40.41 L 29.495 38.97 C 29.758 38.714 29.944 38.39 30.032 38.034 C 30.12 37.678 30.107 37.305 29.994 36.956 C 29.88 36.607 29.672 36.297 29.392 36.06 C 29.111 35.824 28.771 35.67 28.408 35.618 L 26.368 35.323 C 26.295 35.311 26.226 35.283 26.167 35.239 C 26.108 35.196 26.06 35.139 26.028 35.073 L 25.115 33.223 C 24.953 32.894 24.702 32.616 24.39 32.423 C 24.079 32.229 23.719 32.126 23.353 32.126 C 22.986 32.126 22.626 32.229 22.315 32.423 C 22.003 32.616 21.752 32.894 21.59 33.223 L 20.678 35.073 C 20.646 35.139 20.599 35.196 20.54 35.24 C 20.481 35.283 20.413 35.312 20.34 35.323 L 18.3 35.618 C 17.938 35.671 17.597 35.824 17.317 36.061 C 17.037 36.297 16.829 36.607 16.715 36.956 C 16.602 37.304 16.588 37.677 16.676 38.033 C 16.763 38.389 16.948 38.714 17.21 38.97 L 18.688 40.41 C 18.74 40.461 18.779 40.523 18.802 40.593 C 18.825 40.662 18.83 40.736 18.818 40.808 L 18.468 42.84 C 18.42 43.122 18.434 43.411 18.509 43.687 C 18.584 43.963 18.718 44.219 18.902 44.438 C 19.086 44.657 19.316 44.833 19.575 44.954 C 19.834 45.076 20.117 45.139 20.403 45.14 C 20.722 45.139 21.037 45.061 21.32 44.913 L 23.145 43.953 C 23.209 43.918 23.28 43.9 23.353 43.9 C 23.426 43.9 23.498 43.918 23.563 43.953 L 25.388 44.913 C 25.671 45.061 25.986 45.139 26.305 45.14 C 26.591 45.139 26.874 45.076 27.133 44.954 C 27.392 44.833 27.621 44.657 27.805 44.438 C 27.99 44.219 28.124 43.963 28.199 43.687 C 28.274 43.411 28.288 43.122 28.24 42.84 L 27.89 40.808 L 27.89 40.808 Z  M 26.96 39.325 C 26.732 39.547 26.561 39.821 26.463 40.124 C 26.364 40.427 26.341 40.749 26.395 41.063 L 26.745 43.095 C 26.761 43.178 26.753 43.264 26.721 43.342 C 26.689 43.42 26.635 43.487 26.565 43.535 C 26.493 43.589 26.405 43.619 26.315 43.623 C 26.242 43.622 26.17 43.604 26.105 43.57 L 24.28 42.61 C 23.999 42.461 23.685 42.383 23.366 42.383 C 23.048 42.383 22.734 42.461 22.453 42.61 L 20.628 43.57 C 20.553 43.61 20.469 43.628 20.385 43.621 C 20.301 43.615 20.22 43.585 20.153 43.535 C 20.084 43.487 20.031 43.419 19.999 43.341 C 19.968 43.263 19.959 43.178 19.975 43.095 L 20.325 41.063 C 20.378 40.748 20.353 40.425 20.253 40.123 C 20.152 39.82 19.98 39.546 19.75 39.325 L 18.275 37.885 C 18.215 37.827 18.172 37.753 18.152 37.671 C 18.132 37.59 18.135 37.504 18.161 37.424 C 18.187 37.345 18.235 37.274 18.299 37.22 C 18.364 37.166 18.442 37.131 18.525 37.12 L 20.568 36.823 C 20.883 36.777 21.182 36.655 21.44 36.468 C 21.697 36.281 21.905 36.033 22.045 35.748 L 22.958 33.9 C 22.994 33.825 23.052 33.761 23.123 33.716 C 23.194 33.672 23.276 33.648 23.36 33.648 C 23.444 33.648 23.526 33.672 23.598 33.716 C 23.669 33.761 23.726 33.825 23.763 33.9 L 24.675 35.75 C 24.816 36.036 25.025 36.283 25.283 36.47 C 25.54 36.657 25.84 36.779 26.155 36.825 L 28.195 37.123 C 28.278 37.135 28.355 37.17 28.419 37.224 C 28.483 37.278 28.53 37.348 28.556 37.428 C 28.582 37.507 28.586 37.592 28.566 37.673 C 28.546 37.755 28.505 37.829 28.445 37.888 L 26.96 39.325 L 26.96 39.325 Z " fill="rgb(255,255,255)"/></g></svg>