<?xml version="1.0" encoding="UTF-8" standalone="no"?><!-- Generator: Gravit.io --><svg xmlns="http://www.w3.org/2000/svg" xmlns:xlink="http://www.w3.org/1999/xlink" style="isolation:isolate" viewBox="0 0 55 55" width="55pt" height="55pt"><defs><clipPath id="_clipPath_XQHCa2ulYW1taLkYb4SbZ8YaVCzPhINh"><rect width="55" height="55"/></clipPath></defs><g clip-path="url(#_clipPath_XQHCa2ulYW1taLkYb4SbZ8YaVCzPhINh)"><path d=" M 30.028 54.42 C 28.953 54.419 27.898 54.138 26.965 53.605 C 26.901 53.568 26.829 53.548 26.755 53.548 C 26.65 53.548 26.55 53.589 26.475 53.663 C 25.987 54.144 25.33 54.413 24.645 54.413 L 3.445 54.413 C 2.665 54.411 1.917 54.1 1.366 53.549 C 0.814 52.997 0.503 52.25 0.5 51.47 L 0.5 27.65 C 0.513 27.645 0.524 27.635 0.532 27.624 C 0.54 27.613 0.544 27.599 0.545 27.585 C 0.685 26.155 1.011 24.749 1.515 23.403 C 1.552 23.3 1.61 23.207 1.687 23.13 C 1.763 23.052 1.855 22.992 1.957 22.954 C 2.059 22.916 2.168 22.9 2.276 22.908 C 2.384 22.916 2.49 22.947 2.585 23 C 2.773 23.104 2.917 23.271 2.993 23.471 C 3.069 23.672 3.072 23.893 3 24.095 C 2.628 25.1 2.367 26.143 2.222 27.205 C 2.216 27.262 2.222 27.319 2.24 27.374 C 2.257 27.428 2.287 27.478 2.325 27.52 C 2.364 27.563 2.411 27.597 2.463 27.62 C 2.516 27.643 2.573 27.655 2.63 27.655 L 25.155 27.655 C 25.212 27.655 25.269 27.643 25.322 27.619 C 25.374 27.596 25.421 27.562 25.46 27.52 C 25.497 27.478 25.525 27.428 25.542 27.374 C 25.56 27.32 25.566 27.264 25.56 27.208 C 25.336 25.134 24.563 23.157 23.321 21.481 C 22.079 19.805 20.412 18.491 18.492 17.675 C 16.572 16.858 14.47 16.569 12.401 16.836 C 10.332 17.103 8.372 17.918 6.722 19.195 C 6.579 19.305 6.403 19.364 6.222 19.363 C 6.039 19.361 5.862 19.294 5.722 19.175 C 5.625 19.096 5.547 18.997 5.495 18.883 C 5.442 18.77 5.415 18.646 5.417 18.521 C 5.419 18.397 5.449 18.274 5.506 18.162 C 5.562 18.051 5.643 17.953 5.742 17.878 C 6.547 17.257 7.419 16.73 8.342 16.308 C 8.415 16.277 8.478 16.226 8.522 16.161 C 8.566 16.096 8.591 16.019 8.592 15.94 L 8.592 11.095 C 8.592 10.729 8.738 10.378 8.997 10.118 C 9.255 9.859 9.606 9.713 9.972 9.713 L 10.875 9.713 C 10.983 9.713 11.087 9.67 11.163 9.593 C 11.24 9.517 11.283 9.413 11.283 9.305 L 11.283 6.383 C 11.283 6.274 11.24 6.171 11.163 6.094 C 11.087 6.018 10.983 5.975 10.875 5.975 L 9.382 5.975 C 9.167 5.974 8.961 5.888 8.81 5.736 C 8.658 5.584 8.572 5.378 8.572 5.163 L 8.572 1.465 C 8.574 1.275 8.651 1.093 8.787 0.959 C 8.922 0.825 9.105 0.75 9.295 0.75 L 18.558 0.75 C 18.64 0.75 18.722 0.766 18.798 0.797 C 18.875 0.828 18.944 0.875 19.003 0.933 C 19.061 0.991 19.108 1.061 19.14 1.137 C 19.171 1.213 19.188 1.295 19.188 1.378 L 19.188 2.128 C 19.188 2.235 19.231 2.338 19.308 2.414 C 19.384 2.49 19.487 2.533 19.595 2.533 L 24.313 2.533 C 25.093 2.537 25.84 2.849 26.391 3.403 C 26.941 3.956 27.25 4.705 27.25 5.485 L 27.25 6.615 C 27.25 6.681 27.224 6.745 27.177 6.792 C 27.13 6.839 27.066 6.865 27 6.865 L 25.875 6.865 C 25.809 6.865 25.745 6.839 25.698 6.792 C 25.651 6.745 25.625 6.681 25.625 6.615 L 25.625 5.485 C 25.625 5.139 25.488 4.807 25.243 4.562 C 24.998 4.318 24.666 4.18 24.32 4.18 L 19.595 4.18 C 19.487 4.18 19.383 4.223 19.307 4.299 C 19.23 4.376 19.188 4.479 19.188 4.588 L 19.188 5.138 C 19.188 5.36 19.099 5.573 18.942 5.73 C 18.785 5.887 18.572 5.975 18.35 5.975 L 16.903 5.975 C 16.795 5.976 16.693 6.02 16.618 6.096 C 16.542 6.172 16.5 6.275 16.5 6.383 L 16.5 9.305 C 16.5 9.413 16.543 9.517 16.619 9.593 C 16.696 9.67 16.799 9.713 16.908 9.713 L 17.693 9.713 C 18.09 9.713 18.472 9.871 18.753 10.152 C 19.034 10.433 19.193 10.815 19.193 11.213 L 19.193 15.94 C 19.194 16.019 19.218 16.096 19.263 16.161 C 19.307 16.226 19.37 16.277 19.443 16.308 C 21.638 17.31 23.52 18.887 24.892 20.873 C 26.263 22.858 27.072 25.177 27.233 27.585 C 27.233 27.599 27.238 27.613 27.246 27.624 C 27.254 27.635 27.265 27.645 27.278 27.65 L 27.278 35.525 C 27.278 35.579 27.289 35.633 27.31 35.682 C 27.331 35.732 27.362 35.777 27.4 35.815 C 27.475 35.889 27.577 35.931 27.683 35.93 C 27.721 35.93 27.758 35.925 27.795 35.915 C 28.109 35.809 28.436 35.747 28.768 35.73 L 29.493 35.73 C 29.927 35.73 30.359 35.783 30.78 35.888 C 32.723 36.38 34.72 36.632 36.725 36.638 L 39.5 36.638 C 41.486 36.637 43.465 36.393 45.393 35.913 C 45.831 35.799 46.282 35.741 46.735 35.74 L 47.078 35.74 C 48.484 35.744 49.832 36.305 50.826 37.299 C 51.821 38.293 52.381 39.641 52.385 41.048 C 52.384 41.801 52.22 42.546 51.905 43.23 C 51.875 43.293 51.862 43.363 51.867 43.432 C 51.872 43.502 51.895 43.569 51.933 43.628 C 51.969 43.685 52.019 43.732 52.078 43.764 C 52.138 43.797 52.205 43.813 52.273 43.813 L 53.328 43.813 C 53.554 43.813 53.771 43.904 53.93 44.064 C 54.09 44.224 54.18 44.441 54.18 44.668 L 54.18 48 C 54.179 48.274 54.07 48.536 53.877 48.729 C 53.683 48.923 53.421 49.032 53.148 49.033 L 52.67 49.033 C 52.574 49.033 52.482 49.067 52.409 49.129 C 52.336 49.19 52.286 49.276 52.27 49.37 C 51.999 50.787 51.243 52.066 50.131 52.987 C 49.02 53.907 47.623 54.412 46.18 54.415 L 30.028 54.415 L 30.028 54.42 L 30.028 54.42 Z  M 25.635 49.038 C 25.615 49.038 25.596 49.045 25.582 49.06 C 25.568 49.074 25.56 49.093 25.56 49.113 L 25.56 49.13 C 25.56 49.163 25.56 49.18 25.578 49.195 C 25.595 49.21 25.578 49.218 25.578 49.23 C 25.634 49.476 25.712 49.717 25.81 49.95 C 25.834 50.011 25.862 50.072 25.893 50.13 C 25.996 50.346 26.115 50.553 26.25 50.75 L 26.295 50.82 C 26.32 50.858 26.345 50.898 26.373 50.935 C 26.544 51.167 26.736 51.383 26.948 51.58 C 27.785 52.352 28.883 52.781 30.023 52.78 L 46.175 52.78 C 47.15 52.782 48.099 52.471 48.884 51.893 C 49.668 51.315 50.246 50.499 50.533 49.568 C 50.552 49.507 50.557 49.443 50.547 49.38 C 50.536 49.318 50.511 49.258 50.473 49.208 C 50.434 49.156 50.385 49.114 50.327 49.086 C 50.27 49.057 50.207 49.042 50.143 49.043 L 25.635 49.038 L 25.635 49.038 Z  M 2.547 47.25 C 2.44 47.251 2.337 47.294 2.261 47.37 C 2.185 47.447 2.142 47.55 2.142 47.658 L 2.142 51.478 C 2.142 51.823 2.28 52.155 2.524 52.399 C 2.768 52.644 3.099 52.782 3.445 52.783 L 24.645 52.783 C 24.78 52.782 24.912 52.753 25.035 52.698 C 25.09 52.673 25.139 52.636 25.178 52.59 C 25.216 52.543 25.243 52.489 25.258 52.43 C 25.272 52.37 25.273 52.307 25.26 52.246 C 25.247 52.186 25.221 52.129 25.183 52.08 C 25.085 51.955 24.988 51.83 24.9 51.688 C 24.85 51.615 24.803 51.54 24.758 51.465 C 24.643 51.278 24.538 51.078 24.448 50.903 L 24.433 50.87 C 24.415 50.84 24.398 50.808 24.383 50.775 C 24.274 50.531 24.181 50.281 24.103 50.025 L 24.073 49.92 L 24.055 49.848 C 23.997 49.644 23.951 49.437 23.915 49.228 C 23.916 49.207 23.916 49.186 23.915 49.165 C 23.908 49.143 23.903 49.121 23.9 49.098 C 23.897 49.08 23.888 49.064 23.874 49.052 C 23.86 49.041 23.843 49.035 23.825 49.035 L 22.885 49.035 C 22.661 49.034 22.447 48.945 22.288 48.787 C 22.13 48.629 22.041 48.414 22.04 48.19 L 22.04 47.65 C 22.04 47.542 21.997 47.439 21.922 47.363 C 21.846 47.286 21.743 47.243 21.635 47.243 L 2.547 47.25 L 2.547 47.25 Z  M 24.08 45.455 C 23.972 45.455 23.868 45.498 23.792 45.574 C 23.715 45.651 23.673 45.755 23.673 45.863 L 23.673 46.993 C 23.673 47.101 23.715 47.204 23.792 47.281 C 23.868 47.357 23.972 47.4 24.08 47.4 L 52.125 47.4 C 52.233 47.399 52.336 47.356 52.412 47.28 C 52.487 47.204 52.53 47.1 52.53 46.993 L 52.53 45.863 C 52.53 45.755 52.487 45.652 52.412 45.575 C 52.336 45.499 52.233 45.456 52.125 45.455 L 24.08 45.455 L 24.08 45.455 Z  M 2.547 29.3 C 2.44 29.301 2.337 29.344 2.261 29.42 C 2.185 29.497 2.142 29.6 2.142 29.708 L 2.142 45.185 C 2.143 45.292 2.186 45.395 2.262 45.471 C 2.338 45.547 2.44 45.589 2.547 45.59 L 21.623 45.59 C 21.73 45.589 21.832 45.547 21.908 45.471 C 21.984 45.395 22.027 45.292 22.028 45.185 L 22.028 44.303 C 22.031 44.171 22.084 44.046 22.177 43.953 C 22.271 43.859 22.396 43.806 22.528 43.803 L 23.778 43.768 C 23.859 43.765 23.939 43.744 24.01 43.704 C 24.081 43.664 24.141 43.607 24.185 43.538 C 24.229 43.47 24.256 43.392 24.263 43.31 C 24.27 43.229 24.257 43.148 24.225 43.073 L 24.183 42.968 C 24.133 42.843 24.09 42.718 24.05 42.588 L 24.03 42.523 C 24.013 42.465 23.995 42.408 23.98 42.348 C 23.945 42.213 23.918 42.075 23.89 41.913 L 23.875 41.825 C 23.875 41.785 23.858 41.743 23.853 41.703 C 23.802 41.287 23.802 40.868 23.853 40.453 C 23.853 40.415 23.865 40.378 23.873 40.34 L 23.885 40.26 C 23.905 40.13 23.925 40.01 23.953 39.875 C 23.965 39.82 23.98 39.77 23.995 39.718 L 24.013 39.653 C 24.045 39.54 24.075 39.425 24.115 39.315 C 24.135 39.258 24.158 39.203 24.18 39.145 L 24.248 38.983 C 24.275 38.915 24.305 38.848 24.335 38.78 C 24.365 38.713 24.41 38.633 24.45 38.56 C 24.49 38.488 24.558 38.365 24.615 38.273 C 24.673 38.18 24.708 38.13 24.755 38.06 C 24.803 37.99 24.883 37.883 24.953 37.795 C 25.023 37.708 25.058 37.663 25.113 37.598 C 25.168 37.533 25.265 37.433 25.345 37.348 L 25.485 37.21 C 25.492 37.202 25.498 37.194 25.503 37.185 L 25.608 36.935 C 25.61 36.926 25.61 36.917 25.608 36.908 L 25.608 29.708 C 25.608 29.6 25.565 29.496 25.488 29.419 C 25.412 29.343 25.308 29.3 25.2 29.3 L 2.547 29.3 L 2.547 29.3 Z  M 29.13 37.375 C 28.336 37.379 27.565 37.643 26.935 38.125 C 26.699 38.297 26.486 38.498 26.3 38.723 C 25.701 39.437 25.404 40.357 25.472 41.287 C 25.54 42.217 25.968 43.083 26.665 43.703 C 26.74 43.768 26.837 43.804 26.938 43.803 L 49.298 43.803 C 49.399 43.804 49.498 43.766 49.573 43.698 C 49.942 43.359 50.237 42.948 50.439 42.491 C 50.642 42.033 50.748 41.538 50.75 41.038 C 50.749 40.066 50.362 39.135 49.675 38.448 C 48.988 37.762 48.056 37.376 47.085 37.375 L 46.783 37.375 C 46.445 37.377 46.11 37.419 45.783 37.5 C 43.73 38.011 41.623 38.27 39.508 38.27 L 36.708 38.27 C 34.587 38.271 32.475 38.012 30.418 37.5 C 30.11 37.419 29.793 37.378 29.475 37.378 L 29.13 37.375 L 29.13 37.375 Z  M 11.095 11.358 C 10.978 11.358 10.863 11.381 10.756 11.426 C 10.648 11.472 10.551 11.538 10.469 11.62 C 10.387 11.703 10.323 11.802 10.279 11.91 C 10.235 12.018 10.214 12.134 10.215 12.25 L 10.215 14.355 C 10.215 14.554 10.294 14.745 10.435 14.885 C 10.575 15.026 10.766 15.105 10.965 15.105 L 16.675 15.105 C 16.904 15.105 17.124 15.014 17.287 14.852 C 17.449 14.69 17.54 14.469 17.54 14.24 L 17.54 12.133 C 17.54 11.927 17.458 11.73 17.313 11.585 C 17.168 11.439 16.971 11.358 16.765 11.358 L 11.095 11.358 L 11.095 11.358 Z  M 13.315 5.975 C 13.207 5.975 13.103 6.018 13.027 6.094 C 12.95 6.171 12.908 6.274 12.908 6.383 L 12.908 9.305 C 12.908 9.413 12.95 9.517 13.027 9.593 C 13.103 9.67 13.207 9.713 13.315 9.713 L 14.445 9.713 C 14.553 9.713 14.657 9.67 14.733 9.593 C 14.81 9.517 14.853 9.413 14.853 9.305 L 14.853 6.383 C 14.853 6.274 14.81 6.171 14.733 6.094 C 14.657 6.018 14.553 5.975 14.445 5.975 L 13.315 5.975 L 13.315 5.975 Z  M 10.623 2.385 C 10.514 2.385 10.411 2.428 10.334 2.504 C 10.258 2.581 10.215 2.684 10.215 2.793 L 10.215 3.923 C 10.215 4.031 10.258 4.134 10.334 4.211 C 10.411 4.287 10.514 4.33 10.623 4.33 L 17.135 4.33 C 17.243 4.33 17.347 4.287 17.423 4.211 C 17.5 4.134 17.543 4.031 17.543 3.923 L 17.543 2.793 C 17.543 2.684 17.5 2.581 17.423 2.504 C 17.347 2.428 17.243 2.385 17.135 2.385 L 10.623 2.385 L 10.623 2.385 Z " fill="rgb(255,255,255)"/><path d=" M 34.512 20.403 C 33.447 20.402 32.406 20.718 31.52 21.309 C 30.634 21.901 29.943 22.742 29.535 23.726 C 29.127 24.71 29.021 25.793 29.228 26.838 C 29.436 27.882 29.949 28.842 30.702 29.595 C 31.455 30.349 32.415 30.862 33.46 31.069 C 34.505 31.277 35.588 31.17 36.572 30.762 C 37.556 30.354 38.397 29.664 38.988 28.778 C 39.58 27.892 39.895 26.85 39.895 25.785 C 39.895 24.358 39.328 22.989 38.318 21.979 C 37.309 20.97 35.94 20.403 34.512 20.403 Z  M 34.512 29.375 C 33.802 29.375 33.108 29.165 32.518 28.77 C 31.928 28.376 31.467 27.815 31.196 27.159 C 30.924 26.503 30.853 25.781 30.991 25.085 C 31.13 24.388 31.472 23.749 31.974 23.247 C 32.476 22.745 33.116 22.403 33.812 22.264 C 34.509 22.126 35.23 22.197 35.886 22.468 C 36.542 22.74 37.103 23.2 37.497 23.791 C 37.892 24.381 38.102 25.075 38.102 25.785 C 38.102 26.257 38.01 26.723 37.829 27.159 C 37.649 27.594 37.384 27.99 37.051 28.324 C 36.718 28.657 36.322 28.921 35.886 29.102 C 35.451 29.282 34.984 29.375 34.512 29.375 Z " fill="rgb(255,255,255)"/><path d=" M 34.513 31.095 C 33.462 31.096 32.435 30.785 31.562 30.201 C 30.688 29.618 30.007 28.789 29.605 27.819 C 29.203 26.849 29.097 25.781 29.302 24.751 C 29.507 23.72 30.012 22.774 30.755 22.031 C 31.497 21.288 32.443 20.782 33.473 20.577 C 34.504 20.372 35.571 20.477 36.542 20.879 C 37.512 21.281 38.342 21.961 38.925 22.835 C 39.509 23.708 39.82 24.735 39.82 25.785 C 39.816 27.192 39.256 28.54 38.262 29.535 C 37.267 30.529 35.919 31.09 34.513 31.095 Z  M 34.513 22.123 C 33.788 22.123 33.079 22.338 32.476 22.74 C 31.874 23.143 31.404 23.716 31.127 24.386 C 30.849 25.055 30.777 25.792 30.918 26.503 C 31.06 27.214 31.409 27.868 31.922 28.38 C 32.435 28.892 33.088 29.241 33.799 29.382 C 34.51 29.524 35.247 29.451 35.917 29.173 C 36.587 28.895 37.159 28.425 37.561 27.822 C 37.964 27.219 38.178 26.51 38.178 25.785 C 38.177 24.813 37.791 23.882 37.103 23.195 C 36.416 22.508 35.484 22.123 34.513 22.123 Z " fill="rgb(255,255,255)"/><path d=" M 44.383 26.683 C 43.673 26.682 42.978 26.892 42.388 27.286 C 41.797 27.681 41.336 28.241 41.064 28.897 C 40.792 29.553 40.721 30.275 40.859 30.971 C 40.997 31.668 41.339 32.308 41.841 32.81 C 42.343 33.313 42.982 33.655 43.679 33.793 C 44.375 33.932 45.097 33.861 45.753 33.59 C 46.41 33.318 46.97 32.858 47.365 32.267 C 47.76 31.677 47.97 30.983 47.97 30.273 C 47.97 29.321 47.592 28.408 46.92 27.735 C 46.247 27.062 45.334 26.683 44.383 26.683 Z  M 44.383 32.065 C 44.027 32.066 43.68 31.961 43.385 31.764 C 43.089 31.567 42.858 31.286 42.722 30.958 C 42.586 30.63 42.55 30.269 42.62 29.921 C 42.689 29.572 42.86 29.252 43.111 29.001 C 43.362 28.75 43.682 28.579 44.031 28.51 C 44.379 28.44 44.74 28.476 45.068 28.612 C 45.396 28.748 45.677 28.979 45.874 29.274 C 46.071 29.57 46.176 29.917 46.175 30.273 C 46.175 30.748 45.986 31.204 45.65 31.54 C 45.314 31.876 44.858 32.065 44.383 32.065 Z " fill="rgb(255,255,255)"/><path d=" M 44.383 33.785 C 43.687 33.786 43.006 33.579 42.428 33.193 C 41.849 32.806 41.398 32.257 41.132 31.613 C 40.866 30.97 40.797 30.263 40.933 29.58 C 41.07 28.898 41.406 28.271 41.899 27.78 C 42.392 27.289 43.02 26.955 43.703 26.821 C 44.386 26.687 45.093 26.758 45.735 27.027 C 46.377 27.295 46.925 27.748 47.31 28.328 C 47.694 28.908 47.898 29.589 47.895 30.285 C 47.89 31.214 47.519 32.103 46.86 32.759 C 46.202 33.415 45.312 33.784 44.383 33.785 Z  M 44.383 28.403 C 44.013 28.402 43.651 28.511 43.343 28.717 C 43.035 28.922 42.795 29.214 42.653 29.555 C 42.511 29.897 42.474 30.273 42.546 30.636 C 42.618 30.999 42.795 31.332 43.057 31.594 C 43.318 31.856 43.652 32.034 44.014 32.106 C 44.377 32.179 44.753 32.142 45.095 32.001 C 45.437 31.859 45.729 31.619 45.935 31.312 C 46.14 31.004 46.25 30.643 46.25 30.273 C 46.25 29.777 46.053 29.302 45.703 28.951 C 45.353 28.601 44.878 28.403 44.383 28.403 Z " fill="rgb(255,255,255)"/><path d=" M 44.383 18.61 C 43.85 18.61 43.329 18.767 42.886 19.063 C 42.443 19.358 42.097 19.779 41.893 20.271 C 41.689 20.763 41.636 21.305 41.739 21.827 C 41.843 22.35 42.1 22.83 42.476 23.206 C 42.853 23.583 43.333 23.84 43.856 23.943 C 44.378 24.047 44.92 23.994 45.412 23.79 C 45.904 23.586 46.324 23.24 46.62 22.797 C 46.916 22.354 47.073 21.833 47.073 21.3 C 47.072 20.587 46.788 19.903 46.284 19.399 C 45.78 18.894 45.096 18.611 44.383 18.61 Z  M 44.383 22.198 C 44.205 22.198 44.031 22.146 43.883 22.048 C 43.735 21.949 43.62 21.809 43.552 21.645 C 43.483 21.481 43.465 21.301 43.5 21.127 C 43.534 20.952 43.619 20.792 43.745 20.666 C 43.87 20.541 44.03 20.455 44.204 20.42 C 44.378 20.385 44.559 20.403 44.723 20.471 C 44.887 20.539 45.028 20.654 45.126 20.801 C 45.225 20.949 45.278 21.122 45.278 21.3 C 45.278 21.538 45.183 21.766 45.016 21.934 C 44.848 22.102 44.62 22.197 44.383 22.198 Z " fill="rgb(255,255,255)"/><path d=" M 44.383 23.918 C 43.865 23.918 43.359 23.764 42.929 23.476 C 42.498 23.189 42.163 22.78 41.964 22.302 C 41.766 21.823 41.715 21.297 41.816 20.789 C 41.917 20.282 42.166 19.815 42.532 19.449 C 42.898 19.083 43.364 18.834 43.872 18.733 C 44.38 18.632 44.906 18.684 45.384 18.882 C 45.863 19.08 46.272 19.415 46.559 19.846 C 46.847 20.276 47 20.782 47 21.3 C 46.999 21.994 46.723 22.659 46.232 23.149 C 45.742 23.64 45.077 23.916 44.383 23.918 Z  M 44.383 20.328 C 44.19 20.327 44.002 20.384 43.842 20.49 C 43.682 20.597 43.556 20.749 43.482 20.926 C 43.409 21.104 43.389 21.299 43.426 21.488 C 43.463 21.677 43.556 21.851 43.692 21.987 C 43.828 22.123 44.001 22.216 44.19 22.254 C 44.378 22.291 44.574 22.272 44.752 22.199 C 44.93 22.125 45.082 22.001 45.189 21.841 C 45.296 21.681 45.353 21.493 45.353 21.3 C 45.353 21.043 45.251 20.796 45.069 20.613 C 44.887 20.431 44.64 20.328 44.383 20.328 Z " fill="rgb(255,255,255)"/><path d=" M 19.262 31.17 L 8.497 31.17 C 8.002 31.17 7.6 31.572 7.6 32.068 C 7.6 32.563 8.002 32.965 8.497 32.965 L 19.262 32.965 C 19.758 32.965 20.16 32.563 20.16 32.068 C 20.16 31.572 19.758 31.17 19.262 31.17 Z " fill="rgb(255,255,255)"/><path d=" M 8.5 32.888 C 8.386 32.898 8.271 32.885 8.162 32.849 C 8.053 32.813 7.953 32.755 7.869 32.677 C 7.784 32.6 7.716 32.506 7.67 32.402 C 7.623 32.297 7.599 32.183 7.599 32.069 C 7.599 31.954 7.623 31.841 7.67 31.736 C 7.716 31.631 7.784 31.537 7.869 31.46 C 7.953 31.383 8.053 31.324 8.162 31.288 C 8.271 31.252 8.386 31.239 8.5 31.25 L 19.265 31.25 C 19.377 31.244 19.489 31.261 19.594 31.299 C 19.699 31.338 19.795 31.397 19.876 31.474 C 19.957 31.551 20.022 31.643 20.066 31.746 C 20.11 31.849 20.133 31.959 20.133 32.071 C 20.133 32.183 20.11 32.294 20.066 32.396 C 20.022 32.499 19.957 32.592 19.876 32.669 C 19.795 32.746 19.699 32.805 19.594 32.844 C 19.489 32.882 19.377 32.899 19.265 32.893 L 8.5 32.888 L 8.5 32.888 Z " fill="rgb(255,255,255)"/><path d=" M 3.1 21.25 C 3.169 21.417 3.289 21.559 3.441 21.655 C 3.594 21.752 3.773 21.799 3.953 21.79 C 4.134 21.781 4.307 21.717 4.45 21.606 C 4.593 21.495 4.697 21.342 4.75 21.169 C 4.803 20.996 4.801 20.811 4.744 20.64 C 4.688 20.468 4.58 20.318 4.435 20.21 C 4.29 20.102 4.115 20.041 3.934 20.037 C 3.753 20.032 3.576 20.083 3.425 20.183 C 3.257 20.296 3.132 20.464 3.073 20.659 C 3.014 20.853 3.023 21.062 3.1 21.25 Z " fill="rgb(255,255,255)"/></g></svg>