<?xml version="1.0" encoding="UTF-8" standalone="no"?><!-- Generator: Gravit.io --><svg xmlns="http://www.w3.org/2000/svg" xmlns:xlink="http://www.w3.org/1999/xlink" style="isolation:isolate" viewBox="0 0 52 55" width="52pt" height="55pt"><defs><clipPath id="_clipPath_lN5jTiJMCojByExhWlNnOdX7VrxTeQ1H"><rect width="52" height="55"/></clipPath></defs><g clip-path="url(#_clipPath_lN5jTiJMCojByExhWlNnOdX7VrxTeQ1H)"><path d=" M 25.16 54.793 C 23.985 54.789 22.859 54.321 22.028 53.49 C 21.197 52.659 20.728 51.533 20.725 50.358 L 20.725 35.928 C 20.729 34.906 21.084 33.917 21.729 33.126 C 22.375 32.335 23.273 31.789 24.272 31.58 C 24.289 31.577 24.304 31.568 24.315 31.554 C 24.326 31.541 24.332 31.525 24.332 31.508 L 24.332 28.758 C 24.262 28.062 24.331 27.359 24.534 26.69 C 24.738 26.02 25.073 25.399 25.52 24.86 C 26.865 23.27 29.17 22.465 32.375 22.465 C 40.08 22.465 44.537 19.9 44.58 19.875 C 44.707 19.798 44.853 19.757 45.002 19.758 C 45.112 19.759 45.219 19.781 45.32 19.824 C 45.42 19.867 45.511 19.929 45.587 20.008 C 45.747 20.168 49.452 23.95 47.64 28.828 C 47.638 28.836 47.638 28.844 47.64 28.853 L 47.64 31.5 C 47.64 31.517 47.646 31.534 47.657 31.547 C 47.668 31.56 47.683 31.569 47.7 31.573 C 48.701 31.781 49.601 32.328 50.247 33.121 C 50.893 33.914 51.247 34.905 51.25 35.928 L 51.25 50.358 C 51.247 51.533 50.778 52.659 49.947 53.49 C 49.116 54.321 47.99 54.789 46.815 54.793 L 25.16 54.793 L 25.16 54.793 Z  M 22.455 49.38 C 22.445 49.38 22.435 49.382 22.426 49.386 C 22.417 49.39 22.409 49.395 22.402 49.402 C 22.395 49.409 22.389 49.417 22.386 49.426 C 22.382 49.436 22.38 49.445 22.38 49.455 L 22.38 50.358 C 22.381 51.095 22.674 51.801 23.195 52.323 C 23.716 52.844 24.423 53.137 25.16 53.138 L 46.807 53.138 C 47.544 53.137 48.251 52.844 48.772 52.323 C 49.294 51.801 49.587 51.095 49.587 50.358 L 49.587 49.455 C 49.587 49.435 49.579 49.416 49.565 49.402 C 49.551 49.388 49.532 49.38 49.512 49.38 L 22.455 49.38 L 22.455 49.38 Z  M 47.705 38.558 C 47.695 38.557 47.685 38.559 47.676 38.563 C 47.667 38.566 47.658 38.572 47.651 38.579 C 47.644 38.586 47.639 38.594 47.635 38.604 C 47.631 38.613 47.63 38.623 47.63 38.633 L 47.63 47.653 C 47.63 47.673 47.638 47.692 47.652 47.706 C 47.666 47.72 47.685 47.728 47.705 47.728 L 49.507 47.728 C 49.527 47.728 49.546 47.72 49.56 47.706 C 49.574 47.692 49.582 47.673 49.582 47.653 L 49.582 38.633 C 49.583 38.623 49.581 38.613 49.577 38.604 C 49.574 38.594 49.568 38.586 49.561 38.579 C 49.554 38.572 49.546 38.566 49.537 38.563 C 49.527 38.559 49.517 38.557 49.507 38.558 L 47.705 38.558 L 47.705 38.558 Z  M 38.685 38.558 C 38.675 38.557 38.665 38.559 38.656 38.563 C 38.647 38.566 38.638 38.572 38.631 38.579 C 38.624 38.586 38.619 38.594 38.615 38.604 C 38.611 38.613 38.61 38.623 38.61 38.633 L 38.61 47.653 C 38.61 47.673 38.618 47.692 38.632 47.706 C 38.646 47.72 38.665 47.728 38.685 47.728 L 45.9 47.728 C 45.92 47.728 45.939 47.72 45.953 47.706 C 45.967 47.692 45.975 47.673 45.975 47.653 L 45.975 38.633 C 45.975 38.623 45.974 38.613 45.97 38.604 C 45.966 38.594 45.961 38.586 45.954 38.579 C 45.947 38.572 45.938 38.566 45.929 38.563 C 45.92 38.559 45.91 38.557 45.9 38.558 L 38.685 38.558 L 38.685 38.558 Z  M 22.45 38.558 C 22.44 38.557 22.43 38.559 22.421 38.563 C 22.412 38.566 22.403 38.572 22.396 38.579 C 22.389 38.586 22.384 38.594 22.38 38.604 C 22.376 38.613 22.375 38.623 22.375 38.633 L 22.375 47.653 C 22.375 47.673 22.383 47.692 22.397 47.706 C 22.411 47.72 22.43 47.728 22.45 47.728 L 36.88 47.728 C 36.9 47.728 36.919 47.72 36.933 47.706 C 36.947 47.692 36.955 47.673 36.955 47.653 L 36.955 38.633 C 36.955 38.623 36.954 38.613 36.95 38.604 C 36.946 38.594 36.941 38.586 36.934 38.579 C 36.927 38.572 36.918 38.566 36.909 38.563 C 36.9 38.559 36.89 38.557 36.88 38.558 L 22.45 38.558 L 22.45 38.558 Z  M 25.155 33.145 C 24.418 33.146 23.711 33.44 23.19 33.962 C 22.669 34.483 22.376 35.19 22.375 35.928 L 22.375 36.828 C 22.375 36.838 22.376 36.847 22.38 36.857 C 22.384 36.866 22.389 36.874 22.396 36.881 C 22.403 36.888 22.412 36.894 22.421 36.898 C 22.43 36.901 22.44 36.903 22.45 36.903 L 49.512 36.903 C 49.522 36.903 49.532 36.901 49.542 36.898 C 49.551 36.894 49.559 36.888 49.566 36.881 C 49.573 36.874 49.579 36.866 49.582 36.857 C 49.586 36.847 49.588 36.838 49.587 36.828 L 49.587 35.928 C 49.587 35.19 49.294 34.483 48.773 33.962 C 48.251 33.44 47.545 33.146 46.807 33.145 L 25.155 33.145 L 25.155 33.145 Z  M 26.057 29.538 C 26.047 29.537 26.038 29.539 26.028 29.543 C 26.019 29.546 26.011 29.552 26.004 29.559 C 25.997 29.566 25.991 29.574 25.987 29.584 C 25.984 29.593 25.982 29.603 25.982 29.613 L 25.982 31.418 C 25.982 31.438 25.99 31.457 26.004 31.471 C 26.018 31.485 26.038 31.493 26.057 31.493 L 45.9 31.493 C 45.92 31.493 45.939 31.485 45.953 31.471 C 45.967 31.457 45.975 31.438 45.975 31.418 L 45.975 29.613 C 45.975 29.603 45.974 29.593 45.97 29.584 C 45.966 29.574 45.961 29.566 45.954 29.559 C 45.947 29.552 45.938 29.546 45.929 29.543 C 45.92 29.539 45.91 29.537 45.9 29.538 L 26.057 29.538 L 26.057 29.538 Z  M 32.375 24.125 C 29.735 24.125 27.807 24.745 26.8 25.915 C 26.343 26.446 26.057 27.104 25.98 27.8 C 25.978 27.81 25.979 27.821 25.982 27.831 C 25.985 27.841 25.99 27.85 25.997 27.858 C 26.004 27.866 26.013 27.872 26.022 27.876 C 26.032 27.881 26.042 27.883 26.052 27.883 L 46.167 27.883 C 46.184 27.882 46.2 27.877 46.213 27.867 C 46.226 27.857 46.235 27.843 46.24 27.828 C 46.508 26.765 46.521 25.654 46.278 24.586 C 46.036 23.517 45.545 22.521 44.845 21.678 C 44.838 21.668 44.83 21.661 44.82 21.656 C 44.81 21.652 44.799 21.649 44.787 21.65 C 44.778 21.648 44.767 21.648 44.757 21.65 C 41.08 23.29 37.097 24.135 33.07 24.13 C 32.84 24.13 32.607 24.13 32.377 24.13 L 32.375 24.125 L 32.375 24.125 Z " fill="rgb(255,255,255)"/><path d=" M 30.572 16.91 C 28.915 16.91 27.325 16.252 26.153 15.08 C 24.981 13.907 24.322 12.318 24.322 10.66 L 24.322 8.868 C 24.323 8.648 24.41 8.438 24.566 8.283 C 24.721 8.128 24.931 8.041 25.15 8.04 L 27.855 8.04 C 29.513 8.04 31.102 8.699 32.274 9.871 C 33.446 11.043 34.105 12.633 34.105 14.29 L 34.105 16.093 C 34.105 16.312 34.018 16.523 33.863 16.678 C 33.707 16.833 33.497 16.92 33.277 16.92 L 30.572 16.91 L 30.572 16.91 Z  M 26.072 9.695 C 26.062 9.695 26.053 9.696 26.043 9.7 C 26.034 9.704 26.026 9.709 26.019 9.716 C 26.012 9.723 26.006 9.732 26.002 9.741 C 25.999 9.75 25.997 9.76 25.997 9.77 L 25.997 10.673 C 26.002 11.885 26.485 13.046 27.342 13.903 C 28.199 14.761 29.36 15.245 30.572 15.25 L 30.707 15.25 C 30.723 15.25 30.737 15.244 30.749 15.235 C 30.761 15.226 30.771 15.214 30.775 15.199 C 30.78 15.185 30.781 15.17 30.777 15.155 C 30.772 15.14 30.764 15.127 30.752 15.118 L 28.92 13.65 C 28.84 13.586 28.773 13.507 28.724 13.418 C 28.674 13.328 28.643 13.23 28.631 13.128 C 28.62 13.026 28.629 12.923 28.657 12.825 C 28.686 12.727 28.733 12.635 28.797 12.555 C 28.869 12.465 28.957 12.39 29.058 12.334 C 29.158 12.279 29.268 12.244 29.383 12.231 C 29.497 12.218 29.612 12.228 29.722 12.26 C 29.833 12.292 29.935 12.346 30.025 12.418 L 32.32 14.253 C 32.333 14.264 32.35 14.27 32.367 14.27 C 32.378 14.273 32.389 14.273 32.4 14.27 C 32.413 14.264 32.424 14.254 32.432 14.241 C 32.439 14.229 32.443 14.215 32.442 14.2 C 32.414 13.002 31.921 11.863 31.067 11.023 C 30.213 10.183 29.065 9.708 27.867 9.7 L 26.072 9.695 L 26.072 9.695 Z " fill="rgb(255,255,255)"/><path d=" M 36.885 19.615 C 36.666 19.615 36.456 19.528 36.301 19.374 C 36.146 19.219 36.058 19.009 36.058 18.79 L 36.058 16.985 C 36.058 15.327 36.716 13.738 37.888 12.566 C 39.06 11.394 40.65 10.735 42.308 10.735 L 45 10.735 C 45.219 10.735 45.429 10.822 45.584 10.977 C 45.739 11.131 45.827 11.341 45.828 11.56 L 45.828 13.365 C 45.824 15.018 45.166 16.603 43.997 17.772 C 42.828 18.941 41.243 19.599 39.59 19.603 L 36.885 19.615 L 36.885 19.615 Z  M 40.703 14.885 C 40.815 14.885 40.926 14.911 41.027 14.96 C 41.129 15.009 41.217 15.08 41.288 15.168 C 41.362 15.26 41.417 15.367 41.451 15.481 C 41.484 15.595 41.494 15.715 41.481 15.833 C 41.468 15.951 41.432 16.065 41.375 16.17 C 41.318 16.274 41.24 16.366 41.148 16.44 L 39.398 17.828 C 39.385 17.837 39.376 17.851 39.372 17.866 C 39.368 17.882 39.369 17.898 39.375 17.913 C 39.38 17.927 39.389 17.94 39.402 17.949 C 39.414 17.958 39.43 17.963 39.445 17.963 L 39.58 17.963 C 40.795 17.959 41.959 17.474 42.818 16.615 C 43.677 15.756 44.161 14.592 44.165 13.378 L 44.165 12.475 C 44.164 12.455 44.156 12.437 44.142 12.423 C 44.128 12.409 44.11 12.401 44.09 12.4 L 42.285 12.4 C 41.087 12.408 39.939 12.883 39.084 13.723 C 38.23 14.563 37.736 15.702 37.708 16.9 C 37.708 16.914 37.712 16.928 37.719 16.94 C 37.727 16.952 37.738 16.961 37.75 16.968 C 37.762 16.975 37.776 16.978 37.79 16.978 C 37.804 16.978 37.818 16.975 37.83 16.968 L 40.223 15.053 C 40.358 14.943 40.528 14.883 40.703 14.885 Z " fill="rgb(255,255,255)"/><path d=" M 5.318 51.185 C 5.1 51.182 4.892 51.093 4.74 50.939 C 4.587 50.784 4.501 50.575 4.5 50.358 L 4.5 46.75 C 4.5 46.531 4.587 46.32 4.742 46.165 C 4.898 46.01 5.108 45.923 5.328 45.923 C 5.547 45.923 5.758 46.01 5.913 46.165 C 6.068 46.32 6.155 46.531 6.155 46.75 L 6.155 48.553 C 6.155 48.812 6.258 49.061 6.441 49.244 C 6.625 49.427 6.873 49.53 7.133 49.53 C 7.352 49.53 7.563 49.617 7.718 49.773 C 7.873 49.928 7.96 50.138 7.96 50.358 C 7.96 50.577 7.873 50.788 7.718 50.943 C 7.563 51.098 7.352 51.185 7.133 51.185 L 5.318 51.185 L 5.318 51.185 Z " fill="rgb(255,255,255)"/><path d=" M 3.525 54.793 C 2.824 54.792 2.153 54.513 1.657 54.018 C 1.162 53.523 0.883 52.851 0.883 52.15 L 0.883 34.9 C 0.883 34.667 0.976 34.444 1.141 34.279 C 1.306 34.114 1.529 34.021 1.763 34.02 C 1.968 34.02 2.164 34.101 2.31 34.246 C 2.455 34.391 2.537 34.588 2.538 34.793 L 2.538 38.628 C 2.539 38.65 2.549 38.671 2.564 38.687 C 2.58 38.703 2.6 38.713 2.623 38.715 L 17.03 38.715 C 17.053 38.713 17.074 38.704 17.09 38.688 C 17.106 38.672 17.116 38.65 17.118 38.628 L 17.118 26.018 C 17.116 25.995 17.106 25.974 17.09 25.958 C 17.074 25.942 17.053 25.932 17.03 25.93 L 13.5 25.93 L 13.5 25.103 C 13.499 24.126 13.11 23.191 12.42 22.5 C 11.73 21.81 10.794 21.422 9.818 21.42 L 9.65 21.42 C 7.713 21.508 6.135 23.208 6.135 25.213 L 6.135 25.928 L 2.623 25.928 C 2.6 25.93 2.58 25.94 2.564 25.956 C 2.549 25.972 2.539 25.993 2.538 26.015 L 2.538 29.015 C 2.537 29.233 2.45 29.441 2.297 29.595 C 2.143 29.749 1.935 29.836 1.718 29.838 C 1.496 29.837 1.284 29.748 1.127 29.592 C 0.97 29.435 0.883 29.222 0.883 29 L 0.883 17.888 C 0.887 16.868 1.241 15.881 1.884 15.091 C 2.528 14.3 3.423 13.754 4.42 13.543 C 4.437 13.54 4.452 13.531 4.463 13.518 C 4.478 13.501 4.487 13.48 4.49 13.458 L 4.49 10.958 C 4.491 10.662 4.608 10.379 4.816 10.17 C 5.025 9.961 5.307 9.842 5.603 9.84 L 7.103 9.84 C 7.112 9.84 7.122 9.838 7.131 9.834 C 7.14 9.83 7.148 9.825 7.155 9.818 C 7.173 9.8 7.184 9.777 7.188 9.753 L 7.188 7.978 C 7.185 7.956 7.176 7.935 7.16 7.919 C 7.145 7.903 7.125 7.893 7.103 7.89 L 4.428 7.89 C 4.205 7.89 3.992 7.802 3.835 7.645 C 3.677 7.488 3.588 7.275 3.588 7.053 L 3.588 1.665 C 3.588 1.443 3.677 1.229 3.834 1.072 C 3.992 0.915 4.205 0.826 4.428 0.825 L 15.228 0.825 C 15.45 0.826 15.663 0.915 15.82 1.072 C 15.977 1.23 16.065 1.443 16.065 1.665 L 16.065 7.053 C 16.065 7.275 15.977 7.488 15.82 7.645 C 15.663 7.802 15.45 7.89 15.228 7.89 L 12.545 7.89 C 12.523 7.892 12.502 7.902 12.486 7.918 C 12.47 7.934 12.46 7.955 12.458 7.978 L 12.458 9.75 C 12.459 9.773 12.469 9.794 12.485 9.81 C 12.501 9.826 12.523 9.836 12.545 9.838 L 14.045 9.838 C 14.336 9.838 14.615 9.954 14.821 10.16 C 15.027 10.365 15.144 10.644 15.145 10.935 L 15.145 13.45 C 15.145 13.467 15.15 13.484 15.16 13.498 C 15.174 13.515 15.192 13.528 15.213 13.535 C 16.21 13.746 17.105 14.293 17.749 15.083 C 18.393 15.874 18.747 16.861 18.753 17.88 L 18.753 52.15 C 18.751 52.851 18.472 53.523 17.976 54.018 C 17.481 54.513 16.809 54.792 16.108 54.793 L 3.525 54.793 L 3.525 54.793 Z  M 2.623 40.36 C 2.601 40.363 2.58 40.373 2.565 40.389 C 2.549 40.405 2.54 40.426 2.538 40.448 L 2.538 52.15 C 2.538 52.282 2.563 52.412 2.614 52.533 C 2.664 52.654 2.738 52.764 2.83 52.857 C 2.923 52.95 3.034 53.024 3.155 53.074 C 3.276 53.124 3.406 53.15 3.538 53.15 L 16.14 53.15 C 16.405 53.15 16.66 53.045 16.847 52.857 C 17.035 52.67 17.14 52.415 17.14 52.15 L 17.14 40.448 C 17.138 40.425 17.128 40.404 17.112 40.388 C 17.096 40.372 17.075 40.362 17.053 40.36 L 2.623 40.36 L 2.623 40.36 Z  M 9.833 19.75 C 11.092 19.75 12.311 20.196 13.272 21.009 C 14.233 21.823 14.875 22.951 15.083 24.193 C 15.088 24.212 15.099 24.23 15.115 24.243 C 15.13 24.256 15.15 24.264 15.17 24.265 L 17.025 24.265 C 17.048 24.263 17.069 24.254 17.085 24.238 C 17.101 24.222 17.111 24.2 17.113 24.178 L 17.113 17.9 C 17.112 17.16 16.818 16.449 16.294 15.925 C 15.771 15.401 15.061 15.107 14.32 15.105 L 5.32 15.105 C 4.581 15.109 3.874 15.405 3.353 15.929 C 2.831 16.453 2.538 17.161 2.538 17.9 L 2.538 24.188 C 2.539 24.21 2.549 24.231 2.564 24.247 C 2.58 24.263 2.6 24.273 2.623 24.275 L 4.48 24.275 C 4.5 24.274 4.519 24.266 4.535 24.253 C 4.55 24.24 4.561 24.222 4.565 24.203 C 4.776 22.958 5.421 21.829 6.385 21.014 C 7.349 20.199 8.57 19.751 9.833 19.75 Z  M 6.675 11.5 C 6.535 11.501 6.4 11.557 6.301 11.656 C 6.202 11.755 6.146 11.89 6.145 12.03 L 6.145 12.91 C 6.145 12.982 6.159 13.053 6.187 13.119 C 6.214 13.185 6.254 13.245 6.305 13.296 C 6.355 13.346 6.415 13.386 6.482 13.414 C 6.548 13.441 6.619 13.455 6.69 13.455 L 12.94 13.455 C 13.093 13.455 13.239 13.395 13.347 13.287 C 13.455 13.179 13.515 13.033 13.515 12.88 L 13.515 12.065 C 13.515 11.991 13.5 11.917 13.471 11.848 C 13.442 11.779 13.4 11.717 13.347 11.665 C 13.294 11.612 13.231 11.571 13.163 11.542 C 13.094 11.514 13.02 11.5 12.945 11.5 L 6.675 11.5 L 6.675 11.5 Z  M 8.925 7.893 C 8.903 7.895 8.882 7.905 8.866 7.921 C 8.85 7.937 8.84 7.958 8.838 7.98 L 8.838 9.75 C 8.839 9.773 8.849 9.794 8.865 9.81 C 8.881 9.826 8.902 9.836 8.925 9.838 L 10.705 9.838 C 10.728 9.835 10.749 9.826 10.765 9.81 C 10.781 9.794 10.79 9.773 10.793 9.75 L 10.793 7.978 C 10.79 7.955 10.78 7.935 10.764 7.919 C 10.748 7.903 10.727 7.893 10.705 7.89 L 8.925 7.893 L 8.925 7.893 Z  M 6.293 2.48 C 6.014 2.481 5.748 2.592 5.551 2.788 C 5.354 2.985 5.243 3.252 5.243 3.53 L 5.243 5.1 C 5.241 5.251 5.269 5.4 5.326 5.539 C 5.382 5.679 5.466 5.806 5.571 5.913 C 5.677 6.02 5.803 6.104 5.942 6.162 C 6.081 6.22 6.23 6.25 6.38 6.25 L 13.63 6.25 C 13.837 6.249 14.036 6.167 14.183 6.02 C 14.329 5.874 14.412 5.675 14.413 5.468 L 14.413 3.358 C 14.413 3.125 14.32 2.902 14.156 2.737 C 13.991 2.573 13.768 2.48 13.535 2.48 L 12.535 2.48 C 12.513 2.482 12.492 2.491 12.476 2.507 C 12.46 2.522 12.45 2.543 12.448 2.565 L 12.448 3.793 C 12.448 3.925 12.395 4.052 12.301 4.146 C 12.207 4.24 12.08 4.293 11.948 4.293 L 11.328 4.293 C 11.257 4.292 11.188 4.278 11.123 4.25 C 11.059 4.223 11 4.182 10.952 4.132 C 10.903 4.081 10.865 4.021 10.84 3.956 C 10.815 3.89 10.803 3.82 10.805 3.75 L 10.805 2.565 C 10.802 2.543 10.792 2.523 10.776 2.507 C 10.76 2.492 10.74 2.482 10.718 2.48 L 8.938 2.48 C 8.915 2.482 8.894 2.491 8.878 2.507 C 8.862 2.522 8.852 2.543 8.85 2.565 L 8.85 3.815 C 8.85 3.942 8.8 4.063 8.71 4.153 C 8.621 4.242 8.499 4.293 8.373 4.293 L 7.603 4.293 C 7.495 4.293 7.391 4.25 7.314 4.173 C 7.238 4.097 7.195 3.993 7.195 3.885 L 7.195 2.565 C 7.193 2.543 7.183 2.523 7.168 2.507 C 7.152 2.492 7.132 2.482 7.11 2.48 L 6.293 2.48 L 6.293 2.48 Z " fill="rgb(255,255,255)"/><path d=" M 0.845 32.278 C 0.914 32.446 1.033 32.588 1.186 32.686 C 1.339 32.784 1.519 32.832 1.7 32.823 C 1.882 32.815 2.056 32.75 2.199 32.639 C 2.343 32.528 2.448 32.374 2.501 32.201 C 2.554 32.027 2.552 31.841 2.495 31.669 C 2.439 31.496 2.33 31.346 2.184 31.238 C 2.038 31.129 1.863 31.069 1.681 31.064 C 1.499 31.06 1.321 31.112 1.17 31.213 C 1.003 31.327 0.88 31.494 0.82 31.688 C 0.761 31.882 0.77 32.09 0.845 32.278 Z " fill="rgb(255,255,255)"/></g></svg>