<svg width="55" height="54" viewBox="0 0 55 54" fill="none" xmlns="http://www.w3.org/2000/svg">
<path d="M34.7602 10.2823C34.7602 9.78803 34.3595 9.38733 33.8652 9.38733C33.3709 9.38733 32.9702 9.78803 32.9702 10.2823C32.9702 10.7766 33.3709 11.1773 33.8652 11.1773C34.3595 11.1773 34.7602 10.7766 34.7602 10.2823Z" fill="black"/>
<path d="M51.7651 32.845H43.7101C43.6605 32.8443 43.6132 32.8244 43.5782 32.7893C43.5432 32.7543 43.5232 32.707 43.5226 32.6575V19.2325C43.5226 19.1827 43.5423 19.1351 43.5775 19.0999C43.6126 19.0647 43.6603 19.045 43.7101 19.045H51.7651C51.858 19.045 51.95 19.0267 52.0358 18.9911C52.1217 18.9556 52.1996 18.9035 52.2653 18.8378C52.331 18.7721 52.3832 18.6941 52.4187 18.6082C52.4543 18.5224 52.4726 18.4304 52.4726 18.3375V13.8975L54.2501 1.43248C54.2638 1.34047 54.2592 1.24664 54.2364 1.15645C54.2136 1.06625 54.1731 0.98148 54.1173 0.907055C54.0615 0.832629 53.9914 0.770033 53.9112 0.722897C53.831 0.675762 53.7422 0.645027 53.6501 0.632477C53.6168 0.629995 53.5834 0.629995 53.5501 0.632477H28.5001C28.3124 0.632477 28.1325 0.707017 27.9998 0.839699C27.8671 0.97238 27.7926 1.15234 27.7926 1.33998C27.7901 1.37326 27.7901 1.40669 27.7926 1.43998L29.5726 13.905V18.345C29.5726 18.4379 29.5909 18.5299 29.6264 18.6157C29.662 18.7016 29.7141 18.7796 29.7798 18.8453C29.8455 18.911 29.9235 18.9631 30.0093 18.9986C30.0952 19.0342 30.1872 19.0525 30.2801 19.0525H38.3351C38.3848 19.0525 38.4325 19.0722 38.4676 19.1074C38.5028 19.1426 38.5226 19.1902 38.5226 19.24V32.665C38.5219 32.7145 38.502 32.7618 38.4669 32.7968C38.4319 32.8319 38.3846 32.8518 38.3351 32.8525H37.4401C37.0804 32.8528 36.7251 32.9307 36.3984 33.0808C36.0716 33.231 35.781 33.4498 35.5466 33.7225C35.3121 33.9952 35.1392 34.3152 35.0397 34.6608C34.9402 35.0064 34.9165 35.3694 34.9701 35.725C35.0725 36.3246 35.3857 36.8679 35.8532 37.257C36.3207 37.6462 36.9118 37.8556 37.5201 37.8475H38.3351C38.3848 37.8475 38.4325 37.8672 38.4676 37.9024C38.5028 37.9376 38.5226 37.9852 38.5226 38.035V39.825C38.5219 39.8745 38.502 39.9218 38.4669 39.9568C38.4319 39.9919 38.3846 40.0118 38.3351 40.0125H32.0751C32.0493 40.0123 32.0238 40.0069 32.0001 39.9966C31.9765 39.9863 31.9552 39.9713 31.9376 39.9525C31.9031 39.9142 31.8851 39.8639 31.8876 39.8125L32.7226 27.2825C32.7257 27.2349 32.7469 27.1904 32.7817 27.1579C32.8165 27.1254 32.8624 27.1074 32.9101 27.1075H33.8651C33.958 27.1075 34.05 27.0892 34.1358 27.0536C34.2217 27.0181 34.2996 26.966 34.3653 26.9003C34.431 26.8346 34.4832 26.7566 34.5187 26.6707C34.5543 26.5849 34.5726 26.4929 34.5726 26.4V22.8125C34.5726 22.6248 34.498 22.4449 34.3653 22.3122C34.2327 22.1795 34.0527 22.105 33.8651 22.105H27.5326C27.4869 22.1047 27.443 22.0878 27.4089 22.0574C27.3749 22.027 27.353 21.9853 27.3476 21.94C27.2083 21.0142 26.8587 20.1326 26.3256 19.3629C25.7926 18.5932 25.0903 17.956 24.2726 17.5C24.2508 17.4889 24.2315 17.4736 24.2157 17.455C24.1999 17.4364 24.188 17.4149 24.1805 17.3916C24.1731 17.3684 24.1703 17.3439 24.1724 17.3196C24.1745 17.2953 24.1813 17.2716 24.1926 17.25C24.5497 16.4552 24.7317 15.5928 24.7263 14.7215C24.7209 13.8501 24.5282 12.9902 24.1612 12.1998C23.7943 11.4095 23.2617 10.7073 22.5995 10.1409C21.9374 9.57448 21.1612 9.15707 20.3235 8.91697C19.4859 8.67687 18.6064 8.6197 17.7448 8.74933C16.8831 8.87896 16.0594 9.19237 15.3295 9.66829C14.5996 10.1442 13.9805 10.7715 13.5144 11.5077C13.0482 12.2439 12.7457 13.0717 12.6276 13.935C12.622 13.98 12.6001 14.0215 12.566 14.0515C12.5319 14.0814 12.488 14.0978 12.4426 14.0975H12.4201C12.1046 14.0625 11.7875 14.045 11.4701 14.045C9.3135 14.044 7.23284 14.841 5.62885 16.2825C4.02486 17.724 3.011 19.708 2.78256 21.8525V21.93C2.77765 21.9764 2.75582 22.0194 2.72124 22.0507C2.68666 22.0821 2.64174 22.0996 2.59506 22.1H1.64506C1.45742 22.1 1.27747 22.1745 1.14478 22.3072C1.0121 22.4399 0.937561 22.6198 0.937561 22.8075V26.3875C0.937561 26.4804 0.955861 26.5724 0.991416 26.6582C1.02697 26.7441 1.07909 26.8221 1.14478 26.8878C1.21048 26.9535 1.28847 27.0056 1.37431 27.0411C1.46015 27.0767 1.55215 27.095 1.64506 27.095H2.59756C2.6452 27.0949 2.69109 27.1129 2.72591 27.1454C2.76074 27.1779 2.78189 27.2224 2.78506 27.27L3.96506 45C3.97283 45.0944 3.99949 45.1863 4.04346 45.2703C4.08743 45.3542 4.14781 45.4285 4.22103 45.4886C4.29425 45.5488 4.3788 45.5936 4.46968 45.6205C4.56056 45.6473 4.65591 45.6557 4.75006 45.645C4.93109 45.6248 5.09736 45.5355 5.21424 45.3958C5.33113 45.2561 5.38963 45.0767 5.37756 44.895L4.20506 27.3C4.20247 27.2478 4.22041 27.1966 4.25506 27.1575C4.27283 27.139 4.2942 27.1244 4.31785 27.1145C4.3415 27.1046 4.36693 27.0996 4.39256 27.1H31.1176C31.1432 27.0996 31.1686 27.1046 31.1923 27.1145C31.2159 27.1244 31.2373 27.139 31.2551 27.1575C31.2897 27.1966 31.3077 27.2478 31.3051 27.3L30.4726 39.83C30.4694 39.8775 30.4482 39.922 30.4134 39.9545C30.3786 39.9871 30.3327 40.0051 30.2851 40.005H28.5001C27.837 40.005 27.2011 40.2684 26.7323 40.7372C26.2635 41.206 26.0001 41.8419 26.0001 42.505V52.35C25.9994 52.3995 25.9795 52.4468 25.9444 52.4818C25.9094 52.5169 25.8621 52.5368 25.8126 52.5375H6.06256C6.0151 52.537 5.96953 52.5188 5.93483 52.4864C5.90013 52.454 5.87881 52.4098 5.87506 52.3625L5.68506 49.5C5.67889 49.4044 5.6534 49.3112 5.61013 49.2258C5.56686 49.1404 5.50671 49.0646 5.43332 49.0032C5.35993 48.9417 5.27483 48.8958 5.18317 48.8681C5.09151 48.8405 4.99519 48.8318 4.90006 48.8425C4.71903 48.8627 4.55277 48.9519 4.43588 49.0916C4.319 49.2313 4.2605 49.4107 4.27256 49.5925L4.52256 53.2775C4.53399 53.4568 4.6132 53.625 4.74413 53.7481C4.87506 53.8711 5.04789 53.9397 5.22756 53.94H53.5551C53.7427 53.94 53.9227 53.8654 54.0553 53.7328C54.188 53.6001 54.2626 53.4201 54.2626 53.2325V35.3325C54.2593 34.672 53.9948 34.0397 53.5268 33.5737C53.0589 33.1076 52.4255 32.8456 51.7651 32.845ZM30.8751 13L29.3426 2.24998C29.3382 2.22378 29.3397 2.19692 29.347 2.17139C29.3544 2.14587 29.3674 2.12231 29.3851 2.10248C29.4025 2.08174 29.4243 2.06516 29.449 2.05391C29.4736 2.04267 29.5005 2.03706 29.5276 2.03748H32.9701C33.0198 2.03748 33.0675 2.05723 33.1026 2.09239C33.1378 2.12756 33.1576 2.17525 33.1576 2.22498V6.72498C33.1575 6.83742 33.1849 6.94818 33.2374 7.04761C33.29 7.14704 33.366 7.23213 33.4589 7.29546C33.5518 7.3588 33.6588 7.39847 33.7706 7.41103C33.8823 7.42358 33.9954 7.40863 34.1001 7.36748C34.2428 7.31068 34.3647 7.21141 34.4492 7.08308C34.5337 6.95476 34.5768 6.80357 34.5726 6.64998V2.22748C34.5726 2.17775 34.5923 2.13006 34.6275 2.09489C34.6626 2.05973 34.7103 2.03998 34.7601 2.03998H36.5501C36.5998 2.03998 36.6475 2.05973 36.6826 2.09489C36.7178 2.13006 36.7376 2.17775 36.7376 2.22748V3.16498C36.7384 3.28623 36.7721 3.40498 36.8349 3.50867C36.8978 3.61237 36.9875 3.69714 37.0946 3.75401C37.2017 3.81088 37.3222 3.83775 37.4433 3.83176C37.5644 3.82577 37.6816 3.78714 37.7826 3.71998C37.8985 3.64725 37.9936 3.54565 38.0584 3.42513C38.1233 3.30461 38.1557 3.16931 38.1526 3.03248V2.22748C38.1526 2.17775 38.1723 2.13006 38.2075 2.09489C38.2426 2.05973 38.2903 2.03998 38.3401 2.03998H43.7101C43.7598 2.03998 43.8075 2.05973 43.8426 2.09489C43.8778 2.13006 43.8976 2.17775 43.8976 2.22748V4.10748C43.8976 4.27125 43.9626 4.42831 44.0784 4.54411C44.1942 4.65992 44.3513 4.72498 44.5151 4.72498H44.7326C44.8089 4.72498 44.8846 4.70989 44.9551 4.68059C45.0256 4.65129 45.0897 4.60834 45.1436 4.55422C45.1975 4.50009 45.2401 4.43586 45.2691 4.3652C45.2981 4.29454 45.3129 4.21885 45.3126 4.14248V2.22748C45.3126 2.17775 45.3323 2.13006 45.3675 2.09489C45.4026 2.05973 45.4503 2.03998 45.5001 2.03998H47.2901C47.3398 2.03998 47.3875 2.05973 47.4226 2.09489C47.4578 2.13006 47.4776 2.17775 47.4776 2.22748V6.64748C47.4793 6.75215 47.5024 6.85537 47.5456 6.95073C47.5888 7.04609 47.6512 7.13157 47.7287 7.20187C47.8063 7.27218 47.8975 7.32581 47.9966 7.35946C48.0957 7.3931 48.2007 7.40604 48.3051 7.39748C48.4674 7.37361 48.6159 7.29244 48.7237 7.16864C48.8314 7.04485 48.8913 6.88659 48.8926 6.72248V2.22248C48.8926 2.17275 48.9123 2.12506 48.9475 2.08989C48.9826 2.05473 49.0303 2.03498 49.0801 2.03498H52.5226C52.5497 2.03456 52.5765 2.04017 52.6011 2.05141C52.6258 2.06266 52.6476 2.07925 52.6651 2.09998C52.6827 2.11982 52.6957 2.14337 52.7031 2.1689C52.7104 2.19442 52.712 2.22128 52.7076 2.24748L51.1751 12.9975C51.169 13.0423 51.147 13.0835 51.113 13.1134C51.079 13.1432 51.0353 13.1598 50.9901 13.16H31.0601C31.0152 13.1599 30.9718 13.1437 30.9379 13.1143C30.9039 13.0849 30.8816 13.0444 30.8751 13ZM31.1801 17.6375C31.1305 17.6368 31.0832 17.6169 31.0482 17.5818C31.0132 17.5468 30.9932 17.4995 30.9926 17.45V14.75C30.9926 14.7002 31.0123 14.6526 31.0475 14.6174C31.0826 14.5822 31.1303 14.5625 31.1801 14.5625H50.8701C50.9198 14.5625 50.9675 14.5822 51.0027 14.6174C51.0378 14.6526 51.0576 14.7002 51.0576 14.75V17.435C51.0569 17.4845 51.037 17.5318 51.0019 17.5668C50.9669 17.6019 50.9196 17.6218 50.8701 17.6225L31.1801 17.6375ZM42.1076 19.24V32.665C42.1069 32.7145 42.087 32.7618 42.0519 32.7968C42.0169 32.8319 41.9696 32.8518 41.9201 32.8525H40.1301C40.0805 32.8518 40.0332 32.8319 39.9982 32.7968C39.9632 32.7618 39.9432 32.7145 39.9426 32.665V19.24C39.9426 19.1902 39.9623 19.1426 39.9975 19.1074C40.0326 19.0722 40.0803 19.0525 40.1301 19.0525H41.9201C41.9685 19.0524 42.0151 19.0712 42.0501 19.1047C42.085 19.1383 42.1056 19.1841 42.1076 19.2325V19.24ZM11.4701 15.465C11.7751 15.4654 12.0799 15.4847 12.3826 15.5225C12.6279 15.5524 12.8716 15.595 13.1126 15.65H13.1551C13.9168 15.8293 14.6451 16.1289 15.3126 16.5375C15.4549 16.6243 15.6184 16.6702 15.7851 16.67C15.9138 16.6711 16.0412 16.6432 16.1576 16.5882C16.2741 16.5332 16.3766 16.4526 16.4576 16.3525C16.508 16.2901 16.5447 16.2178 16.5654 16.1402C16.5861 16.0627 16.5902 15.9817 16.5776 15.9025C16.5659 15.8225 16.5376 15.7458 16.4946 15.6773C16.4515 15.6088 16.3946 15.5501 16.3276 15.505C15.6574 15.065 14.9308 14.7177 14.1676 14.4725C14.1254 14.4599 14.0889 14.4331 14.0642 14.3967C14.0396 14.3602 14.0284 14.3163 14.0326 14.2725C14.1354 13.3005 14.5418 12.3856 15.1941 11.6576C15.8463 10.9296 16.7112 10.4255 17.6661 10.2169C18.621 10.0082 19.6174 10.1056 20.5138 10.4953C21.4102 10.8849 22.1612 11.547 22.6601 12.3875C23.0345 13.0254 23.2536 13.7426 23.2997 14.4809C23.3457 15.2192 23.2174 15.9579 22.9251 16.6375C22.8333 16.8404 22.7245 17.0353 22.6001 17.22C22.5676 17.27 22.5351 17.32 22.5051 17.3725C22.4088 17.5278 22.3766 17.7145 22.4153 17.8932C22.454 18.0718 22.5606 18.2284 22.7126 18.33C22.7627 18.3626 22.8164 18.3894 22.8726 18.41C23.6302 18.6799 24.3057 19.1402 24.8342 19.7466C25.3626 20.3529 25.7262 21.085 25.8901 21.8725C25.8956 21.8997 25.8949 21.9277 25.888 21.9546C25.881 21.9815 25.8681 22.0064 25.8501 22.0275C25.833 22.0496 25.811 22.0674 25.7858 22.0796C25.7607 22.0917 25.733 22.0979 25.7051 22.0975H4.39006C4.36352 22.097 4.33738 22.0909 4.31333 22.0797C4.28928 22.0684 4.26785 22.0523 4.25042 22.0323C4.23299 22.0122 4.21995 21.9888 4.21213 21.9634C4.20432 21.9381 4.20191 21.9113 4.20506 21.885C4.4282 20.1144 5.28895 18.4859 6.6262 17.3042C7.96344 16.1225 9.68551 15.4686 11.4701 15.465ZM2.54006 25.685C2.49053 25.6843 2.44322 25.6644 2.40819 25.6293C2.37317 25.5943 2.35321 25.547 2.35256 25.4975V23.7075C2.35256 23.6577 2.37232 23.6101 2.40748 23.5749C2.44264 23.5397 2.49033 23.52 2.54006 23.52H32.9701C33.0198 23.52 33.0675 23.5397 33.1026 23.5749C33.1378 23.6101 33.1576 23.6577 33.1576 23.7075V25.5C33.1569 25.5495 33.137 25.5968 33.1019 25.6318C33.0669 25.6669 33.0196 25.6868 32.9701 25.6875L2.54006 25.685ZM52.8476 52.3475C52.8469 52.397 52.827 52.4443 52.7919 52.4793C52.7569 52.5144 52.7096 52.5343 52.6601 52.535H49.9751C49.9255 52.5343 49.8782 52.5144 49.8432 52.4793C49.8082 52.4443 49.7882 52.397 49.7876 52.3475V48.7675C49.7876 48.5798 49.713 48.3999 49.5803 48.2672C49.4477 48.1345 49.2677 48.06 49.0801 48.06C48.8924 48.06 48.7125 48.1345 48.5798 48.2672C48.4471 48.3999 48.3726 48.5798 48.3726 48.7675V52.3475C48.3719 52.397 48.352 52.4443 48.3169 52.4793C48.2819 52.5144 48.2346 52.5343 48.1851 52.535H45.5001C45.4505 52.5343 45.4032 52.5144 45.3682 52.4793C45.3332 52.4443 45.3132 52.397 45.3126 52.3475V48.7675C45.3126 48.5798 45.238 48.3999 45.1053 48.2672C44.9727 48.1345 44.7927 48.06 44.6051 48.06C44.4174 48.06 44.2375 48.1345 44.1048 48.2672C43.9721 48.3999 43.8976 48.5798 43.8976 48.7675V52.3475C43.8969 52.397 43.877 52.4443 43.8419 52.4793C43.8069 52.5144 43.7596 52.5343 43.7101 52.535H41.0251C40.9755 52.5343 40.9282 52.5144 40.8932 52.4793C40.8582 52.4443 40.8382 52.397 40.8376 52.3475V48.7675C40.8376 48.5798 40.763 48.3999 40.6303 48.2672C40.4977 48.1345 40.3177 48.06 40.1301 48.06C39.9424 48.06 39.7625 48.1345 39.6298 48.2672C39.4971 48.3999 39.4226 48.5798 39.4226 48.7675V52.3475C39.4219 52.397 39.402 52.4443 39.3669 52.4793C39.3319 52.5144 39.2846 52.5343 39.2351 52.535H36.5501C36.5005 52.5343 36.4532 52.5144 36.4182 52.4793C36.3832 52.4443 36.3632 52.397 36.3626 52.3475V48.7675C36.3626 48.5798 36.288 48.3999 36.1553 48.2672C36.0227 48.1345 35.8427 48.06 35.6551 48.06C35.4674 48.06 35.2875 48.1345 35.1548 48.2672C35.0221 48.3999 34.9476 48.5798 34.9476 48.7675V52.3475C34.9469 52.397 34.927 52.4443 34.8919 52.4793C34.8569 52.5144 34.8096 52.5343 34.7601 52.535H32.0751C32.0255 52.5343 31.9782 52.5144 31.9432 52.4793C31.9082 52.4443 31.8882 52.397 31.8876 52.3475V48.7675C31.8876 48.5798 31.813 48.3999 31.6803 48.2672C31.5477 48.1345 31.3677 48.06 31.1801 48.06C30.9924 48.06 30.8125 48.1345 30.6798 48.2672C30.5471 48.3999 30.4726 48.5798 30.4726 48.7675V52.3475C30.4719 52.397 30.452 52.4443 30.4169 52.4793C30.3819 52.5144 30.3346 52.5343 30.2851 52.535H27.6001C27.5505 52.5343 27.5032 52.5144 27.4682 52.4793C27.4332 52.4443 27.4132 52.397 27.4126 52.3475V45.1875C27.4126 45.1377 27.4323 45.0901 27.4675 45.0549C27.5026 45.0197 27.5503 45 27.6001 45H52.6601C52.7098 45 52.7575 45.0197 52.7927 45.0549C52.8278 45.0901 52.8476 45.1377 52.8476 45.1875V52.3475ZM52.8476 43.3975C52.8469 43.447 52.827 43.4943 52.7919 43.5293C52.7569 43.5644 52.7096 43.5843 52.6601 43.585H27.6001C27.5505 43.5843 27.5032 43.5644 27.4682 43.5293C27.4332 43.4943 27.4132 43.447 27.4126 43.3975V42.5C27.4126 42.3578 27.4406 42.2171 27.495 42.0857C27.5494 41.9544 27.6291 41.8351 27.7296 41.7345C27.8301 41.634 27.9495 41.5543 28.0808 41.4999C28.2121 41.4455 28.3529 41.4175 28.4951 41.4175H48.1851C48.5449 41.4172 48.9005 41.3393 49.2275 41.189C49.5544 41.0387 49.8451 40.8196 50.0796 40.5466C50.3141 40.2737 50.487 39.9533 50.5863 39.6074C50.6856 39.2615 50.709 38.8983 50.6551 38.5425C50.5526 37.9431 50.2393 37.4001 49.7717 37.0114C49.3042 36.6226 48.7131 36.4138 48.1051 36.4225H37.4451C37.2838 36.4218 37.1246 36.3853 36.9792 36.3155C36.8337 36.2457 36.7056 36.1445 36.6042 36.0191C36.5027 35.8937 36.4304 35.7472 36.3925 35.5904C36.3546 35.4336 36.3521 35.2704 36.3851 35.1125C36.4423 34.8618 36.5847 34.6388 36.7881 34.4815C36.9914 34.3242 37.2431 34.2424 37.5001 34.25H51.7776C52.0647 34.25 52.34 34.364 52.543 34.567C52.746 34.77 52.8601 35.0454 52.8601 35.3325L52.8476 43.3975ZM39.9426 39.8175V38.0275C39.9426 37.9777 39.9623 37.9301 39.9975 37.8949C40.0326 37.8597 40.0803 37.84 40.1301 37.84H41.9201C41.9698 37.84 42.0175 37.8597 42.0526 37.8949C42.0878 37.9301 42.1076 37.9777 42.1076 38.0275V39.8175C42.1069 39.867 42.087 39.9143 42.0519 39.9493C42.0169 39.9844 41.9696 40.0043 41.9201 40.005H40.1301C40.0805 40.0043 40.0332 39.9844 39.9982 39.9493C39.9632 39.9143 39.9432 39.867 39.9426 39.8175ZM43.5226 39.8175V38.0275C43.5226 37.9777 43.5423 37.9301 43.5775 37.8949C43.6126 37.8597 43.6603 37.84 43.7101 37.84H48.1851C48.3463 37.8403 48.5054 37.8765 48.6508 37.946C48.7963 38.0154 48.9244 38.1165 49.026 38.2417C49.1275 38.3669 49.1998 38.5132 49.2377 38.6699C49.2756 38.8265 49.2781 38.9897 49.2451 39.1475C49.1869 39.3948 49.0457 39.6148 48.8452 39.7708C48.6446 39.9268 48.3966 40.0094 48.1426 40.005H43.7101C43.6605 40.0043 43.6132 39.9844 43.5782 39.9493C43.5432 39.9143 43.5232 39.867 43.5226 39.8175Z" fill="black"/>
<path d="M4.07794 47.6C4.14754 47.7669 4.26698 47.9082 4.41993 48.0046C4.57288 48.101 4.75188 48.1478 4.93244 48.1386C5.11301 48.1294 5.28632 48.0646 5.42869 47.9532C5.57106 47.8417 5.67553 47.689 5.72782 47.516C5.7801 47.3429 5.77765 47.1579 5.7208 46.9863C5.66395 46.8146 5.55548 46.6648 5.41021 46.5571C5.26494 46.4495 5.08997 46.3894 4.90922 46.385C4.72848 46.3806 4.55078 46.4321 4.40044 46.5325C4.23238 46.6464 4.10862 46.8147 4.0499 47.0091C3.99118 47.2034 4.00108 47.4121 4.07794 47.6Z" fill="black"/>
</svg>
