<svg width="44" height="56" viewBox="0 0 44 56" fill="none" xmlns="http://www.w3.org/2000/svg">
<path d="M43.5 6.84002C43.48 7.04502 43.45 7.24752 43.4425 7.45252C43.3441 9.94879 43.0937 12.4367 42.6925 14.9025C42.1495 18.2189 41.3794 21.4942 40.3875 24.705C40.4299 24.7294 40.4743 24.7503 40.52 24.7675C40.8152 24.8389 41.0738 25.0166 41.2462 25.2665C41.4187 25.5165 41.4931 25.8212 41.455 26.1225C41.3775 27.3725 41.2825 28.6225 41.205 29.86C41.0517 32.0267 40.9 34.1892 40.75 36.3475C40.62 38.2325 40.4892 40.1167 40.3575 42C40.3578 42.1565 40.3075 42.3088 40.2143 42.4345C40.1211 42.5601 39.9898 42.6524 39.84 42.6975C39.7019 42.7484 39.5507 42.7513 39.4106 42.706C39.2705 42.6607 39.1497 42.5697 39.0675 42.4475C38.9645 42.2909 38.9098 42.1075 38.91 41.92C39.02 40.185 39.16 38.4525 39.27 36.7175C39.425 34.4959 39.5792 32.2734 39.7325 30.05C39.8025 29.05 39.8734 28.05 39.945 27.05C39.945 26.9125 39.9625 26.775 39.975 26.59C39.8225 26.665 39.7025 26.725 39.58 26.78C38.83 27.1225 38.1 27.48 37.3475 27.8025C36.5949 28.1472 35.7703 28.3056 34.9435 28.2643C34.1167 28.2229 33.312 27.9831 32.5975 27.565C32.37 27.44 32.1525 27.3 31.93 27.165C31.4476 26.8474 30.8827 26.6781 30.305 26.6781C29.7274 26.6781 29.1625 26.8474 28.68 27.165C27.9412 27.6622 27.1123 28.0104 26.24 28.19C25.0412 28.4092 23.8035 28.1928 22.75 27.58C22.515 27.4475 22.2875 27.305 22.055 27.1675C20.9775 26.53 19.9125 26.555 18.805 27.1525C18.1277 27.5525 17.4073 27.8745 16.6575 28.1125C16.0232 28.2849 15.3601 28.3252 14.7095 28.231C14.0589 28.1369 13.4345 27.9102 12.8751 27.565C12.6501 27.435 12.4276 27.3 12.2051 27.1675C11.7246 26.8532 11.1629 26.6859 10.5888 26.6859C10.0147 26.6859 9.45301 26.8532 8.97255 27.1675C8.23302 27.6467 7.40074 27.9644 6.53005 28.1C5.23344 28.2962 3.9085 28.0515 2.76755 27.405C2.46755 27.235 2.17255 27.0525 1.81755 26.8425C1.85755 27.48 1.89505 28.06 1.93505 28.6425L2.45255 35.9675L2.97005 43.2925C3.11755 45.415 3.29005 47.5425 3.40505 49.66C3.47755 51.03 3.90505 52.175 5.09255 52.96C5.66827 53.3486 6.34796 53.5543 7.04255 53.55C16.2709 53.55 25.5 53.55 34.73 53.55C35.665 53.5405 36.5604 53.1718 37.231 52.5203C37.9016 51.8687 38.296 50.9843 38.3325 50.05C38.39 48.9825 38.4725 47.9175 38.5525 46.85C38.59 46.35 38.8675 46.0725 39.2625 46.1C39.3724 46.1092 39.4792 46.1406 39.5765 46.1925C39.6738 46.2444 39.7595 46.3155 39.8283 46.4017C39.8971 46.4878 39.9476 46.5871 39.9767 46.6934C40.0058 46.7997 40.0129 46.9109 39.9975 47.02C39.9225 48.0375 39.8425 49.0525 39.7775 50.07C39.7381 50.8593 39.5184 51.629 39.135 52.32C38.7182 53.105 38.1131 53.7742 37.374 54.2677C36.6349 54.7612 35.7848 55.0635 34.9 55.1475C34.8428 55.1601 34.7867 55.1777 34.7325 55.2H7.08005C7.01644 55.1771 6.95128 55.1587 6.88505 55.145C5.69164 55.0234 4.57301 54.5067 3.70663 53.677C2.84024 52.8473 2.2757 51.7521 2.10255 50.565C1.95505 49.48 1.92255 48.375 1.85255 47.28C1.67755 44.85 1.50422 42.4184 1.33255 39.985C1.17422 37.7917 1.02005 35.5992 0.870053 33.4075C0.720053 31.2742 0.573386 29.1417 0.430052 27.01C0.401685 26.7721 0.424702 26.5308 0.497552 26.3025C0.610319 26.0164 0.626991 25.7014 0.545052 25.405C0.497811 25.1902 0.466889 24.972 0.452551 24.7525C0.347552 23.45 0.702552 22.3025 1.65005 21.375C2.42352 20.6758 3.34342 20.1582 4.34255 19.86C4.57255 19.78 4.80505 19.705 5.06755 19.61C4.36755 18.88 3.63255 18.335 2.60255 18.36C2.43632 18.3619 2.27308 18.3157 2.13248 18.227C1.99188 18.1383 1.87991 18.0109 1.81005 17.86C1.73092 17.717 1.69022 17.556 1.69193 17.3925C1.69365 17.2291 1.73771 17.069 1.81982 16.9277C1.90193 16.7864 2.01928 16.6688 2.16042 16.5864C2.30155 16.504 2.46164 16.4596 2.62505 16.4575C4.01505 16.405 5.12505 17.0275 6.10755 17.9425L6.37505 18.1925C5.94005 16.8425 6.08005 15.6525 6.85005 14.5475C6.90213 14.4379 6.9093 14.3123 6.87005 14.1975C6.66902 13.5882 6.59219 12.9447 6.64411 12.3052C6.69604 11.6656 6.87566 11.043 7.17236 10.4741C7.46906 9.90516 7.87681 9.40149 8.37152 8.99286C8.86622 8.58423 9.43783 8.27894 10.0526 8.09502C10.1073 8.07707 10.1608 8.05535 10.2126 8.03002C10.2126 7.96252 10.2126 7.91252 10.2126 7.86252C10.4051 5.95752 11.3901 4.66502 13.1901 3.99252C13.3105 3.92442 13.4 3.81249 13.4401 3.68002C13.5941 3.20582 13.8464 2.76943 14.1805 2.39937C14.5146 2.0293 14.923 1.73388 15.3791 1.53239C15.8352 1.3309 16.3286 1.22788 16.8272 1.23006C17.3258 1.23224 17.8183 1.33956 18.2725 1.54502C18.4123 1.59993 18.5677 1.59993 18.7075 1.54502C19.1349 1.34024 19.6015 1.23056 20.0753 1.22353C20.5491 1.2165 21.0188 1.31229 21.452 1.5043C21.8852 1.69631 22.2716 1.97997 22.5846 2.33573C22.8976 2.69149 23.1298 3.11089 23.265 3.56502C23.2832 3.66361 23.3306 3.75446 23.401 3.82579C23.4714 3.89712 23.5617 3.94563 23.66 3.96502C24.4229 4.16626 25.1183 4.56722 25.6746 5.12661C26.2309 5.686 26.628 6.38359 26.825 7.14752C26.8462 7.23214 26.8859 7.31101 26.9413 7.37845C26.9966 7.44589 27.0662 7.50022 27.145 7.53752C28.0755 8.02022 28.8381 8.77323 29.3325 9.69752C29.5825 10.1475 29.7475 10.6325 29.9625 11.1275C30.0175 11.015 30.07 10.9125 30.12 10.8075C30.6025 9.80752 31.0675 8.80752 31.57 7.80752C32.44 6.09502 33.385 4.42752 34.685 2.99252C35.495 2.10002 36.4125 1.35752 37.59 0.992522C37.8925 0.902522 38.2075 0.845022 38.515 0.772522H39.115C39.615 0.937522 40.17 1.02252 40.6275 1.27252C42.0825 2.07752 42.8275 3.42252 43.2425 4.97502C43.365 5.44002 43.4125 5.92752 43.4925 6.40502L43.5 6.84002ZM25.1475 27.15C25.21 27.1538 25.2726 27.1538 25.335 27.15C26.015 27.075 26.565 26.705 27.1275 26.3625C28.3796 25.5987 29.8813 25.3564 31.31 25.6875C32.095 25.85 32.77 26.2625 33.465 26.635C33.9157 26.8891 34.4215 27.0294 34.9386 27.0438C35.4557 27.0582 35.9685 26.9462 36.4325 26.7175C37.0475 26.4325 37.6575 26.1375 38.28 25.865C38.3678 25.8334 38.4464 25.7806 38.5088 25.7112C38.5712 25.6419 38.6154 25.5581 38.6375 25.4675C39.23 23.285 39.8875 21.1125 40.41 18.9125C41.0717 16.119 41.5048 13.2763 41.705 10.4125C41.7975 9.11752 41.8475 7.82002 41.8875 6.52252C41.9175 5.87076 41.8094 5.22003 41.5703 4.61297C41.3312 4.00592 40.9665 3.45626 40.5 3.00002C40.198 2.66848 39.7984 2.44142 39.359 2.35156C38.9196 2.2617 38.463 2.31368 38.055 2.50002C37.3329 2.80187 36.6891 3.26443 36.1725 3.85252C35.17 4.95435 34.3283 6.19245 33.6725 7.53002C32.6525 9.53002 31.7275 11.5775 30.6925 13.57C29.2454 16.2825 27.9834 19.0898 26.915 21.9725C26.2975 23.68 25.75 25.3975 25.1475 27.15ZM21.47 5.35752C21.51 4.97252 21.545 4.63752 21.585 4.30252C21.6286 4.00171 21.5762 3.69482 21.4352 3.42552C21.2943 3.15622 21.072 2.93822 20.8 2.80252C20.5346 2.66956 20.2335 2.62525 19.941 2.6761C19.6485 2.72695 19.38 2.87028 19.175 3.08502C18.96 3.29502 18.76 3.51502 18.5375 3.74752C18.2575 3.49752 18.015 3.26252 17.7525 3.05002C17.5129 2.83314 17.2124 2.69522 16.8918 2.65497C16.5711 2.61472 16.2458 2.67409 15.96 2.82502C15.6674 2.95614 15.4201 3.1709 15.2493 3.44226C15.0785 3.71363 14.9918 4.02947 15 4.35002C15 4.65752 15 4.96502 15 5.29002C14.7076 5.31252 14.45 5.33502 14.1925 5.35002C13.8164 5.36336 13.4481 5.46146 13.1152 5.637C12.7822 5.81254 12.4932 6.06099 12.2697 6.36382C12.0462 6.66665 11.8939 7.01604 11.8243 7.38593C11.7547 7.75581 11.7695 8.13665 11.8676 8.50002C11.9726 8.85752 12.0401 9.22752 12.1426 9.68002C11.6851 9.68002 11.2775 9.66002 10.8726 9.68002C10.3564 9.70702 9.85586 9.86614 9.41887 10.1421C8.98188 10.4181 8.62311 10.8017 8.37694 11.2562C8.13076 11.7106 8.00545 12.2207 8.013 12.7375C8.02055 13.2543 8.16071 13.7605 8.42005 14.2075L8.81505 14.8925C8.41652 15.2654 8.0471 15.6683 7.71005 16.0975C7.5623 16.3336 7.47538 16.6026 7.45705 16.8806C7.43873 17.1585 7.48958 17.4366 7.60505 17.69C7.75505 17.6075 7.87505 17.5375 7.99755 17.4725C8.12005 17.4075 8.26005 17.3325 8.39505 17.27C9.80755 16.6025 11.205 16.58 12.585 17.3625C13.424 17.8722 14.16 18.5344 14.755 19.315C14.8175 19.3925 14.885 19.465 15.005 19.5925C15.0274 18.3768 15.4217 17.1972 16.135 16.2125C16.405 15.8175 16.7025 15.44 16.9925 15.06C17.36 14.58 17.3426 14.49 16.81 14.215C16.5164 14.0702 16.2603 13.8595 16.0617 13.5993C15.863 13.3391 15.7273 13.0364 15.6651 12.715L15.5751 12.3075C15.4945 12.0172 15.4758 11.7132 15.52 11.4152C15.5642 11.1172 15.6705 10.8317 15.8318 10.5773C15.9932 10.3229 16.2061 10.1051 16.4569 9.93807C16.7076 9.77103 16.9906 9.65843 17.2875 9.60752C19.2775 9.17086 21.2675 8.73669 23.2575 8.30502C23.8499 8.17986 24.4676 8.29014 24.98 8.61252C25.845 9.11252 26.325 11.0225 25.8175 11.885C25.7225 12.0475 25.62 12.2075 25.51 12.3625C25.285 12.685 25.3225 12.8625 25.6625 13.06C25.8025 13.135 25.9475 13.2025 26.085 13.285C26.715 13.66 27.335 14.035 27.9825 14.425C28.3031 13.9733 28.5044 13.4478 28.5675 12.8975C28.684 12.0065 28.4819 11.103 27.9971 10.3465C27.5122 9.58992 26.7757 9.02894 25.9175 8.76252C25.4175 8.58752 25.4175 8.58752 25.3775 8.06002V8.03002C25.3541 7.34764 25.0791 6.69802 24.6057 6.20607C24.1322 5.71413 23.4935 5.41458 22.8125 5.36502C22.38 5.32502 21.95 5.35752 21.47 5.35752ZM15.5201 27.0475C15.714 26.0963 15.7318 25.1176 15.5725 24.16C15.21 22.055 14.0476 20.41 12.5176 18.9975C11.5176 18.0875 10.5176 18.0325 9.35505 18.7475C8.77914 19.1121 8.23921 19.5307 7.74255 19.9975C6.98421 20.6923 6.07815 21.206 5.09255 21.5C4.36934 21.7235 3.67206 22.0235 3.01255 22.395C1.98005 22.985 1.60505 23.955 1.85005 25.11C1.86418 25.1912 1.90671 25.2648 1.97005 25.3175C2.55005 25.6475 3.14505 25.955 3.72005 26.29C4.35232 26.6803 5.07956 26.8895 5.82255 26.895C6.68505 26.895 7.42255 26.55 8.14755 26.115C9.27398 25.4413 10.6125 25.2156 11.8975 25.4825C12.7525 25.64 13.475 26.0775 14.2125 26.5025C14.6369 26.7107 15.0735 26.8927 15.5201 27.0475ZM18.935 13.71C19.1551 14.675 18.74 15.4 18.165 16.085C17.8859 16.4239 17.6255 16.7777 17.385 17.145C17.0854 17.5537 16.8698 18.0179 16.7509 18.5106C16.6321 19.0032 16.6122 19.5146 16.6925 20.015C16.8776 21.065 17.1275 22.105 17.36 23.1475C17.3759 23.1906 17.4018 23.2293 17.4358 23.2602C17.4697 23.2911 17.5107 23.3133 17.555 23.325C18.3157 23.4463 19.0911 23.4413 19.85 23.31C20.7987 23.098 21.6901 22.6826 22.4625 22.0925C23.525 21.3425 24.6325 20.6675 25.9025 20.315C25.9878 20.2953 26.0664 20.2535 26.1305 20.1938C26.1945 20.1341 26.2418 20.0587 26.2675 19.975C26.615 19.125 26.9175 18.2525 27.34 17.44C27.6375 16.87 27.5125 16.5075 27.115 16.0825C26.4689 15.4404 25.7138 14.9181 24.885 14.54C24.135 14.1575 23.505 13.6625 23.305 12.79C23.2593 12.7862 23.2133 12.7862 23.1675 12.79L18.935 13.71ZM24.31 10.675C24.31 10.0525 23.7425 9.64502 23.06 9.79502C21.3534 10.1734 19.6517 10.555 17.955 10.94C17.8088 10.9727 17.6682 11.0266 17.5375 11.1C17.331 11.2143 17.1715 11.3979 17.0873 11.6184C17.0031 11.839 16.9997 12.0822 17.0775 12.305C17.2525 12.74 17.6551 12.9175 18.1925 12.805L18.835 12.665L23.4775 11.6275C24.0125 11.5 24.3125 11.1525 24.31 10.675ZM25.4625 21.7225C25.31 21.8125 25.2125 21.8625 25.1275 21.9225C24.6075 22.2925 24.075 22.6475 23.57 23.035C22.1825 24.1 20.6725 24.8325 18.89 24.8825C18.505 24.8825 18.12 24.8825 17.725 24.8825C17.7825 25.1825 17.845 25.4925 17.9125 25.84C18.8758 25.3921 19.9471 25.2291 21 25.37C22.0725 25.5125 22.965 26.0475 23.8275 26.6575C24.37 25.0125 24.905 23.4025 25.4625 21.7225Z" fill="black"/>
<path d="M11.4302 49.6101H6.30519C6.22519 49.6101 6.14519 49.6101 6.05519 49.6101C5.82777 49.6101 5.60966 49.5198 5.44885 49.359C5.28804 49.1982 5.19769 48.9801 5.19769 48.7526C5.19769 48.5252 5.28804 48.3071 5.44885 48.1463C5.60966 47.9855 5.82777 47.8951 6.05519 47.8951C6.13519 47.8951 6.21519 47.8951 6.30519 47.8951H16.5552C17.1952 47.8951 17.6427 48.2451 17.6477 48.7501C17.6527 49.2551 17.2027 49.6151 16.5627 49.6151L11.4302 49.6101Z" fill="black"/>
<path d="M10.4398 44.4702C11.8498 44.4702 13.2598 44.4702 14.6673 44.4702C14.9244 44.4747 15.1752 44.55 15.3923 44.6877C15.4992 44.7553 15.5872 44.8489 15.6482 44.9597C15.7092 45.0705 15.7412 45.1949 15.7412 45.3214C15.7412 45.4479 15.7092 45.5724 15.6482 45.6832C15.5872 45.794 15.4992 45.8875 15.3923 45.9552C15.1577 46.102 14.8866 46.1799 14.6098 46.1802C11.8423 46.1952 9.07231 46.1802 6.30231 46.1802C6.14292 46.1826 5.98395 46.1633 5.82981 46.1227C5.64334 46.0779 5.47807 45.9701 5.36191 45.8175C5.24576 45.6649 5.18585 45.4768 5.19231 45.2852C5.20004 45.0983 5.2699 44.9194 5.39081 44.7768C5.51172 44.6341 5.67677 44.5359 5.85981 44.4977C5.99514 44.4672 6.13361 44.453 6.27231 44.4552L10.4398 44.4702Z" fill="black"/>
<path d="M9.49982 41.0501C10.5773 41.0501 11.6573 41.0501 12.7348 41.0501C12.874 41.0479 13.0127 41.0647 13.1473 41.1001C13.3327 41.1402 13.4988 41.2426 13.6179 41.3902C13.7369 41.5378 13.8019 41.7217 13.8019 41.9114C13.8019 42.101 13.7369 42.285 13.6179 42.4326C13.4988 42.5802 13.3327 42.6825 13.1473 42.7226C13.0027 42.7589 12.854 42.7765 12.7048 42.7751H6.20482C5.59732 42.7751 5.18482 42.4201 5.18232 41.9126C5.17982 41.4051 5.59482 41.0476 6.19732 41.0451L9.49982 41.0501Z" fill="black"/>
<path d="M21.4425 49.6101C21.1225 49.6101 20.8025 49.6101 20.485 49.6101C20.3654 49.6213 20.2449 49.6074 20.1311 49.5693C20.0172 49.5312 19.9126 49.4698 19.8238 49.389C19.7351 49.3081 19.6642 49.2097 19.6157 49.0999C19.5672 48.9901 19.5421 48.8714 19.5421 48.7513C19.5421 48.6313 19.5672 48.5126 19.6157 48.4028C19.6642 48.293 19.7351 48.1945 19.8238 48.1137C19.9126 48.0328 20.0172 47.9714 20.1311 47.9334C20.2449 47.8953 20.3654 47.8814 20.485 47.8926C21.1325 47.8926 21.7825 47.8926 22.43 47.8926C22.5503 47.8796 22.6721 47.892 22.7874 47.9292C22.9026 47.9663 23.0087 48.0274 23.0989 48.1082C23.189 48.1891 23.261 48.2881 23.3104 48.3987C23.3597 48.5093 23.3852 48.629 23.3852 48.7501C23.3852 48.8712 23.3597 48.9909 23.3104 49.1015C23.261 49.2121 23.189 49.311 23.0989 49.3919C23.0087 49.4728 22.9026 49.5338 22.7874 49.571C22.6721 49.6081 22.5503 49.6206 22.43 49.6076C22.1 49.6151 21.77 49.6101 21.4425 49.6101Z" fill="black"/>
<path d="M40.27 44.3801C40.272 44.4849 40.253 44.589 40.2141 44.6863C40.1753 44.7836 40.1173 44.8722 40.0437 44.9467C39.9701 45.0213 39.8822 45.0803 39.7854 45.1204C39.6886 45.1605 39.5848 45.1808 39.48 45.1801C39.3743 45.1818 39.2693 45.1626 39.171 45.1236C39.0727 45.0847 38.983 45.0268 38.9071 44.9532C38.8312 44.8796 38.7705 44.7918 38.7285 44.6947C38.6866 44.5977 38.6641 44.4933 38.6625 44.3876C38.6608 44.2819 38.68 44.1769 38.719 44.0786C38.7579 43.9803 38.8158 43.8907 38.8894 43.8148C38.963 43.7388 39.0508 43.6782 39.1479 43.6362C39.2449 43.5942 39.3493 43.5718 39.455 43.5701C39.5626 43.5663 39.6699 43.5846 39.7701 43.6239C39.8704 43.6632 39.9616 43.7227 40.038 43.7986C40.1143 43.8745 40.1743 43.9653 40.2142 44.0653C40.2542 44.1653 40.2731 44.2725 40.27 44.3801Z" fill="black"/>
<path d="M35.8275 16.7651C35.581 16.7313 35.3365 16.6846 35.095 16.6251C34.245 16.3751 33.595 16.6751 33.25 17.4901C33.19 17.667 33.0683 17.8165 32.9072 17.911C32.7461 18.0056 32.5563 18.039 32.3725 18.0051C32.2017 17.9865 32.0424 17.9098 31.9214 17.7878C31.8003 17.6658 31.7248 17.506 31.7075 17.3351C31.6968 17.1565 31.7267 16.9779 31.795 16.8126C32.0656 16.1223 32.5842 15.5579 33.2492 15.23C33.9142 14.9021 34.6777 14.8344 35.39 15.0401C36.345 15.3126 36.91 15.0551 37.3225 14.1551C37.4048 13.9665 37.5564 13.8168 37.7459 13.7368C37.9354 13.6568 38.1484 13.6526 38.3408 13.7252C38.5333 13.7977 38.6907 13.9413 38.7803 14.1265C38.8699 14.3116 38.885 14.5241 38.8225 14.7201C38.5 15.8876 37.2675 16.7651 35.8275 16.7651Z" fill="black"/>
<path d="M34.0776 23.3327C33.7551 23.2702 33.4301 23.2202 33.1151 23.1377C32.7775 23.0328 32.4128 23.0592 32.0939 23.2117C31.775 23.3642 31.5254 23.6316 31.3951 23.9602C31.1776 24.4752 30.7501 24.6827 30.3001 24.4927C29.8501 24.3027 29.7076 23.8602 29.9051 23.3577C30.179 22.6696 30.6977 22.1071 31.3614 21.7784C32.0251 21.4498 32.7869 21.3783 33.5001 21.5777C34.4626 21.8477 35.0126 21.5977 35.4351 20.6952C35.4757 20.598 35.5353 20.51 35.6103 20.4361C35.6853 20.3622 35.7743 20.304 35.872 20.2649C35.9698 20.2258 36.0743 20.2066 36.1796 20.2084C36.2849 20.2101 36.3887 20.2328 36.4851 20.2752C36.6805 20.3584 36.8348 20.5156 36.9145 20.7124C36.9942 20.9092 36.9926 21.1296 36.9101 21.3252C36.6975 21.9077 36.3127 22.4118 35.8068 22.7704C35.3008 23.129 34.6977 23.3251 34.0776 23.3327Z" fill="black"/>
<path d="M36.3649 8.61015C36.6149 8.65265 36.8649 8.67765 37.0974 8.74265C37.8124 8.93515 38.2099 8.75765 38.5199 8.08515C38.588 7.91681 38.7118 7.77688 38.8705 7.68864C39.0293 7.6004 39.2134 7.56917 39.3924 7.60015C39.5631 7.62003 39.7218 7.69791 39.8419 7.82078C39.9621 7.94365 40.0364 8.10406 40.0524 8.27515C40.0616 8.47337 40.0248 8.67104 39.9449 8.85265C39.6962 9.42606 39.2513 9.89205 38.69 10.167C38.1287 10.4419 37.4878 10.5077 36.8824 10.3527C36.0274 10.1277 35.7449 10.2552 35.3474 11.0327C35.2526 11.2145 35.092 11.3533 34.8984 11.4208C34.7048 11.4883 34.4927 11.4793 34.3054 11.3957C34.1182 11.3121 33.9699 11.1602 33.8908 10.9711C33.8117 10.7819 33.8078 10.5696 33.8799 10.3777C34.065 9.86518 34.4021 9.42139 34.8462 9.10557C35.2902 8.78974 35.82 8.61691 36.3649 8.61015Z" fill="black"/>
</svg>
