<svg width="26" height="25" viewBox="0 0 26 25" fill="none" xmlns="http://www.w3.org/2000/svg">
<path d="M4.54014 0H20.4625C20.5162 0.0177553 20.571 0.0319458 20.6265 0.0424791C22.7783 0.335438 24.3486 1.72699 24.8744 3.82751C24.933 4.06334 24.9653 4.30357 25.0107 4.54233V20.4647C24.942 20.8717 24.8491 21.2743 24.7324 21.6702C24 23.737 22.2012 24.9982 19.9952 24.9997C15.0081 24.9997 10.0199 24.9997 5.03084 24.9997C4.64001 25.004 4.24991 24.9647 3.86779 24.8825C2.76914 24.6497 1.7848 24.0441 1.08161 23.1685C0.378421 22.2928 -0.000342938 21.201 0.00952118 20.078C-0.00317373 15.0244 -0.00317373 9.97087 0.00952118 4.91732C0.01831 2.59122 1.5373 0.707497 3.80774 0.14648C4.0465 0.0820286 4.29552 0.0468735 4.54014 0ZM9.57904 8.45627C9.61211 8.47338 9.64637 8.48807 9.68157 8.50021C10.3041 8.64669 10.5355 8.86788 10.5839 9.50946C10.6366 10.1803 10.6278 10.8585 10.622 11.5323C10.6107 11.7517 10.5678 11.9683 10.4945 12.1754C10.3642 12.5987 10.0903 12.691 9.77385 12.3849C9.50248 12.1177 9.25949 11.8232 9.04878 11.506C8.4557 10.6293 7.95778 9.69192 7.56348 8.70968C7.51789 8.56445 7.42767 8.43729 7.30564 8.3463C7.18362 8.25531 7.03601 8.20512 6.88381 8.20286C6.06938 8.18968 5.25496 8.18968 4.44199 8.20286C3.93664 8.21604 3.80481 8.45041 4.02306 8.90743C4.38047 9.66765 4.73495 10.4323 5.12605 11.1691C5.93169 12.669 6.79592 14.1324 7.96043 15.3921C8.83931 16.3369 9.88664 17.0034 11.1669 17.2143C11.8583 17.3256 12.5745 17.2963 13.2806 17.3227C13.7698 17.3417 13.887 17.2157 13.9295 16.7236C13.9676 16.2841 13.9866 15.8447 14.2825 15.477C14.3142 15.4262 14.3559 15.3824 14.4052 15.3483C14.4544 15.3142 14.5101 15.2906 14.5688 15.2788C14.6275 15.267 14.688 15.2673 14.7466 15.2797C14.8052 15.2922 14.8606 15.3164 14.9094 15.3511C15.0879 15.4637 15.2518 15.598 15.3972 15.751C15.7546 16.1186 16.0857 16.5112 16.446 16.8759C16.8327 17.267 17.2853 17.5483 17.861 17.5453C18.6022 17.5453 19.3429 17.5361 20.0831 17.5175C20.2617 17.5145 20.4388 17.4854 20.6089 17.4311C21.022 17.2846 21.148 16.9916 20.9385 16.6064C20.7904 16.3171 20.6074 16.047 20.3936 15.8022C19.7916 15.1519 19.1573 14.5322 18.5451 13.898C18.1481 13.482 18.1247 13.2227 18.4572 12.754C18.8278 12.2281 19.2394 11.7286 19.5997 11.2013C20.0604 10.5527 20.4867 9.88043 20.877 9.1872C21.2388 8.49582 21.0132 8.20286 20.2442 8.20286C19.3815 8.21604 18.5187 8.22483 17.6559 8.23362C17.1652 8.23362 17.0817 8.28782 16.8957 8.75216C16.4995 9.76814 15.9779 10.7306 15.343 11.6173C15.127 11.9101 14.8816 12.18 14.6106 12.4229C14.3997 12.6134 14.199 12.5694 14.0789 12.3028C13.9892 12.1128 13.9393 11.9064 13.9324 11.6964C13.9324 10.964 13.9485 10.2316 13.9558 9.4992C13.9691 9.21503 13.9647 8.93032 13.9427 8.64669C13.8797 8.10618 13.7171 7.9392 13.1824 7.85863C12.2721 7.72163 11.3463 7.72163 10.4359 7.85863C10.0727 7.92308 9.74749 8.06517 9.5805 8.45627H9.57904Z" fill="#467EE6"/>
</svg>
