<?xml version="1.0" encoding="UTF-8" standalone="no"?><!-- Generator: Gravit.io --><svg xmlns="http://www.w3.org/2000/svg" xmlns:xlink="http://www.w3.org/1999/xlink" style="isolation:isolate" viewBox="0 0 27 25" width="27pt" height="25pt"><defs><clipPath id="_clipPath_2HWweRqqCzVVHCmwv1bPnIw8Kd6f74AF"><rect width="27" height="25"/></clipPath></defs><g clip-path="url(#_clipPath_2HWweRqqCzVVHCmwv1bPnIw8Kd6f74AF)"><path d=" M 13.559 13.933 C 14.92 13.931 16.249 13.527 17.38 12.77 C 18.51 12.013 19.391 10.939 19.911 9.682 C 20.431 8.425 20.567 7.042 20.302 5.708 C 20.036 4.374 19.381 3.148 18.42 2.186 C 17.458 1.224 16.233 0.568 14.899 0.302 C 13.565 0.036 12.182 0.171 10.924 0.69 C 9.667 1.21 8.592 2.09 7.835 3.22 C 7.077 4.35 6.672 5.679 6.67 7.04 C 6.67 8.867 7.396 10.62 8.688 11.912 C 9.98 13.205 11.732 13.931 13.559 13.933 Z  M 13.559 1.443 C 14.667 1.443 15.749 1.771 16.67 2.386 C 17.591 3.001 18.308 3.875 18.732 4.898 C 19.156 5.921 19.267 7.047 19.051 8.133 C 18.835 9.219 18.302 10.216 17.519 10.999 C 16.736 11.782 15.738 12.315 14.652 12.531 C 13.566 12.747 12.441 12.636 11.418 12.212 C 10.395 11.789 9.521 11.071 8.906 10.15 C 8.291 9.229 7.962 8.147 7.963 7.04 C 7.967 5.557 8.558 4.136 9.607 3.087 C 10.655 2.038 12.076 1.447 13.559 1.443 Z  M 1.635 24.694 L 25.569 24.694 C 25.688 24.695 25.807 24.672 25.918 24.626 C 26.029 24.581 26.129 24.514 26.214 24.429 C 26.298 24.344 26.365 24.244 26.41 24.133 C 26.456 24.022 26.479 23.904 26.478 23.784 C 26.475 21.491 25.563 19.294 23.941 17.673 C 22.32 16.052 20.122 15.14 17.83 15.138 L 9.374 15.138 C 7.082 15.14 4.884 16.052 3.263 17.673 C 1.642 19.294 0.73 21.491 0.727 23.784 C 0.726 23.904 0.748 24.022 0.794 24.133 C 0.839 24.244 0.906 24.344 0.991 24.429 C 1.075 24.514 1.176 24.581 1.286 24.626 C 1.397 24.672 1.516 24.695 1.635 24.694 Z  M 9.164 16.528 L 18.04 16.528 C 21.68 16.528 24.676 19.518 25.142 23.391 L 2.063 23.391 C 2.528 19.543 5.525 16.528 9.164 16.528 Z " fill="rgb(52,180,173)"/></g></svg>