<svg width="27" height="25" viewBox="0 0 27 25" fill="none" xmlns="http://www.w3.org/2000/svg">
<path d="M13.5593 13.9327C14.9197 13.9312 16.249 13.5266 17.3796 12.77C18.5101 12.0134 19.391 10.9388 19.911 9.68179C20.4311 8.4248 20.567 7.04188 20.3015 5.7077C20.036 4.37353 19.3811 3.14797 18.4195 2.18581C17.4578 1.22365 16.2326 0.568074 14.8986 0.301877C13.5646 0.0356805 12.1816 0.17081 10.9243 0.690197C9.66704 1.20958 8.59189 2.08993 7.83469 3.22003C7.07748 4.35013 6.67218 5.67929 6.66997 7.03962C6.6703 8.86703 7.39613 10.6196 8.68796 11.9121C9.97979 13.2046 11.7319 13.9314 13.5593 13.9327ZM13.5593 1.44293C14.6666 1.44269 15.7491 1.77082 16.6698 2.38584C17.5906 3.00085 18.3083 3.87511 18.7321 4.89805C19.156 5.92099 19.267 7.04664 19.051 8.13265C18.835 9.21866 18.3019 10.2162 17.5189 10.9992C16.7359 11.7821 15.7384 12.3153 14.6524 12.5313C13.5664 12.7472 12.4407 12.6363 11.4178 12.2124C10.3948 11.7886 9.52057 11.0709 8.90556 10.1501C8.29055 9.22936 7.96241 8.14688 7.96266 7.03962C7.9669 5.55659 8.55792 4.13552 9.60658 3.08686C10.6552 2.03819 12.0763 1.44718 13.5593 1.44293ZM1.63543 24.6939H25.5687C25.6884 24.6948 25.807 24.6718 25.9177 24.6263C26.0285 24.5808 26.129 24.5138 26.2136 24.4291C26.2982 24.3444 26.3651 24.2438 26.4104 24.133C26.4557 24.0222 26.4785 23.9035 26.4775 23.7838C26.4746 21.4914 25.5625 19.2937 23.9414 17.6728C22.3202 16.0518 20.1224 15.1401 17.8299 15.1375H9.37421C7.08174 15.1401 4.88389 16.0518 3.26275 17.6728C1.64161 19.2937 0.729543 21.4914 0.726593 23.7838C0.725605 23.9035 0.74843 24.0222 0.793738 24.133C0.839046 24.2438 0.905934 24.3444 0.990508 24.4291C1.07508 24.5138 1.17566 24.5808 1.28638 24.6263C1.39709 24.6718 1.51575 24.6948 1.63543 24.6939ZM9.16371 16.528H18.0404C21.6795 16.528 24.6759 19.5182 25.1415 23.3913H2.06262C2.52818 19.543 5.52463 16.528 9.16371 16.528Z" fill="black"/>
</svg>
