<?xml version="1.0" encoding="UTF-8" standalone="no"?><!-- Generator: Gravit.io --><svg xmlns="http://www.w3.org/2000/svg" xmlns:xlink="http://www.w3.org/1999/xlink" style="isolation:isolate" viewBox="0 0 21 17" width="21pt" height="17pt"><defs><clipPath id="_clipPath_OE4kK3PCRVvYSiIwlbMnC3EQAIBWGBS6"><rect width="21" height="17"/></clipPath></defs><g clip-path="url(#_clipPath_OE4kK3PCRVvYSiIwlbMnC3EQAIBWGBS6)"><path d="M 1.725 0 L 19.275 0 C 20.227 0 21 0.762 21 1.7 L 21 1.7 C 21 2.638 20.227 3.4 19.275 3.4 L 1.725 3.4 C 0.773 3.4 0 2.638 0 1.7 L 0 1.7 C 0 0.762 0.773 0 1.725 0 Z" style="stroke:none;fill:#FFC971;stroke-miterlimit:10;"/><path d="M 1.725 6.8 L 19.275 6.8 C 20.227 6.8 21 7.562 21 8.5 L 21 8.5 C 21 9.439 20.227 10.2 19.275 10.2 L 1.725 10.2 C 0.773 10.2 0 9.439 0 8.5 L 0 8.5 C 0 7.562 0.773 6.8 1.725 6.8 Z" style="stroke:none;fill:#FFC971;stroke-miterlimit:10;"/><path d="M 1.725 13.6 L 19.275 13.6 C 20.227 13.6 21 14.362 21 15.3 L 21 15.3 C 21 16.238 20.227 17 19.275 17 L 1.725 17 C 0.773 17 0 16.238 0 15.3 L 0 15.3 C 0 14.362 0.773 13.6 1.725 13.6 Z" style="stroke:none;fill:#FFC971;stroke-miterlimit:10;"/></g></svg>