<?xml version="1.0" encoding="UTF-8" standalone="no"?><!-- Generator: Gravit.io --><svg xmlns="http://www.w3.org/2000/svg" xmlns:xlink="http://www.w3.org/1999/xlink" style="isolation:isolate" viewBox="0 0 29 26" width="29pt" height="26pt"><defs><clipPath id="_clipPath_BjTibYH0G1hiPQ42HUQ8ZJgS0yWmN83g"><rect width="29" height="26"/></clipPath></defs><g clip-path="url(#_clipPath_BjTibYH0G1hiPQ42HUQ8ZJgS0yWmN83g)"><path d=" M 6.035 25.612 C 5.618 25.613 5.213 25.467 4.892 25.2 C 4.571 24.933 4.354 24.563 4.278 24.152 L 2.395 13.781 C 2.378 13.692 2.334 13.61 2.268 13.547 C 2.203 13.485 2.119 13.444 2.029 13.432 C 2.01 13.431 1.99 13.431 1.971 13.432 C 1.829 13.434 1.69 13.39 1.574 13.308 C 1.051 13.127 0.609 12.767 0.327 12.291 C 0.045 11.815 -0.059 11.254 0.033 10.709 C 0.125 10.163 0.407 9.668 0.83 9.311 C 1.253 8.954 1.788 8.758 2.341 8.759 L 5.553 8.759 L 10.554 1.865 C 10.79 1.454 11.18 1.154 11.637 1.031 C 12.094 0.908 12.582 0.971 12.992 1.207 C 13.403 1.443 13.703 1.833 13.826 2.29 C 13.949 2.747 13.886 3.235 13.65 3.645 C 13.635 3.673 13.617 3.7 13.598 3.724 L 9.795 8.75 L 18.812 8.75 L 15.011 3.729 C 14.992 3.704 14.974 3.678 14.959 3.65 C 14.746 3.241 14.7 2.766 14.83 2.324 C 14.959 1.882 15.255 1.507 15.655 1.277 C 16.055 1.048 16.528 0.983 16.975 1.094 C 17.422 1.206 17.809 1.486 18.054 1.876 L 23.052 8.75 L 26.263 8.75 C 26.816 8.75 27.351 8.946 27.774 9.302 C 28.196 9.659 28.478 10.154 28.571 10.699 C 28.663 11.244 28.559 11.804 28.278 12.28 C 27.997 12.756 27.556 13.117 27.034 13.298 C 26.917 13.381 26.777 13.425 26.634 13.422 C 26.615 13.421 26.596 13.421 26.578 13.422 C 26.487 13.433 26.402 13.474 26.335 13.537 C 26.268 13.6 26.223 13.682 26.206 13.773 L 24.329 24.152 C 24.255 24.564 24.038 24.936 23.717 25.204 C 23.395 25.472 22.991 25.619 22.572 25.618 L 6.035 25.612 L 6.035 25.612 Z  M 3.703 13.428 C 3.713 13.465 3.721 13.503 3.727 13.54 L 5.611 23.905 C 5.629 24.004 5.682 24.094 5.759 24.158 C 5.836 24.223 5.934 24.258 6.035 24.258 L 22.572 24.258 C 22.673 24.258 22.771 24.223 22.848 24.158 C 22.926 24.094 22.978 24.004 22.996 23.905 L 24.88 13.534 C 24.887 13.496 24.894 13.461 24.904 13.423 L 16.519 13.423 C 16.34 13.423 16.168 13.352 16.042 13.226 C 15.915 13.099 15.844 12.928 15.844 12.749 C 15.844 12.57 15.915 12.398 16.042 12.271 C 16.168 12.145 16.34 12.074 16.519 12.074 L 26.266 12.074 C 26.398 12.078 26.53 12.056 26.653 12.009 C 26.777 11.962 26.889 11.89 26.984 11.798 C 27.08 11.706 27.155 11.596 27.207 11.475 C 27.259 11.353 27.285 11.222 27.285 11.09 C 27.285 10.958 27.259 10.827 27.207 10.705 C 27.155 10.584 27.08 10.473 26.984 10.382 C 26.889 10.29 26.777 10.218 26.653 10.171 C 26.53 10.124 26.398 10.102 26.266 10.106 L 2.341 10.106 C 2.086 10.115 1.845 10.223 1.668 10.406 C 1.491 10.59 1.392 10.835 1.392 11.09 C 1.392 11.345 1.491 11.59 1.668 11.774 C 1.845 11.957 2.086 12.065 2.341 12.074 L 12.088 12.074 C 12.268 12.074 12.44 12.145 12.567 12.272 C 12.694 12.399 12.766 12.571 12.766 12.751 C 12.766 12.931 12.694 13.103 12.567 13.23 C 12.44 13.357 12.268 13.428 12.088 13.428 L 3.703 13.428 L 3.703 13.428 Z  M 21.379 8.75 L 16.939 2.642 C 16.922 2.62 16.907 2.596 16.894 2.572 C 16.843 2.47 16.753 2.393 16.645 2.357 C 16.537 2.321 16.419 2.33 16.317 2.381 C 16.215 2.432 16.138 2.522 16.102 2.63 C 16.066 2.738 16.075 2.856 16.126 2.958 L 20.512 8.75 L 21.379 8.75 L 21.379 8.75 Z  M 8.096 8.75 L 12.481 2.958 C 12.525 2.86 12.531 2.749 12.497 2.647 C 12.463 2.545 12.392 2.459 12.298 2.407 C 12.234 2.371 12.163 2.352 12.09 2.353 C 12.014 2.353 11.939 2.374 11.874 2.413 C 11.809 2.452 11.755 2.508 11.718 2.574 C 11.703 2.598 11.69 2.62 11.674 2.642 L 7.228 8.75 L 8.096 8.75 L 8.096 8.75 Z " fill="rgb(175,71,187)"/></g></svg>