<svg width="29" height="26" viewBox="0 0 29 26" fill="none" xmlns="http://www.w3.org/2000/svg">
<path d="M6.03484 25.6122C5.61754 25.6125 5.2133 25.4667 4.89233 25.2C4.57136 24.9333 4.35394 24.5627 4.27783 24.1524L2.39452 13.7812C2.37816 13.6919 2.33403 13.6101 2.26844 13.5474C2.20285 13.4847 2.11915 13.4443 2.02925 13.432C2.00987 13.4308 1.99044 13.4308 1.97106 13.432C1.82882 13.4337 1.68968 13.3904 1.57359 13.3082C1.0508 13.1271 0.609109 12.7666 0.32698 12.2907C0.044851 11.8148 -0.059447 11.2543 0.0326143 10.7088C0.124676 10.1632 0.407135 9.66799 0.829816 9.31102C1.2525 8.95405 1.78803 8.75846 2.34128 8.75901H5.55318L10.5543 1.86469C10.7904 1.4542 11.1799 1.15432 11.6371 1.03101C12.0943 0.907712 12.5818 0.971089 12.9923 1.2072C13.4028 1.44332 13.7027 1.83283 13.826 2.29004C13.9493 2.74726 13.8859 3.23474 13.6498 3.64523C13.6348 3.6731 13.6174 3.69961 13.5978 3.72447L9.79527 8.75034H18.8119L15.0106 3.72942C14.9915 3.70416 14.9742 3.67769 14.9586 3.65018C14.746 3.24128 14.6997 2.766 14.8295 2.32377C14.9592 1.88154 15.255 1.50662 15.6548 1.27743C16.0546 1.04824 16.5276 0.982534 16.9748 1.09406C17.422 1.20559 17.8087 1.48572 18.0541 1.87583L23.0515 8.75034H26.2634C26.8162 8.75005 27.3513 8.94559 27.7737 9.30227C28.196 9.65895 28.4784 10.1537 28.5707 10.6988C28.663 11.2438 28.5593 11.804 28.2779 12.2799C27.9965 12.7557 27.5556 13.1165 27.0335 13.2983C26.9169 13.3813 26.7767 13.4247 26.6336 13.4221C26.615 13.4209 26.5964 13.4209 26.5779 13.4221C26.4868 13.4334 26.4016 13.4735 26.3349 13.5366C26.2681 13.5996 26.2231 13.6822 26.2064 13.7725L24.3293 24.1524C24.2545 24.5638 24.0376 24.9359 23.7165 25.2038C23.3954 25.4718 22.9905 25.6185 22.5723 25.6184L6.03484 25.6122ZM3.7033 13.4283C3.71321 13.4654 3.72064 13.5026 3.72683 13.5397L5.61138 23.9047C5.62938 24.0039 5.68165 24.0935 5.75906 24.158C5.83647 24.2225 5.93408 24.2578 6.03484 24.2576H22.5723C22.6731 24.2578 22.7707 24.2225 22.8481 24.158C22.9255 24.0935 22.9778 24.0039 22.9958 23.9047L24.8803 13.5335C24.8865 13.4964 24.8939 13.4605 24.9038 13.4233H16.5187C16.3397 13.4233 16.1681 13.3522 16.0415 13.2257C15.915 13.0991 15.8439 12.9275 15.8439 12.7485C15.8439 12.5695 15.915 12.3979 16.0415 12.2713C16.1681 12.1448 16.3397 12.0737 16.5187 12.0737H26.2659C26.398 12.0784 26.5297 12.0564 26.6531 12.0091C26.7766 11.9617 26.8892 11.89 26.9844 11.7982C27.0795 11.7064 27.1552 11.5964 27.2068 11.4747C27.2585 11.353 27.2851 11.2221 27.2851 11.0899C27.2851 10.9577 27.2585 10.8269 27.2068 10.7052C27.1552 10.5835 27.0795 10.4734 26.9844 10.3816C26.8892 10.2898 26.7766 10.2181 26.6531 10.1708C26.5297 10.1235 26.398 10.1015 26.2659 10.1062H2.34128C2.08641 10.1152 1.845 10.2228 1.6679 10.4063C1.49079 10.5898 1.39181 10.8349 1.39181 11.0899C1.39181 11.345 1.49079 11.59 1.6679 11.7735C1.845 11.957 2.08641 12.0646 2.34128 12.0737H12.0884C12.2681 12.0737 12.4403 12.145 12.5673 12.2721C12.6944 12.3991 12.7657 12.5713 12.7657 12.751C12.7657 12.9306 12.6944 13.1029 12.5673 13.2299C12.4403 13.3569 12.2681 13.4283 12.0884 13.4283H3.7033ZM21.3787 8.75034L16.9385 2.64228C16.9222 2.61969 16.9073 2.59612 16.8939 2.5717C16.8427 2.4699 16.7531 2.39262 16.6449 2.35686C16.5367 2.3211 16.4187 2.32979 16.3169 2.38102C16.2151 2.43225 16.1378 2.52182 16.102 2.63003C16.0663 2.73824 16.075 2.85622 16.1262 2.95802L20.5119 8.75034H21.3787ZM8.09645 8.75034L12.4809 2.95802C12.5251 2.85995 12.5308 2.74882 12.4969 2.64674C12.4629 2.54465 12.3918 2.45908 12.2977 2.40702C12.2342 2.37116 12.1625 2.35239 12.0897 2.35254C12.0137 2.35334 11.9393 2.37427 11.874 2.41321C11.8087 2.45214 11.755 2.50769 11.7182 2.57418C11.7033 2.59771 11.6897 2.61999 11.6736 2.64228L7.22847 8.75034H8.09645Z" fill="black"/>
</svg>
