<svg width="56" height="57" viewBox="0 0 56 57" fill="none" xmlns="http://www.w3.org/2000/svg">
<path d="M14.1399 42.4146C13.9968 42.4149 13.8553 42.3838 13.7255 42.3234C13.5957 42.2631 13.4807 42.175 13.3887 42.0653C10.3262 38.7875 8.45583 34.5745 8.07853 30.1046C7.70123 25.6346 8.83898 21.1677 11.3086 17.4229C13.7783 13.6781 17.4362 10.8732 21.6935 9.45977C25.9508 8.0463 30.56 8.10648 34.7789 9.63061C34.9028 9.67104 35.0174 9.73587 35.1158 9.82129C35.2143 9.90671 35.2946 10.011 35.3521 10.128C35.4095 10.2449 35.443 10.3722 35.4505 10.5023C35.458 10.6325 35.4393 10.7628 35.3956 10.8855C35.3519 11.0083 35.284 11.1211 35.196 11.2172C35.108 11.3134 35.0016 11.3909 34.8832 11.4452C34.7647 11.4996 34.6366 11.5296 34.5063 11.5337C34.376 11.5377 34.2463 11.5155 34.1247 11.4686C30.3185 10.0883 26.1584 10.03 22.3151 11.3032C18.4717 12.5764 15.1692 15.1068 12.9398 18.4865C10.7105 21.8662 9.68434 25.8982 10.0268 29.9324C10.3692 33.9667 12.0603 37.768 14.8274 40.7236L14.8884 40.7901C15.0376 40.9658 15.1192 41.1889 15.1185 41.4194C15.1207 41.5493 15.097 41.6784 15.0488 41.799C15.0007 41.9197 14.9289 42.0295 14.8378 42.1222C14.7467 42.2148 14.6381 42.2884 14.5183 42.3386C14.3985 42.3888 14.2698 42.4147 14.1399 42.4146Z" fill="white"/>
<path d="M34.4936 39.246C33.4546 39.2454 32.448 38.8845 31.6453 38.225C30.8425 37.5654 30.2933 36.6479 30.0912 35.6287C29.889 34.6096 30.0465 33.5519 30.5368 32.6359C31.027 31.7199 31.8197 31.0022 32.7798 30.6051C33.7399 30.208 34.808 30.156 35.8021 30.4581C36.7962 30.7602 37.6548 31.3976 38.2316 32.2618C38.8084 33.1259 39.0678 34.1633 38.9655 35.1972C38.8632 36.2312 38.4055 37.1976 37.6706 37.932C37.2542 38.3502 36.759 38.6816 36.2137 38.9072C35.6684 39.1327 35.0837 39.2479 34.4936 39.246ZM34.4936 31.8248C33.8157 31.8243 33.1585 32.0589 32.6341 32.4886C32.1097 32.9183 31.7506 33.5165 31.6178 34.1813C31.4851 34.8461 31.587 35.5364 31.9062 36.1345C32.2253 36.7327 32.742 37.2016 33.3682 37.4615C33.9944 37.7213 34.6913 37.756 35.3401 37.5596C35.989 37.3632 36.5497 36.9479 36.9267 36.3845C37.3037 35.821 37.4737 35.1442 37.4076 34.4695C37.3415 33.7948 37.0436 33.1639 36.5644 32.6842C36.2933 32.4111 35.9707 32.1944 35.6152 32.0469C35.2597 31.8994 34.8785 31.8239 34.4936 31.8248Z" fill="white"/>
<path d="M20.9098 27.0483C19.8708 27.0477 18.8642 26.6869 18.0615 26.0273C17.2587 25.3677 16.7095 24.4502 16.5074 23.4311C16.3052 22.412 16.4627 21.3543 16.953 20.4382C17.4432 19.5222 18.2359 18.8045 19.196 18.4074C20.1561 18.0103 21.2242 17.9584 22.2183 18.2604C23.2124 18.5625 24.071 19.1999 24.6478 20.0641C25.2246 20.9282 25.484 21.9656 25.3817 22.9996C25.2794 24.0335 24.8217 25 24.0868 25.7343C23.6704 26.1525 23.1752 26.4839 22.6299 26.7095C22.0846 26.935 21.4999 27.0502 20.9098 27.0483ZM20.9098 19.6272C20.2319 19.6266 19.5747 19.8612 19.0503 20.2909C18.5259 20.7206 18.1668 21.3188 18.034 21.9837C17.9013 22.6485 18.0032 23.3388 18.3224 23.9369C18.6415 24.535 19.1582 25.0039 19.7844 25.2638C20.4106 25.5237 21.1075 25.5583 21.7563 25.362C22.4052 25.1656 22.9659 24.7503 23.3429 24.1868C23.7199 23.6233 23.8899 22.9466 23.8238 22.2719C23.7577 21.5971 23.4598 20.9662 22.9807 20.4866C22.7095 20.2134 22.3869 19.9968 22.0314 19.8493C21.6759 19.7017 21.2947 19.6263 20.9098 19.6272Z" fill="white"/>
<path d="M17.5388 45.2617C18.0778 45.2617 18.5147 44.8248 18.5147 44.2859C18.5147 43.7469 18.0778 43.3101 17.5388 43.3101C16.9999 43.3101 16.563 43.7469 16.563 44.2859C16.563 44.8248 16.9999 45.2617 17.5388 45.2617Z" fill="white"/>
<path d="M38.4549 13.6725C38.6742 13.6725 38.8886 13.6075 39.071 13.4856C39.2533 13.3638 39.3954 13.1906 39.4794 12.988C39.5633 12.7853 39.5853 12.5624 39.5425 12.3473C39.4997 12.1322 39.3941 11.9346 39.239 11.7795C39.0839 11.6244 38.8863 11.5188 38.6712 11.476C38.4561 11.4332 38.2332 11.4552 38.0305 11.5391C37.8279 11.6231 37.6547 11.7652 37.5329 11.9475C37.4111 12.1299 37.346 12.3443 37.346 12.5636C37.346 12.8577 37.4629 13.1397 37.6708 13.3477C37.8788 13.5557 38.1608 13.6725 38.4549 13.6725Z" fill="white"/>
<path d="M38.455 13.5339C38.2614 13.5339 38.0722 13.4765 37.9113 13.369C37.7503 13.2614 37.6249 13.1086 37.5509 12.9298C37.4768 12.751 37.4574 12.5542 37.4952 12.3644C37.5329 12.1746 37.6261 12.0002 37.763 11.8633C37.8998 11.7265 38.0742 11.6333 38.264 11.5955C38.4539 11.5578 38.6506 11.5771 38.8294 11.6512C39.0083 11.7253 39.1611 11.8507 39.2686 12.0116C39.3761 12.1725 39.4335 12.3617 39.4335 12.5553C39.4335 12.6838 39.4082 12.8111 39.359 12.9298C39.3099 13.0485 39.2378 13.1564 39.1469 13.2473C39.056 13.3381 38.9482 13.4102 38.8294 13.4594C38.7107 13.5086 38.5835 13.5339 38.455 13.5339Z" fill="white"/>
<path d="M28.001 56.8301C26.723 56.8301 25.8082 55.7849 24.9211 54.7731C24.3251 54.0911 23.8122 53.5007 23.4324 53.4341C23.3992 53.4314 23.3658 53.4314 23.3326 53.4341C22.9334 53.4341 22.2681 53.8056 21.5612 54.1965C20.6741 54.6927 19.7593 55.2 18.8694 55.2C18.6015 55.2007 18.3357 55.1528 18.0849 55.0586C16.9205 54.6262 16.4853 53.3953 16.0251 52.1229C15.6786 51.1471 15.4457 50.5455 15.1657 50.3819C15.0269 50.315 14.8731 50.2854 14.7194 50.296C14.2173 50.3242 13.7179 50.3891 13.2252 50.49C12.6299 50.6133 12.0253 50.6857 11.4177 50.7063C10.7925 50.7411 10.1764 50.5436 9.68787 50.1518C8.75641 49.3645 8.76196 48.081 8.7675 46.7226C8.7675 45.6969 8.7675 45.0593 8.5485 44.807C8.32949 44.5548 7.71684 44.4356 6.69944 44.2526C5.35492 44.0281 4.08803 43.8146 3.46429 42.7528C2.84054 41.6911 3.273 40.4852 3.72764 39.2044C4.06585 38.2508 4.28208 37.5993 4.16011 37.2805C4.03813 36.9617 3.48923 36.6235 2.59104 36.1023C1.38791 35.4204 0.262396 34.7634 0.037848 33.5242C-0.1867 32.285 0.625554 31.287 1.47939 30.1976C2.03383 29.499 2.56055 28.8364 2.56055 28.4067C2.56055 27.977 2.0366 27.3172 1.47939 26.6159C0.625554 25.5403 -0.183928 24.5229 0.037848 23.2892C0.259624 22.0556 1.38791 21.4208 2.58827 20.725C3.48646 20.2038 4.03813 19.8656 4.15733 19.5468C4.27654 19.228 4.06308 18.5765 3.72487 17.6229C3.27023 16.3421 2.84331 15.1279 3.46151 14.0772C4.07971 13.0266 5.35215 12.7992 6.69667 12.5747C7.70852 12.4028 8.33504 12.2975 8.54572 12.0203C8.75641 11.743 8.77027 11.1276 8.76473 10.1019C8.76473 8.74351 8.76473 7.45999 9.6851 6.67545C10.1739 6.28413 10.7898 6.08673 11.4149 6.12101C12.0224 6.14283 12.627 6.21515 13.2224 6.33725C13.7151 6.43802 14.2145 6.50287 14.7166 6.5313C14.87 6.54116 15.0234 6.51258 15.163 6.44813C15.4402 6.2818 15.6758 5.68023 16.0223 4.70996C16.4825 3.43475 16.9122 2.21776 18.0821 1.78252C18.3329 1.6884 18.5987 1.6405 18.8666 1.64114C19.7565 1.64114 20.6297 2.12628 21.5529 2.6419C22.2626 3.03556 22.939 3.40703 23.3299 3.40703H23.4297C23.8067 3.33773 24.3223 2.74725 24.9183 2.06529C25.8054 1.04512 26.7203 0 28.001 0C29.2818 0 30.1938 1.04512 31.0809 2.05697C31.6769 2.73893 32.1898 3.32941 32.5696 3.39872C32.6028 3.40172 32.6362 3.40172 32.6694 3.39872C33.0686 3.39872 33.7367 3.02724 34.4436 2.63359C35.3279 2.14291 36.2428 1.63282 37.1326 1.63282C37.4005 1.63218 37.6663 1.68008 37.9172 1.77421C39.0815 2.20944 39.5167 3.43753 39.9769 4.71551C40.3262 5.68855 40.5563 6.28735 40.8363 6.45368C40.9758 6.51812 41.1292 6.54671 41.2826 6.53684C41.782 6.50979 42.2786 6.44585 42.7685 6.34556C43.3666 6.22185 43.974 6.14859 44.5843 6.12656C45.2095 6.09228 45.8254 6.28968 46.3142 6.681C47.2456 7.4683 47.2401 8.74906 47.2345 10.1074C47.2345 11.1359 47.2345 11.7708 47.4535 12.0258C47.6725 12.2808 48.2852 12.3945 49.2998 12.5802C50.6471 12.8076 51.914 13.021 52.535 14.0828C53.1559 15.1445 52.729 16.3504 52.2744 17.6284C51.9279 18.6125 51.7199 19.2335 51.8419 19.5523C51.9639 19.8711 52.5128 20.2093 53.4054 20.7277C54.6058 21.4263 55.7341 22.0833 55.9614 23.3225C56.1887 24.5617 55.3737 25.5597 54.5199 26.6491C53.9654 27.3533 53.4387 28.0131 53.4387 28.44C53.4387 28.8669 53.9627 29.5295 54.5171 30.2281C55.3737 31.3092 56.1804 32.3238 55.9614 33.5547C55.7424 34.7855 54.6058 35.4509 53.4082 36.1467C52.5128 36.6679 51.9611 37.0088 51.8419 37.3249C51.7227 37.6409 51.9279 38.2647 52.2744 39.2488C52.729 40.5295 53.1559 41.7438 52.535 42.7972C51.914 43.8506 50.6471 44.0724 49.3026 44.297C48.2907 44.4688 47.6614 44.5908 47.4535 44.8514C47.2456 45.112 47.229 45.7413 47.2345 46.7642C47.2345 48.1254 47.2345 49.4089 46.3142 50.1962C45.8255 50.5878 45.2095 50.7852 44.5843 50.7506C43.9768 50.73 43.3721 50.6577 42.7768 50.5344C42.2841 50.434 41.7847 50.3691 41.2826 50.3403C41.1289 50.3297 40.9751 50.3594 40.8363 50.4263C40.5591 50.5898 40.3262 51.1886 39.9797 52.1561C39.5167 53.4535 39.0815 54.6705 37.9172 55.103C37.6663 55.1971 37.4005 55.245 37.1326 55.2444C36.2428 55.2444 35.3279 54.7371 34.4436 54.2436C33.7367 53.8527 33.0575 53.4813 32.6694 53.4813C32.6362 53.4782 32.6028 53.4782 32.5696 53.4813C32.1926 53.5478 31.6769 54.1383 31.0809 54.8202C30.191 55.796 29.2762 56.8301 28.001 56.8301ZM23.3437 51.4825C23.4878 51.4827 23.6316 51.4956 23.7734 51.5213C24.8241 51.7126 25.5809 52.5775 26.3848 53.4923C27.1389 54.3573 27.624 54.8784 28.001 54.8784C28.378 54.8784 28.8632 54.3545 29.6172 53.4923C30.4211 52.5775 31.178 51.7126 32.2286 51.5213C32.3704 51.4956 32.5142 51.4827 32.6583 51.4825C33.5759 51.4825 34.4963 51.9954 35.3889 52.4916C36.0931 52.8825 36.7556 53.2512 37.1021 53.2512C37.1483 53.2515 37.1943 53.244 37.238 53.229C37.5318 53.1181 37.773 52.4833 38.1389 51.4548C38.5492 50.3099 38.9346 49.237 39.8549 48.6826C40.3028 48.4375 40.8085 48.3178 41.3187 48.3361C41.9215 48.3566 42.5215 48.428 43.1123 48.5495C43.6113 48.6525 44.1172 48.7192 44.6259 48.7491C44.7766 48.7646 44.9281 48.7285 45.0556 48.6465C45.2884 48.4497 45.2968 47.7844 45.2912 46.706C45.2912 45.489 45.2912 44.3385 45.9676 43.5235C46.644 42.7085 47.7834 42.5228 48.981 42.3204C50.0455 42.1402 50.7053 42.0182 50.8606 41.7659C51.0158 41.5137 50.7996 40.8677 50.4392 39.8503C50.0483 38.7415 49.6463 37.6104 50.0234 36.6013C50.4004 35.5923 51.3845 35.0267 52.4324 34.4168C53.3999 33.8624 53.9904 33.4909 54.0486 33.1666C54.1068 32.8422 53.691 32.2822 52.9979 31.409C52.2522 30.472 51.4871 29.5073 51.4871 28.4039C51.4871 27.3006 52.255 26.3359 52.9979 25.4017C53.691 24.5256 54.1068 23.9712 54.0486 23.6441C53.9904 23.317 53.3999 22.9538 52.4352 22.3938C51.3817 21.7812 50.3921 21.2045 50.0234 20.2093C49.6547 19.2141 50.0483 18.0609 50.4392 16.9603C50.7996 15.9401 51.013 15.297 50.8606 15.0419C50.7081 14.7869 50.0511 14.6566 48.9893 14.4875C47.7834 14.2851 46.6524 14.0939 45.9676 13.2816C45.2829 12.4693 45.2857 11.3189 45.2912 10.1019C45.2912 9.02905 45.2912 8.36095 45.0556 8.16135C44.9277 8.0806 44.7763 8.04543 44.6259 8.06155C44.1191 8.09022 43.615 8.15601 43.1178 8.25838C42.5254 8.38182 41.9235 8.45417 41.3187 8.47461C40.8081 8.49322 40.3021 8.37247 39.8549 8.12531C38.9346 7.57087 38.5492 6.50912 38.1417 5.35311C37.773 4.32463 37.5346 3.6898 37.238 3.57891C37.1946 3.56258 37.1484 3.55504 37.1021 3.55673C36.7556 3.55673 36.0931 3.92543 35.3889 4.31631C34.4963 4.80976 33.5759 5.32262 32.6583 5.32262C32.5141 5.32384 32.3702 5.31084 32.2286 5.28381C31.178 5.0953 30.4211 4.23037 29.62 3.31555C28.8632 2.45062 28.378 1.92945 28.001 1.92945C27.624 1.92945 27.1389 2.45062 26.3848 3.31555C25.5809 4.23592 24.8241 5.10084 23.7734 5.28935C23.6318 5.31638 23.4879 5.32938 23.3437 5.32817C22.4261 5.32817 21.503 4.81531 20.6131 4.32186C19.909 3.93098 19.2464 3.56227 18.8999 3.56227C18.8536 3.56059 18.8074 3.56812 18.764 3.58445C18.4674 3.69257 18.229 4.33017 17.8603 5.35866C17.4528 6.5008 17.0675 7.57642 16.1471 8.13086C15.7037 8.37799 15.2018 8.5006 14.6945 8.4857C14.0916 8.46516 13.4916 8.39375 12.9008 8.27224C12.3956 8.16693 11.8832 8.10021 11.3678 8.07264C11.2174 8.05652 11.066 8.09169 10.9381 8.17244C10.7053 8.36927 10.6969 9.03737 10.7025 10.113C10.7025 11.2745 10.7025 12.4777 10.0261 13.2927C9.34966 14.1077 8.21029 14.2962 7.00993 14.4958C5.94263 14.676 5.28562 14.8008 5.13315 15.0503C4.98068 15.2998 5.19414 15.9485 5.55452 16.9686C5.9454 18.0775 6.34737 19.2058 5.97035 20.2176C5.59333 21.2295 4.6092 21.7895 3.56131 22.3994C2.59381 22.9538 2.00334 23.3253 1.94512 23.6524C1.8869 23.9795 2.30273 24.5367 2.99578 25.41C3.73873 26.3442 4.50663 27.3089 4.50663 28.4123C4.50663 29.5156 3.74428 30.4942 3.00133 31.4256C2.30828 32.2989 1.89245 32.8533 1.95066 33.1832C2.00888 33.5131 2.59936 33.8707 3.56131 34.4307C4.61475 35.0434 5.60719 35.62 5.9759 36.618C6.3446 37.616 5.95095 38.7664 5.56007 39.867C5.19968 40.8844 4.98622 41.5303 5.13869 41.7826C5.29116 42.0348 5.95372 42.1679 7.01547 42.337C8.21583 42.5394 9.34966 42.7307 10.0316 43.5401C10.7136 44.3496 10.7136 45.5583 10.708 46.7226C10.708 47.7927 10.708 48.4608 10.9437 48.6632C11.0704 48.7468 11.2225 48.7831 11.3734 48.7657C11.882 48.7348 12.3877 48.6681 12.887 48.5661C13.4787 48.4448 14.0797 48.3734 14.6834 48.3527C15.1926 48.3348 15.6973 48.4545 16.1443 48.6992C17.0647 49.2398 17.45 50.3182 17.8575 51.4575C18.2262 52.4888 18.4674 53.1209 18.7613 53.2345C18.805 53.2495 18.8509 53.257 18.8971 53.2567C19.2436 53.2567 19.9062 52.888 20.6103 52.4971C21.503 52.0064 22.4234 51.4936 23.3409 51.4936L23.3437 51.4825Z" fill="white"/>
<path d="M28.0011 48.397C25.7083 48.3997 23.4322 48.0068 21.273 47.2355C21.0485 47.1679 20.8558 47.022 20.7298 46.8243C20.6039 46.6266 20.5531 46.3903 20.5866 46.1583C20.6202 45.9263 20.7359 45.7141 20.9128 45.5602C21.0896 45.4064 21.3158 45.3211 21.5502 45.3199C21.6441 45.3207 21.7374 45.3347 21.8274 45.3615C21.8589 45.3696 21.8895 45.3808 21.9189 45.3947C25.7286 46.7667 29.8893 46.8155 33.7302 45.5332C37.571 44.251 40.868 41.7125 43.0895 38.3271C45.311 34.9417 46.3275 30.9067 45.975 26.8729C45.6226 22.839 43.9218 19.0415 41.1468 16.0926L41.0803 16.0233C40.9953 15.9248 40.9307 15.8104 40.8904 15.6867C40.8501 15.563 40.8349 15.4325 40.8456 15.3029C40.8564 15.1732 40.8929 15.047 40.953 14.9316C41.013 14.8162 41.0956 14.714 41.1956 14.6308C41.2957 14.5477 41.4114 14.4854 41.5358 14.4475C41.6603 14.4096 41.791 14.3969 41.9205 14.4101C42.0499 14.4234 42.1754 14.4623 42.2896 14.5246C42.4038 14.5869 42.5044 14.6714 42.5856 14.773C45.246 17.6167 47.0172 21.1759 47.6815 25.0129C48.3457 28.8499 47.8741 32.7974 46.3245 36.3699C44.7749 39.9423 42.215 42.984 38.9596 45.1208C35.7041 47.2576 31.8952 48.3964 28.0011 48.397Z" fill="white"/>
<path d="M21.5029 39.2432C21.3276 39.2432 21.1556 39.1958 21.0051 39.1058C20.8547 39.0159 20.7314 38.8869 20.6483 38.7325C20.5653 38.5781 20.5257 38.4041 20.5336 38.229C20.5416 38.0539 20.5968 37.8842 20.6935 37.7379L33.6812 18.0387C33.8224 17.8233 34.0433 17.6727 34.2955 17.6202C34.5476 17.5677 34.8103 17.6175 35.0257 17.7587C35.2412 17.8999 35.3917 18.1208 35.4442 18.373C35.4967 18.6251 35.4469 18.8878 35.3057 19.1032L22.3152 38.8108C22.2268 38.9455 22.1063 39.0561 21.9645 39.1325C21.8227 39.209 21.6641 39.2489 21.5029 39.2488V39.2432Z" fill="white"/>
</svg>
