<svg width="39" height="28" viewBox="0 0 39 28" fill="none" xmlns="http://www.w3.org/2000/svg">
<path d="M31.2977 27.8641C30.4048 27.8662 29.5402 27.5509 28.8581 26.9745C28.1761 26.3982 27.721 25.5983 27.574 24.7175C27.5685 24.6811 27.55 24.648 27.522 24.6241C27.4939 24.6003 27.4582 24.5874 27.4214 24.5878H12.8931C12.8563 24.5874 12.8206 24.6003 12.7925 24.6241C12.7645 24.648 12.746 24.6811 12.7405 24.7175C12.591 25.5969 12.1351 26.395 11.4535 26.9704C10.772 27.5459 9.90878 27.8616 9.0168 27.8616C8.12481 27.8616 7.26161 27.5459 6.58007 26.9704C5.89853 26.395 5.44264 25.5969 5.29313 24.7175C5.28761 24.6811 5.26912 24.648 5.24106 24.6241C5.21301 24.6003 5.17728 24.5874 5.14046 24.5878H0.502292C0.369077 24.5878 0.241317 24.5349 0.14712 24.4407C0.052922 24.3465 2.32045e-06 24.2187 2.32045e-06 24.0855V3.12366C-0.000198562 3.05757 0.0126453 2.99209 0.0377978 2.93097C0.0629503 2.86986 0.0999169 2.8143 0.146579 2.7675C0.193241 2.7207 0.248681 2.68356 0.309721 2.65822C0.370761 2.63288 0.436202 2.61984 0.502292 2.61984H25.3954C25.4615 2.61984 25.527 2.63288 25.588 2.65822C25.649 2.68356 25.7045 2.7207 25.7511 2.7675C25.7978 2.8143 25.8348 2.86986 25.8599 2.93097C25.8851 2.99209 25.8979 3.05757 25.8977 3.12366V7.05343C25.8977 7.09392 25.9138 7.13275 25.9424 7.16139C25.9711 7.19002 26.0099 7.2061 26.0504 7.2061H32.6015C32.6857 7.20616 32.7684 7.22729 32.8423 7.26756C32.9162 7.30783 32.9788 7.36595 33.0244 7.43664L38.9206 16.6076C38.9725 16.6888 39.0001 16.7831 39 16.8794V24.0855C39 24.2187 38.9471 24.3465 38.8529 24.4407C38.7587 24.5349 38.6309 24.5878 38.4977 24.5878H35.1664C35.1296 24.5874 35.0939 24.6003 35.0658 24.6241C35.0378 24.648 35.0193 24.6811 35.0137 24.7175C34.867 25.597 34.413 26.3959 33.7326 26.9721C33.0521 27.5483 32.1893 27.8643 31.2977 27.8641ZM31.5817 21.3267C31.0116 21.2657 30.4365 21.3828 29.9357 21.6619C29.4349 21.9411 29.0329 22.3685 28.7849 22.8856C28.537 23.4026 28.4554 23.9837 28.5513 24.549C28.6472 25.1143 28.9159 25.636 29.3205 26.0423C29.725 26.4486 30.2456 26.7196 30.8104 26.8179C31.3753 26.9163 31.9568 26.8372 32.4749 26.5915C32.9929 26.3458 33.4222 25.9456 33.7035 25.446C33.9848 24.9464 34.1044 24.3719 34.0458 23.8015C33.9803 23.1683 33.6991 22.5768 33.2494 22.1262C32.7997 21.6756 32.2087 21.3934 31.5756 21.3267H31.5817ZM9.3084 21.3267C8.73836 21.2666 8.16371 21.3846 7.66345 21.6644C7.16319 21.9442 6.76189 22.3721 6.51473 22.8893C6.26756 23.4065 6.18668 23.9875 6.28318 24.5525C6.37969 25.1175 6.64885 25.6388 7.05366 26.0446C7.45847 26.4504 7.97905 26.7209 8.54382 26.8188C9.1086 26.9167 9.68983 26.8372 10.2076 26.5913C10.7254 26.3454 11.1543 25.9452 11.4353 25.4456C11.7164 24.9461 11.8358 24.3717 11.7771 23.8015C11.7112 23.1677 11.4292 22.5758 10.9786 22.1252C10.528 21.6746 9.93613 21.3927 9.30229 21.3267H9.3084ZM31.2977 20.3053C32.1905 20.3029 33.0551 20.6179 33.7372 21.194C34.4192 21.77 34.8744 22.5698 35.0214 23.4504C35.0269 23.4868 35.0454 23.52 35.0734 23.5438C35.1015 23.5677 35.1372 23.5806 35.174 23.5801H37.8504C37.8909 23.5801 37.9297 23.5641 37.9583 23.5354C37.987 23.5068 38.0031 23.468 38.0031 23.4275V22.1175C38.0031 22.0771 37.987 22.0382 37.9583 22.0096C37.9297 21.981 37.8909 21.9649 37.8504 21.9649H36.5405C36.4741 21.9659 36.4082 21.9537 36.3466 21.9291C36.285 21.9045 36.2288 21.868 36.1814 21.8216C36.134 21.7751 36.0963 21.7198 36.0704 21.6587C36.0445 21.5976 36.0309 21.532 36.0305 21.4656C36.0305 21.3324 36.0835 21.2047 36.1777 21.1105C36.2719 21.0163 36.3996 20.9634 36.5328 20.9634H37.8428C37.8832 20.9634 37.9221 20.9473 37.9507 20.9186C37.9793 20.89 37.9954 20.8512 37.9954 20.8107V17.0717C37.9953 17.0425 37.9869 17.0139 37.971 16.9893L37.8473 16.7939C37.8335 16.7724 37.8146 16.7547 37.7922 16.7424C37.7698 16.7302 37.7446 16.7237 37.7191 16.7237H28.0168C27.9507 16.7239 27.8852 16.711 27.8241 16.6859C27.763 16.6607 27.7074 16.6237 27.6606 16.5771C27.6138 16.5304 27.5767 16.475 27.5514 16.4139C27.526 16.3529 27.513 16.2875 27.513 16.2214V10.3282C27.5134 10.1949 27.5666 10.0671 27.6611 9.97297C27.7555 9.87882 27.8834 9.82595 28.0168 9.82595H33.0855C33.113 9.82602 33.1399 9.81869 33.1636 9.80472C33.1872 9.79074 33.2067 9.77065 33.2198 9.74656C33.2332 9.72335 33.2403 9.69702 33.2403 9.67022C33.2403 9.64342 33.2332 9.6171 33.2198 9.59389L32.3664 8.28091C32.3526 8.25941 32.3336 8.24171 32.3112 8.22944C32.2888 8.21718 32.2637 8.21072 32.2382 8.21068H26.0504C26.0099 8.21068 25.9711 8.22677 25.9424 8.2554C25.9138 8.28403 25.8977 8.32286 25.8977 8.36335V23.4305C25.8977 23.471 25.9138 23.5099 25.9424 23.5385C25.9711 23.5671 26.0099 23.5832 26.0504 23.5832H27.4244C27.4612 23.5836 27.497 23.5707 27.525 23.5469C27.5531 23.523 27.5716 23.4898 27.5771 23.4534C27.7234 22.5728 28.1778 21.7727 28.8593 21.1961C29.5408 20.6195 30.405 20.3038 31.2977 20.3053ZM9.01832 20.3053C9.91112 20.3029 10.7757 20.6179 11.4578 21.194C12.1399 21.77 12.595 22.5698 12.742 23.4504C12.7475 23.4868 12.766 23.52 12.7941 23.5438C12.8221 23.5677 12.8578 23.5806 12.8947 23.5801H24.742C24.7825 23.5801 24.8213 23.5641 24.8499 23.5354C24.8786 23.5068 24.8947 23.468 24.8947 23.4275V22.1175C24.8947 22.0771 24.8786 22.0382 24.8499 22.0096C24.8213 21.981 24.7825 21.9649 24.742 21.9649H14.2595C14.1263 21.9649 13.9986 21.912 13.9044 21.8178C13.8102 21.7236 13.7573 21.5958 13.7573 21.4626C13.7573 21.3294 13.8102 21.2016 13.9044 21.1074C13.9986 21.0132 14.1263 20.9603 14.2595 20.9603H24.7405C24.781 20.9603 24.8198 20.9442 24.8484 20.9156C24.877 20.8869 24.8931 20.8481 24.8931 20.8076V6.39847C24.8931 6.35798 24.877 6.31914 24.8484 6.29051C24.8198 6.26188 24.781 6.2458 24.7405 6.2458H3.12214C2.98892 6.2458 2.86116 6.19288 2.76697 6.09868C2.67277 6.00448 2.61985 5.87672 2.61985 5.74351C2.61985 5.61029 2.67277 5.48253 2.76697 5.38833C2.86116 5.29414 2.98892 5.24122 3.12214 5.24122H24.7405C24.781 5.24122 24.8198 5.22513 24.8484 5.1965C24.877 5.16787 24.8931 5.12904 24.8931 5.08854V3.77862C24.8931 3.73813 24.877 3.6993 24.8484 3.67067C24.8198 3.64203 24.781 3.62595 24.7405 3.62595H1.15725C1.11676 3.62595 1.07793 3.64203 1.0493 3.67067C1.02067 3.6993 1.00458 3.73813 1.00458 3.77862V20.8107C1.00458 20.8512 1.02067 20.89 1.0493 20.9186C1.07793 20.9473 1.11676 20.9634 1.15725 20.9634H3.77863C3.91078 20.965 4.03698 21.0186 4.12986 21.1126C4.22274 21.2066 4.27482 21.3335 4.27481 21.4656C4.27481 21.5989 4.22189 21.7266 4.12769 21.8208C4.0335 21.915 3.90574 21.9679 3.77252 21.9679H1.15725C1.11676 21.9679 1.07793 21.984 1.0493 22.0126C1.02067 22.0413 1.00458 22.0801 1.00458 22.1206V23.4305C1.00458 23.471 1.02067 23.5099 1.0493 23.5385C1.07793 23.5671 1.11676 23.5832 1.15725 23.5832H5.14351C5.18033 23.5836 5.21606 23.5707 5.24412 23.5469C5.27217 23.523 5.29066 23.4898 5.29619 23.4534C5.44248 22.5725 5.89713 21.7723 6.57894 21.1956C7.26076 20.619 8.12535 20.3034 9.01832 20.3053ZM28.6718 10.8305C28.6313 10.8305 28.5924 10.8466 28.5638 10.8752C28.5352 10.9039 28.5191 10.9427 28.5191 10.9832V15.5634C28.5191 15.6038 28.5352 15.6427 28.5638 15.6713C28.5924 15.6999 28.6313 15.716 28.6718 15.716H36.8763C36.9037 15.716 36.9306 15.7086 36.9541 15.6946C36.9777 15.6806 36.997 15.6605 37.0101 15.6365C37.0232 15.6124 37.0296 15.5853 37.0287 15.5579C37.0277 15.5306 37.0194 15.504 37.0046 15.4809L34.0458 10.8763C34.032 10.8548 34.013 10.8371 33.9906 10.8249C33.9682 10.8126 33.9431 10.8061 33.9176 10.8061C33.9034 10.8039 33.889 10.8039 33.8748 10.8061C33.8603 10.8103 33.8465 10.8165 33.8336 10.8244L28.6718 10.8305Z" fill="#4767DD"/>
<path d="M9.62322 24.0855C9.62322 23.7516 9.35254 23.4809 9.01864 23.4809C8.68474 23.4809 8.41406 23.7516 8.41406 24.0855C8.41406 24.4194 8.68474 24.6901 9.01864 24.6901C9.35254 24.6901 9.62322 24.4194 9.62322 24.0855Z" fill="#4767DD"/>
<path d="M10.9835 0H3.12241C2.845 0 2.62012 0.224883 2.62012 0.50229C2.62012 0.779697 2.845 1.00458 3.12241 1.00458H10.9835C11.2609 1.00458 11.4858 0.779697 11.4858 0.50229C11.4858 0.224883 11.2609 0 10.9835 0Z" fill="#4767DD"/>
<path d="M1.00458 0.50229C1.00458 0.224883 0.779697 0 0.50229 0C0.224883 0 0 0.224883 0 0.50229C0 0.779697 0.224883 1.00458 0.50229 1.00458C0.779697 1.00458 1.00458 0.779697 1.00458 0.50229Z" fill="#4767DD"/>
<path d="M31.9133 24.0611C31.9133 23.7272 31.6426 23.4565 31.3087 23.4565C30.9748 23.4565 30.7041 23.7272 30.7041 24.0611C30.7041 24.395 30.9748 24.6656 31.3087 24.6656C31.6426 24.6656 31.9133 24.395 31.9133 24.0611Z" fill="#4767DD"/>
</svg>
