<svg width="31" height="31" viewBox="0 0 31 31" fill="none" xmlns="http://www.w3.org/2000/svg">
<path d="M15.5 0C6.93968 0 0 6.93968 0 15.5C0 24.0603 6.93968 31 15.5 31C24.0603 31 31 24.0603 31 15.5C30.9834 6.93968 24.052 0.00831099 15.5 0ZM16.1649 29.637V26.911C16.1649 26.5453 15.8657 26.2461 15.5 26.2461C15.1343 26.2461 14.8351 26.5453 14.8351 26.911V29.637C7.54638 29.2879 1.71206 23.4536 1.363 16.1649H4.08901C4.45469 16.1649 4.75389 15.8657 4.75389 15.5C4.75389 15.1343 4.45469 14.8351 4.08901 14.8351H1.363C1.71206 7.54638 7.54638 1.71206 14.8351 1.363V4.08901C14.8351 4.45469 15.1343 4.75389 15.5 4.75389C15.8657 4.75389 16.1649 4.45469 16.1649 4.08901V1.363C23.4536 1.71206 29.2879 7.54638 29.637 14.8351H26.911C26.5453 14.8351 26.2461 15.1343 26.2461 15.5C26.2461 15.8657 26.5453 16.1649 26.911 16.1649H26.9193H29.6453C29.2879 23.4536 23.4536 29.2879 16.1649 29.637Z" fill="#4767DD"/>
<path d="M22.5143 21.6834L16.1647 15.2257V8.51876C16.1647 8.15308 15.8655 7.85388 15.4998 7.85388C15.1342 7.85388 14.835 8.15308 14.835 8.51876V15.5C14.835 15.6745 14.9014 15.8407 15.0261 15.9654L21.5586 22.6142C21.8162 22.8802 22.2401 22.8802 22.4977 22.6225C22.7553 22.3649 22.772 21.941 22.5143 21.6834Z" fill="#4767DD"/>
</svg>
