<svg width="58" height="57" viewBox="0 0 58 57" fill="none" xmlns="http://www.w3.org/2000/svg">
<path d="M38.807 57C34.8257 56.9932 30.9556 55.686 27.7855 53.2775C24.6155 50.8689 22.3189 47.4907 21.2453 43.6569C21.2122 43.536 21.1415 43.4288 21.0434 43.3509C20.9452 43.2729 20.8248 43.2282 20.6996 43.2233C17.1543 43.0691 13.701 42.047 10.6429 40.2467C10.5535 40.1936 10.4518 40.1651 10.3479 40.1641C10.295 40.1635 10.2424 40.1704 10.1915 40.1847L3.21465 42.114C3.06578 42.1558 2.91201 42.1776 2.75739 42.1789C2.49796 42.1769 2.24248 42.1152 2.01074 41.9985C1.779 41.8819 1.57722 41.7135 1.42102 41.5063C1.25946 41.3009 1.14856 41.0603 1.09731 40.8041C1.04606 40.5478 1.05589 40.2831 1.12602 40.0313L3.05535 33.0515C3.07671 32.9752 3.0825 32.8954 3.07236 32.8169C3.06222 32.7383 3.03637 32.6626 2.99635 32.5942C0.849388 28.9536 -0.183096 24.7633 0.0266351 20.542C0.236366 16.3206 1.67911 12.2533 4.17637 8.8434C4.35162 8.60476 4.6145 8.44553 4.90717 8.40071C5.19983 8.3559 5.49831 8.42919 5.73694 8.60444C5.97557 8.7797 6.13481 9.04258 6.17962 9.33524C6.22444 9.62791 6.15115 9.92639 5.9759 10.165C3.67185 13.3132 2.37163 17.0834 2.2453 20.9826C2.11898 24.8818 3.17244 28.7283 5.26788 32.019C5.35502 32.1526 5.41295 32.3032 5.43786 32.4608C5.46277 32.6184 5.4541 32.7795 5.41244 32.9335L3.81941 38.692C3.79131 38.7926 3.79044 38.8989 3.81687 39C3.84331 39.101 3.8961 39.1933 3.96986 39.2672C4.02475 39.3225 4.09002 39.3663 4.16192 39.3961C4.23382 39.426 4.31091 39.4414 4.38877 39.4413C4.44174 39.4409 4.49439 39.4329 4.54512 39.4177L10.3066 37.8247C10.4026 37.7983 10.5019 37.7854 10.6016 37.7863C10.8221 37.7879 11.0377 37.8513 11.224 37.9692C13.7209 39.5631 16.5496 40.5642 19.4932 40.8957C22.4368 41.2273 25.4173 40.8806 28.2061 39.8821C30.995 38.8836 33.5183 37.26 35.5826 35.1355C37.647 33.011 39.1975 30.4421 40.1155 27.6257C41.0334 24.8093 41.2944 21.8201 40.8784 18.8872C40.4624 15.9543 39.3806 13.1556 37.7156 10.7055C36.0507 8.25545 33.847 6.21905 31.2733 4.75238C28.6997 3.28571 25.8244 2.42771 22.8679 2.24414C22.4608 2.21759 22.0478 2.20579 21.6407 2.20579C17.6767 2.19926 13.8072 3.41593 10.5603 5.6898C10.3709 5.8223 10.1453 5.89336 9.91421 5.89335C9.76264 5.89326 9.6127 5.8621 9.47364 5.8018C9.33458 5.7415 9.20935 5.65335 9.10568 5.54277C9.00202 5.4322 8.92211 5.30155 8.8709 5.15889C8.8197 5.01623 8.79827 4.86459 8.80794 4.71333C8.81752 4.54767 8.86475 4.38638 8.94603 4.24171C9.02731 4.09705 9.1405 3.97282 9.277 3.87847C12.4557 1.66581 16.1701 0.346978 20.0324 0.059635C23.8947 -0.227708 27.7633 0.526976 31.2345 2.24491C34.7056 3.96284 37.6519 6.58103 39.7659 9.82617C41.8799 13.0713 43.0841 16.8244 43.2527 20.6937C43.2624 20.8148 43.3093 20.93 43.3869 21.0234C43.4645 21.1169 43.5691 21.1841 43.6864 21.2159C46.3821 21.9656 48.8692 23.3256 50.9551 25.1907C53.0409 27.0558 54.6695 29.3759 55.7149 31.9714C56.7602 34.5669 57.1942 37.3681 56.9832 40.1583C56.7723 42.9484 55.922 45.6525 54.4983 48.0613C54.4578 48.1295 54.4314 48.2051 54.4208 48.2837C54.4101 48.3622 54.4154 48.4421 54.4363 48.5186L56.0559 54.3302C56.1134 54.5333 56.1228 54.747 56.0833 54.9544C56.0439 55.1618 55.9567 55.3571 55.8288 55.525C55.7013 55.6925 55.5372 55.8288 55.3491 55.9234C55.1609 56.018 54.9537 56.0684 54.7431 56.0707C54.6164 56.0704 54.4903 56.0526 54.3685 56.0176L48.5451 54.4069C48.4942 54.3926 48.4416 54.3856 48.3887 54.3862C48.2847 54.3865 48.1827 54.415 48.0937 54.4688C45.2809 56.1295 42.0735 57.0037 38.807 57ZM43.7159 23.5759C43.5705 23.575 43.4298 23.6277 43.3209 23.7241C43.212 23.8205 43.1426 23.9537 43.1259 24.0981C42.5572 28.9397 40.3727 33.4481 36.9253 36.8949C33.478 40.3417 28.9692 42.5255 24.1275 43.0935C24.0406 43.1041 23.957 43.134 23.8831 43.1809C23.8091 43.2279 23.7465 43.2907 23.6998 43.3649C23.6525 43.439 23.6224 43.5228 23.6117 43.6101C23.601 43.6974 23.6099 43.7859 23.6378 43.8693C24.4157 46.1804 25.7115 48.2831 27.4264 50.0167C29.1412 51.7503 31.2296 53.069 33.5321 53.8719C35.8345 54.6749 38.2901 54.9409 40.7111 54.6497C43.1321 54.3584 45.4545 53.5176 47.5008 52.1914C47.6817 52.0741 47.8928 52.0116 48.1085 52.0115C48.2082 52.0122 48.3074 52.0261 48.4035 52.0528L52.4805 53.1797C52.5322 53.1951 52.5858 53.2031 52.6398 53.2033C52.7307 53.203 52.8203 53.1817 52.9017 53.1411C52.983 53.1005 53.0539 53.0416 53.1087 52.969C53.1636 52.8965 53.2009 52.8123 53.2178 52.7229C53.2347 52.6336 53.2307 52.5415 53.2062 52.454L52.0793 48.377C52.0373 48.2246 52.0283 48.0651 52.0527 47.9089C52.0771 47.7528 52.1344 47.6036 52.2209 47.4713C53.547 45.425 54.3879 43.1026 54.6791 40.6816C54.9704 38.2606 54.7044 35.8051 53.9014 33.5026C53.0984 31.2002 51.7797 29.1117 50.0461 27.3969C48.3125 25.6821 46.2098 24.3862 43.8988 23.6084C43.8399 23.588 43.7782 23.577 43.7159 23.5759Z" fill="white"/>
<path d="M21.6437 29.1309H21.6407C20.7642 29.1309 20.0536 29.8415 20.0536 30.718V30.721C20.0536 31.5975 20.7642 32.3081 21.6407 32.3081H21.6437C22.5202 32.3081 23.2308 31.5975 23.2308 30.721V30.718C23.2308 29.8415 22.5202 29.1309 21.6437 29.1309Z" fill="white"/>
<path d="M20.3781 25.0775V23.8709C20.3782 23.5435 20.4464 23.2196 20.5785 22.92C20.7105 22.6203 20.9035 22.3515 21.1451 22.1304L24.2397 19.2954C24.6587 18.9145 24.9882 18.4456 25.2044 17.9223C25.4207 17.399 25.5184 16.8342 25.4905 16.2687C25.4497 15.3743 25.099 14.522 24.4985 13.858C23.8979 13.194 23.085 12.7596 22.1992 12.6295C21.3134 12.4994 20.41 12.6816 19.6438 13.1448C18.8777 13.608 18.2966 14.3235 18.0003 15.1683C17.9139 15.4116 17.7538 15.6218 17.5423 15.7698C17.3308 15.9179 17.0785 15.9963 16.8203 15.9943C16.6204 15.9957 16.423 15.9494 16.2446 15.8592C16.0661 15.7689 15.9118 15.6375 15.7944 15.4756C15.677 15.3138 15.5999 15.1262 15.5695 14.9286C15.5391 14.731 15.5563 14.529 15.6197 14.3393C16.1464 12.8489 17.2076 11.6071 18.5977 10.8544C19.9878 10.1017 21.6077 9.89182 23.1437 10.2653C24.6797 10.6389 26.0224 11.5693 26.9116 12.8762C27.8008 14.1832 28.1733 15.7737 27.9568 17.3395C27.7285 18.8421 26.9837 20.218 25.8504 21.2307L23.0479 23.7972C23.0022 23.8386 22.9657 23.8891 22.9408 23.9455C22.9159 24.002 22.9031 24.063 22.9033 24.1247V25.0775C22.9033 25.2433 22.8707 25.4075 22.8072 25.5607C22.7438 25.7139 22.6508 25.8531 22.5335 25.9703C22.4163 26.0876 22.2771 26.1806 22.1239 26.244C21.9707 26.3075 21.8065 26.3401 21.6407 26.3401C21.4749 26.3401 21.3107 26.3075 21.1575 26.244C21.0043 26.1806 20.8651 26.0876 20.7479 25.9703C20.6307 25.8531 20.5376 25.7139 20.4742 25.5607C20.4107 25.4075 20.3781 25.2433 20.3781 25.0775Z" fill="white"/>
<path d="M6.40366 7.35068C6.48512 7.54776 6.62544 7.71488 6.80545 7.82921C6.98546 7.94354 7.19638 7.99951 7.4094 7.98946C7.62241 7.97941 7.82712 7.90384 7.99557 7.77307C8.16402 7.64231 8.28799 7.46272 8.35054 7.25885C8.41308 7.05497 8.41116 6.83676 8.34502 6.63403C8.27889 6.43129 8.15178 6.25392 7.98105 6.12614C7.81032 5.99836 7.6043 5.92642 7.39114 5.92013C7.17798 5.91384 6.96808 5.97352 6.79012 6.09101C6.59035 6.22423 6.44276 6.4224 6.37234 6.65195C6.30191 6.88151 6.31298 7.12835 6.40366 7.35068Z" fill="white"/>
</svg>
