<svg width="34" height="34" viewBox="0 0 34 34" fill="none" xmlns="http://www.w3.org/2000/svg">
<path d="M33.0941 11.6661L22.329 0.901108C21.7479 0.320046 20.973 0 20.1468 0C19.3207 0 18.5457 0.319913 17.9646 0.900975L0.901108 17.9645C0.320046 18.5457 0 19.3205 0 20.1467C0 20.9728 0.320046 21.7478 0.901108 22.3288L2.22857 23.6563C2.2287 23.6564 2.22877 23.6565 2.2289 23.6566C2.22903 23.6568 2.22917 23.6569 2.2293 23.657L11.1507 32.5785H9.91544C9.52435 32.5785 9.20723 32.8955 9.20723 33.2867C9.20723 33.6778 9.52435 33.9949 9.91544 33.9949H13.8456C13.8465 33.9949 13.8474 33.995 13.8483 33.995C13.8492 33.995 13.8501 33.9949 13.851 33.9949L24.0801 33.995C24.4712 33.995 24.7883 33.6779 24.7883 33.2868C24.7883 32.8957 24.4712 32.5786 24.0801 32.5786L16.5461 32.5785L33.0942 16.0304C34.2974 14.8271 34.2974 12.8692 33.0941 11.6661ZM32.0926 15.0288L15.0289 32.0924C14.716 32.4053 14.2977 32.5778 13.8509 32.5785H13.8455C13.3988 32.5777 12.9806 32.4053 12.6678 32.0924L3.73132 23.1558L20.1184 6.76864C20.395 6.49208 20.395 6.04362 20.1184 5.76707C19.8418 5.49051 19.3934 5.49051 19.1168 5.76713L2.72969 22.1543L1.90261 21.3273C1.58914 21.0138 1.4165 20.5946 1.4165 20.1468C1.4165 19.699 1.58914 19.2796 1.90268 18.9661L18.9662 1.90261C19.2797 1.58914 19.699 1.4165 20.1468 1.4165C20.5946 1.4165 21.0139 1.58914 21.3275 1.90268L25.1589 5.73407L8.77165 22.1215C8.49509 22.398 8.49509 22.8464 8.77165 23.1231C8.90996 23.2614 9.09123 23.3305 9.27243 23.3305C9.45364 23.3305 9.63491 23.2613 9.77322 23.123L26.1605 6.7357L32.0926 12.6676C32.7435 13.3186 32.7434 14.3778 32.0926 15.0288Z" fill="#4767DD"/>
<path d="M15.1641 25.7451L12.8783 28.0309C12.6018 28.3075 12.6018 28.7559 12.8783 29.0325C13.0166 29.1708 13.1979 29.24 13.3791 29.24C13.5604 29.24 13.7416 29.1708 13.8799 29.0325L16.1657 26.7467C16.4422 26.4702 16.4422 26.0217 16.1657 25.7451C15.8891 25.4685 15.4409 25.4685 15.1641 25.7451Z" fill="#4767DD"/>
<path d="M17.2677 23.6418L16.9672 23.9422C16.6906 24.2188 16.6906 24.6672 16.9672 24.9439C17.1054 25.0822 17.2868 25.1514 17.468 25.1514C17.6492 25.1514 17.8304 25.0822 17.9687 24.9439L18.2691 24.6435C18.5458 24.3669 18.5458 23.9185 18.2692 23.6419C17.9928 23.3653 17.5443 23.3653 17.2677 23.6418Z" fill="#4767DD"/>
<path d="M27.0293 10.875C26.8965 10.7423 26.7164 10.6676 26.5286 10.6676C26.3407 10.6676 26.1606 10.7423 26.0278 10.875L23.0229 13.8799C22.8901 14.0128 22.8154 14.1928 22.8154 14.3807C22.8154 14.5685 22.8901 14.7487 23.0229 14.8815L25.0261 16.8845C25.1644 17.0229 25.3457 17.092 25.5269 17.092C25.7083 17.092 25.8894 17.0228 26.0277 16.8845L29.0325 13.8798C29.309 13.6033 29.309 13.1548 29.0325 12.8783L27.0293 10.875ZM25.5269 15.3823L24.5252 14.3807L26.5285 12.3775L27.5301 13.3791L25.5269 15.3823Z" fill="#4767DD"/>
<path d="M21.2707 5.32358C21.4521 5.32358 21.6333 5.25439 21.7716 5.11602L22.072 4.81543C22.3485 4.53881 22.3485 4.09034 22.0718 3.81386C21.7953 3.53737 21.3468 3.53744 21.0703 3.81406L20.7698 4.11465C20.4933 4.39127 20.4934 4.83973 20.77 5.11622C20.9083 5.25453 21.0895 5.32358 21.2707 5.32358Z" fill="#4767DD"/>
<path d="M7.1192 23.7741L6.81874 24.0746C6.54219 24.351 6.54219 24.7995 6.81874 25.0762C6.95705 25.2144 7.13832 25.2836 7.31953 25.2836C7.50073 25.2836 7.682 25.2144 7.82031 25.0762L8.12077 24.7757C8.39733 24.4991 8.39733 24.0506 8.12077 23.7741C7.84415 23.4975 7.39582 23.4975 7.1192 23.7741Z" fill="#4767DD"/>
</svg>
