<svg width="70" height="50" viewBox="0 0 70 50" fill="none" xmlns="http://www.w3.org/2000/svg">
<path d="M56.1613 50C54.559 50.0036 53.0075 49.4379 51.7836 48.4037C50.5598 47.3695 49.7432 45.9342 49.4795 44.3537C49.4696 44.2884 49.4364 44.2289 49.386 44.1861C49.3357 44.1433 49.2716 44.1201 49.2055 44.1209H23.1357C23.0696 44.1201 23.0055 44.1433 22.9552 44.1861C22.9048 44.2289 22.8717 44.2884 22.8618 44.3537C22.5935 45.9317 21.7754 47.3638 20.5524 48.3963C19.3295 49.4289 17.7805 49.9954 16.1799 49.9954C14.5793 49.9954 13.0304 49.4289 11.8074 48.3963C10.5845 47.3638 9.76639 45.9317 9.49811 44.3537C9.4882 44.2884 9.45502 44.2289 9.40468 44.1861C9.35434 44.1433 9.29022 44.1201 9.22415 44.1209H0.901324C0.662279 44.1209 0.433025 44.0259 0.263995 43.8569C0.0949644 43.6878 4.16387e-06 43.4586 4.16387e-06 43.2195V5.60517C-0.000356304 5.48658 0.022691 5.36908 0.0678252 5.25941C0.112959 5.14974 0.179293 5.05006 0.263024 4.96607C0.346755 4.88208 0.446238 4.81545 0.55577 4.76998C0.665302 4.72451 0.78273 4.70111 0.901324 4.70111H45.5701C45.6887 4.70111 45.8061 4.72451 45.9157 4.76998C46.0252 4.81545 46.1247 4.88208 46.2084 4.96607C46.2921 5.05006 46.3585 5.14974 46.4036 5.25941C46.4487 5.36908 46.4718 5.48658 46.4714 5.60517V12.6568C46.4714 12.7295 46.5003 12.7992 46.5517 12.8506C46.603 12.9019 46.6727 12.9308 46.7454 12.9308H58.5009C58.6519 12.9309 58.8004 12.9688 58.933 13.0411C59.0655 13.1133 59.1779 13.2176 59.2598 13.3445L69.84 29.8011C69.9331 29.9467 69.9826 30.1159 69.9825 30.2887V43.2195C69.9825 43.4586 69.8875 43.6878 69.7185 43.8569C69.5494 44.0259 69.3202 44.1209 69.0811 44.1209H63.1034C63.0373 44.1201 62.9732 44.1433 62.9229 44.1861C62.8725 44.2289 62.8393 44.2884 62.8294 44.3537C62.5661 45.9319 61.7515 47.3654 60.5305 48.3993C59.3095 49.4332 57.7612 50.0004 56.1613 50ZM56.6709 38.2691C55.6478 38.1596 54.616 38.3697 53.7173 38.8706C52.8186 39.3715 52.0972 40.1386 51.6523 41.0663C51.2075 41.9941 51.061 43.0369 51.2331 44.0512C51.4052 45.0656 51.8874 46.0017 52.6133 46.7308C53.3393 47.4599 54.2733 47.9462 55.2869 48.1227C56.3006 48.2991 57.344 48.1572 58.2736 47.7164C59.2033 47.2755 59.9735 46.5574 60.4783 45.6609C60.9831 44.7644 61.1977 43.7335 61.0925 42.71C60.975 41.5737 60.4705 40.5123 59.6634 39.7038C58.8564 38.8953 57.796 38.3887 56.6599 38.2691H56.6709ZM16.7032 38.2691C15.6803 38.1613 14.6491 38.373 13.7515 38.8751C12.8538 39.3772 12.1337 40.1451 11.6902 41.0731C11.2467 42.0011 11.1015 43.0437 11.2747 44.0576C11.4478 45.0715 11.9308 46.0068 12.6572 46.735C13.3836 47.4632 14.3178 47.9485 15.3312 48.1242C16.3447 48.2999 17.3876 48.1573 18.3168 47.7161C19.2459 47.2748 20.0155 46.5566 20.5198 45.6602C21.0241 44.7638 21.2384 43.7331 21.1331 42.71C21.0148 41.5726 20.5089 40.5105 19.7003 39.7019C18.8917 38.8934 17.8296 38.3875 16.6922 38.2691H16.7032ZM56.1613 36.4364C57.7633 36.432 59.3148 36.9972 60.5387 38.0309C61.7626 39.0646 62.5794 40.4997 62.8431 42.0799C62.853 42.1452 62.8862 42.2047 62.9366 42.2475C62.9869 42.2903 63.051 42.3135 63.1171 42.3127H67.9196C67.9922 42.3127 68.0619 42.2839 68.1133 42.2325C68.1646 42.1811 68.1935 42.1114 68.1935 42.0388V39.6882C68.1935 39.6156 68.1646 39.5459 68.1133 39.4945C68.0619 39.4431 67.9922 39.4143 67.9196 39.4143H65.569C65.4499 39.4161 65.3317 39.3943 65.2211 39.3501C65.1106 39.306 65.0098 39.2404 64.9247 39.1571C64.8397 39.0738 64.7719 38.9745 64.7255 38.8649C64.679 38.7552 64.6547 38.6375 64.654 38.5184C64.654 38.2794 64.7489 38.0501 64.918 37.8811C65.087 37.7121 65.3163 37.6171 65.5553 37.6171H67.9059C67.9785 37.6171 68.0482 37.5882 68.0996 37.5369C68.1509 37.4855 68.1798 37.4158 68.1798 37.3432V30.6339C68.1797 30.5814 68.1645 30.5301 68.136 30.486L67.9141 30.1353C67.8893 30.0967 67.8553 30.065 67.8151 30.043C67.7749 30.021 67.7298 30.0094 67.684 30.0093H50.2739C50.1554 30.0097 50.0379 29.9866 49.9282 29.9415C49.8185 29.8964 49.7188 29.83 49.6348 29.7463C49.5509 29.6626 49.4842 29.5631 49.4388 29.4535C49.3933 29.344 49.3699 29.2266 49.3699 29.108V18.5332C49.3706 18.2939 49.4662 18.0647 49.6356 17.8957C49.8051 17.7268 50.0346 17.6319 50.2739 17.6319H59.3693C59.4186 17.632 59.467 17.6189 59.5095 17.5938C59.5519 17.5687 59.5868 17.5327 59.6104 17.4894C59.6345 17.4478 59.6471 17.4006 59.6471 17.3525C59.6471 17.3044 59.6345 17.2571 59.6104 17.2155L58.079 14.8595C58.0542 14.8209 58.0202 14.7891 57.98 14.7671C57.9398 14.7451 57.8947 14.7335 57.8489 14.7334H46.7454C46.6727 14.7334 46.603 14.7623 46.5517 14.8137C46.5003 14.8651 46.4714 14.9347 46.4714 15.0074V42.0443C46.4714 42.1169 46.5003 42.1866 46.5517 42.238C46.603 42.2894 46.6727 42.3182 46.7454 42.3182H49.211C49.2771 42.319 49.3412 42.2958 49.3915 42.253C49.4419 42.2102 49.475 42.1507 49.485 42.0854C49.7474 40.5051 50.5628 39.0695 51.7857 38.0348C53.0086 37.0001 54.5594 36.4335 56.1613 36.4364ZM16.1827 36.4364C17.7847 36.432 19.3362 36.9972 20.5601 38.0309C21.784 39.0646 22.6007 40.4997 22.8645 42.0799C22.8744 42.1452 22.9076 42.2047 22.9579 42.2475C23.0083 42.2903 23.0724 42.3135 23.1385 42.3127H44.3976C44.4702 42.3127 44.5399 42.2839 44.5913 42.2325C44.6427 42.1811 44.6715 42.1114 44.6715 42.0388V39.6882C44.6715 39.6156 44.6427 39.5459 44.5913 39.4945C44.5399 39.4431 44.4702 39.4143 44.3976 39.4143H25.5876C25.3486 39.4143 25.1193 39.3193 24.9503 39.1503C24.7813 38.9813 24.6863 38.752 24.6863 38.513C24.6863 38.2739 24.7813 38.0447 24.9503 37.8756C25.1193 37.7066 25.3486 37.6116 25.5876 37.6116H44.3948C44.4675 37.6116 44.5372 37.5828 44.5885 37.5314C44.6399 37.48 44.6688 37.4103 44.6688 37.3377V11.4816C44.6688 11.4089 44.6399 11.3392 44.5885 11.2878C44.5372 11.2365 44.4675 11.2076 44.3948 11.2076H5.60244C5.36339 11.2076 5.13414 11.1126 4.96511 10.9436C4.79608 10.7746 4.70112 10.5453 4.70112 10.3063C4.70112 10.0672 4.79608 9.83798 4.96511 9.66895C5.13414 9.49992 5.36339 9.40496 5.60244 9.40496H44.3948C44.4675 9.40496 44.5372 9.3761 44.5885 9.32472C44.6399 9.27334 44.6688 9.20366 44.6688 9.131V6.78045C44.6688 6.70779 44.6399 6.63811 44.5885 6.58673C44.5372 6.53535 44.4675 6.50649 44.3948 6.50649H2.0766C2.00394 6.50649 1.93426 6.53535 1.88288 6.58673C1.83151 6.63811 1.80264 6.70779 1.80264 6.78045V37.3432C1.80264 37.4158 1.83151 37.4855 1.88288 37.5369C1.93426 37.5882 2.00394 37.6171 2.0766 37.6171H6.78045C7.01759 37.62 7.24404 37.7162 7.41071 37.8849C7.57738 38.0537 7.67083 38.2813 7.67081 38.5184C7.67081 38.7575 7.57585 38.9867 7.40682 39.1558C7.23779 39.3248 7.00854 39.4198 6.76949 39.4198H2.0766C2.00394 39.4198 1.93426 39.4486 1.88288 39.5C1.83151 39.5514 1.80264 39.621 1.80264 39.6937V42.0443C1.80264 42.1169 1.83151 42.1866 1.88288 42.238C1.93426 42.2894 2.00394 42.3182 2.0766 42.3182H9.22963C9.2957 42.319 9.35981 42.2958 9.41016 42.253C9.4605 42.2102 9.49368 42.1507 9.50359 42.0854C9.7661 40.5046 10.5819 39.0687 11.8054 38.0339C13.0289 36.9991 14.5803 36.4329 16.1827 36.4364ZM51.4492 19.4345C51.3766 19.4345 51.3069 19.4634 51.2555 19.5148C51.2041 19.5662 51.1753 19.6358 51.1753 19.7085V27.9272C51.1753 27.9999 51.2041 28.0696 51.2555 28.1209C51.3069 28.1723 51.3766 28.2012 51.4492 28.2012H66.1717C66.2208 28.2011 66.2691 28.1878 66.3113 28.1627C66.3535 28.1376 66.3882 28.1016 66.4118 28.0584C66.4353 28.0153 66.4468 27.9666 66.445 27.9175C66.4433 27.8684 66.4284 27.8207 66.4018 27.7793L61.0925 19.5167C61.0678 19.4782 61.0337 19.4464 60.9935 19.4244C60.9533 19.4024 60.9082 19.3908 60.8624 19.3907C60.837 19.3867 60.8111 19.3867 60.7857 19.3907C60.7597 19.3983 60.7348 19.4094 60.7117 19.4236L51.4492 19.4345Z" fill="white"/>
<path d="M17.2676 43.2195C17.2676 42.6204 16.7818 42.1347 16.1827 42.1347C15.5835 42.1347 15.0978 42.6204 15.0978 43.2195C15.0978 43.8187 15.5835 44.3044 16.1827 44.3044C16.7818 44.3044 17.2676 43.8187 17.2676 43.2195Z" fill="white"/>
<path d="M19.7085 0H5.60246C5.10468 0 4.70114 0.403535 4.70114 0.90132C4.70114 1.39911 5.10468 1.80264 5.60246 1.80264H19.7085C20.2063 1.80264 20.6099 1.39911 20.6099 0.90132C20.6099 0.403535 20.2063 0 19.7085 0Z" fill="white"/>
<path d="M1.80264 0.90132C1.80264 0.403535 1.39911 0 0.90132 0C0.403535 0 0 0.403535 0 0.90132C0 1.39911 0.403535 1.80264 0.90132 1.80264C1.39911 1.80264 1.80264 1.39911 1.80264 0.90132Z" fill="white"/>
<path d="M57.2653 43.1757C57.2653 42.5765 56.7796 42.0908 56.1805 42.0908C55.5813 42.0908 55.0956 42.5765 55.0956 43.1757C55.0956 43.7749 55.5813 44.2606 56.1805 44.2606C56.7796 44.2606 57.2653 43.7749 57.2653 43.1757Z" fill="white"/>
</svg>
