<svg width="35" height="22" viewBox="0 0 35 22" fill="none" xmlns="http://www.w3.org/2000/svg">
<path d="M23.2508 7.77037C23.4011 7.69587 23.5315 7.58663 23.6312 7.4517C23.7309 7.31677 23.797 7.16002 23.8241 6.99445C23.9103 6.61942 23.7801 6.33233 23.5154 6.21853C23.493 6.21853 22.7645 6.15215 22.7645 6.15215L22.6326 6.1306V6.2694L22.2791 7.79278L22.2576 7.85917H22.4559C22.7236 7.90841 22.9998 7.87844 23.2508 7.77295V7.77037ZM23.4232 12.538L23.1585 13.4208C23.3087 13.3509 23.4637 13.2918 23.6223 13.244C23.7605 13.2132 23.9004 13.1911 24.0413 13.1777L24.2405 12.538H23.4232ZM25.7406 9.95587C25.8509 9.95587 26.0717 9.88949 26.1604 9.75672C26.2132 9.67313 26.2574 9.58446 26.2924 9.49204C26.3372 9.35928 26.3587 9.20495 26.4027 9.07305C26.4251 8.9627 26.4475 8.8739 26.4691 8.78596C26.4915 8.4549 26.3829 8.25575 26.1604 8.25575C25.8294 8.25575 25.6966 8.67561 25.5647 9.16098C25.5221 9.31932 25.4998 9.48241 25.4983 9.64637C25.4983 9.95587 25.6966 9.95587 25.7406 9.95587ZM15.0588 9.91104C15.1227 9.90655 15.1845 9.88603 15.2385 9.85138C15.2924 9.81672 15.3368 9.76905 15.3674 9.71275C15.5002 9.54032 15.5881 9.11702 15.6106 9.00666C15.7209 8.49887 15.7209 8.19023 15.4338 8.19023C15.1028 8.19023 14.9709 8.60922 14.8605 9.0946C14.8179 9.25293 14.7956 9.41603 14.7941 9.57998C14.8157 9.91104 15.0148 9.91104 15.0588 9.91104ZM22.3869 15.9589H23.1818L23.4025 15.183H22.6076L22.3869 15.9589ZM22.7645 14.7441C22.9149 14.6682 23.0698 14.6017 23.2283 14.545C23.3662 14.5127 23.5062 14.4908 23.6473 14.4795L23.8465 13.8389H23.0516L22.7645 14.7441ZM19.8953 13.882L20.0057 13.5734H18.8367L18.7703 13.882H19.7186C19.8514 13.882 19.8953 13.9062 19.8953 13.882ZM20.3368 12.5578H19.0789L18.9668 13.0673C19.1022 13.015 19.2431 12.978 19.3867 12.9569C19.497 12.9354 20.2488 12.9354 20.2488 12.9354L20.3368 12.5578ZM18.3539 13.9044L18.3763 13.8605L18.3539 13.9044ZM18.1995 14.5002L17.7805 15.8684C17.7366 16.0011 17.7142 16.0675 17.7581 16.1115C17.7826 16.1386 17.8118 16.1611 17.8443 16.1779L18.2409 14.5002H18.1995ZM32.3437 0.0241233H24.994C24.8924 0.00380818 24.7888 -0.00372211 24.6853 0.00170787H14.9079C14.8262 -0.00304842 14.7443 0.00450785 14.6648 0.0241233H6.65302C5.46155 0.0241233 4.27009 0.994883 4.00455 2.18635L0.0542695 19.1591C-0.210405 20.348 0.517234 21.3222 1.70956 21.3222H10.2067C10.2884 21.3269 10.3704 21.3194 10.4498 21.2998H18.8125C17.6228 21.2963 16.8977 20.329 17.1564 19.141L17.6857 16.9124H17.5995C17.4299 16.9189 17.2601 16.9114 17.0917 16.89C16.9843 16.9025 16.8758 16.8791 16.7831 16.8236C16.7167 16.7572 16.6063 16.6917 16.6063 16.6029C16.626 16.476 16.6548 16.3506 16.6925 16.2279L18.0185 11.8319H18.8573L19.1668 10.5292C18.9827 10.5271 18.7985 10.5346 18.6151 10.5516L18.5927 10.5076C18.6366 10.3085 18.6789 10.1317 18.7254 9.93345L18.791 9.66878C18.8772 9.27134 18.9677 8.78596 18.9901 8.65319C18.9901 8.56698 19.0341 8.34455 18.791 8.34455C18.6762 8.35251 18.564 8.38175 18.4599 8.43076C18.3944 8.65147 18.2875 9.2472 18.2176 9.53429C18.1073 10.1085 18.0849 10.1749 18.0452 10.4611L18.0012 10.5059C17.5598 10.5059 17.4055 10.5059 16.8977 10.5275L16.8753 10.4835C16.9615 10.13 17.052 9.77741 17.1184 9.44894C17.2696 8.86985 17.3728 8.27931 17.4271 7.68329L17.471 7.66088C17.9573 7.59449 18.0892 7.57466 18.6194 7.46259L18.6634 7.50656L18.597 7.8152C18.6832 7.77123 18.7737 7.70485 18.8617 7.66088C19.0766 7.56527 19.3077 7.51143 19.5427 7.50225C19.647 7.5047 19.7506 7.51946 19.8514 7.54621L21.1092 2.13893C21.3523 1.06127 22.3455 0.178445 23.4051 0.00170787H23.8025C22.743 0.178445 21.7498 1.06127 21.5067 2.14238L20.1609 7.90314C20.2264 8.12384 20.1609 8.43248 20.0281 8.9627L19.9617 9.27134C19.8298 9.91104 19.8074 10.0473 19.7195 10.4852L19.6746 10.5292H19.5427L19.1893 12.0526L19.322 11.9862C19.5427 11.9198 20.0057 11.8319 20.0057 11.8319H21.5291L20.9989 13.5751C20.9464 13.781 20.8567 13.9756 20.7342 14.1493C20.668 14.2512 20.5769 14.3346 20.4695 14.3915C20.3618 14.4551 20.2408 14.4928 20.1161 14.5019C20.0057 14.5019 19.8514 14.5243 19.6531 14.5243H18.5935L18.2185 16.1796L18.5271 16.1572L18.3064 16.9081H18.0418L17.5124 19.141C17.2253 20.329 17.9754 21.2963 19.1677 21.2963H27.7304C28.7899 21.1239 29.7616 20.2368 30.0262 19.1772L33.9765 2.20876C34.2636 0.994883 33.5136 0.0241233 32.3437 0.0241233ZM7.05046 10.1973C6.67543 10.418 6.10212 10.5507 5.50552 10.5507C5.04256 10.5507 4.22526 10.4844 3.93903 9.97656C3.84591 9.80016 3.80017 9.60262 3.80626 9.40324L3.91662 8.62733L3.983 8.38421L4.6227 5.60556C4.62985 5.54643 4.64463 5.48847 4.66667 5.43313C4.68908 5.45468 4.88737 5.45468 6.10125 5.45468V5.49865C5.9909 5.82971 5.37362 8.3023 5.37362 8.3023L5.26326 9.05408V9.18685C5.30723 9.56188 5.52794 9.73861 5.90296 9.73861C6.12964 9.74669 6.35081 9.66772 6.52111 9.51791C6.82975 9.27479 6.91855 8.87734 7.05046 8.32558C7.05046 8.32558 7.64619 5.61073 7.66861 5.45641C7.75482 5.47882 7.99967 5.47882 8.88249 5.47882V5.51934C8.77214 5.8504 8.13243 8.43248 8.13243 8.43248L8.06605 8.69716C7.89362 9.20495 7.71258 9.80069 7.05046 10.1981V10.1973ZM11.5335 8.96183L11.4672 9.27048C11.3352 9.91018 11.3128 10.0464 11.2249 10.4844L11.1801 10.5283H10.3179L8.30831 19.1151C8.02208 20.3066 8.77214 21.2774 9.9636 21.2774H9.50064C8.30831 21.2774 7.58067 20.3066 7.84535 19.1151L10.3395 8.36438C10.3171 8.36438 10.2947 8.34282 10.2533 8.34282C10.1452 8.34792 10.0397 8.37739 9.94463 8.42904C9.87825 8.64974 9.77221 9.24547 9.70151 9.53256C9.59116 10.1067 9.56961 10.1731 9.52909 10.4594L9.48512 10.5042C9.04371 10.5042 8.88939 10.5042 8.38159 10.5257L8.36004 10.4818C8.44625 10.1283 8.53246 9.77568 8.6023 9.44721C8.74648 8.86551 8.85701 8.27599 8.93335 7.68157L8.97732 7.65915C9.46356 7.59277 9.59547 7.57294 10.1257 7.46086L10.1696 7.50483L10.0834 7.81348C10.1696 7.76951 10.2602 7.70312 10.349 7.65915C10.4145 7.6376 10.4593 7.61519 10.5214 7.59277L11.8017 2.14152C12.0387 1.06127 13.0319 0.178445 14.0915 0.00170787H14.5544C13.4949 0.178445 12.5009 1.06127 12.2595 2.14238L11.0016 7.50225H11.0232C11.2663 7.50225 11.5085 7.56863 11.6189 7.8333C11.7292 8.07642 11.6637 8.38507 11.5327 8.95925L11.5335 8.96183ZM13.3216 8.78941C13.2768 8.9877 13.2354 9.2084 13.1888 9.40755C13.1026 9.82655 13.0561 10.0033 13.0345 10.1136C13.013 10.224 13.0121 10.2861 12.9681 10.5111L12.9457 10.5326L12.9242 10.5551H12.3284C12.1732 10.5551 12.0189 10.5551 11.7767 10.5766L11.7542 10.5551L11.7318 10.5326C11.7982 10.2904 11.8422 10.2016 11.8646 10.1136C11.9109 9.97637 11.9478 9.83609 11.975 9.69378C12.0413 9.36272 12.0853 9.14202 12.1293 8.94373C12.1471 8.75826 12.1759 8.57402 12.2155 8.39196L12.237 8.36955L12.2595 8.348C12.5241 8.30403 12.6784 8.28161 12.8552 8.26178C13.0319 8.24195 13.1906 8.19195 13.4492 8.1454V8.19195C13.4276 8.36438 13.363 8.56698 13.3173 8.78768L13.3216 8.78941ZM13.3871 7.90659C13.1009 8.10488 12.681 8.14884 12.4388 8.01694C12.1965 7.88503 12.2396 7.59708 12.525 7.39879C12.8104 7.2005 13.2311 7.15567 13.4733 7.31258C13.694 7.43931 13.6501 7.70398 13.3845 7.90314L13.3871 7.90659ZM13.763 9.0765C13.8492 8.67905 14.0053 8.28161 14.3363 7.97297C14.8002 7.55311 15.3709 7.53156 15.6166 7.53156C16.0356 7.53156 16.4115 7.61777 16.6322 7.90659C16.7865 8.10488 16.8969 8.39196 16.7425 9.05408C16.6977 9.25237 16.5701 9.73861 16.2787 10.0473C15.9037 10.4447 15.3959 10.5766 14.9105 10.5766C14.6774 10.5834 14.4451 10.546 14.226 10.4663C13.5613 10.2205 13.6716 9.49204 13.7604 9.07305L13.763 9.0765ZM17.0951 13.9975H16.0114L15.8347 14.5493H16.9382L16.7399 15.2114H15.6364L15.3709 16.0942C15.3493 16.1805 15.6364 16.2046 15.7468 16.2046L16.2985 16.1391L16.0778 16.8891H14.8191C14.7224 16.885 14.6264 16.8703 14.5329 16.8452C14.4889 16.8398 14.4471 16.8226 14.412 16.7955C14.377 16.7683 14.3499 16.7321 14.3337 16.6908C14.2978 16.6534 14.2726 16.607 14.2609 16.5565C14.2492 16.5059 14.2514 16.4531 14.2674 16.4037L14.6208 15.2114H14.0027L14.2018 14.5277H14.8191L14.9743 13.976H14.3562L14.5544 13.3354H17.2693L17.0926 13.9975H17.0951ZM17.515 12.1871L17.3159 12.8716H15.7907L15.6183 13.0035C15.5519 13.0699 15.5321 13.0483 15.4416 13.0897C15.2855 13.1741 15.1112 13.2194 14.9338 13.2216H14.4484L14.6476 12.5819H14.8019C14.8851 12.5899 14.969 12.5747 15.0441 12.538C15.1234 12.4833 15.1849 12.4065 15.2209 12.3172L15.508 11.8095H16.6115L16.4132 12.1845L17.515 12.1871ZM26.2303 7.59363C26.3859 7.6528 26.5177 7.76157 26.6053 7.90314C26.6053 7.85917 26.6269 7.83675 26.6269 7.79278L26.6717 7.77037C27.1786 7.70398 27.3114 7.68415 27.8632 7.57208L27.8856 7.61605C27.7994 8.01349 27.6864 8.41093 27.5985 8.82993C27.3993 9.66878 27.3338 10.1102 27.245 10.5542L27.201 10.5982C26.6932 10.5982 26.5389 10.5982 26.0535 10.6206L26.0311 10.5757C26.0535 10.5102 26.0535 10.4654 26.0751 10.4033C25.9238 10.5476 25.7306 10.6403 25.5233 10.668C25.3193 10.6722 25.1166 10.6346 24.9276 10.5576C24.2655 10.293 24.3758 9.56446 24.4646 9.18944C24.5509 8.79199 24.7069 8.39455 25.038 8.08591C25.4794 7.61605 26.0096 7.50225 26.2303 7.59363ZM20.3592 10.5292C20.4031 10.3749 21.198 7.10825 21.198 7.10825L21.5291 5.56331C21.5407 5.50369 21.5554 5.4447 21.5731 5.38658C21.7274 5.40899 22.1024 5.40899 23.0076 5.40899H23.3637C24.0913 5.40899 24.7095 5.43141 25.019 5.8504C25.1416 6.02404 25.2023 6.23385 25.1914 6.44614C25.1928 6.60314 25.1707 6.75947 25.1259 6.90996C25.0121 7.43686 24.7148 7.90619 24.287 8.23419C23.6689 8.69716 22.8964 8.69716 22.1903 8.69716H22.124C22.084 8.72164 22.047 8.75056 22.0136 8.78337C22.0136 8.80492 21.8412 9.46704 21.8412 9.46704C21.8412 9.46704 21.6429 10.3723 21.6205 10.5266L20.3592 10.5292ZM20.6678 15.0536C20.6238 15.1864 20.6023 15.2744 20.4954 15.3632C20.4265 15.4243 20.3462 15.4711 20.2589 15.5007C20.1717 15.5304 20.0795 15.5422 19.9876 15.5356L19.4574 15.558V16.0218C19.4574 16.1537 19.4798 16.1322 19.5022 16.1537C19.5246 16.1753 19.5462 16.1761 19.5677 16.1977H19.7402L20.248 16.1761L20.0497 16.8598H19.4755C19.078 16.8598 18.7694 16.8598 18.6806 16.7736C18.5944 16.7072 18.5703 16.6408 18.5703 16.5089L18.6151 14.6769H19.5419L19.5195 15.0519H19.7428C19.8091 15.0519 19.8755 15.0519 19.8971 15.0304C19.9243 15.0059 19.9468 14.9767 19.9635 14.9442L20.0497 14.6571H20.7773L20.667 15.0545L20.6678 15.0536ZM23.8905 16.8857H22.8973L22.9637 16.665H20.9549L21.1541 16.0029H21.3523L22.3869 12.5155L22.6076 11.8095H23.6008L23.4904 12.1629C23.6509 12.045 23.8301 11.9552 24.0206 11.8974C24.2189 11.8534 25.2561 11.8112 25.6095 11.8112H26.6907L26.7131 12.2086C26.7131 12.275 26.757 12.2948 26.8898 12.2948H27.1105L26.9114 12.9569H26.338C25.8303 13.0009 25.6535 12.7802 25.6535 12.538L25.6311 12.1405L25.5207 12.494H25.1742L24.1396 15.9365H24.4258L24.1991 16.6408H23.9129L23.8905 16.884V16.8857ZM28.327 13.8398H27.2433L27.0709 14.37H28.1528L27.9804 14.9657H26.8036L26.5829 15.208H27.0467L27.1571 15.9589C27.1683 16.0112 27.183 16.0628 27.201 16.1132C27.2787 16.1427 27.3611 16.1576 27.4442 16.1572H27.5761L27.3554 16.8857H27.0028C26.9137 16.8869 26.8248 16.8794 26.7372 16.8633C26.6269 16.8633 26.5648 16.7977 26.4725 16.7529C26.4219 16.7324 26.3771 16.6994 26.3425 16.6571C26.3078 16.6147 26.2844 16.5644 26.2743 16.5106L26.1639 15.7787L25.6337 16.5072C25.5446 16.634 25.4254 16.7367 25.2868 16.806C25.1482 16.8754 24.9946 16.9093 24.8397 16.9046H24.0888L24.2879 16.2641H24.575C24.6108 16.267 24.6468 16.2626 24.6809 16.2512C24.715 16.2397 24.7464 16.2216 24.7733 16.1977C24.8077 16.1896 24.8396 16.1734 24.8664 16.1505C24.8933 16.1275 24.9143 16.0985 24.9276 16.0658L25.7035 14.9838H24.6853L24.8578 14.3881H26.0277L26.2044 13.8587H25.0604L25.2587 13.1966H28.4589L28.327 13.8363V13.8398ZM28.5477 12.5595C28.4149 12.8026 28.1718 12.9794 27.7718 12.9794H27.1097L27.3079 12.3388H27.4407C27.4931 12.3439 27.546 12.3365 27.595 12.3172C27.6166 12.2948 27.6614 12.2733 27.6812 12.2509L27.902 11.8758C28.233 11.368 28.3218 11.1697 28.6529 10.5956C28.5865 9.95587 28.5667 9.75672 28.5201 9.33772C28.4977 9.0946 28.4537 8.82993 28.4339 8.58681C28.3675 8.07987 28.3891 8.1454 28.3235 7.81089V7.74537L28.3675 7.70054C28.8753 7.63501 28.8969 7.61432 29.4486 7.52811L29.4926 7.57208L29.559 8.98425V9.07046C29.8461 8.40835 29.8461 8.60664 30.1995 7.76778V7.74623L30.2435 7.7014C30.7289 7.63588 30.8168 7.61518 31.347 7.52897L31.391 7.57294L28.5477 12.5595Z" fill="#4767DD"/>
</svg>
