<svg width="27" height="20" viewBox="0 0 27 20" fill="none" xmlns="http://www.w3.org/2000/svg">
<path d="M26.6644 17.026C26.6202 17.21 26.5819 17.3959 26.5325 17.5779C26.1421 18.9384 24.9115 19.9428 23.4897 19.9744C21.8411 20.012 20.1924 19.9843 18.5438 19.9843C18.5133 19.9805 18.4833 19.9738 18.4541 19.9645V13.1985H23.4963C24.0061 13.1985 24.4994 13.1325 24.9471 12.8648C25.4569 12.5594 25.7385 12.1189 25.7299 11.5182C25.7233 10.9319 25.4345 10.5039 24.9227 10.25C24.6022 10.0911 24.2468 10.0007 23.9197 9.88467L24.1241 9.824C24.9768 9.57274 25.4213 8.93834 25.3177 8.11995C25.2399 7.51126 24.746 7.02524 24.012 6.88148C23.6963 6.82462 23.3759 6.79769 23.0551 6.80102C21.6234 6.79245 20.1918 6.79707 18.7601 6.79707H18.4488C18.4348 6.74787 18.4251 6.69757 18.4198 6.64671C18.4198 5.50123 18.3901 4.35442 18.435 3.21092C18.5075 1.36838 19.9517 0.0145081 21.7982 0.00989192C23.3427 0.00593515 24.8871 0.00989192 26.4322 0.00989192C26.5101 0.00989192 26.5879 0.00329731 26.6657 0L26.6644 17.026Z" fill="#4767DD"/>
<path d="M8.23403 0.0108032V0.281842C8.23403 5.70437 8.23403 11.1271 8.23403 16.5501C8.23403 18.2469 7.18351 19.5526 5.54541 19.9133C5.34179 19.9582 5.13401 19.9814 4.92552 19.9826C3.34611 19.9879 1.76736 19.9859 0.187946 19.9826C0.137168 19.9826 0.0863894 19.9773 0.0191244 19.9734V12.9969C0.515039 13.0826 1.01227 13.1835 1.51346 13.2515C2.75721 13.4203 4.00293 13.4552 5.24338 13.2271C5.48053 13.1801 5.71231 13.1092 5.93515 13.0154C7.05624 12.5584 7.54292 11.8389 7.54753 10.6334C7.55215 9.37581 7.54753 8.11822 7.54753 6.84084H4.68745V7.11386C4.68745 8.27671 4.68745 9.43934 4.68745 10.6018C4.68745 11.6852 4.04382 12.3269 2.95439 12.3447C1.94871 12.3612 1.02282 12.0651 0.137827 11.6193C0.0633083 11.5817 0.00593515 11.4294 0.00593515 11.3298C0 9.64026 0 7.94808 0 6.25656C0 5.31947 0 4.38237 0 3.44528C0.00725407 1.46426 1.45939 0.0134411 3.43843 0.0114627C4.93936 0.0114627 6.44052 0.0114627 7.94189 0.0114627L8.23403 0.0108032Z" fill="#4767DD"/>
<path d="M9.21094 7.5776V7.40284C9.21094 6.09249 9.21094 4.7828 9.21094 3.47245C9.21621 1.4334 10.6479 0.0096197 12.6916 0.00830078H17.4575V0.310994C17.4575 5.70803 17.4437 11.1051 17.4648 16.5021C17.472 18.2134 16.3747 19.5646 14.761 19.9128C14.5574 19.9561 14.3499 19.9782 14.1417 19.9788C12.5709 19.984 11.0007 19.9821 9.42988 19.9788C9.37053 19.9788 9.31118 19.9742 9.23204 19.9702V12.3343C9.81632 12.73 10.425 13.0327 11.101 13.1731C12.5036 13.4646 13.9096 13.4369 15.3149 13.1949C15.6644 13.1349 16.0106 13.0531 16.3542 12.9634C16.3918 12.9472 16.4248 12.9221 16.4505 12.8903C16.4763 12.8584 16.4939 12.8209 16.5019 12.7807C16.5151 12.3851 16.5085 11.9841 16.5085 11.5383C16.3846 11.595 16.287 11.6379 16.1913 11.6841C15.2516 12.1325 14.2697 12.3732 13.2238 12.2908C11.4241 12.1483 10.4646 10.2431 11.4261 8.70792C11.8442 8.03988 12.4964 7.77016 13.2468 7.70685C14.302 7.61783 15.2978 7.83875 16.2487 8.28982C16.3245 8.32609 16.4024 8.35576 16.5237 8.4105C16.5237 7.95349 16.5277 7.53275 16.5178 7.11268C16.5178 7.06915 16.4367 6.99991 16.3859 6.9887C14.5288 6.57786 12.6612 6.41365 10.7989 6.91352C10.2555 7.05926 9.75104 7.34679 9.21094 7.5776Z" fill="#4767DD"/>
<path d="M20.0625 12.1329V10.4183C20.7826 10.4183 21.4909 10.3926 22.1959 10.4288C22.6021 10.4499 22.8903 10.8522 22.8922 11.2749C22.8942 11.6976 22.6126 12.1012 22.2038 12.1236C21.4968 12.1619 20.7886 12.1329 20.0625 12.1329Z" fill="#4767DD"/>
<path d="M20.0625 9.41434V7.81185C20.722 7.81185 21.3735 7.79075 22.0198 7.81977C22.3653 7.83559 22.6252 8.16335 22.6529 8.51022C22.6852 8.92503 22.4893 9.24618 22.1253 9.36752C22.0521 9.39469 21.9751 9.41048 21.8971 9.41434C21.2924 9.41632 20.687 9.41434 20.0625 9.41434Z" fill="#4767DD"/>
</svg>
