<svg width="33" height="26" viewBox="0 0 33 26" fill="none" xmlns="http://www.w3.org/2000/svg">
<path d="M2.44449 22.7496C2.74641 22.419 3.10913 22.3566 3.5128 22.4419C3.73556 22.4882 3.93142 22.6197 4.05865 22.8084C4.09884 22.8656 4.12071 22.8732 4.16446 22.8122C4.50098 22.3427 5.14146 22.3409 5.51028 22.4973C5.8941 22.6601 6.08182 22.9727 6.09377 23.3759C6.11005 23.9354 6.09759 24.495 6.10166 25.0546C6.10166 25.1309 6.07266 25.1449 6.00551 25.1426C5.87426 25.1383 5.74251 25.1365 5.61151 25.1426C5.53215 25.1464 5.51231 25.1213 5.51307 25.0432C5.51689 24.5937 5.51562 24.1445 5.51307 23.6951C5.51489 23.6147 5.50979 23.5342 5.49781 23.4547C5.43727 23.1108 5.24956 22.9496 4.92093 22.9516C4.58314 22.9536 4.3415 23.1551 4.29113 23.4784C4.27812 23.5664 4.27157 23.6552 4.27155 23.7442C4.26977 24.1766 4.26901 24.609 4.27155 25.0414C4.27155 25.1159 4.2573 25.1472 4.17489 25.1431C4.04365 25.1361 3.91213 25.1361 3.78089 25.1431C3.69975 25.1472 3.6822 25.1177 3.68296 25.0414C3.68627 24.609 3.68474 24.1766 3.68449 23.7442C3.68449 23.6763 3.68449 23.6083 3.68042 23.5407C3.65931 23.1703 3.4515 22.9557 3.11523 22.9518C2.74285 22.9473 2.47679 23.1711 2.46128 23.5343C2.44424 23.9413 2.45543 24.3483 2.4506 24.7552C2.44907 24.8809 2.50528 25.0485 2.42516 25.1202C2.35572 25.1823 2.1914 25.1401 2.06906 25.1409C1.86557 25.1424 1.86557 25.1409 1.86557 24.9325C1.86557 24.157 1.86735 23.3809 1.86328 22.6057C1.86328 22.5039 1.88109 22.4597 1.993 22.4698C2.10714 22.4784 2.22175 22.4784 2.33588 22.4698C2.41753 22.4653 2.45288 22.4884 2.44373 22.5741C2.44092 22.6326 2.44117 22.6912 2.44449 22.7496Z" fill="#4767DD"/>
<path d="M30.5967 22.7678C30.5967 22.3415 30.5992 21.9269 30.5946 21.512C30.5946 21.424 30.615 21.3935 30.7058 21.3996C30.8284 21.4075 30.9515 21.4075 31.0741 21.3996C31.1621 21.394 31.1787 21.4284 31.1781 21.508C31.1751 22.0035 31.1766 22.5 31.1766 22.9947C31.1766 23.6685 31.1748 24.3428 31.1787 25.0156C31.1787 25.1115 31.1606 25.1524 31.055 25.1428C30.9324 25.135 30.8094 25.135 30.6867 25.1428C30.6142 25.1461 30.5896 25.1216 30.5957 25.0502C30.601 24.9848 30.5957 24.9187 30.5957 24.8212C30.441 24.9937 30.2823 25.1071 30.0869 25.1626C29.3346 25.3758 28.5473 24.8574 28.4369 24.075C28.3459 23.4304 28.5867 22.8767 29.0782 22.5849C29.4971 22.3359 30.1973 22.3161 30.5588 22.7548C30.5639 22.7607 30.5738 22.7607 30.5967 22.7678ZM30.6264 23.8076C30.6264 23.1908 30.0971 22.8009 29.5327 23.0018C29.1466 23.1394 28.9309 23.5797 29.0344 24.0233C29.1051 24.326 29.2768 24.5422 29.5826 24.63C30.1399 24.7897 30.6267 24.4036 30.6264 23.8079V23.8076Z" fill="#4767DD"/>
<path d="M25.1855 22.7692C25.1955 22.7562 25.1995 22.7534 25.1998 22.7501C25.2107 22.6624 25.1627 22.5449 25.2194 22.4935C25.286 22.4332 25.4053 22.4744 25.5012 22.4736C25.781 22.4708 25.781 22.4736 25.781 22.7466C25.781 23.4921 25.7767 24.2376 25.7846 24.9831C25.7861 25.1218 25.7431 25.1566 25.6159 25.1439C25.5144 25.1347 25.4122 25.1347 25.3107 25.1439C25.2196 25.1513 25.1901 25.1185 25.2006 25.0315C25.204 24.9733 25.204 24.9149 25.2006 24.8567C25.1848 24.8567 25.1736 24.8534 25.17 24.8567C24.8353 25.2189 24.4194 25.282 23.971 25.1523C23.4936 25.0144 23.196 24.6817 23.0706 24.2048C22.9614 23.79 23.0138 23.3909 23.2372 23.0195C23.6457 22.3434 24.6758 22.1804 25.1855 22.7692ZM23.619 23.791C23.6073 24.376 24.0768 24.7753 24.6211 24.6415C24.919 24.5685 25.1105 24.3785 25.1917 24.0883C25.2835 23.7576 25.2382 23.4486 24.9986 23.1897C24.7847 22.9585 24.4265 22.8895 24.1198 23.0081C23.813 23.1266 23.6263 23.4214 23.619 23.791Z" fill="#4767DD"/>
<path d="M8.80043 24.8311C8.40744 25.2447 7.95443 25.2991 7.46962 25.1144C6.96879 24.9237 6.69917 24.5327 6.63863 24.0087C6.5697 23.4095 6.75844 22.9124 7.29005 22.5843C7.68913 22.3389 8.38226 22.2977 8.78669 22.7761C8.81213 22.697 8.79966 22.6222 8.7989 22.55C8.7989 22.4894 8.81772 22.4686 8.87877 22.4704C9.01409 22.4739 9.14992 22.4762 9.28574 22.4704C9.36663 22.4663 9.38444 22.4958 9.38393 22.5721C9.38062 23.0378 9.38215 23.5038 9.38215 23.9711C9.38215 24.3272 9.38011 24.6833 9.38393 25.0394C9.38393 25.1195 9.36714 25.1516 9.2804 25.1467C9.14966 25.1391 9.0179 25.1419 8.88666 25.1467C8.82256 25.1485 8.79356 25.1325 8.79966 25.0628C8.80577 24.9931 8.80043 24.9237 8.80043 24.8311ZM8.83197 23.808C8.83044 23.3517 8.56184 23.0233 8.13859 22.9597C7.74026 22.9002 7.37958 23.1317 7.25952 23.5237C7.11301 24.0024 7.34677 24.5022 7.77714 24.6299C8.33699 24.7949 8.834 24.4076 8.83197 23.808Z" fill="#4767DD"/>
<path d="M16.8821 24.0297C16.5938 24.0297 16.3055 24.0297 16.0172 24.0297C15.8771 24.0297 15.8738 24.035 15.9193 24.1739C16.018 24.4756 16.2581 24.659 16.5807 24.6826C16.8618 24.705 17.1419 24.629 17.3732 24.4677C17.4419 24.4206 17.4762 24.4186 17.5187 24.4931C17.5707 24.5853 17.6292 24.6737 17.6937 24.7576C17.7421 24.8205 17.7309 24.8528 17.6683 24.8975C17.3376 25.1372 16.966 25.2282 16.5662 25.2071C15.9348 25.1748 15.4724 24.7983 15.3272 24.2095C15.1682 23.5657 15.3986 22.9072 15.8898 22.6032C16.7208 22.0889 17.754 22.592 17.8591 23.5632C17.8734 23.6767 17.8794 23.7911 17.8771 23.9055C17.8736 23.9964 17.8499 24.036 17.7459 24.0327C17.4584 24.0241 17.1703 24.0297 16.8821 24.0297ZM16.5896 23.5739C16.7882 23.5739 16.9871 23.5713 17.1858 23.5751C17.2621 23.5767 17.2753 23.5548 17.2588 23.4798C17.1825 23.1331 16.9421 22.9265 16.6023 22.9255C16.249 22.9242 15.9844 23.1353 15.9074 23.4744C15.8888 23.5561 15.9137 23.5762 15.9933 23.5762C16.1912 23.5711 16.3899 23.5739 16.5896 23.5739Z" fill="#4767DD"/>
<path d="M11.1974 22.4102C11.5233 22.412 11.8361 22.4689 12.1309 22.6149C12.2204 22.6595 12.2662 22.6994 12.194 22.8011C12.1384 22.886 12.0902 22.9755 12.05 23.0687C12.0185 23.1351 11.991 23.145 11.9178 23.1109C11.6153 22.9644 11.2987 22.8841 10.9591 22.9482C10.8878 22.9599 10.8205 22.9889 10.763 23.0326C10.6027 23.1598 10.6287 23.3577 10.8177 23.434C10.9886 23.5027 11.1738 23.5075 11.3518 23.5357C11.5238 23.5629 11.6942 23.595 11.8537 23.6667C12.1045 23.7794 12.2812 23.9529 12.3115 24.2421C12.3436 24.5519 12.2337 24.7999 11.9793 24.9779C11.7189 25.1601 11.4182 25.2094 11.1097 25.2097C10.7266 25.2097 10.3629 25.13 10.0327 24.9232C9.96505 24.8808 9.94775 24.8469 9.99685 24.7762C10.0603 24.6864 10.1176 24.5923 10.1683 24.4947C10.2067 24.4204 10.2372 24.4272 10.3018 24.4692C10.6483 24.689 11.027 24.7343 11.4241 24.6567C11.4736 24.6459 11.5214 24.6282 11.566 24.604C11.6634 24.5532 11.7224 24.472 11.7166 24.3591C11.711 24.2512 11.6336 24.1968 11.5433 24.1607C11.3561 24.0862 11.1552 24.0788 10.9583 24.047C10.7904 24.0198 10.6261 23.9819 10.473 23.9061C9.9536 23.6487 9.90019 22.9591 10.3748 22.6226C10.6221 22.4468 10.9044 22.4061 11.1974 22.4102Z" fill="#4767DD"/>
<path d="M13.2553 23.7482C13.2553 23.5162 13.2464 23.3249 13.2586 23.1349C13.2662 23.0154 13.223 22.9915 13.1169 23.0006C13.0108 23.0098 12.905 23.0006 12.7992 23.0034C12.7448 23.0034 12.7122 22.9986 12.715 22.9302C12.7201 22.803 12.7193 22.6758 12.715 22.5486C12.713 22.4858 12.7376 22.4693 12.7964 22.4723C12.9193 22.4759 13.0424 22.469 13.1652 22.4749C13.239 22.4784 13.2581 22.4528 13.2565 22.3818C13.2522 22.1783 13.2598 21.9748 13.2527 21.7713C13.2494 21.6777 13.2832 21.6561 13.369 21.6607C13.4917 21.6677 13.6148 21.6677 13.7375 21.6607C13.8253 21.6551 13.8439 21.6894 13.8418 21.7695C13.837 21.9687 13.8439 22.1681 13.8385 22.367C13.8365 22.4484 13.8573 22.4772 13.9436 22.4751C14.1936 22.4693 14.4436 22.4751 14.6937 22.4716C14.77 22.4716 14.8 22.4896 14.7954 22.57C14.7896 22.6843 14.7896 22.7988 14.7954 22.9131C14.799 22.9874 14.7718 23.006 14.701 23.005C14.4467 23.0012 14.1923 23.0065 13.938 23.0019C13.8596 23.0004 13.8362 23.0228 13.838 23.1016C13.8421 23.4702 13.8362 23.8393 13.8411 24.2076C13.8459 24.5759 14.0303 24.7163 14.3951 24.64C14.4782 24.6224 14.5627 24.6039 14.6347 24.5599C14.7303 24.5016 14.7618 24.5365 14.784 24.6318C14.8077 24.7306 14.8404 24.8269 14.8819 24.9195C14.9147 24.9935 14.8872 25.0256 14.8254 25.0559C14.492 25.2181 14.145 25.2614 13.7887 25.1551C13.4659 25.0584 13.3224 24.8119 13.2759 24.4937C13.2382 24.2325 13.2634 23.9692 13.2553 23.7482Z" fill="#4767DD"/>
<path d="M21.8364 22.4103C22.1275 22.4059 22.4122 22.4958 22.6481 22.6664C22.7086 22.7092 22.7244 22.7407 22.6789 22.8063C22.6115 22.9039 22.5507 23.0059 22.497 23.1116C22.4591 23.1861 22.4283 23.1813 22.364 23.1398C22.148 23.0012 21.9105 22.9264 21.6518 22.959C21.1924 23.0167 20.8973 23.4069 20.9436 23.8833C21.0009 24.4714 21.4778 24.7883 22.0519 24.6209C22.1414 24.5955 22.2343 24.5673 22.3062 24.5093C22.4161 24.4213 22.4828 24.4375 22.5336 24.5675C22.559 24.6207 22.5887 24.6718 22.6224 24.7201C22.731 24.9025 22.731 24.9025 22.5436 25.0152C21.7866 25.47 20.719 25.1424 20.4375 24.3508C20.1086 23.4262 20.6196 22.3963 21.8364 22.4103Z" fill="#4767DD"/>
<path d="M19.0474 22.7954C19.3201 22.4062 19.6703 22.3615 20.0618 22.4464C20.1381 22.463 20.1663 22.4935 20.134 22.5759C20.0881 22.6939 20.049 22.8144 20.017 22.9368C19.9962 23.0131 19.9601 23.0274 19.8921 22.9969C19.8646 22.9862 19.8358 22.9791 19.8064 22.9758C19.3231 22.8995 19.0581 23.1179 19.0528 23.6094C19.0477 24.0832 19.0489 24.5576 19.0528 25.0315C19.0528 25.1197 19.0327 25.1493 18.9419 25.1437C18.8111 25.1355 18.6796 25.1391 18.5484 25.1437C18.4878 25.1452 18.4688 25.1246 18.4688 25.0638C18.4706 24.2256 18.4706 23.3874 18.4688 22.5492C18.4688 22.4848 18.4942 22.4714 18.5522 22.4729C18.6834 22.4757 18.8149 22.479 18.9459 22.4716C19.0334 22.4668 19.0568 22.5004 19.0477 22.5805C19.0428 22.638 19.0474 22.6965 19.0474 22.7954Z" fill="#4767DD"/>
<path d="M27.1189 22.7544C27.3936 22.4105 27.7393 22.3627 28.128 22.4441C28.2183 22.4629 28.2501 22.5003 28.2043 22.5878C28.1929 22.615 28.1836 22.6431 28.1766 22.6717C28.1407 22.7801 28.1338 22.9192 28.0608 22.9879C27.9878 23.0566 27.8601 22.9624 27.7533 22.9571C27.3972 22.9378 27.1533 23.1336 27.1393 23.4979C27.1212 23.9672 27.1299 24.4372 27.1268 24.907C27.1246 24.9494 27.1246 24.9918 27.1268 25.0342C27.1342 25.1105 27.1154 25.1502 27.0251 25.1441C26.894 25.1373 26.7627 25.1373 26.6316 25.1441C26.5632 25.1466 26.5466 25.1222 26.5469 25.0571C26.5487 24.2274 26.5487 23.3976 26.5469 22.5679C26.5469 22.4855 26.5756 22.4685 26.6486 22.4718C26.7712 22.4774 26.8943 22.4774 27.0169 22.4718C27.0932 22.4682 27.1263 22.4886 27.1187 22.5695C27.1136 22.63 27.1189 22.6923 27.1189 22.7544Z" fill="#4767DD"/>
<path d="M12.65 10.1064C12.65 6.9351 14.1182 4.10663 16.412 2.26355C14.6188 0.796481 12.3724 -0.00346227 10.0556 1.12646e-05C4.50215 1.12646e-05 0 4.50216 0 10.0556C0 15.609 4.50215 20.1114 10.0556 20.1114C12.3448 20.1149 14.5661 19.3339 16.3494 17.8985C14.0915 16.0546 12.65 13.249 12.65 10.1064Z" fill="#4767DD"/>
<path d="M22.708 0.0512806C20.4188 0.0478723 18.1975 0.828876 16.4141 2.2642C18.6718 4.1083 20.1135 6.91388 20.1135 10.0562C20.1135 13.2278 18.6454 16.0563 16.3516 17.8991C18.1447 19.3664 20.3911 20.1664 22.708 20.1629C28.2614 20.1629 32.7635 15.6608 32.7635 10.1071C32.7635 4.55343 28.2614 0.0512806 22.708 0.0512806Z" fill="#4767DD"/>
<path d="M20.1098 10.0554C20.1098 6.91309 18.6683 4.10752 16.4104 2.26367C14.1166 4.10675 12.6484 6.93522 12.6484 10.1066C12.6484 13.2492 14.0901 16.0547 16.3478 17.8986C18.6429 16.0555 20.1098 13.2265 20.1098 10.0554Z" fill="white"/>
</svg>
