<svg width="53" height="15" viewBox="0 0 53 15" fill="none" xmlns="http://www.w3.org/2000/svg">
<path d="M18.9155 7.44587C18.9155 9.76368 18.905 12.0815 18.926 14.3993C18.926 14.8207 18.8207 14.9345 18.3993 14.9261C17.1708 14.8987 15.9413 14.8945 14.7118 14.9261C14.2493 14.9387 14.1692 14.7754 14.1724 14.3572C14.1914 11.8466 14.1819 9.33699 14.1819 6.82743C14.1903 6.72224 14.1903 6.61655 14.1819 6.51137C14.1608 6.3723 14.2746 6.15843 14.0439 6.1205C13.7889 6.07836 13.7963 6.31962 13.7489 6.47238C13.4971 7.27519 13.2526 8.08116 13.0114 8.88502C12.4456 10.7287 11.8704 12.5725 11.3257 14.4172C11.213 14.7986 11.0433 14.944 10.6325 14.925C9.86231 14.8882 9.08795 14.8903 8.31464 14.925C7.91429 14.9419 7.74467 14.8197 7.62562 14.4257C6.8344 11.8013 6.02106 9.19266 5.21614 6.57879C5.18032 6.46185 5.14029 6.34596 5.10025 6.23007C5.08641 6.18771 5.05683 6.15228 5.01762 6.13111C4.9784 6.10993 4.93256 6.10463 4.88954 6.11628C4.77787 6.12787 4.75258 6.21426 4.74837 6.30276C4.74099 6.44288 4.74837 6.58406 4.74837 6.72418C4.74837 9.28642 4.73994 11.8497 4.75574 14.4151C4.75574 14.7965 4.67251 14.9335 4.26268 14.925C2.99842 14.8976 1.73415 14.9082 0.46989 14.925C0.153824 14.925 -0.00104821 14.8797 5.33875e-06 14.5036C0.0119456 9.8125 0.0119456 5.12349 5.33875e-06 0.43658C5.33875e-06 0.126836 0.0779683 0.00146293 0.412998 0.0088378C1.83424 0.0256946 3.25654 0.00146293 4.67778 0.0214804C6.00526 0.0383373 6.97136 0.791627 7.34538 2.07169C7.96592 4.19144 8.57698 6.31435 9.19436 8.43515C9.23966 8.59002 9.20911 8.82075 9.46723 8.81549C9.72535 8.81022 9.69269 8.57843 9.73905 8.42988C10.3417 6.3593 10.9387 4.28732 11.5301 2.21392C11.9515 0.73895 12.8934 0.022534 14.4116 0.0162127C15.7106 0.0162127 17.0096 0.0341231 18.3097 0.00462359C18.7733 -0.00591194 18.9355 0.0952291 18.9292 0.599881C18.8986 2.88188 18.9155 5.16387 18.9155 7.44587Z" fill="#4767DD"/>
<path d="M35.7833 7.44383C35.7833 9.76164 35.7728 12.0795 35.7928 14.3973C35.7928 14.8124 35.6874 14.9304 35.266 14.9241C34.0544 14.8967 32.8428 14.8935 31.6312 14.9241C31.1782 14.9356 31.0349 14.8324 31.0402 14.3509C31.0665 11.8224 31.0528 9.29387 31.0528 6.76534C31.0528 6.64207 31.0528 6.51881 31.0528 6.3966C31.0528 6.27438 31.0866 6.13742 30.9043 6.11108C30.7494 6.08896 30.6883 6.19748 30.6356 6.31126C30.3786 6.86894 30.1219 7.42662 29.8655 7.9843C29.0732 9.7037 28.2736 11.421 27.4908 13.1467C26.944 14.352 26.0158 14.9241 24.7031 14.9146C23.5969 14.9072 22.4906 14.903 21.3844 14.9198C21.0599 14.9198 20.9208 14.8608 20.9219 14.491C20.9345 9.80273 20.9345 5.11477 20.9219 0.427168C20.9219 0.100567 21.0272 0.00574681 21.3433 0.0110146C22.6423 0.0268179 23.9424 0.0310321 25.2414 0.0110146C25.6155 0.00469326 25.6629 0.156405 25.6629 0.475631C25.6523 3.03892 25.6565 5.60222 25.6565 8.16657C25.6565 8.28983 25.6502 8.4131 25.6565 8.53531C25.6629 8.65752 25.6144 8.79554 25.804 8.81766C25.9526 8.83557 26.0221 8.7555 26.079 8.63013C26.2813 8.18237 26.492 7.73882 26.6975 7.29212C27.5403 5.46104 28.3937 3.63313 29.226 1.79573C29.7791 0.585201 30.702 0.00680036 32.0158 0.0141752C33.0873 0.0204965 34.1587 0.0457818 35.2281 0.0015326C35.7222 -0.0184849 35.797 0.156405 35.7928 0.595736C35.7717 2.87878 35.7833 5.16289 35.7833 7.44383Z" fill="#4767DD"/>
<path d="M42.9494 0.0100959C44.5624 0.0100959 46.1765 -0.0141358 47.7884 0.0153636C50.9417 0.0743626 53.2785 2.81887 52.9698 5.76039C52.9361 6.08804 52.8444 6.21131 52.4988 6.2092C49.6227 6.19129 46.7465 6.22711 43.8713 6.17654C40.7359 6.12176 37.9977 3.63748 37.5816 0.577961C37.5258 0.167075 37.5668 -0.00254675 38.0567 0.00798878C39.6866 0.042756 41.3228 0.0206314 42.9494 0.0206314V0.0100959Z" fill="#4767DD"/>
<path d="M45.2527 7.08766H52.1503C52.7877 7.08766 52.8014 7.09609 52.4558 7.66185C51.3074 9.54244 49.5712 10.4306 47.4156 10.497C45.9406 10.5454 44.4657 10.5212 42.996 10.497C42.603 10.4906 42.4892 10.5949 42.4987 10.9921C42.5261 12.151 42.4987 13.3099 42.5155 14.4689C42.5219 14.8113 42.4281 14.924 42.0773 14.9187C40.7793 14.8998 39.4799 14.8998 38.1791 14.9187C37.8188 14.925 37.7451 14.7955 37.7461 14.4636C37.7587 12.1658 37.764 9.86799 37.7461 7.57019C37.7461 7.16035 37.8736 7.07923 38.2529 7.08134C40.5865 7.09503 42.9201 7.08766 45.2527 7.08766Z" fill="#4767DD"/>
</svg>
