<svg width="48" height="16" viewBox="0 0 48 16" fill="none" xmlns="http://www.w3.org/2000/svg">
<path d="M34.1328 15.2411C34.1603 15.1657 34.1795 15.1092 34.2033 15.0527C36.1037 10.5211 38.0047 5.98946 39.9064 1.45786C40.2395 0.663528 40.8138 0.282566 41.6774 0.281813C42.682 0.281813 43.687 0.284827 44.692 0.279175C44.8382 0.279175 44.8924 0.319494 44.9233 0.467583C45.7599 4.49576 46.6002 8.52305 47.4442 12.5495C47.6251 13.4136 47.8069 14.2777 47.9895 15.1416C47.9948 15.1649 47.9952 15.1891 48.0004 15.2365C47.9273 15.2418 47.8618 15.2509 47.7962 15.2509C46.7475 15.2509 45.6988 15.2478 44.6501 15.2569C44.4881 15.2569 44.4339 15.2015 44.4048 15.0545C44.2824 14.4339 44.1475 13.8156 44.0239 13.1953C43.9967 13.0578 43.9485 12.9986 43.7921 12.9994C42.2477 13.0057 40.7027 13.0057 39.1573 12.9994C39.0175 12.9994 38.9621 13.051 38.918 13.1754C38.6919 13.819 38.4526 14.4592 38.2235 15.1024C38.1859 15.2038 38.1455 15.255 38.0265 15.2531C36.7577 15.2494 35.4894 15.2509 34.2206 15.2505C34.1912 15.249 34.1619 15.2459 34.1328 15.2411ZM40.0888 9.95206H43.3392C42.9473 8.07589 42.5596 6.21743 42.1711 4.35897L42.1202 4.35181C41.4453 6.21253 40.7704 8.07288 40.0888 9.95206Z" fill="#4767DD"/>
<path d="M0 0.688056L0.0832765 0.273557H0.314642C2.34945 0.273557 4.38426 0.301442 6.41908 0.26376C7.58721 0.242281 8.31409 0.893421 8.51531 2.00805C9.01459 4.772 9.5459 7.5303 10.0648 10.2909C10.0727 10.3331 10.0881 10.3741 10.1111 10.454C10.1514 10.3662 10.1808 10.3105 10.2038 10.252C11.4903 7.00062 12.7764 3.74806 14.0621 0.494372C14.1269 0.329703 14.2018 0.270543 14.3823 0.27205C15.5818 0.28147 16.7812 0.276948 17.9809 0.277325H18.207C18.0887 0.561445 17.9809 0.820318 17.8728 1.07881C15.9179 5.74456 13.9633 10.4107 12.0092 15.0772C11.9538 15.2094 11.8912 15.2656 11.7363 15.2637C10.5181 15.2558 9.29946 15.2539 8.08121 15.2656C7.8815 15.2675 7.81744 15.2004 7.77109 15.0199C6.76876 11.1226 5.76266 7.2262 4.75279 3.33067C4.71699 3.19125 4.67743 3.05296 4.63372 2.91617C4.57857 2.7257 4.48553 2.54831 4.36017 2.39466C4.23482 2.24101 4.07973 2.11425 3.9042 2.02199C3.085 1.57056 2.20325 1.2838 1.31057 1.02832C0.883635 0.906233 0.45218 0.804492 0 0.688056Z" fill="#4767DD"/>
<path d="M35.0011 0.677597C34.7751 1.73093 34.5529 2.76466 34.3346 3.7788C33.8104 3.61677 33.3111 3.4325 32.7971 3.30966C31.8988 3.09563 30.9843 3.01273 30.0784 3.25163C29.7773 3.33334 29.4955 3.47425 29.2494 3.66613C28.7339 4.07196 28.7038 4.68806 29.1846 5.13157C29.4861 5.40853 29.8437 5.62935 30.1967 5.84074C30.9602 6.2982 31.7586 6.69951 32.5017 7.18635C33.3134 7.71767 33.9498 8.42985 34.165 9.40957C34.5128 10.9922 34.1243 12.3974 33.0108 13.5779C32.1686 14.4691 31.0905 14.948 29.9171 15.2227C28.4668 15.5619 27.007 15.5457 25.543 15.315C24.8226 15.202 24.1172 15.0385 23.4329 14.7792C23.2821 14.7219 23.2411 14.6586 23.2788 14.4906C23.4939 13.5308 23.6933 12.5688 23.8982 11.6049C23.9099 11.5503 23.9273 11.4968 23.9359 11.467C24.497 11.675 25.0445 11.915 25.6131 12.0812C26.5981 12.3687 27.6072 12.4667 28.6277 12.2967C29.0912 12.2214 29.5271 12.0635 29.8768 11.7315C30.3561 11.2744 30.3833 10.6071 29.9345 10.1146C29.5727 9.71781 29.1055 9.46798 28.6356 9.22795C27.926 8.86583 27.2082 8.51953 26.5699 8.03457C25.8569 7.49233 25.2487 6.86003 24.9944 5.97828C24.6304 4.71406 24.8934 3.53952 25.6297 2.47388C26.3916 1.37132 27.4923 0.732612 28.7524 0.371245C30.8271 -0.223372 32.8816 -0.0809353 34.9062 0.635017C34.9345 0.643683 34.9616 0.658756 35.0011 0.677597Z" fill="#4767DD"/>
<path d="M16.6875 15.2602C17.7607 10.2523 18.8274 5.27456 19.895 0.290405H23.7509C23.6756 0.65328 23.6002 1.00108 23.5279 1.34851L21.0951 12.7242C20.9286 13.5024 20.7598 14.2801 20.5989 15.0605C20.5691 15.2052 20.5212 15.2651 20.3569 15.2636C19.2016 15.2549 18.0463 15.2595 16.8902 15.2595L16.6875 15.2602Z" fill="#4767DD"/>
</svg>
